<svg width="140" height="84" viewBox="0 0 140 84" fill="none" xmlns="http://www.w3.org/2000/svg">
<g clip-path="url(#clip0_253_712)">
<path d="M127.472 35.4194L123.935 43.7872L132.577 51.0223C132.867 51.2646 132.884 51.6756 132.615 51.9407C132.346 52.2057 131.894 52.2241 131.604 51.9818L122.962 44.7466L114.071 48.6335C113.801 48.7511 113.646 49.0048 113.663 49.2632C113.672 49.3926 113.723 49.5164 113.81 49.6187C113.897 49.721 114.015 49.7971 114.151 49.8373L137.433 56.7821C137.563 56.8206 137.703 56.8241 137.836 56.7922C137.969 56.7603 138.09 56.6944 138.183 56.6022C138.375 56.4146 138.427 56.1413 138.319 55.9081L128.799 35.3927C128.744 35.2734 128.651 35.1722 128.532 35.1019C128.412 35.0316 128.272 34.9954 128.13 34.9981C127.987 35.001 127.848 35.0426 127.731 35.1177C127.614 35.1928 127.524 35.2979 127.472 35.4194Z" fill="white"/>
</g>
<path d="M3.33234 70.0242C0.0843219 25.2444 63.9291 -19.4976 119.044 36.2527" stroke="url(#paint0_linear_253_712)" stroke-width="2" stroke-dasharray="6 6"/>
<defs>
<linearGradient id="paint0_linear_253_712" x1="-8.50013" y1="62.8577" x2="117.584" y2="44.6544" gradientUnits="userSpaceOnUse">
<stop stop-color="white" stop-opacity="0.21"/>
<stop offset="0.52242" stop-color="white" stop-opacity="0.728006"/>
<stop offset="1" stop-color="white"/>
</linearGradient>
<clipPath id="clip0_253_712">
<rect width="22.1862" height="24.4114" fill="white" transform="translate(137.498 34.6161) rotate(87.6682)"/>
</clipPath>
</defs>
</svg>
