<svg width="542" height="542" viewBox="0 0 542 542" fill="none" xmlns="http://www.w3.org/2000/svg">
<g clip-path="url(#clip0_35_133)">
<path d="M63.7099 201.47L77.2198 191.363L71.9831 171.82C71.8078 171.166 72.1959 170.493 72.8504 170.318C73.5049 170.143 74.1772 170.531 74.3526 171.185L79.5891 190.729L96.3421 192.726C96.8512 192.788 97.3301 192.526 97.5643 192.097C97.6816 191.882 97.732 191.637 97.709 191.393C97.6861 191.15 97.5908 190.918 97.4355 190.729L70.7417 158.132C70.592 157.95 70.393 157.815 70.1687 157.743C69.9443 157.671 69.704 157.665 69.4764 157.726C69.0102 157.849 68.6611 158.238 68.5834 158.71L61.7646 200.287C61.7247 200.529 61.7578 200.776 61.8598 200.999C61.9618 201.222 62.1279 201.409 62.3369 201.536C62.5462 201.663 62.7888 201.725 63.0336 201.713C63.2783 201.701 63.5139 201.617 63.7099 201.47Z" fill="#FF930F"/>
</g>
<path d="M504.368 278.541C436.391 434.138 156.765 474.879 80.2399 193.829" stroke="url(#paint0_linear_35_133)" stroke-width="2" stroke-dasharray="6 6"/>
<defs>
<linearGradient id="paint0_linear_35_133" x1="529.187" y1="322.787" x2="99.4002" y2="168.517" gradientUnits="userSpaceOnUse">
<stop stop-color="#FF930F" stop-opacity="0.21"/>
<stop offset="0.52242" stop-color="#FF930F" stop-opacity="0.728006"/>
<stop offset="1" stop-color="#FF930F"/>
</linearGradient>
<clipPath id="clip0_35_133">
<rect width="41.8705" height="41.8705" fill="white" transform="translate(48.4092 193.496) rotate(-60)"/>
</clipPath>
</defs>
</svg>
