<svg width="32" height="32" viewBox="0 0 32 32" fill="none" xmlns="http://www.w3.org/2000/svg">
<path d="M29.3126 10.3679C29.3126 6.27186 25.9846 2.94386 21.8886 2.94386H21.1206C19.8406 1.79186 18.1766 1.15186 16.3846 1.15186C14.4646 1.15186 12.6726 1.91986 11.2646 3.19986C10.8806 3.19986 10.4966 3.07186 10.1126 3.07186C6.91262 3.07186 3.96863 5.24786 3.07263 8.31986C1.53663 9.47186 0.640625 11.2639 0.640625 13.0559C0.640625 15.3599 1.92062 17.4079 3.96862 18.4319C4.73662 21.2479 7.29663 23.1679 10.3686 23.1679C11.0086 23.1679 11.6486 23.0399 12.1606 22.9119L16.7686 29.3119C17.2806 30.0799 18.0486 30.4639 18.9446 30.4639C19.2006 30.4639 19.4566 30.4639 19.8406 30.3359C20.9926 29.9519 21.6326 28.9279 21.6326 27.7759V26.1119C22.7846 26.3679 24.0646 26.3679 25.3446 25.8559C27.9046 24.9599 29.5686 22.5279 29.5686 19.8399C30.7206 18.6879 31.3606 17.0239 31.3606 15.3599C31.3606 13.5679 30.5926 11.7759 29.3126 10.6239V10.3679ZM18.3046 20.7359C18.3046 21.3759 17.7926 22.0159 17.0246 22.0159C16.3846 22.0159 15.7446 21.3759 15.7446 20.7359C15.7446 19.9679 16.3846 19.4559 17.0246 19.4559C17.7926 19.4559 18.3046 19.9679 18.3046 20.7359ZM18.3046 14.9759V16.2559C18.3046 16.8959 17.7926 17.5359 17.0246 17.5359C16.2566 17.5359 15.7446 16.8959 15.7446 16.2559V13.8239C15.7446 13.1839 16.2566 12.5439 17.0246 12.5439C18.0486 12.5439 18.9446 11.6479 18.9446 10.6239C18.9446 9.59986 18.0486 8.70386 17.0246 8.70386C16.0006 8.70386 15.1046 9.59986 15.1046 10.6239C15.1046 11.2639 14.5926 11.9039 13.8246 11.9039C13.0566 11.9039 12.5446 11.2639 12.5446 10.6239C12.5446 8.19186 14.5926 6.14386 17.0246 6.14386C19.4566 6.14386 21.5046 8.19186 21.5046 10.6239C21.5046 12.6719 20.2246 14.3359 18.3046 14.9759Z" fill="black"/>
</svg>
