<svg width="32" height="32" viewBox="0 0 32 32" fill="none" xmlns="http://www.w3.org/2000/svg">
<g clip-path="url(#clip0_195_1938)">
<path d="M32 16C32 17.3424 29.8453 18.3838 29.5143 19.6219C29.1719 20.903 30.5072 22.8802 29.8582 24.0018C29.2 25.1395 26.814 24.9674 25.8907 25.8907C24.9673 26.8141 25.1395 29.2 24.0018 29.8583C22.8802 30.5072 20.903 29.172 19.6219 29.5144C18.3838 29.8453 17.3424 32 16 32C14.6576 32 13.6162 29.8453 12.3781 29.5143C11.0971 29.1719 9.11982 30.5072 7.99819 29.8582C6.86046 29.2 7.03267 26.814 6.1093 25.8907C5.18592 24.9673 2.80002 25.1395 2.14173 24.0018C1.49284 22.8802 2.82806 20.903 2.48565 19.6219C2.15477 18.3838 0 17.3424 0 16C0 14.6576 2.15477 13.6162 2.48569 12.3781C2.82806 11.097 1.49284 9.11978 2.14177 7.99816C2.80002 6.86047 5.18597 7.03263 6.10934 6.10926C7.03271 5.18589 6.86051 2.80003 7.99824 2.14173C9.11986 1.49279 11.0971 2.82802 12.3781 2.48561C13.6162 2.15473 14.6576 0 16 0C17.3425 0 18.3838 2.15473 19.6219 2.48565C20.903 2.82807 22.8802 1.49279 24.0018 2.14177C25.1395 2.80003 24.9673 5.18598 25.8907 6.1093C26.8141 7.03268 29.2 6.86047 29.8583 7.9982C30.5072 9.11983 29.1719 11.097 29.5143 12.3781C29.8453 13.6162 32 14.6576 32 16Z" fill="#231F20"/>
<path d="M8.74161 18.7924H7.67849C7.5139 18.7924 7.43164 18.7101 7.43164 18.5455V14.1014C7.43164 13.9368 7.5139 13.8545 7.67849 13.8545H10.7373C10.9019 13.8545 10.9842 13.9368 10.9842 14.1014V14.9175C10.9842 15.0821 10.9019 15.1644 10.7373 15.1644H8.98842V15.8777H10.1818C10.3464 15.8777 10.4287 15.96 10.4287 16.1246V16.9475C10.4287 17.1122 10.3464 17.1945 10.1818 17.1945H8.98842V18.5455C8.98842 18.7101 8.9062 18.7924 8.74161 18.7924ZM12.9731 18.7924H11.9169C11.7523 18.7924 11.6701 18.7101 11.6701 18.5455V14.1014C11.6701 13.9368 11.7523 13.8545 11.9169 13.8545H14.2007C14.5437 13.8545 14.8134 13.9025 15.01 13.9985C15.2065 14.0945 15.3461 14.2283 15.4284 14.3997C15.5107 14.5711 15.5518 14.7712 15.5518 14.9998V15.3153C15.5518 15.5073 15.5244 15.6697 15.4695 15.8022C15.4146 15.9349 15.314 16.0332 15.1677 16.0971C15.4191 16.1246 15.6204 16.2252 15.7713 16.3989C15.9221 16.5727 15.9976 16.8035 15.9976 17.0916V18.5455C15.9976 18.7101 15.9153 18.7924 15.7507 18.7924H14.6877C14.5231 18.7924 14.4408 18.7101 14.4408 18.5455V17.4962C14.4408 17.3911 14.4213 17.3156 14.3825 17.2699C14.3436 17.2242 14.2762 17.2013 14.1802 17.2013H13.22V18.5455C13.22 18.7101 13.1377 18.7924 12.9731 18.7924ZM13.22 15.089V15.9668H13.7344C13.8532 15.9668 13.9332 15.936 13.9744 15.8742C14.0155 15.8125 14.0362 15.736 14.0362 15.6445V15.4113C14.0362 15.3199 14.0155 15.2433 13.9744 15.1816C13.9332 15.1198 13.8532 15.089 13.7344 15.089H13.22ZM20.1948 18.7924H17.0126C16.848 18.7924 16.7657 18.7101 16.7657 18.5455V14.1014C16.7657 13.9368 16.848 13.8545 17.0126 13.8545H20.1948C20.3594 13.8545 20.4417 13.9368 20.4417 14.1014V14.9038C20.4417 15.0684 20.3594 15.1507 20.1948 15.1507H18.3019V15.6788H19.6393C19.8039 15.6788 19.8862 15.7611 19.8862 15.9257V16.6595C19.8862 16.8241 19.8039 16.9064 19.6393 16.9064H18.302V17.4962H20.1948C20.3594 17.4962 20.4417 17.5785 20.4417 17.7431V18.5455C20.4417 18.7101 20.3594 18.7924 20.1948 18.7924ZM24.6801 18.7924H21.4978C21.3332 18.7924 21.251 18.7101 21.251 18.5455V14.1014C21.251 13.9368 21.3332 13.8545 21.4978 13.8545H24.6801C24.8447 13.8545 24.927 13.9368 24.927 14.1014V14.9038C24.927 15.0684 24.8447 15.1507 24.6801 15.1507H22.7872V15.6788H24.1246C24.2892 15.6788 24.3715 15.7611 24.3715 15.9257V16.6595C24.3715 16.8241 24.2892 16.9064 24.1246 16.9064H22.7872V17.4962H24.6801C24.8447 17.4962 24.927 17.5785 24.927 17.7431V18.5455C24.927 18.7101 24.8447 18.7924 24.6801 18.7924H24.6801Z" fill="white"/>
</g>
<defs>
<clipPath id="clip0_195_1938">
<rect width="32" height="32" fill="white"/>
</clipPath>
</defs>
</svg>
