<svg width="32" height="32" viewBox="0 0 32 32" fill="none" xmlns="http://www.w3.org/2000/svg">
<g clip-path="url(#clip0_195_1924)">
<path d="M16 0C7.2 0 0 7.2 0 16C0 24.8 7.2 32 16 32C24.8 32 32 24.8 32 16C32 7.2 24.8 0 16 0ZM16 26.6667C15.2 26.6667 14.6667 26.1333 14.6667 25.3333V25.2C12.5333 24.6667 10.8 22.9333 10.6667 20.1333C10.6667 19.3333 11.2 18.8 12 18.8C12.8 18.8 13.3333 19.3333 13.3333 20.1333C13.3333 22.1333 14.8 22.8 16 22.8C17.2 22.8 18.6667 22.1333 18.6667 20.1333C18.6667 18.6667 17.4667 17.4667 16 17.4667C13.0667 17.4667 10.6667 15.0667 10.6667 12.1333C10.8 9.2 12.5333 7.46667 14.6667 6.93333V6.66667C14.6667 5.86667 15.2 5.33333 16 5.33333C16.8 5.33333 17.3333 5.86667 17.3333 6.66667V6.8C19.4667 7.33333 21.2 9.06667 21.3333 11.8667C21.3333 12.6667 20.8 13.2 20 13.2C19.3333 13.2 18.6667 12.6667 18.6667 11.8667C18.6667 9.86667 17.2 9.2 16 9.2C14.8 9.2 13.3333 9.86667 13.3333 11.8667C13.3333 13.3333 14.5333 14.5333 16 14.5333C18.9333 14.5333 21.3333 16.9333 21.3333 19.8667C21.2 22.8 19.4667 24.5333 17.3333 25.0667V25.3333C17.3333 26.1333 16.8 26.6667 16 26.6667Z" fill="black"/>
</g>
<defs>
<clipPath id="clip0_195_1924">
<rect width="32" height="32" fill="white"/>
</clipPath>
</defs>
</svg>
