<svg width="36" height="36" viewBox="0 0 36 36" fill="none" xmlns="http://www.w3.org/2000/svg">
<path d="M33.2902 15.9845L31.1141 13.4571C30.698 12.9773 30.362 12.0815 30.362 11.4416V8.72232C30.362 7.02674 28.9699 5.63509 27.2738 5.63509H24.5536C23.9296 5.63509 23.0175 5.29918 22.5375 4.88328L20.0094 2.70782C18.9053 1.76406 17.0972 1.76406 15.9771 2.70782L13.465 4.89928C12.9849 5.29918 12.0729 5.63509 11.4488 5.63509H8.68066C6.98455 5.63509 5.59247 7.02674 5.59247 8.72232V11.4576C5.59247 12.0815 5.25645 12.9773 4.85642 13.4571L2.69629 16.0005C1.76823 17.1042 1.76823 18.8958 2.69629 19.9995L4.85642 22.5429C5.25645 23.0227 5.59247 23.9185 5.59247 24.5424V27.2777C5.59247 28.9733 6.98455 30.3649 8.68066 30.3649H11.4488C12.0729 30.3649 12.9849 30.7008 13.465 31.1167L15.9931 33.2922C17.0972 34.2359 18.9053 34.2359 20.0254 33.2922L22.5535 31.1167C23.0336 30.7008 23.9296 30.3649 24.5696 30.3649H27.2898C28.9859 30.3649 30.378 28.9733 30.378 27.2777V24.5584C30.378 23.9345 30.714 23.0227 31.1301 22.5429L33.3062 20.0155C34.2342 18.9118 34.2342 17.0882 33.2902 15.9845ZM24.6497 14.9768L16.9212 22.7028C16.6962 22.9275 16.3911 23.0537 16.0731 23.0537C15.7551 23.0537 15.4501 22.9275 15.2251 22.7028L11.3528 18.8318C10.8888 18.3679 10.8888 17.6001 11.3528 17.1362C11.8169 16.6723 12.5849 16.6723 13.0489 17.1362L16.0731 20.1595L22.9535 13.2812C23.4176 12.8173 24.1856 12.8173 24.6497 13.2812C25.1137 13.7451 25.1137 14.5129 24.6497 14.9768Z" fill="#3730A3"/>
</svg>
