<svg width="36" height="36" viewBox="0 0 36 36" fill="none" xmlns="http://www.w3.org/2000/svg">
<path d="M33.0088 22.561C31.5503 21.9373 29.8884 22.0858 28.5634 22.9584C27.433 23.7029 26.1457 24.0867 24.8296 24.0867C24.3065 24.0862 23.7852 24.0263 23.2756 23.9081C21.4395 23.4841 19.8997 22.3575 18.9398 20.7358L17.1614 17.7315L11.9441 12.5141C10.5207 11.0908 9.66022 9.25465 9.47382 7.27563C7.58342 8.50799 5.98111 10.1337 4.77624 12.0417C4.61905 12.2909 4.46897 12.5446 4.32617 12.8023L9.72118 14.9232C12.6917 16.091 14.4457 19.2202 13.8916 22.3636L13.7323 23.2676C13.62 23.9068 13.6433 24.5624 13.8004 25.192C13.9576 25.8216 14.2453 26.4112 14.6447 26.9226C15.0448 27.4336 15.5478 27.8548 16.121 28.159C16.6941 28.4632 17.3248 28.6437 17.9722 28.6887C20.1021 28.8356 22.0562 29.9999 23.1994 31.803L24.86 34.4222C26.3936 33.672 27.8092 32.6654 29.0519 31.4227C31.4355 29.0392 32.9536 26.0212 33.45 22.7496L33.0088 22.561Z" fill="#3730A3"/>
<path d="M19.3254 17.2467L20.7546 19.6613C21.4177 20.7816 22.4815 21.5598 23.7499 21.8527C25.0182 22.1457 26.3156 21.9126 27.4028 21.1966C29.2571 19.9754 31.5675 19.734 33.6269 20.5355C33.6274 20.481 33.6289 20.4266 33.6289 20.3721C33.6289 17.4123 32.798 14.5317 31.2261 12.0417C30.0212 10.1336 28.4189 8.5079 26.5284 7.27552C26.342 9.25453 25.4815 11.0907 24.0581 12.514L19.3254 17.2467ZM18.0009 36C19.6813 36 21.3211 35.7361 22.8733 35.2288L21.4175 32.9325C20.6322 31.6938 19.2898 30.894 17.8267 30.7931C15.9237 30.6619 14.1581 29.7248 12.9829 28.2222C11.8076 26.7195 11.3235 24.7802 11.6546 22.9016L11.8139 21.9975C12.1945 19.838 10.9896 17.6885 8.94902 16.8863L3.42872 14.7161C2.73361 16.5078 2.37305 18.4227 2.37305 20.3721C2.37305 24.5464 3.9986 28.4709 6.95039 31.4227C9.90197 34.3744 13.8265 36 18.0009 36ZM11.5441 6.45687C11.5441 8.18156 12.2157 9.80304 13.4352 11.0225L18.0009 15.5881L22.5666 11.0225C23.7862 9.80304 24.4577 8.18156 24.4577 6.45687C24.4577 2.89652 21.5613 0 18.0009 0C14.4406 0 11.5441 2.89652 11.5441 6.45687ZM18.0009 2.63482C20.1085 2.63482 21.823 4.34946 21.823 6.45694C21.823 8.56441 20.1085 10.2791 18.0009 10.2791C15.8934 10.2791 14.1788 8.56448 14.1788 6.45701C14.1788 4.34953 15.8934 2.63482 18.0009 2.63482Z" fill="#3730A3"/>
<path d="M18.0018 8.16987C18.9477 8.16987 19.7145 7.40305 19.7145 6.45713C19.7145 5.51121 18.9477 4.74438 18.0018 4.74438C17.0559 4.74438 16.2891 5.51121 16.2891 6.45713C16.2891 7.40305 17.0559 8.16987 18.0018 8.16987Z" fill="#3730A3"/>
</svg>
