<svg width="36" height="36" viewBox="0 0 36 36" fill="none" xmlns="http://www.w3.org/2000/svg">
<path d="M36 11.4609V9.5625C36 7.38788 34.2371 5.625 32.0625 5.625H3.9375C1.76288 5.625 0 7.38788 0 9.5625V11.4609C0 11.5542 0.0370395 11.6436 0.10297 11.7095C0.168901 11.7755 0.258322 11.8125 0.351562 11.8125H35.6484C35.7417 11.8125 35.8311 11.7755 35.897 11.7095C35.963 11.6436 36 11.5542 36 11.4609ZM0 14.4141V26.4375C0 28.6121 1.76288 30.375 3.9375 30.375H32.0625C34.2371 30.375 36 28.6121 36 26.4375V14.4141C36 14.3208 35.963 14.2314 35.897 14.1655C35.8311 14.0995 35.7417 14.0625 35.6484 14.0625H0.351562C0.258322 14.0625 0.168901 14.0995 0.10297 14.1655C0.0370395 14.2314 0 14.3208 0 14.4141ZM9 23.625C9 24.2463 8.49628 24.75 7.875 24.75H6.75C6.12872 24.75 5.625 24.2463 5.625 23.625V22.5C5.625 21.8787 6.12872 21.375 6.75 21.375H7.875C8.49628 21.375 9 21.8787 9 22.5V23.625Z" fill="#3730A3"/>
</svg>
