<svg width="36" height="36" viewBox="0 0 36 36" fill="none" xmlns="http://www.w3.org/2000/svg">
<path d="M5.34983 29.6557C4.76824 29.6557 4.29572 29.1831 4.29572 28.6015C4.29572 27.7389 5.49186 27.2489 6.09411 27.8552L6.83838 28.6015L8.331 27.113L7.58673 26.3667C6.99073 25.7687 6.196 25.4392 5.34983 25.4392C3.60605 25.4392 2.1875 26.8578 2.1875 28.6015C2.1875 30.3453 3.60605 31.7639 5.34983 31.7639C5.93142 31.7639 6.40394 32.2364 6.40394 32.818C6.405 33.6827 5.21083 34.1737 4.60556 33.5643L3.86129 32.818L2.36867 34.3065L3.11294 35.0528C3.70893 35.6509 4.50366 35.9803 5.34983 35.9803C7.09361 35.9803 8.51217 34.5618 8.51217 32.818C8.51217 31.0742 7.09361 29.6557 5.34983 29.6557ZM9.56628 25.4392H11.6745V35.9803H9.56628V25.4392ZM17.9992 31.9245L15.5677 25.4392H12.7286V35.9803H14.8368V29.4951L17.2683 35.9803H20.1074V25.4392H17.9992V31.9245ZM24.3238 27.5474C24.9054 27.5474 25.3779 28.02 25.3779 28.6015H27.4862C27.4862 26.8578 26.0676 25.4392 24.3238 25.4392C22.5801 25.4392 21.1615 26.8578 21.1615 28.6015V32.818C21.1615 34.5618 22.5801 35.9803 24.3238 35.9803C26.0676 35.9803 27.4862 34.5618 27.4862 32.818H25.3779C25.3779 33.3996 24.9054 33.8721 24.3238 33.8721C23.7422 33.8721 23.2697 33.3996 23.2697 32.818V28.6015C23.2697 28.02 23.7422 27.5474 24.3238 27.5474ZM33.8108 27.5474V25.4392H28.5403V35.9803H33.8108V33.8721H30.6485V31.7639H32.7567V29.6557H30.6485V27.5474H33.8108ZM29.5944 14.0411V3.62558C29.5944 2.20401 28.6442 0.94603 27.2793 0.56416C25.0578 -0.0442024 21.5702 -0.439494 17.6091 1.1293C14.6425 2.31054 11.5148 2.34167 8.51224 1.32375V0H6.40401V23.1904H8.51224V18.34C9.89874 18.7441 11.3081 18.9482 12.7194 18.9482C14.6238 18.9482 16.5333 18.5797 18.3914 17.8436C21.4189 16.6299 24.0902 16.7926 25.8032 17.1405C26.7389 17.3268 27.6962 17.085 28.4137 16.491C29.1641 15.8981 29.5944 15.0046 29.5944 14.0411Z" fill="#3730A3"/>
</svg>
