<svg width="36" height="36" viewBox="0 0 36 36" fill="none" xmlns="http://www.w3.org/2000/svg">
<g clip-path="url(#clip0_195_1957)">
<path d="M9.75393 9.63281H9.30252L8.45898 13.8516H10.5975L9.75393 9.63281ZM26.8162 18.0703C27.2717 19.2937 27.8774 20.284 28.5478 21.1266C29.2181 20.284 29.8942 19.2936 30.3496 18.0703H26.8162Z" fill="#3730A3"/>
<path d="M32.8362 6.39844H19.7382L22.4693 28.3134C22.5176 29.2097 22.2725 30.0536 21.6875 30.7143L17.0625 36H32.8362C34.5809 36 36.0003 34.5807 36.0003 32.8359V9.63281C36.0003 7.88808 34.5809 6.39844 32.8362 6.39844ZM32.8362 18.0703H32.5545C31.9544 19.9957 31.0027 21.5023 30.0137 22.69C30.7885 23.3983 31.617 23.9794 32.4407 24.6302C32.8949 24.9938 32.9691 25.657 32.6044 26.1123C32.2415 26.5669 31.5756 26.6406 31.1223 26.2761C30.2273 25.5696 29.3872 24.9783 28.5471 24.2074C27.707 24.9783 26.9373 25.5696 26.0423 26.2761C25.5889 26.6406 24.9231 26.5669 24.5601 26.1123C24.1955 25.657 24.2697 24.9938 24.7239 24.6302C25.5476 23.9794 26.3058 23.3983 27.0806 22.69C26.0915 21.5023 25.2101 19.9958 24.6101 18.0703H24.3284C23.7454 18.0703 23.2737 17.5986 23.2737 17.0156C23.2737 16.4327 23.7454 15.9609 24.3284 15.9609H27.4924V14.9062C27.4924 14.3233 27.9642 13.8516 28.5471 13.8516C29.1301 13.8516 29.6018 14.3233 29.6018 14.9062V15.9609H32.8362C33.4192 15.9609 33.8909 16.4327 33.8909 17.0156C33.8909 17.5986 33.4192 18.0703 32.8362 18.0703Z" fill="#3730A3"/>
<path d="M17.1678 2.77165C16.971 1.19166 15.6208 0 14.0285 0H3.16406C1.41933 0 0 1.41933 0 3.16406V26.5078C0 28.2525 1.41933 29.6719 3.16406 29.6719H19.7966C20.1042 29.3202 20.3621 29.1 20.373 28.6409C20.3757 28.5258 17.1821 2.88584 17.1678 2.77165ZM12.9336 20.1591C12.3743 20.2742 11.8078 19.9111 11.6925 19.332L11.0184 15.9609H8.03637L7.36228 19.332C7.24901 19.9026 6.69895 20.2775 6.1212 20.1591C5.55061 20.0448 5.17978 19.4896 5.29411 18.918L7.40341 8.37113C7.50227 7.8788 7.93491 7.52344 8.4375 7.52344H10.6172C11.1198 7.52344 11.5524 7.8788 11.6513 8.37113L13.7606 18.918C13.875 19.4896 13.5042 20.0448 12.9336 20.1591ZM12.323 31.7812L12.504 33.2284C12.6247 34.1975 13.2686 35.1857 14.3278 35.6792L17.8687 31.7812H12.323Z" fill="#3730A3"/>
</g>
<defs>
<clipPath id="clip0_195_1957">
<rect width="36" height="36" fill="white"/>
</clipPath>
</defs>
</svg>
