<svg width="36" height="36" viewBox="0 0 36 36" fill="none" xmlns="http://www.w3.org/2000/svg">
<g clip-path="url(#clip0_195_1974)">
<path d="M33.3845 13.3145V10.3389C33.3845 9.58511 32.9795 8.88761 32.327 8.51074L29.7507 7.02574C29.4308 6.8408 29.165 6.57506 28.9801 6.25511L27.4951 3.67886C27.3098 3.35782 27.0434 3.09113 26.7225 2.90552C26.4017 2.71992 26.0377 2.62192 25.667 2.62136H22.6914C22.3201 2.62136 21.9545 2.52574 21.6339 2.34011L19.0576 0.855112C18.7369 0.669976 18.3732 0.57251 18.0029 0.57251C17.6327 0.57251 17.2689 0.669976 16.9482 0.855112L14.372 2.34011C14.0514 2.52574 13.6857 2.62136 13.3145 2.62136H10.3389C9.58511 2.62136 8.88761 3.02636 8.51074 3.67886L7.02574 6.25511C6.84011 6.57574 6.57574 6.84011 6.25511 7.02574L3.67886 8.51074C3.35782 8.69602 3.09113 8.96245 2.90552 9.28331C2.71992 9.60417 2.62192 9.96819 2.62136 10.3389V13.3145C2.62136 13.6857 2.52574 14.0514 2.34011 14.372L0.855112 16.9482C0.669976 17.2689 0.57251 17.6327 0.57251 18.0029C0.57251 18.3732 0.669976 18.7369 0.855112 19.0576L2.34011 21.6339C2.52574 21.9545 2.62136 22.3201 2.62136 22.6914V25.667C2.62136 26.4207 3.02636 27.1182 3.67886 27.4951L6.25511 28.9801C6.57574 29.1657 6.84011 29.4301 7.02574 29.7507L8.51074 32.327C8.69602 32.648 8.96245 32.9147 9.28331 33.1003C9.60417 33.2859 9.96819 33.3839 10.3389 33.3845H13.3145C13.6857 33.3845 14.0514 33.4801 14.372 33.6657L16.9482 35.1507C17.6007 35.5276 18.4051 35.5276 19.0576 35.1507L21.6339 33.6657C21.9545 33.4801 22.3201 33.3845 22.6914 33.3845H25.667C26.4207 33.3845 27.1182 32.9795 27.4951 32.327L28.9801 29.7507C29.1657 29.4301 29.4301 29.1657 29.7507 28.9801L32.327 27.4951C32.648 27.3098 32.9147 27.0434 33.1003 26.7225C33.2859 26.4017 33.3839 26.0377 33.3845 25.667V22.6914C33.3845 22.3201 33.4801 21.9545 33.6657 21.6339L35.1507 19.0576C35.3359 18.7369 35.4333 18.3732 35.4333 18.0029C35.4333 17.6327 35.3359 17.2689 35.1507 16.9482L33.6657 14.372C33.4801 14.0514 33.3845 13.6857 33.3845 13.3145ZM29.1714 21.5607L26.6682 25.8976C26.4826 26.2182 26.2182 26.4826 25.8976 26.6682L21.5607 29.1714C21.2401 29.357 20.8745 29.4526 20.5032 29.4526H15.497C15.1257 29.4526 14.7601 29.357 14.4395 29.1714L10.1026 26.6682C9.78267 26.4833 9.51692 26.2176 9.33199 25.8976L6.82886 21.5607C6.64324 21.2401 6.54761 20.8745 6.54761 20.5032V15.497C6.54761 15.1257 6.64324 14.7601 6.82886 14.4395L9.33199 10.1026C9.51761 9.78199 9.78199 9.51761 10.1026 9.33199L14.4395 6.82886C14.7601 6.64324 15.1257 6.54761 15.497 6.54761H20.5032C20.8745 6.54761 21.2401 6.64324 21.5607 6.82886L25.8976 9.33199C26.2182 9.51761 26.4826 9.78199 26.6682 10.1026L29.1714 14.4395C29.357 14.7601 29.4526 15.1257 29.4526 15.497V20.5032C29.4526 20.8745 29.357 21.2401 29.1714 21.5607Z" fill="#3730A3"/>
<path d="M17.9998 8.98877C13.0217 8.98877 8.98853 13.0219 8.98853 18C8.98853 22.9781 13.0217 27.0113 17.9998 27.0113C22.9779 27.0113 27.011 22.9781 27.011 18C27.011 13.0219 22.9779 8.98877 17.9998 8.98877ZM23.6473 17.2575L21.6842 18.6863C21.3963 18.8956 21.182 19.1905 21.0719 19.529C20.9617 19.8674 20.9615 20.232 21.071 20.5706L21.8192 22.8769C21.9879 23.3944 21.3917 23.8275 20.9529 23.5069L18.9898 22.0781C18.7007 21.8697 18.3533 21.7576 17.997 21.7576C17.6406 21.7576 17.2932 21.8697 17.0042 22.0781L15.041 23.5069C14.6023 23.8275 14.006 23.3944 14.1748 22.8769L14.9229 20.5706C15.1479 19.8731 14.9004 19.1138 14.3098 18.6863L12.3467 17.2575C11.9079 16.9369 12.1329 16.2394 12.6785 16.2394H15.1085C15.4644 16.2391 15.811 16.1264 16.099 15.9173C16.3869 15.7081 16.6013 15.4133 16.7116 15.075L17.4598 12.7688C17.6285 12.2513 18.3598 12.2513 18.5285 12.7688L19.2767 15.075C19.5017 15.7725 20.1485 16.2394 20.8798 16.2394H23.3098C23.8554 16.2394 24.0804 16.9369 23.6417 17.2575H23.6473Z" fill="#3730A3"/>
</g>
<defs>
<clipPath id="clip0_195_1974">
<rect width="36" height="36" fill="white"/>
</clipPath>
</defs>
</svg>
