<svg width="18" height="18" viewBox="0 0 18 18" fill="none" xmlns="http://www.w3.org/2000/svg">
<path d="M14.7557 14.7558L3.24341 3.24385L3.24095 3.24104C3.17863 3.17922 3.10473 3.13029 3.0235 3.09702C2.94226 3.06376 2.85526 3.04683 2.76748 3.04719C2.67969 3.04754 2.59284 3.06519 2.51187 3.09912C2.43091 3.13304 2.35742 3.18258 2.2956 3.24491C2.23378 3.30723 2.18485 3.38113 2.15158 3.46237C2.11832 3.54361 2.10139 3.6306 2.10175 3.71838C2.10247 3.89567 2.17359 4.06541 2.29947 4.19026L3.3074 5.19819C2.08505 6.03535 1.03292 7.09715 0.206969 8.3271C0.0720918 8.52623 0 8.76123 0 9.00174C0 9.24226 0.0720918 9.47725 0.206969 9.67639C2.31529 12.7969 5.65759 14.625 8.9999 14.6021C10.0825 14.6061 11.1579 14.4258 12.1801 14.0692L13.8117 15.7008C13.9374 15.8224 14.1059 15.8899 14.2808 15.8887C14.4557 15.8875 14.6232 15.8177 14.7473 15.6944C14.8713 15.571 14.942 15.404 14.9442 15.229C14.9463 15.0541 14.8798 14.8853 14.7588 14.7589L14.7557 14.7558ZM8.9999 12.7877C8.36666 12.7875 7.74358 12.6286 7.1876 12.3255C6.63162 12.0224 6.16046 11.5847 5.81719 11.0526C5.47393 10.5205 5.26949 9.91083 5.22257 9.27933C5.17565 8.64784 5.28775 8.01465 5.54861 7.43764L6.60154 8.49057C6.51673 8.89023 6.53312 9.30474 6.64922 9.69645C6.76532 10.0882 6.97745 10.4447 7.26634 10.7335C7.55523 11.0224 7.91173 11.2346 8.30344 11.3507C8.69515 11.4668 9.10966 11.4832 9.50931 11.3983L10.5622 12.4513C10.0715 12.6738 9.53874 12.7885 8.9999 12.7877ZM17.7928 8.32534C15.6845 5.20311 12.3422 3.37499 8.9999 3.39784C7.91727 3.39392 6.84186 3.57414 5.81966 3.93081L7.43685 5.54799C8.1386 5.23042 8.92047 5.13426 9.67825 5.27232C10.436 5.41038 11.1338 5.77611 11.6784 6.32077C12.2231 6.86543 12.5888 7.56314 12.7269 8.32093C12.8649 9.07872 12.7688 9.86058 12.4512 10.5623L14.692 12.8032C15.9146 11.9662 16.9669 10.9043 17.7928 9.67428C17.9276 9.47518 17.9997 9.24025 17.9997 8.99981C17.9997 8.75937 17.9276 8.52444 17.7928 8.32534Z" fill="black" fill-opacity="0.5"/>
<path d="M8.99989 6.54822C8.82869 6.54824 8.65796 6.56615 8.49048 6.60166L11.3983 9.50908C11.4741 9.15186 11.4691 8.78221 11.3838 8.42714C11.2985 8.07207 11.1349 7.74054 10.9051 7.45678C10.6752 7.17301 10.3849 6.94418 10.0553 6.78698C9.72564 6.62979 9.36507 6.54822 8.99989 6.54822Z" fill="black" fill-opacity="0.5"/>
</svg>
