<svg width="28" height="28" viewBox="0 0 28 28" fill="none" xmlns="http://www.w3.org/2000/svg">
<path d="M24.7045 13.4949C24.0507 12.8456 23.2826 12.3173 22.4371 11.9352C23.0591 11.4317 23.5516 10.7921 23.8749 10.0681C24.1983 9.34409 24.3435 8.55582 24.2988 7.7668C24.2542 6.97778 24.0209 6.21006 23.6178 5.52547C23.2147 4.84089 22.653 4.25859 21.978 3.82546C21.303 3.39234 20.5336 3.1205 19.7317 3.03185C18.9298 2.9432 18.1178 3.04022 17.3612 3.31508C16.6046 3.58994 15.9245 4.03497 15.3757 4.61431C14.8268 5.19366 14.4246 5.89113 14.2015 6.65054H13.8079C13.5848 5.89113 13.1825 5.19366 12.6337 4.61431C12.0849 4.03497 11.4048 3.58994 10.6482 3.31508C9.89156 3.04022 9.0796 2.9432 8.2777 3.03185C7.4758 3.1205 6.70636 3.39234 6.03138 3.82546C5.35639 4.25859 4.79472 4.84089 4.39161 5.52547C3.9885 6.21006 3.75521 6.97778 3.71054 7.7668C3.66588 8.55582 3.81108 9.34409 4.13445 10.0681C4.45782 10.7921 4.95032 11.4317 5.57228 11.9352C4.20545 12.543 3.0469 13.5242 2.23582 14.7612C1.42474 15.9981 0.995623 17.438 1.00003 18.908C1.00003 19.2268 1.06432 19.5425 1.18921 19.837C1.3141 20.1315 1.49714 20.3989 1.72782 20.6239C1.9585 20.849 2.23228 21.0272 2.53346 21.1484C2.83465 21.2696 3.1573 21.3313 3.48291 21.3301H6.29372C6.21829 21.7419 6.18066 22.1595 6.18129 22.5779C6.18127 23.2171 6.43929 23.8304 6.89912 24.2841C7.35895 24.7378 7.98329 24.9952 8.63606 25H19.3733C20.0277 24.9976 20.6545 24.7413 21.1163 24.2873C21.5782 23.8334 21.8375 23.2187 21.8375 22.5779C21.8381 22.1595 21.8005 21.7419 21.725 21.3301H24.5358C25.1902 21.3277 25.817 21.0714 26.2788 20.6174C26.7407 20.1635 27 19.5488 27 18.908C27.0015 17.902 26.7994 16.9056 26.4054 15.9765C26.0114 15.0474 25.4333 14.204 24.7045 13.4949ZM19.1578 4.81559C20.0276 4.81559 20.8617 5.15391 21.4766 5.75612C22.0916 6.35833 22.4371 7.1751 22.4371 8.02675C22.4371 8.8784 22.0916 9.69517 21.4766 10.2974C20.8617 10.8996 20.0276 11.2379 19.1578 11.2379C19.0744 10.3338 18.7431 9.46864 18.1988 8.73381C17.6546 7.99898 16.9176 7.42183 16.066 7.0634C16.2759 6.4188 16.6873 5.85504 17.2421 5.45172C17.7969 5.0484 18.467 4.82589 19.1578 4.81559ZM17.284 11.6966C17.284 12.3317 17.0916 12.9526 16.7313 13.4807C16.371 14.0087 15.8588 14.4203 15.2596 14.6634C14.6604 14.9064 14.0011 14.97 13.3649 14.8461C12.7288 14.7222 12.1445 14.4164 11.6859 13.9673C11.2273 13.5182 10.915 12.946 10.7884 12.3231C10.6619 11.7002 10.7268 11.0545 10.975 10.4678C11.2232 9.88102 11.6436 9.37951 12.1828 9.02666C12.7221 8.67382 13.3561 8.48549 14.0047 8.48549C14.8744 8.48549 15.7085 8.8238 16.3235 9.42601C16.9385 10.0282 17.284 10.845 17.284 11.6966ZM5.57228 8.02675C5.56359 7.25581 5.83925 6.50769 6.34864 5.91981C6.85803 5.33192 7.56693 4.94375 8.34513 4.8266C9.12332 4.70945 9.91856 4.87119 10.5848 5.2821C11.2509 5.69301 11.7434 6.32551 11.9715 7.0634C11.1199 7.42183 10.3829 7.99898 9.83867 8.73381C9.29441 9.46864 8.96306 10.3338 8.87966 11.2379C8.44666 11.2415 8.01721 11.1612 7.6161 11.0014C7.21499 10.8417 6.85016 10.6057 6.54267 10.3072C6.23518 10.0086 5.99111 9.6534 5.82456 9.262C5.65801 8.8706 5.57226 8.45077 5.57228 8.02675ZM3.48291 19.4952C3.32551 19.4928 3.17538 19.4298 3.06495 19.32C2.95451 19.2101 2.89262 19.0621 2.89264 18.908C2.89141 18.1414 3.0447 17.382 3.34372 16.6735C3.64275 15.965 4.08163 15.3213 4.63522 14.7792C5.1888 14.2371 5.84619 13.8074 6.56972 13.5146C7.29324 13.2217 8.06867 13.0716 8.85155 13.0729H9.05768C9.34607 14.0639 9.93798 14.9446 10.7535 15.5959C9.00818 16.3873 7.61625 17.7732 6.83714 19.4952H3.48291ZM19.4108 23.1651H8.63606C8.47865 23.1626 8.32853 23.0997 8.21809 22.9899C8.10766 22.88 8.04577 22.732 8.04579 22.5779C8.04579 21.0303 8.6736 19.5461 9.79111 18.4518C10.9086 17.3575 12.4243 16.7427 14.0047 16.7427C15.5851 16.7427 17.1008 17.3575 18.2183 18.4518C19.3358 19.5461 19.9636 21.0303 19.9636 22.5779C19.9636 22.732 19.9017 22.88 19.7913 22.9899C19.6809 23.0997 19.5307 23.1626 19.3733 23.1651H19.4108ZM24.564 19.4952H21.1723C20.3913 17.7766 18.9996 16.3942 17.2559 15.6051C18.073 14.9513 18.6651 14.0673 18.9517 13.0729H19.1578C20.7375 13.0753 22.2517 13.6908 23.3687 14.7846C24.4857 15.8784 25.1143 17.3612 25.1168 18.908C25.1168 19.0621 25.0549 19.2101 24.9444 19.32C24.834 19.4298 24.6839 19.4928 24.5265 19.4952H24.564Z" fill="#3730A3"/>
</svg>
