<svg width="30" height="30" viewBox="0 0 30 30" fill="none" xmlns="http://www.w3.org/2000/svg">
<g clip-path="url(#clip0_195_1462)">
<path d="M24.2887 21.3858L23.0008 23.0067L22.7113 22.6327C22.5233 22.3979 22.2683 22.266 22.0025 22.266C21.7366 22.266 21.4816 22.3979 21.2936 22.6327C21.1056 22.8675 21 23.1859 21 23.518C21 23.85 21.1056 24.1685 21.2936 24.4033L22.292 25.6502C22.3848 25.7671 22.4952 25.8598 22.6169 25.9231C22.7385 25.9865 22.869 26.019 23.0008 26.019C23.1326 26.019 23.2631 25.9865 23.3848 25.9231C23.5064 25.8598 23.6168 25.7671 23.7097 25.6502L25.7064 23.1564C25.8944 22.9216 26 22.6031 26 22.2711C26 21.939 25.8944 21.6206 25.7064 21.3858C25.5184 21.151 25.2634 21.019 24.9975 21.019C24.7317 21.019 24.4767 21.151 24.2887 21.3858Z" fill="#3730A3"/>
<path d="M23.4545 16.945C22.16 16.945 20.8945 17.3284 19.8181 18.0467C18.7417 18.765 17.9027 19.7859 17.4073 20.9804C16.9119 22.1749 16.7823 23.4893 17.0349 24.7573C17.2874 26.0254 17.9108 27.1902 18.8262 28.1044C19.7416 29.0186 20.9079 29.6412 22.1776 29.8934C23.4473 30.1457 24.7634 30.0162 25.9594 29.5214C27.1554 29.0267 28.1777 28.1888 28.8969 27.1138C29.6161 26.0388 30 24.7749 30 23.482C30 21.7483 29.3104 20.0855 28.0829 18.8596C26.8554 17.6337 25.1905 16.945 23.4545 16.945ZM23.4545 27.84C22.5915 27.84 21.7478 27.5844 21.0302 27.1056C20.3126 26.6267 19.7533 25.9461 19.4231 25.1497C19.0928 24.3534 19.0064 23.4772 19.1748 22.6318C19.3431 21.7864 19.7587 21.0099 20.369 20.4004C20.9793 19.7909 21.7568 19.3759 22.6032 19.2077C23.4497 19.0396 24.3271 19.1259 25.1244 19.4557C25.9218 19.7856 26.6033 20.3441 27.0828 21.0608C27.5623 21.7775 27.8182 22.6201 27.8182 23.482C27.8182 24.6378 27.3584 25.7463 26.5401 26.5636C25.7218 27.3809 24.6119 27.84 23.4545 27.84ZM17.9127 16.7597C18.0232 16.6683 18.1145 16.556 18.1814 16.4292C18.2484 16.3024 18.2896 16.1637 18.3028 16.021C18.3159 15.8783 18.3008 15.7344 18.2582 15.5976C18.2156 15.4607 18.1464 15.3336 18.0545 15.2235C17.5949 14.6848 17.0108 14.266 16.3527 14.0033C17.0566 13.1418 17.4418 12.0645 17.4436 10.9527C17.4486 10.167 17.2644 9.39173 16.9066 8.69204C16.5489 7.99234 16.028 7.38877 15.3878 6.93215C14.7477 6.47553 14.007 6.17923 13.2283 6.06823C12.4495 5.95722 11.6554 6.03475 10.9129 6.29429C10.1704 6.55383 9.50126 6.98778 8.96178 7.55957C8.4223 8.13137 8.02832 8.82428 7.81301 9.57992C7.5977 10.3356 7.56737 11.1318 7.72458 11.9016C7.88179 12.6714 8.22194 13.3922 8.71636 14.0033C7.91401 14.33 7.2272 14.8878 6.74344 15.6057C6.25968 16.3236 6.00087 17.1691 6 18.0345V19.124C6 19.4129 6.11493 19.6901 6.31952 19.8944C6.52411 20.0987 6.80158 20.2135 7.09091 20.2135C7.38024 20.2135 7.65771 20.0987 7.8623 19.8944C8.06688 19.6901 8.18182 19.4129 8.18182 19.124V18.0345C8.18182 17.4566 8.41169 16.9023 8.82086 16.4937C9.23003 16.085 9.78498 15.8555 10.3636 15.8555H14.7273C15.0413 15.8526 15.352 15.9195 15.637 16.0514C15.9219 16.1833 16.1738 16.3769 16.3745 16.6181C16.4661 16.7284 16.5786 16.8196 16.7055 16.8865C16.8324 16.9533 16.9713 16.9945 17.1142 17.0076C17.2571 17.0208 17.4012 17.0057 17.5382 16.9631C17.6752 16.9206 17.8025 16.8515 17.9127 16.7597ZM12.5455 8.22891C13.0849 8.22891 13.6121 8.38865 14.0606 8.68795C14.5091 8.98724 14.8587 9.41263 15.0651 9.91033C15.2715 10.408 15.3256 10.9557 15.2203 11.4841C15.1151 12.0124 14.8553 12.4977 14.4739 12.8787C14.0925 13.2596 13.6066 13.519 13.0775 13.6241C12.5485 13.7292 12.0001 13.6753 11.5018 13.4691C11.0034 13.263 10.5775 12.9138 10.2778 12.4659C9.97813 12.018 9.81818 11.4914 9.81818 10.9527C9.81818 10.2303 10.1055 9.53749 10.617 9.02668C11.1284 8.51588 11.8221 8.22891 12.5455 8.22891Z" fill="#3730A3"/>
<path d="M14.8092 27.13C14.223 27.4055 13.6185 27.6415 13 27.8362C9.8729 26.9154 7.12988 25.0231 5.17825 22.4404C3.22663 19.8576 2.17049 16.7221 2.16667 13.4994V6.11706L13 2.2226L23.8333 6.11706V13.4994C23.8387 13.5742 23.8387 13.6493 23.8333 13.7241V13.9274C23.8333 14.2111 23.9475 14.4833 24.1506 14.6839C24.3538 14.8846 24.6293 14.9973 24.9167 14.9973C25.204 14.9973 25.4795 14.8846 25.6827 14.6839C25.8859 14.4833 26 14.2111 26 13.9274V5.36812C25.9999 5.14824 25.9312 4.93373 25.8033 4.75378C25.6753 4.57382 25.4944 4.43717 25.285 4.36241L13.3683 0.0827822C13.1303 -0.00220345 12.8697 -0.00220345 12.6317 0.0827822L0.715 4.36241C0.505624 4.43717 0.324655 4.57382 0.196719 4.75378C0.0687836 4.93373 9.47262e-05 5.14824 0 5.36812V13.4994C0.00532032 17.2411 1.2518 20.878 3.54871 23.8537C5.84562 26.8293 9.06644 28.9798 12.7183 29.976C12.9016 30.0334 13.0984 30.0334 13.2817 29.976C14.1023 29.7609 14.9031 29.4782 15.6758 29.1308C15.8135 29.0797 15.9392 29.0014 16.0453 28.9008C16.1513 28.8002 16.2355 28.6793 16.2928 28.5455C16.35 28.4117 16.379 28.2678 16.3781 28.1225C16.3772 27.9773 16.3463 27.8337 16.2874 27.7007C16.2285 27.5676 16.1428 27.4477 16.0354 27.3484C15.9281 27.2491 15.8014 27.1724 15.6631 27.1231C15.5248 27.0737 15.3778 27.0526 15.231 27.0612C15.0841 27.0697 14.9406 27.1077 14.8092 27.1728V27.13Z" fill="#3730A3"/>
</g>
<defs>
<clipPath id="clip0_195_1462">
<rect width="30" height="30" fill="white"/>
</clipPath>
</defs>
</svg>
