<svg width="28" height="28" viewBox="0 0 28 28" fill="none" xmlns="http://www.w3.org/2000/svg">
<g clip-path="url(#clip0_195_1454)">
<path d="M26.9978 9.45937C25.2487 3.88519 19.8785 -0.0309362 13.9693 6.47954e-05C6.62409 -0.13294 0.208885 6.32827 0.333889 13.6575C0.335589 16.7628 1.39635 19.7747 3.34099 22.1958C4.60105 23.7733 6.19599 25.0511 8.01043 25.9366C9.82487 26.8221 11.8135 27.2932 13.8323 27.316C14.8964 27.446 15.4214 26.0059 14.4983 25.4459C12.4263 23.5568 10.8652 21.1818 10.0422 18.5557H13.8943C14.1596 18.5557 14.4139 18.4503 14.6015 18.2628C14.789 18.0752 14.8944 17.8209 14.8944 17.5556C14.8944 17.2904 14.789 17.036 14.6015 16.8485C14.4139 16.661 14.1596 16.5556 13.8943 16.5556H9.53419C9.35496 15.6026 9.26357 14.6352 9.26118 13.6655C9.26118 12.6795 9.35918 11.7104 9.53519 10.7604H18.4095C18.4845 11.1874 18.5485 11.6204 18.5885 12.0635C18.6126 12.3276 18.7407 12.5714 18.9446 12.7411C19.1484 12.9108 19.4114 12.9926 19.6755 12.9685C19.9397 12.9444 20.1834 12.8163 20.3532 12.6124C20.5229 12.4085 20.6047 12.1456 20.5805 11.8814C20.5455 11.5064 20.4988 11.1326 20.4405 10.7604H25.2937C25.5387 11.6944 25.6687 12.6655 25.6687 13.6575C25.6687 14.5655 25.5587 15.4926 25.3447 16.4116C25.3114 16.5406 25.3041 16.6751 25.3235 16.8069C25.3428 16.9388 25.3884 17.0655 25.4574 17.1795C25.5264 17.2935 25.6175 17.3926 25.7253 17.4709C25.8332 17.5493 25.9556 17.6052 26.0854 17.6356C26.2152 17.6659 26.3497 17.67 26.4811 17.6476C26.6125 17.6251 26.7381 17.5767 26.8504 17.5051C26.9628 17.4334 27.0598 17.34 27.1356 17.2304C27.2114 17.1208 27.2645 16.9971 27.2918 16.8666C27.54 15.8149 27.6665 14.7381 27.6688 13.6575C27.6688 12.2075 27.4398 10.7884 26.9978 9.45937ZM23.1046 6.37527C23.6931 7.10562 24.1877 7.9069 24.5767 8.76035H19.9905C19.3775 6.39427 18.1745 4.1972 16.6474 2.30514C19.1755 2.89116 21.4466 4.3042 23.1046 6.37527ZM4.90104 6.37027C6.52679 4.33339 8.79249 2.90491 11.3312 2.31614C9.7832 4.2062 8.59516 6.39727 7.95714 8.76035H3.42499C3.815 7.91232 4.30302 7.1103 4.90104 6.37027ZM8.21114 19.4107C8.90499 21.4505 9.96466 23.3469 11.3382 25.0069C8.82216 24.4189 6.55509 23.0068 4.89804 20.9407C4.30963 20.2103 3.81509 19.4091 3.42599 18.5557H7.95714C8.03914 18.8407 8.11414 19.1297 8.21114 19.4107ZM7.49512 16.5556H2.70897C2.20934 14.6562 2.20934 12.6598 2.70897 10.7604H7.49612C7.18362 12.6795 7.18262 14.6365 7.49512 16.5556ZM10.1052 8.54534C10.9017 6.20304 12.2369 4.08039 14.0033 2.34814C15.749 4.09291 17.0677 6.21763 17.8565 8.55634C17.8805 8.62634 17.8925 8.69035 17.9145 8.76035H10.0422C10.0652 8.68935 10.0822 8.61634 10.1052 8.54534Z" fill="#3730A3"/>
<path d="M26.273 18.9608L18.8697 13.7776C18.6112 13.5946 18.3086 13.4836 17.993 13.456C17.6774 13.4284 17.3601 13.4852 17.0737 13.6206C16.4837 13.8966 16.0966 14.4476 16.0386 15.0997L15.2516 24.1029C15.1816 24.892 15.6076 25.603 16.3357 25.916C16.683 26.0704 17.0708 26.1092 17.4419 26.0265C17.813 25.9439 18.1477 25.7442 18.3967 25.457L18.9707 24.811L19.1697 25.237V25.239L19.9728 26.96C20.1755 27.3931 20.5417 27.7281 20.991 27.8916C21.4404 28.055 21.9362 28.0336 22.3699 27.8321L24.5559 26.812C24.9919 26.609 25.3229 26.247 25.488 25.794C25.5693 25.5715 25.6059 25.3352 25.5956 25.0985C25.5853 24.8618 25.5284 24.6295 25.4279 24.415L24.4259 22.2669L25.2889 22.2429C26.081 22.2209 26.739 21.7169 26.967 20.9578C27.195 20.1988 26.922 19.4158 26.273 18.9618V18.9608ZM20.1398 22.5849C20.0692 22.4351 19.9626 22.305 19.8294 22.2064C19.6963 22.1079 19.5409 22.0438 19.377 22.0199C19.2131 21.996 19.0458 22.0131 18.8901 22.0697C18.7344 22.1262 18.5951 22.2204 18.4847 22.3439L17.2947 23.6839L18.0017 15.6107L24.6409 20.2598L22.8489 20.3098C22.683 20.3142 22.5209 20.3598 22.3771 20.4424C22.2332 20.5251 22.1122 20.6422 22.0249 20.7833C21.9376 20.9243 21.8868 21.0849 21.877 21.2505C21.8672 21.4161 21.8988 21.5815 21.9688 21.7319L23.5319 25.083L21.7018 25.937L20.1398 22.5849Z" fill="#3730A3"/>
</g>
<defs>
<clipPath id="clip0_195_1454">
<rect width="28" height="28" fill="white"/>
</clipPath>
</defs>
</svg>
