<svg width="30" height="30" viewBox="0 0 30 30" fill="none" xmlns="http://www.w3.org/2000/svg">
<path d="M23.0366 29.9997C20.9687 29.9997 19.2866 28.3176 19.2866 26.2497V12.1787C18.2996 11.5518 17.4873 10.6853 16.9253 9.66005C16.3633 8.63476 16.0699 7.48395 16.0723 6.31474C16.0699 5.03146 16.4236 3.77268 17.0939 2.67842C17.7643 1.58415 18.7251 0.697308 19.8694 0.116524C20.0329 0.0334294 20.215 -0.00639929 20.3982 0.000835949C20.5815 0.00807118 20.7598 0.062129 20.9162 0.157855C21.0727 0.25358 21.202 0.387783 21.2918 0.547664C21.3816 0.707545 21.429 0.887775 21.4294 1.07117V5.70295L23.0366 6.34581L24.6437 5.70295V1.07117C24.6441 0.887775 24.6915 0.707545 24.7813 0.547664C24.8712 0.387783 25.0005 0.25358 25.1569 0.157855C25.3133 0.062129 25.4917 0.00807118 25.6749 0.000835949C25.8582 -0.00639929 26.0402 0.0334294 26.2037 0.116524C27.348 0.697584 28.3088 1.58464 28.9792 2.67907C29.6495 3.7735 30.0032 5.0324 30.0009 6.31581C30.003 7.48497 29.7094 8.63567 29.1474 9.6609C28.5854 10.6861 27.7733 11.5526 26.7866 12.1797V26.2497C26.7866 28.3176 25.1044 29.9997 23.0366 29.9997ZM19.2866 3.28474C18.6041 4.12581 18.2151 5.18652 18.2151 6.31474C18.2151 8.12974 19.2234 9.77438 20.8466 10.6058C21.0221 10.6957 21.1693 10.8323 21.2722 11.0006C21.375 11.1688 21.4294 11.3622 21.4294 11.5594V26.2497C21.4294 27.1358 22.1505 27.8569 23.0366 27.8569C23.9226 27.8569 24.6437 27.1358 24.6437 26.2497V11.5594C24.6437 11.3622 24.6981 11.1688 24.801 11.0006C24.9038 10.8323 25.0511 10.6957 25.2266 10.6058C26.019 10.204 26.6844 9.59029 27.149 8.83294C27.6135 8.0756 27.8589 7.20427 27.858 6.31581C27.86 5.21264 27.4816 4.14252 26.7866 3.28581V6.42831C26.7866 6.86652 26.5198 7.25974 26.1137 7.42367L23.4351 8.4951C23.1798 8.598 22.8944 8.598 22.6391 8.4951L19.9605 7.42367C19.7617 7.34392 19.5913 7.20653 19.4712 7.02915C19.3511 6.85177 19.2868 6.64252 19.2866 6.42831V3.28474Z" fill="#3730A3"/>
<path d="M16.1507 30H13.8504C13.3112 29.998 12.7924 29.7936 12.3968 29.4273C12.0011 29.0611 11.7574 28.5596 11.7139 28.0221L11.5789 26.2704C10.8427 26.0468 10.1303 25.7511 9.45214 25.3875L8.11714 26.5307C7.70661 26.8801 7.17988 27.0627 6.64118 27.0422C6.10249 27.0218 5.59109 26.7999 5.20821 26.4204L3.57964 24.7907C3.20015 24.4077 2.97814 23.8962 2.95751 23.3574C2.93688 22.8186 3.11912 22.2917 3.46821 21.8807L4.61143 20.5468C4.24786 19.8686 3.95214 19.1563 3.72857 18.42L1.97786 18.2861C1.44054 18.2428 0.939051 17.9994 0.572743 17.6039C0.206435 17.2084 0.0020233 16.6898 0 16.1507V13.8493C0 12.7361 0.868928 11.7975 1.97893 11.7129L3.72964 11.5789C3.9525 10.8429 4.24821 10.1314 4.6125 9.45214L3.46821 8.11607C3.11903 7.70511 2.93682 7.17804 2.95765 6.63916C2.97849 6.10028 3.20084 5.58885 3.58071 5.20607L5.20714 3.57857C5.59006 3.19885 6.10156 2.97669 6.64044 2.95606C7.17932 2.93542 7.70631 3.11781 8.11714 3.46714L9.45214 4.61036C10.1303 4.24679 10.8427 3.95107 11.5789 3.7275L11.7139 1.97571C11.7579 1.43887 12.0017 0.93805 12.3971 0.572235C12.7924 0.206421 13.3106 0.0022246 13.8493 0H15C15.2842 0 15.5567 0.112882 15.7576 0.313814C15.9585 0.514746 16.0714 0.787268 16.0714 1.07143C16.0714 1.35559 15.9585 1.62811 15.7576 1.82904C15.5567 2.02997 15.2842 2.14286 15 2.14286H13.8493L13.6564 4.65107C13.6388 4.87844 13.5491 5.09425 13.4003 5.2671C13.2515 5.43995 13.0515 5.56083 12.8293 5.61214C11.7918 5.85113 10.8017 6.26218 9.9 6.82821C9.70671 6.95 9.4794 7.00647 9.25159 6.9893C9.02378 6.97214 8.8075 6.88224 8.63464 6.73286L6.72214 5.09464L5.09571 6.72321L6.73393 8.63464C7.03929 8.99036 7.07679 9.50357 6.82822 9.9C6.263 10.8021 5.85202 11.7921 5.61214 12.8293C5.56093 13.0517 5.43994 13.252 5.26684 13.4008C5.09375 13.5496 4.87761 13.6392 4.65 13.6564L2.14286 13.8493V16.1507L4.65 16.3436C4.87756 16.361 5.09361 16.4506 5.26668 16.5994C5.43974 16.7482 5.56077 16.9483 5.61214 17.1707C5.85113 18.2082 6.26218 19.1983 6.82822 20.1C6.94932 20.2935 7.00549 20.5205 6.98853 20.7481C6.97157 20.9757 6.88237 21.192 6.73393 21.3654L5.09571 23.2768L6.72321 24.9054L8.63464 23.2671C8.80774 23.1182 9.02396 23.0286 9.25165 23.0115C9.47934 22.9943 9.70654 23.0505 9.9 23.1718C10.8086 23.7396 11.7943 24.1489 12.8293 24.3879C13.0515 24.4392 13.2515 24.56 13.4003 24.7329C13.5491 24.9057 13.6388 25.1216 13.6564 25.3489L13.8493 27.8571H16.1496C16.1594 27.7161 16.197 27.5783 16.2603 27.4519C16.3236 27.3254 16.4112 27.2127 16.5183 27.1203C16.6253 27.0279 16.7496 26.9575 16.8839 26.9134C17.0183 26.8692 17.16 26.8521 17.301 26.863C17.442 26.8739 17.5794 26.9126 17.7054 26.9768C17.8314 27.0411 17.9434 27.1297 18.035 27.2374C18.1265 27.3452 18.1959 27.47 18.239 27.6047C18.2821 27.7394 18.2981 27.8812 18.2861 28.0221C18.2426 28.5594 17.999 29.0607 17.6036 29.427C17.2082 29.7932 16.6897 29.9977 16.1507 30Z" fill="#3730A3"/>
<path d="M7.50004 15.0002C7.49428 13.2258 8.12012 11.5073 9.26557 10.1522C10.411 8.79713 12.0013 7.89387 13.7518 7.60409C13.8906 7.58018 14.0328 7.58402 14.1701 7.61538C14.3074 7.64674 14.4372 7.705 14.5518 7.78679C14.6665 7.86858 14.7638 7.97228 14.8382 8.09191C14.9125 8.21153 14.9625 8.34471 14.985 8.48373C15.0318 8.7639 14.9655 9.05119 14.8005 9.28245C14.6356 9.5137 14.3855 9.66998 14.1054 9.71695C12.8556 9.92471 11.7204 10.5703 10.9029 11.5382C10.0853 12.5061 9.63872 13.7332 9.6429 15.0002C9.6429 18.6998 13.3179 21.2798 16.7861 20.053C17.0511 19.9688 17.3385 19.9908 17.5875 20.1145C17.8365 20.2383 18.0277 20.4539 18.1206 20.716C18.2135 20.9781 18.2009 21.266 18.0855 21.519C17.97 21.7719 17.7607 21.9701 17.5018 22.0716C12.6236 23.7977 7.50004 20.1602 7.50004 15.0002Z" fill="#3730A3"/>
</svg>
