<svg width="28" height="28" viewBox="0 0 28 28" fill="none" xmlns="http://www.w3.org/2000/svg">
<g clip-path="url(#clip0_195_1431)">
<path d="M27.8377 13.5056L25.4584 10.2766L25.4857 6.26529C25.487 6.0873 25.4312 5.91359 25.3265 5.76962C25.2218 5.62566 25.0738 5.51901 24.904 5.46531L21.08 4.25429L18.7477 0.99027C18.5347 0.69196 18.1523 0.568949 17.8056 0.684248L14 1.95461L10.1943 0.68392C9.8473 0.568566 9.46498 0.691577 9.25226 0.989942L6.92026 4.25364L3.09593 5.46531C2.92625 5.51894 2.77821 5.62552 2.67352 5.76943C2.56884 5.91334 2.51302 6.08701 2.51424 6.26496L2.54159 10.2763L0.162216 13.5053C0.0568158 13.6486 -3.05176e-05 13.8219 -3.05176e-05 13.9998C-3.05176e-05 14.1777 0.0568158 14.351 0.162216 14.4943L2.54154 17.7233L2.51419 21.7347C2.51295 21.9127 2.56877 22.0864 2.67345 22.2303C2.77813 22.3743 2.92617 22.4809 3.09588 22.5346L6.91987 23.7457L9.25221 27.0097C9.35586 27.1547 9.50328 27.2627 9.67283 27.3178C9.84239 27.3729 10.0251 27.3721 10.1942 27.3157L13.9999 26.0453L17.8056 27.316C17.9747 27.3725 18.1574 27.3732 18.327 27.3181C18.4965 27.263 18.6439 27.1551 18.7476 27.01L21.0796 23.7463L24.904 22.5347C25.0737 22.4811 25.2218 22.3745 25.3265 22.2306C25.4311 22.0867 25.487 21.913 25.4857 21.7351L25.4584 17.7234L27.8377 14.4944C27.9431 14.3511 27.9999 14.1779 27.9999 14C27.9999 13.8221 27.9431 13.6489 27.8377 13.5056ZM23.952 16.9577C23.8454 17.1025 23.7884 17.2779 23.7897 17.4577L23.8147 21.1314L20.3113 22.2411C20.1393 22.2954 19.9896 22.4042 19.8849 22.5511L17.7496 25.5401L14.2639 24.3765C14.0926 24.3192 13.9073 24.3192 13.7359 24.3765L10.2502 25.5401L8.11454 22.5508C8.00963 22.404 7.86007 22.2952 7.68818 22.2404L4.18514 21.1311L4.21014 17.4574C4.21136 17.2776 4.15442 17.1022 4.0478 16.9574L1.86823 14L4.04758 11.0423C4.15421 10.8975 4.21115 10.7221 4.20992 10.5423L4.18492 6.86859L7.68829 5.75892C7.86033 5.70466 8.01 5.59583 8.11465 5.4489L10.25 2.45989L13.7357 3.62354C13.907 3.68086 14.0923 3.68086 14.2636 3.62354L17.7494 2.45989L19.8851 5.44923C19.99 5.59598 20.1395 5.70485 20.3114 5.75957L23.8145 6.86891L23.7895 10.5426C23.7882 10.7224 23.8452 10.8978 23.9518 11.0426L26.1318 14L23.952 16.9577Z" fill="#3730A3"/>
<path d="M18.0973 10.2856L12.4367 15.9466L9.90097 13.4109C9.57531 13.0853 9.04799 13.0853 8.72261 13.4109C8.39728 13.7366 8.39695 14.2639 8.72261 14.5893L11.8476 17.7143C12.0103 17.877 12.2236 17.9583 12.437 17.9583C12.6504 17.9583 12.8633 17.877 13.0263 17.7143L19.2764 11.4643C19.602 11.1386 19.602 10.6113 19.2764 10.2859C18.9507 9.96055 18.4227 9.96027 18.0973 10.2856Z" fill="#3730A3"/>
</g>
<defs>
<clipPath id="clip0_195_1431">
<rect width="28" height="28" fill="white"/>
</clipPath>
</defs>
</svg>
