<svg width="18" height="18" viewBox="0 0 18 18" fill="none" xmlns="http://www.w3.org/2000/svg">
<path d="M17.8414 3.57613L12.3824 9L17.8414 14.4239C17.9401 14.2176 18 13.9896 18 13.7461V4.25391C18 4.01038 17.9401 3.78239 17.8414 3.57613ZM16.418 2.67188H1.58203C1.3385 2.67188 1.11052 2.73175 0.904254 2.83043L7.88147 9.77249C8.49839 10.3894 9.50161 10.3894 10.1185 9.77249L17.0957 2.83043C16.8895 2.73175 16.6615 2.67188 16.418 2.67188ZM0.158555 3.57613C0.0598711 3.78239 0 4.01038 0 4.25391V13.7461C0 13.9896 0.0598711 14.2176 0.158555 14.4239L5.61758 9L0.158555 3.57613Z" fill="black" fill-opacity="0.5"/>
<path d="M11.6368 9.74573L10.8643 10.5182C9.83634 11.5461 8.16371 11.5461 7.13578 10.5182L6.36332 9.74573L0.904297 15.1696C1.11056 15.2683 1.33855 15.3282 1.58207 15.3282H16.418C16.6615 15.3282 16.8895 15.2683 17.0958 15.1696L11.6368 9.74573Z" fill="black" fill-opacity="0.5"/>
</svg>
