<svg width="18" height="12" viewBox="0 0 18 12" fill="none" xmlns="http://www.w3.org/2000/svg">
<path d="M9 0.635193C5.56091 0.635193 2.44216 2.51675 0.140841 5.5729C-0.0469469 5.82329 -0.0469469 6.17309 0.140841 6.42347C2.44216 9.48331 5.56091 11.3649 9 11.3649C12.4391 11.3649 15.5578 9.4833 17.8592 6.42715C18.0469 6.17677 18.0469 5.82697 17.8592 5.57659C15.5578 2.51675 12.4391 0.635193 9 0.635193ZM9.2467 9.77787C6.96379 9.92148 5.07855 8.03992 5.22215 5.75333C5.33998 3.86809 6.86806 2.34001 8.7533 2.22218C11.0362 2.07858 12.9214 3.96014 12.7778 6.24673C12.6563 8.12829 11.1283 9.65636 9.2467 9.77787ZM9.13256 8.03255C7.90273 8.10988 6.88647 7.0973 6.96747 5.86747C7.03007 4.85121 7.85486 4.0301 8.87113 3.96382C10.101 3.8865 11.1172 4.89908 11.0362 6.1289C10.9699 7.14885 10.1451 7.96996 9.13256 8.03255Z" fill="black" fill-opacity="0.5"/>
</svg>
