<svg width="38" height="37" viewBox="0 0 38 37" fill="none" xmlns="http://www.w3.org/2000/svg">
<path d="M18.9902 8.67188C13.571 8.67188 9.16211 13.0808 9.16211 18.5C9.16211 23.9192 13.571 28.3281 18.9902 28.3281C24.4095 28.3281 28.8184 23.9192 28.8184 18.5C28.8184 13.0808 24.4095 8.67188 18.9902 8.67188ZM17.4573 23.2906L13.2416 19.0749L14.7745 17.5419L17.4573 20.2246L23.206 14.4759L24.739 16.0089L17.4573 23.2906Z" fill="white"/>
<path d="M18.9902 8.67188C13.571 8.67188 9.16211 13.0808 9.16211 18.5C9.16211 23.9192 13.571 28.3281 18.9902 28.3281C24.4095 28.3281 28.8184 23.9192 28.8184 18.5C28.8184 13.0808 24.4095 8.67188 18.9902 8.67188ZM17.4573 23.2906L13.2416 19.0749L14.7745 17.5419L17.4573 20.2246L23.206 14.4759L24.739 16.0089L17.4573 23.2906Z" fill="url(#paint0_linear_195_1401)"/>
<path d="M35.4711 13.6285C34.5793 12.7367 34.0882 11.5512 34.0882 10.29C34.0882 6.49126 30.9976 3.40068 27.1989 3.40068C25.9377 3.40068 24.7521 2.90956 23.8604 2.01787C22.5591 0.716658 20.829 0 18.9889 0C17.1487 0 15.4186 0.716658 14.1174 2.01787C13.2257 2.90956 12.04 3.40068 10.7788 3.40068C6.98004 3.40068 3.88953 6.49126 3.88953 10.29C3.88953 11.5512 3.39842 12.7367 2.50666 13.6285C-0.179384 16.3147 -0.179384 20.6853 2.50666 23.3715C3.39842 24.2633 3.88953 25.4488 3.88953 26.71C3.88953 30.5087 6.98012 33.5993 10.7788 33.5993C12.04 33.5993 13.2256 34.0904 14.1174 34.9821C15.4186 36.2833 17.1487 37 18.9889 37C20.829 37 22.5591 36.2833 23.8604 34.9821C24.752 34.0904 25.9377 33.5993 27.1989 33.5993C30.9977 33.5993 34.0882 30.5087 34.0882 26.71C34.0882 25.4488 34.5793 24.2633 35.4711 23.3715C38.1572 20.6853 38.1572 16.3147 35.4711 13.6285ZM30.9849 18.5C30.9849 25.1146 25.6035 30.4961 18.9889 30.4961C12.3742 30.4961 6.99276 25.1146 6.99276 18.5C6.99276 11.8854 12.3742 6.50391 18.9889 6.50391C25.6035 6.50391 30.9849 11.8854 30.9849 18.5Z" fill="white"/>
<path d="M35.4711 13.6285C34.5793 12.7367 34.0882 11.5512 34.0882 10.29C34.0882 6.49126 30.9976 3.40068 27.1989 3.40068C25.9377 3.40068 24.7521 2.90956 23.8604 2.01787C22.5591 0.716658 20.829 0 18.9889 0C17.1487 0 15.4186 0.716658 14.1174 2.01787C13.2257 2.90956 12.04 3.40068 10.7788 3.40068C6.98004 3.40068 3.88953 6.49126 3.88953 10.29C3.88953 11.5512 3.39842 12.7367 2.50666 13.6285C-0.179384 16.3147 -0.179384 20.6853 2.50666 23.3715C3.39842 24.2633 3.88953 25.4488 3.88953 26.71C3.88953 30.5087 6.98012 33.5993 10.7788 33.5993C12.04 33.5993 13.2256 34.0904 14.1174 34.9821C15.4186 36.2833 17.1487 37 18.9889 37C20.829 37 22.5591 36.2833 23.8604 34.9821C24.752 34.0904 25.9377 33.5993 27.1989 33.5993C30.9977 33.5993 34.0882 30.5087 34.0882 26.71C34.0882 25.4488 34.5793 24.2633 35.4711 23.3715C38.1572 20.6853 38.1572 16.3147 35.4711 13.6285ZM30.9849 18.5C30.9849 25.1146 25.6035 30.4961 18.9889 30.4961C12.3742 30.4961 6.99276 25.1146 6.99276 18.5C6.99276 11.8854 12.3742 6.50391 18.9889 6.50391C25.6035 6.50391 30.9849 11.8854 30.9849 18.5Z" fill="url(#paint1_linear_195_1401)"/>
<defs>
<linearGradient id="paint0_linear_195_1401" x1="9.16211" y1="8.67188" x2="29.5851" y2="10.6724" gradientUnits="userSpaceOnUse">
<stop stop-color="#161629"/>
<stop offset="1" stop-color="#474784"/>
</linearGradient>
<linearGradient id="paint1_linear_195_1401" x1="0.492126" y1="0" x2="38.9288" y2="3.76434" gradientUnits="userSpaceOnUse">
<stop stop-color="#161629"/>
<stop offset="1" stop-color="#474784"/>
</linearGradient>
</defs>
</svg>
