<svg width="40" height="34" viewBox="0 0 40 34" fill="none" xmlns="http://www.w3.org/2000/svg">
<path d="M36.6666 5.00007H28.3333V3.33335C28.3333 1.495 26.8384 0 25 0H15C13.1616 0 11.6666 1.49492 11.6666 3.33335V4.99999H3.33335C1.49492 5.00007 3.46508e-08 6.49499 3.46508e-08 8.33334V13.3333C3.46508e-08 15.1718 1.49492 16.6667 3.33335 16.6667H16.6667V15.8333C16.6666 15.7239 16.6881 15.6155 16.73 15.5143C16.7718 15.4132 16.8332 15.3213 16.9106 15.2439C16.988 15.1665 17.0799 15.1051 17.181 15.0633C17.2822 15.0214 17.3906 14.9999 17.5 15H22.5C22.6095 14.9999 22.7179 15.0214 22.819 15.0633C22.9202 15.1051 23.0121 15.1665 23.0895 15.2439C23.1669 15.3213 23.2283 15.4132 23.2701 15.5143C23.312 15.6155 23.3335 15.7239 23.3334 15.8333V16.6667H36.6667C38.505 16.6667 39.9999 15.1718 39.9999 13.3333V8.33334C39.9999 6.49499 38.505 5.00007 36.6666 5.00007ZM25 5.00007H15V3.33335H25V5.00007ZM39.5377 17.5659C39.3987 17.497 39.2433 17.4682 39.0889 17.4827C38.9346 17.4973 38.7873 17.5545 38.6636 17.6481C38.0712 18.0965 37.381 18.3333 36.6665 18.3333H23.3333V20.8333C23.3334 20.9428 23.3119 21.0512 23.27 21.1523C23.2282 21.2535 23.1668 21.3454 23.0894 21.4228C23.012 21.5002 22.9201 21.5615 22.819 21.6034C22.7178 21.6452 22.6094 21.6667 22.5 21.6667H17.5C17.3905 21.6667 17.2821 21.6452 17.181 21.6034C17.0798 21.5615 16.9879 21.5002 16.9105 21.4228C16.8331 21.3454 16.7718 21.2535 16.7299 21.1523C16.688 21.0512 16.6665 20.9428 16.6666 20.8333V18.3333H3.33335C2.61882 18.3333 1.92875 18.0965 1.33625 17.6481C1.21293 17.5538 1.06557 17.4961 0.911013 17.4815C0.756453 17.467 0.600922 17.4962 0.462187 17.5659C0.323328 17.635 0.206498 17.7414 0.124845 17.8733C0.0431921 18.0051 -4.46824e-05 18.1571 3.46508e-08 18.3122L3.46508e-08 30C3.46508e-08 31.8384 1.49492 33.3334 3.33335 33.3334H36.6666C38.505 33.3334 40 31.8385 40 30V18.3122C40 18.1571 39.9567 18.0051 39.8751 17.8733C39.7934 17.7414 39.6765 17.635 39.5377 17.5659Z" fill="#3730A3"/>
</svg>
