<svg width="40" height="35" viewBox="0 0 40 35" fill="none" xmlns="http://www.w3.org/2000/svg">
<path d="M20 13.5938C23.7538 13.5938 26.7969 10.5507 26.7969 6.79688C26.7969 3.04306 23.7538 0 20 0C16.2462 0 13.2031 3.04306 13.2031 6.79688C13.2031 10.5507 16.2462 13.5938 20 13.5938Z" fill="#3730A3"/>
<path d="M33.75 13.5938C36.1231 13.5938 38.0469 11.67 38.0469 9.29688C38.0469 6.92378 36.1231 5 33.75 5C31.3769 5 29.4531 6.92378 29.4531 9.29688C29.4531 11.67 31.3769 13.5938 33.75 13.5938Z" fill="#3730A3"/>
<path d="M6.25 13.5938C8.6231 13.5938 10.5469 11.67 10.5469 9.29688C10.5469 6.92378 8.6231 5 6.25 5C3.8769 5 1.95312 6.92378 1.95312 9.29688C1.95312 11.67 3.8769 13.5938 6.25 13.5938Z" fill="#3730A3"/>
<path d="M10.4836 17.4526C8.79219 16.0668 7.26039 16.2502 5.30469 16.2502C2.37969 16.2502 0 18.6159 0 21.5229V30.0549C0 31.3174 1.03047 32.344 2.29766 32.344C7.76844 32.344 7.10938 32.443 7.10938 32.108C7.10938 26.0623 6.39328 21.6286 10.4836 17.4526Z" fill="#3730A3"/>
<path d="M21.8601 16.2812C18.4442 15.9962 15.4751 16.2844 12.914 18.3983C8.62834 21.8312 9.45311 26.4533 9.45311 32.1077C9.45311 33.6037 10.6703 34.8437 12.189 34.8437C28.6798 34.8437 29.3362 35.3756 30.314 33.2101C30.6348 32.4777 30.5469 32.7104 30.5469 25.7046C30.5469 20.1401 25.7287 16.2812 21.8601 16.2812ZM34.6953 16.2499C32.7289 16.2499 31.2055 16.0683 29.5164 17.4522C33.5762 21.5972 32.8906 25.7284 32.8906 32.1077C32.8906 32.4447 32.3435 32.3437 37.6203 32.3437C38.9328 32.3437 40 31.2804 40 29.9733V21.5226C40 18.6155 37.6203 16.2499 34.6953 16.2499Z" fill="#3730A3"/>
</svg>
