<svg width="24" height="24" viewBox="0 0 24 24" fill="none" xmlns="http://www.w3.org/2000/svg">
<g clip-path="url(#clip0_35_387)">
<path d="M12 5.625C8.4848 5.625 5.625 8.48484 5.625 12C5.625 15.5152 8.4848 18.375 12 18.375C15.5152 18.375 18.375 15.5152 18.375 12C18.375 8.48484 15.5152 5.625 12 5.625ZM11.0056 15.1074L8.27114 12.3729L9.2655 11.3785L11.0056 13.1187L14.7345 9.38977L15.7289 10.3841L11.0056 15.1074Z" fill="white"/>
<path d="M22.6912 8.84011C22.1128 8.26167 21.7942 7.49264 21.7942 6.67462C21.7942 4.21055 19.7895 2.20584 17.3255 2.20584C16.5074 2.20584 15.7384 1.88728 15.16 1.30889C14.3159 0.464859 13.1937 0 12.0001 0C10.8065 0 9.68422 0.464859 8.84019 1.30889C8.2618 1.88728 7.49272 2.20584 6.67465 2.20584C4.21058 2.20584 2.20592 4.21055 2.20592 6.67462C2.20592 7.49264 1.88736 8.26167 1.30892 8.84011C-0.433377 10.5825 -0.433377 13.4175 1.30892 15.1599C1.88736 15.7383 2.20592 16.5074 2.20592 17.3254C2.20592 19.7895 4.21062 21.7942 6.67465 21.7942C7.49272 21.7942 8.26175 22.1127 8.84019 22.6911C9.68422 23.5351 10.8065 24 12.0001 24C13.1937 24 14.3159 23.5351 15.16 22.6911C15.7384 22.1127 16.5074 21.7942 17.3255 21.7942C19.7896 21.7942 21.7942 19.7895 21.7942 17.3254C21.7942 16.5074 22.1128 15.7383 22.6912 15.1599C24.4336 13.4175 24.4336 10.5825 22.6912 8.84011ZM19.7813 12C19.7813 16.2906 16.2907 19.7812 12.0001 19.7812C7.70947 19.7812 4.21883 16.2906 4.21883 12C4.21883 7.70944 7.70947 4.21875 12.0001 4.21875C16.2907 4.21875 19.7813 7.70944 19.7813 12Z" fill="white"/>
</g>
<defs>
<clipPath id="clip0_35_387">
<rect width="24" height="24" fill="white"/>
</clipPath>
</defs>
</svg>
