<svg width="40" height="34" viewBox="0 0 40 34" fill="none" xmlns="http://www.w3.org/2000/svg">
<path fill-rule="evenodd" clip-rule="evenodd" d="M6.75703 1.83203H0.916406C0.410156 1.83203 0 1.42187 0 0.915625C0 0.410156 0.410156 0 0.916406 0H7.67266C8.17891 0 8.58906 0.410156 8.58906 0.915625V25.0187H39.0836C39.5898 25.0187 40 25.4297 40 25.9352C40 26.4406 39.5898 26.8516 39.0836 26.8516H7.67266C7.16719 26.8516 6.75703 26.4406 6.75703 25.9352V1.83203ZM14.093 33.5594C12.4555 33.5594 11.1234 32.2281 11.1234 30.5906C11.1234 28.9531 12.4555 27.6219 14.093 27.6219C15.7297 27.6219 17.0617 28.9531 17.0617 30.5906C17.0617 32.2281 15.7297 33.5594 14.093 33.5594ZM32.8117 33.5594C31.1742 33.5594 29.8422 32.2281 29.8422 30.5906C29.8422 28.9531 31.1742 27.6219 32.8117 27.6219C34.4484 27.6219 35.7805 28.9531 35.7805 30.5906C35.7805 32.2281 34.4484 33.5594 32.8117 33.5594Z" fill="#3730A3"/>
<path fill-rule="evenodd" clip-rule="evenodd" d="M36.7641 26.3928H24.8359C24.5836 26.3928 24.3781 26.1881 24.3781 25.935V15.2717C24.3781 15.0186 24.5836 14.8131 24.8359 14.8131H36.7641C37.0164 14.8131 37.2219 15.0186 37.2219 15.2717V25.935C37.2219 26.1881 37.0164 26.3928 36.7641 26.3928ZM29.3422 13.1295H17.4148C17.1617 13.1295 16.9562 12.924 16.9562 12.6717V2.00762C16.9562 1.75527 17.1617 1.5498 17.4148 1.5498H29.3422C29.5953 1.5498 29.8 1.75527 29.8 2.00762V12.6717C29.8 12.924 29.5953 13.1295 29.3422 13.1295ZM21.9203 26.3928H9.99297C9.74063 26.3928 9.53516 26.1881 9.53516 25.935V15.2717C9.53516 15.0186 9.74063 14.8131 9.99297 14.8131H21.9203C22.1734 14.8131 22.3789 15.0186 22.3789 15.2717V25.935C22.3789 26.1881 22.1734 26.3928 21.9203 26.3928Z" fill="#3730A3"/>
</svg>
