<svg width="26" height="26" viewBox="0 0 26 26" fill="none" xmlns="http://www.w3.org/2000/svg">
<path d="M13.0001 25.4583C12.945 25.4584 12.8902 25.4502 12.8376 25.4339C5.75692 23.2207 2.16675 16.4861 2.16675 5.41663C2.16673 5.28977 2.21123 5.16693 2.2925 5.06953C2.37377 4.97212 2.48665 4.90633 2.61146 4.88363C2.66996 4.87496 8.49883 3.78188 12.6751 0.649959C12.7688 0.579639 12.8829 0.541626 13.0001 0.541626C13.1173 0.541626 13.2313 0.579639 13.3251 0.649959C17.5013 3.78188 23.3302 4.87496 23.3887 4.88363C23.5135 4.90633 23.6264 4.97212 23.7077 5.06953C23.7889 5.16693 23.8334 5.28977 23.8334 5.41663C23.8334 16.4861 20.2432 23.2207 13.1626 25.4339C13.11 25.4502 13.0552 25.4584 13.0001 25.4583Z" fill="#F39C12"/>
<path d="M12.6751 0.649959C8.49883 3.78188 2.66996 4.87496 2.61146 4.88363C2.48665 4.90633 2.37377 4.97212 2.2925 5.06953C2.21123 5.16693 2.16673 5.28977 2.16675 5.41663C2.16675 16.4861 5.75692 23.2207 12.8376 25.4339C12.8902 25.4502 12.945 25.4584 13.0001 25.4583V0.541626C12.8829 0.541626 12.7688 0.579639 12.6751 0.649959Z" fill="#E67E22"/>
<path d="M13 22.5874C12.9314 22.5873 12.8634 22.5743 12.7996 22.549C7.87636 20.5903 5.30019 15.6871 4.92319 7.56051C4.91751 7.43826 4.9534 7.31769 5.02501 7.21844C5.09661 7.1192 5.19972 7.04712 5.31752 7.01397C7.91226 6.30457 10.4009 5.2526 12.7178 3.88584C12.8028 3.83396 12.9004 3.80652 13 3.80652C13.0996 3.80652 13.1972 3.83396 13.2822 3.88584C15.5991 5.2526 18.0877 6.30457 20.6824 7.01397C20.8002 7.04712 20.9034 7.1192 20.975 7.21844C21.0466 7.31769 21.0825 7.43826 21.0768 7.56051C20.6976 15.6855 18.1236 20.5903 13.2004 22.549C13.1366 22.5743 13.0686 22.5873 13 22.5874Z" fill="#F1C40F"/>
<path d="M12.7178 3.8859C10.4009 5.25266 7.91226 6.30462 5.31752 7.01402C5.19972 7.04718 5.09661 7.11925 5.02501 7.2185C4.9534 7.31775 4.91751 7.43832 4.92319 7.56057C5.30236 15.6856 7.87636 20.5904 12.7996 22.549C12.8634 22.5743 12.9314 22.5874 13 22.5875V3.80627C12.9004 3.80637 12.8027 3.83392 12.7178 3.8859Z" fill="#F39C12"/>
</svg>
