<svg width="54" height="34" viewBox="0 0 54 34" fill="none" xmlns="http://www.w3.org/2000/svg">
<path d="M32.16 30.8136V31.7326H21.89V30.8136H0V31.1916C0 31.7866 0.215984 32.3806 0.649006 32.8136C1.08097 33.2456 1.67598 33.4626 2.271 33.4626H51.727C52.322 33.4626 52.916 33.2466 53.349 32.8136C53.7809 32.3816 53.998 31.7866 53.998 31.1916V30.8136H32.16ZM7.24305 32.3266H4.97301V32.0566H7.24305V32.3266ZM6.43195 29.9487H47.5639C47.9419 29.9487 48.3209 29.7867 48.5909 29.5167C48.8609 29.2467 49.0229 28.8677 49.0229 28.4897V2.22066C49.0229 1.84269 48.8609 1.46367 48.5909 1.19369C48.3209 0.923707 47.9419 0.761719 47.5639 0.761719H6.43195C6.05398 0.761719 5.67496 0.923707 5.40498 1.19369C5.135 1.46367 4.97301 1.84269 4.97301 2.22066V28.4887C4.97301 28.8666 5.135 29.2457 5.40498 29.5156C5.72895 29.8407 6.05398 29.9487 6.43195 29.9487ZM27.025 1.41073C27.295 1.41073 27.511 1.62671 27.511 1.89669C27.511 2.16667 27.295 2.38265 27.025 2.38265C26.755 2.38265 26.539 2.16667 26.539 1.89669C26.539 1.62671 26.755 1.41073 27.025 1.41073ZM7.29705 3.03166H46.7541V27.6786H7.29705V3.03166Z" fill="black"/>
<path d="M32.16 30.8136V31.7326H21.89V30.8136H0V31.1916C0 31.7866 0.215984 32.3806 0.649006 32.8136C1.08097 33.2456 1.67598 33.4626 2.271 33.4626H51.727C52.322 33.4626 52.916 33.2466 53.349 32.8136C53.7809 32.3816 53.998 31.7866 53.998 31.1916V30.8136H32.16ZM7.24305 32.3266H4.97301V32.0566H7.24305V32.3266ZM6.43195 29.9487H47.5639C47.9419 29.9487 48.3209 29.7867 48.5909 29.5167C48.8609 29.2467 49.0229 28.8677 49.0229 28.4897V2.22066C49.0229 1.84269 48.8609 1.46367 48.5909 1.19369C48.3209 0.923707 47.9419 0.761719 47.5639 0.761719H6.43195C6.05398 0.761719 5.67496 0.923707 5.40498 1.19369C5.135 1.46367 4.97301 1.84269 4.97301 2.22066V28.4887C4.97301 28.8666 5.135 29.2457 5.40498 29.5156C5.72895 29.8407 6.05398 29.9487 6.43195 29.9487ZM27.025 1.41073C27.295 1.41073 27.511 1.62671 27.511 1.89669C27.511 2.16667 27.295 2.38265 27.025 2.38265C26.755 2.38265 26.539 2.16667 26.539 1.89669C26.539 1.62671 26.755 1.41073 27.025 1.41073ZM7.29705 3.03166H46.7541V27.6786H7.29705V3.03166Z" fill="url(#paint0_linear_35_555)"/>
<defs>
<linearGradient id="paint0_linear_35_555" x1="0" y1="0.761719" x2="55.1985" y2="9.68994" gradientUnits="userSpaceOnUse">
<stop stop-color="#161629"/>
<stop offset="1" stop-color="#474784"/>
</linearGradient>
</defs>
</svg>
