<svg xmlns="http://www.w3.org/2000/svg" width="19" height="20" viewBox="0 0 19 20" fill="none">
  <path d="M14.6119 5.20351L14.6119 11.9268C14.6088 12.1049 14.5359 12.2746 14.4089 12.3994C14.2818 12.5242 14.1109 12.5942 13.9328 12.5942C13.7547 12.5942 13.5838 12.5242 13.4568 12.3994C13.3298 12.2746 13.2568 12.1049 13.2538 11.9268L13.2538 6.84304L4.80832 15.2885C4.68096 15.4158 4.50821 15.4874 4.32809 15.4874C4.14796 15.4874 3.97522 15.4158 3.84785 15.2885C3.72049 15.1611 3.64893 14.9884 3.64893 14.8082C3.64893 14.6281 3.72049 14.4554 3.84785 14.328L12.2933 5.88256H7.2095C7.11934 5.88413 7.02976 5.86772 6.946 5.8343C6.86224 5.80088 6.78598 5.75111 6.72166 5.6879C6.65734 5.62469 6.60625 5.5493 6.57138 5.46614C6.53651 5.38297 6.51854 5.29369 6.51854 5.20351C6.51854 5.11333 6.5365 5.02405 6.57138 4.94088C6.60625 4.85772 6.65734 4.78233 6.72166 4.71912C6.78597 4.65591 6.86224 4.60614 6.946 4.57272C7.02976 4.5393 7.11934 4.52289 7.2095 4.52446H13.9328C14.1129 4.52448 14.2856 4.59604 14.4129 4.72338C14.5403 4.85072 14.6118 5.02342 14.6119 5.20351Z" fill="white"/>
</svg>