<svg width="27" height="48" viewBox="0 0 27 48" fill="none" xmlns="http://www.w3.org/2000/svg">
<path d="M21.8946 0.000976562H5.924C3.10552 0.00414695 0.821711 2.28806 0.818848 5.10653V42.8947C0.821609 45.7132 3.10562 47.997 5.924 47.9999H21.8946C24.7131 47.9971 26.9969 45.7131 27.0001 42.8947V5.10653C26.997 2.28806 24.7131 0.00424922 21.8946 0.000976562ZM24.8181 42.8947C24.8165 44.5087 23.5085 45.8166 21.8946 45.8182H5.924C4.31006 45.8166 3.00212 44.5087 3.00049 42.8947V5.10653C3.00212 3.49219 4.31006 2.18425 5.924 2.18261H21.8946C23.5085 2.18425 24.8165 3.49219 24.8181 5.10653V42.8947Z" fill="black"/>
<path d="M21.8946 0.000976562H5.924C3.10552 0.00414695 0.821711 2.28806 0.818848 5.10653V42.8947C0.821609 45.7132 3.10562 47.997 5.924 47.9999H21.8946C24.7131 47.9971 26.9969 45.7131 27.0001 42.8947V5.10653C26.997 2.28806 24.7131 0.00424922 21.8946 0.000976562ZM24.8181 42.8947C24.8165 44.5087 23.5085 45.8166 21.8946 45.8182H5.924C4.31006 45.8166 3.00212 44.5087 3.00049 42.8947V5.10653C3.00212 3.49219 4.31006 2.18425 5.924 2.18261H21.8946C23.5085 2.18425 24.8165 3.49219 24.8181 5.10653V42.8947Z" fill="url(#paint0_linear_35_551)"/>
<path d="M17.1822 4.36523H10.6369C10.0345 4.36523 9.5459 4.85337 9.5459 5.45585C9.5459 6.05833 10.0344 6.54687 10.6369 6.54687H17.1822C17.7846 6.54687 18.2729 6.05833 18.2729 5.45585C18.2729 4.85337 17.7847 4.36523 17.1822 4.36523ZM16.0912 41.4551C16.0912 42.6604 15.1145 43.6372 13.9096 43.6372C12.7043 43.6372 11.7275 42.6605 11.7275 41.4551C11.7275 40.2503 12.7042 39.2735 13.9096 39.2735C15.1144 39.2735 16.0912 40.2502 16.0912 41.4551Z" fill="black"/>
<path d="M17.1822 4.36523H10.6369C10.0345 4.36523 9.5459 4.85337 9.5459 5.45585C9.5459 6.05833 10.0344 6.54687 10.6369 6.54687H17.1822C17.7846 6.54687 18.2729 6.05833 18.2729 5.45585C18.2729 4.85337 17.7847 4.36523 17.1822 4.36523ZM16.0912 41.4551C16.0912 42.6604 15.1145 43.6372 13.9096 43.6372C12.7043 43.6372 11.7275 42.6605 11.7275 41.4551C11.7275 40.2503 12.7042 39.2735 13.9096 39.2735C15.1144 39.2735 16.0912 40.2502 16.0912 41.4551Z" fill="url(#paint1_linear_35_551)"/>
<defs>
<linearGradient id="paint0_linear_35_551" x1="0.818848" y1="0.000976562" x2="28.2042" y2="1.46416" gradientUnits="userSpaceOnUse">
<stop stop-color="#161629"/>
<stop offset="1" stop-color="#474784"/>
</linearGradient>
<linearGradient id="paint1_linear_35_551" x1="9.5459" y1="4.36523" x2="18.6959" y2="4.5644" gradientUnits="userSpaceOnUse">
<stop stop-color="#161629"/>
<stop offset="1" stop-color="#474784"/>
</linearGradient>
</defs>
</svg>
