<svg width="46" height="46" viewBox="0 0 46 46" fill="none" xmlns="http://www.w3.org/2000/svg">
<g clip-path="url(#clip0_35_62)">
<path fill-rule="evenodd" clip-rule="evenodd" d="M7.05433 4.23258V8.46516C6.31317 8.46498 5.57924 8.61082 4.89446 8.89437C4.20968 9.17791 3.58748 9.5936 3.0634 10.1177C2.53932 10.6418 2.12364 11.264 1.84009 11.9487C1.55655 12.6335 1.4107 13.3674 1.41089 14.1086V39.5041C1.41089 41.0008 2.00546 42.4363 3.06381 43.4946C4.12217 44.553 5.5576 45.1475 7.05433 45.1475H38.0933C39.59 45.1475 41.0254 44.553 42.0838 43.4946C43.1421 42.4363 43.7367 41.0008 43.7367 39.5041V14.1086C43.7367 12.6119 43.1421 11.1764 42.0838 10.1181C41.0254 9.05974 39.59 8.46516 38.0933 8.46516H18.3412C17.5652 8.46516 16.9304 9.09723 16.9304 9.87602C16.9304 10.6548 17.5652 11.2869 18.3412 11.2869H38.0933C38.8416 11.2869 39.5593 11.5842 40.0885 12.1133C40.6177 12.6425 40.915 13.3602 40.915 14.1086V39.5041C40.915 40.2525 40.6177 40.9702 40.0885 41.4994C39.5593 42.0285 38.8416 42.3258 38.0933 42.3258H7.05433C6.30596 42.3258 5.58825 42.0285 5.05907 41.4994C4.5299 40.9702 4.23261 40.2525 4.23261 39.5041V14.1086C4.23242 13.738 4.30528 13.371 4.44702 13.0286C4.58876 12.6861 4.7966 12.375 5.05866 12.1129C5.32072 11.8509 5.63186 11.643 5.97429 11.5013C6.31672 11.3596 6.68373 11.2867 7.05433 11.2869V22.5738C7.05433 22.8193 7.11782 23.0605 7.23774 23.2736L10.0595 28.2116C10.1837 28.4272 10.3626 28.6064 10.578 28.7309C10.7935 28.8555 11.038 28.9211 11.2869 28.9211C11.5358 28.9211 11.7803 28.8555 11.9958 28.7309C12.2113 28.6064 12.3901 28.4272 12.5144 28.2116L15.3361 23.2736C15.456 23.0605 15.5195 22.8193 15.5195 22.5738V4.23258C15.5195 3.11024 15.0751 2.03376 14.2779 1.23944C13.4879 0.445832 12.4085 0 11.2869 0C10.1653 0 9.08597 0.445832 8.29589 1.23944C7.90202 1.632 7.58958 2.0985 7.37652 2.61216C7.16346 3.12581 7.05397 3.67649 7.05433 4.23258ZM36.6824 32.4498H8.46519C7.68922 32.4498 7.05433 33.0819 7.05433 33.8607C7.05433 34.6395 7.68922 35.2715 8.46519 35.2715H36.6824C37.4584 35.2715 38.0933 34.6395 38.0933 33.8607C38.0933 33.0819 37.4584 32.4498 36.6824 32.4498ZM36.6824 25.3955H18.3412C17.5652 25.3955 16.9304 26.0276 16.9304 26.8064C16.9304 27.5851 17.5652 28.2172 18.3412 28.2172H36.6824C37.4584 28.2172 38.0933 27.5851 38.0933 26.8064C38.0933 26.0276 37.4584 25.3955 36.6824 25.3955ZM12.6978 8.46516V22.1992L11.2869 24.6682L9.87605 22.1992V8.46516H12.6978ZM36.6824 18.3412H18.3412C17.5652 18.3412 16.9304 18.9733 16.9304 19.752C16.9304 20.5308 17.5652 21.1629 18.3412 21.1629H36.6824C37.4584 21.1629 38.0933 20.5308 38.0933 19.752C38.0933 18.9733 37.4584 18.3412 36.6824 18.3412ZM12.6978 5.64344H9.87605V4.23258C9.87605 3.8587 10.0242 3.49964 10.2923 3.2351C10.5533 2.97057 10.913 2.82172 11.2869 2.82172C11.6608 2.82172 12.0206 2.97057 12.2816 3.2351C12.5496 3.49964 12.6978 3.8587 12.6978 4.23258V5.64344Z" fill="#3730A3"/>
</g>
<defs>
<clipPath id="clip0_35_62">
<rect width="45.1475" height="45.1475" fill="white"/>
</clipPath>
</defs>
</svg>
