<svg width="26" height="26" viewBox="0 0 26 26" fill="none" xmlns="http://www.w3.org/2000/svg">
<path d="M23.1562 4.0625H2.84375C1.27573 4.0625 0 5.33823 0 6.90625V19.0938C0 20.6618 1.27573 21.9375 2.84375 21.9375H23.1562C24.7243 21.9375 26 20.6618 26 19.0938V6.90625C26 5.33823 24.7243 4.0625 23.1562 4.0625ZM2.84375 5.6875H23.1562C23.8282 5.6875 24.375 6.23426 24.375 6.90625V8.53125H1.625V6.90625C1.625 6.23426 2.17176 5.6875 2.84375 5.6875ZM23.1562 20.3125H2.84375C2.17176 20.3125 1.625 19.7657 1.625 19.0938V10.1562H24.375V19.0938C24.375 19.7657 23.8282 20.3125 23.1562 20.3125Z" fill="#3730A3"/>
<path d="M5.6875 17.875H4.875C4.4263 17.875 4.0625 17.5112 4.0625 17.0625V16.25C4.0625 15.8013 4.4263 15.4375 4.875 15.4375H5.6875C6.1362 15.4375 6.5 15.8013 6.5 16.25V17.0625C6.5 17.5112 6.1362 17.875 5.6875 17.875Z" fill="#3730A3"/>
</svg>
