<svg width="26" height="26" viewBox="0 0 26 26" fill="none" xmlns="http://www.w3.org/2000/svg">
<g clip-path="url(#clip0_35_454)">
<path d="M24.4766 12.4537V9.38836C24.4766 7.88239 23.2783 6.65171 21.7852 6.59798V4.71648C21.7852 3.73646 20.9878 2.93914 20.0078 2.93914H15.1146L14.4828 1.18277C14.3216 0.734877 13.9955 0.376971 13.5645 0.175014C13.1335 -0.026994 12.6497 -0.0485252 12.2025 0.114279L3.32313 3.34605C2.87635 3.50865 2.51992 3.83563 2.31943 4.26676C2.11895 4.6979 2.09859 5.18118 2.26215 5.62765L2.61889 6.60138C1.15969 6.69162 0 7.90682 0 9.38836V23.2009C0 24.7409 1.25293 25.9938 2.79297 25.9938H21.6836C23.2236 25.9938 24.4766 24.7409 24.4766 23.2009V20.034C25.3367 19.9104 26 19.1689 26 18.2751V14.2126C26 13.3188 25.3367 12.5773 24.4766 12.4537ZM24.4766 18.2751C24.4766 18.4151 24.3627 18.529 24.2227 18.529H20.1602C18.9001 18.529 17.875 17.5039 17.875 16.2438C17.875 14.9838 18.9001 13.9587 20.1602 13.9587H24.2227C24.3627 13.9587 24.4766 14.0726 24.4766 14.2126V18.2751ZM3.69261 5.10359C3.68106 5.07225 3.67583 5.03892 3.67724 5.00555C3.67864 4.97217 3.68664 4.93941 3.70079 4.90915C3.71482 4.87884 3.73472 4.85161 3.75933 4.82904C3.78395 4.80647 3.81279 4.78899 3.84419 4.77762L12.7235 1.54585C12.8097 1.51452 12.8824 1.53783 12.9181 1.55454C12.9538 1.57124 13.0182 1.61217 13.0493 1.6985L13.4956 2.93919H13.1523C12.1723 2.93919 11.375 3.73651 11.375 4.71653V6.59544H4.23917L3.69261 5.10359ZM20.2617 4.71648V6.59539H12.8984V4.71648C12.8984 4.57648 13.0123 4.46258 13.1523 4.46258H20.0078C20.1478 4.46258 20.2617 4.57648 20.2617 4.71648ZM21.6836 24.4704H2.79297C2.09295 24.4704 1.52344 23.9009 1.52344 23.2009V9.38836C1.52344 8.68834 2.09295 8.11883 2.79297 8.11883H21.6836C22.3836 8.11883 22.9531 8.68834 22.9531 9.38836V12.4352H20.1602C18.0601 12.4352 16.3516 14.1438 16.3516 16.2438C16.3516 18.3439 18.0601 20.0524 20.1602 20.0524H22.9531V23.2009C22.9531 23.9009 22.3836 24.4704 21.6836 24.4704Z" fill="#3730A3"/>
<path d="M20.1602 17.0056C20.5808 17.0056 20.9219 16.6646 20.9219 16.2439C20.9219 15.8232 20.5808 15.4822 20.1602 15.4822C19.7395 15.4822 19.3984 15.8232 19.3984 16.2439C19.3984 16.6646 19.7395 17.0056 20.1602 17.0056Z" fill="#3730A3"/>
</g>
<defs>
<clipPath id="clip0_35_454">
<rect width="26" height="26" fill="white"/>
</clipPath>
</defs>
</svg>
