<svg width="23" height="24" viewBox="0 0 23 24" fill="none" xmlns="http://www.w3.org/2000/svg">
<path d="M20.4633 9.1968L4.93461 0.435766C4.42748 0.145953 3.85264 -0.00436681 3.26855 9.65765e-05C2.68447 0.00455996 2.11199 0.163648 1.60935 0.461177C1.11965 0.741249 0.712803 1.14595 0.430143 1.63415C0.147482 2.12236 -0.000922528 2.67669 4.31486e-06 3.24082V20.7629C-0.000922528 21.327 0.147482 21.8813 0.430143 22.3695C0.712803 22.8578 1.11965 23.2625 1.60935 23.5425C2.11204 23.8399 2.6845 23.9989 3.26855 24.0034C3.85261 24.0078 4.42744 23.8576 4.93461 23.5679L20.4633 14.8069C20.9642 14.5295 21.3816 14.123 21.6722 13.6297C21.9629 13.1365 22.1162 12.5744 22.1162 12.0019C22.1162 11.4293 21.9629 10.8672 21.6722 10.374C21.3816 9.88069 20.9642 9.47423 20.4633 9.1968Z" fill="white"/>
</svg>
