<svg width="32" height="32" viewBox="0 0 32 32" fill="none" xmlns="http://www.w3.org/2000/svg">
<path d="M30.9776 29.1469L23.3616 21.2259C25.3205 18.9017 26.3942 15.9596 26.3927 12.92C26.3927 5.79602 20.5967 0 13.4727 0C6.34875 0 0.552734 5.79602 0.552734 12.92C0.552734 20.044 6.34875 25.84 13.4727 25.84C16.1472 25.84 18.6958 25.0333 20.8748 23.502L28.5487 31.4832C28.8694 31.8163 29.3008 32 29.7631 32C30.2007 32 30.6159 31.8332 30.931 31.5298C31.2526 31.2197 31.4382 30.7947 31.4469 30.348C31.4557 29.9013 31.2869 29.4694 30.9776 29.1469ZM13.4727 3.37043C18.7385 3.37043 23.0223 7.65425 23.0223 12.92C23.0223 18.1857 18.7385 22.4695 13.4727 22.4695C8.20698 22.4695 3.92317 18.1857 3.92317 12.92C3.92317 7.65425 8.20698 3.37043 13.4727 3.37043Z" fill="url(#paint0_linear_195_1397)"/>
<defs>
<linearGradient id="paint0_linear_195_1397" x1="-1" y1="7" x2="31" y2="32" gradientUnits="userSpaceOnUse">
<stop stop-color="#161629"/>
<stop offset="1" stop-color="#464682"/>
</linearGradient>
</defs>
</svg>
