<svg width="36" height="36" viewBox="0 0 36 36" fill="none" xmlns="http://www.w3.org/2000/svg">
<g clip-path="url(#clip0_195_1515)">
<path d="M15.75 36C16.9926 36 18 34.9926 18 33.75C18 32.5074 16.9926 31.5 15.75 31.5C14.5074 31.5 13.5 32.5074 13.5 33.75C13.5 34.9926 14.5074 36 15.75 36Z" fill="white"/>
<path d="M27.75 36C28.9926 36 30 34.9926 30 33.75C30 32.5074 28.9926 31.5 27.75 31.5C26.5074 31.5 25.5 32.5074 25.5 33.75C25.5 34.9926 26.5074 36 27.75 36Z" fill="white"/>
<path d="M36 9.75C36 15.126 31.626 19.5 26.25 19.5C20.874 19.5 16.5 15.126 16.5 9.75C16.5 4.374 20.874 0 26.25 0C31.626 0 36 4.374 36 9.75ZM30.987 5.247C30.6875 4.98543 30.2964 4.85338 29.8996 4.87981C29.5028 4.90625 29.1327 5.08901 28.8705 5.388L24.6765 10.182L22.8105 8.316C22.5292 8.03474 22.1478 7.87673 21.75 7.87673C21.3522 7.87673 20.9708 8.03474 20.6895 8.316C20.4082 8.59726 20.2502 8.97873 20.2502 9.3765C20.2502 9.77426 20.4082 10.1557 20.6895 10.437L23.6895 13.437C23.8347 13.5821 24.0081 13.6959 24.199 13.7713C24.3899 13.8467 24.5942 13.8822 24.7994 13.8754C25.0045 13.8687 25.2061 13.8199 25.3916 13.7321C25.5772 13.6443 25.7427 13.5193 25.878 13.365L31.128 7.365C31.2579 7.21673 31.3574 7.0443 31.4206 6.85757C31.4838 6.67084 31.5096 6.47348 31.4966 6.27677C31.4835 6.08006 31.4317 5.88786 31.3443 5.71116C31.2568 5.53447 31.1354 5.37674 30.987 5.247Z" fill="white"/>
<path d="M13.5001 9.75C13.5001 9.4965 13.5226 9.249 13.5376 9H9.53856L8.96856 6.291C8.77052 5.36979 8.26461 4.54351 7.53415 3.9483C6.8037 3.35308 5.89228 3.02443 4.95006 3.0165L1.12956 3H1.12506C0.826687 2.99941 0.540301 3.11736 0.328901 3.32792C0.1175 3.53847 -0.00159828 3.82438 -0.00219501 4.12275C-0.00279175 4.42112 0.115162 4.70751 0.325719 4.91891C0.536275 5.13031 0.822186 5.24941 1.12056 5.25L4.93956 5.2665C5.81706 5.2695 6.58506 5.8965 6.76656 6.7545L7.52406 10.356L10.2391 23.25H9.37506C7.51356 23.25 6.00006 24.7635 6.00006 26.625C6.00006 28.4865 7.51356 30 9.37506 30H31.8751C32.1734 30 32.4596 29.8815 32.6706 29.6705C32.8815 29.4595 33.0001 29.1734 33.0001 28.875C33.0001 28.5766 32.8815 28.2905 32.6706 28.0795C32.4596 27.8685 32.1734 27.75 31.8751 27.75H9.37506C9.07669 27.75 8.79054 27.6315 8.57956 27.4205C8.36858 27.2095 8.25006 26.9234 8.25006 26.625C8.25006 26.3266 8.36858 26.0405 8.57956 25.8295C8.79054 25.6185 9.07669 25.5 9.37506 25.5H31.8751C32.1332 25.4997 32.3835 25.4108 32.5839 25.248C32.7843 25.0853 32.9228 24.8586 32.9761 24.606L33.9736 19.8705C31.7595 21.5748 29.0441 22.4993 26.2501 22.5C19.2196 22.5 13.5001 16.7805 13.5001 9.75Z" fill="white"/>
</g>
<defs>
<clipPath id="clip0_195_1515">
<rect width="36" height="36" fill="white"/>
</clipPath>
</defs>
</svg>
