<svg width="36" height="36" viewBox="0 0 36 36" fill="none" xmlns="http://www.w3.org/2000/svg">
<path d="M27.2629 2.89906C26.9406 2.3445 26.3407 2 25.6974 2H18.9745V9.91481H31.3399L27.2629 2.89906ZM17.0899 2H10.3035C9.65895 2 9.05906 2.34513 8.73679 2.90094L4.67481 9.91481H17.0898V2H17.0899ZM4.00012 11.7905V31.7948C4.00012 33.0109 4.99456 34 6.21639 34H29.7839C31.0057 34 32.0001 33.0109 32.0001 31.7948V11.7905H4.00012ZM22.2775 20.203L17.4039 25.0536C17.2199 25.2367 16.9786 25.3287 16.7374 25.3287C16.4962 25.3287 16.2549 25.2367 16.0715 25.0536L13.7868 22.7802C13.4193 22.4144 13.4193 21.8204 13.7868 21.4541C14.1549 21.0877 14.7517 21.0877 15.1198 21.4541L16.7375 23.0647L20.9451 18.8769C21.3133 18.5105 21.9101 18.5105 22.2776 18.8769C22.6457 19.2432 22.6457 19.8366 22.2775 20.203Z" fill="white"/>
</svg>
