<svg width="36" height="36" viewBox="0 0 36 36" fill="none" xmlns="http://www.w3.org/2000/svg">
<g clip-path="url(#clip0_195_1522)">
<path d="M33 7.50007H25.5V6.00002C25.5 4.3455 24.1546 3 22.5 3H13.5C11.8455 3 10.5 4.34543 10.5 6.00002V7.5H3.00002C1.34543 7.50007 3.11858e-08 8.8455 3.11858e-08 10.5V15C3.11858e-08 16.6546 1.34543 18 3.00002 18H15V17.25C15 17.1515 15.0193 17.054 15.057 16.9629C15.0947 16.8719 15.1499 16.7892 15.2196 16.7195C15.2892 16.6499 15.3719 16.5946 15.463 16.557C15.554 16.5193 15.6516 16.4999 15.7501 16.5H20.2501C20.3486 16.4999 20.4461 16.5193 20.5372 16.557C20.6282 16.5946 20.7109 16.6499 20.7806 16.7195C20.8502 16.7892 20.9055 16.8719 20.9431 16.9629C20.9808 17.054 21.0002 17.1515 21.0001 17.25V18H33.0001C34.6546 18 36 16.6546 36 15V10.5C36 8.8455 34.6546 7.50007 33 7.50007ZM22.5 7.50007H13.5V6.00002H22.5V7.50007ZM35.584 18.8093C35.4589 18.7474 35.3191 18.7214 35.1801 18.7345C35.0412 18.7476 34.9086 18.7991 34.7973 18.8833C34.2641 19.2869 33.643 19.5 32.9999 19.5H21V21.75C21.0001 21.8485 20.9807 21.9461 20.9431 22.0371C20.9054 22.1281 20.8502 22.2109 20.7805 22.2805C20.7108 22.3502 20.6281 22.4054 20.5371 22.4431C20.4461 22.4808 20.3485 22.5001 20.25 22.5H15.75C15.6515 22.5001 15.5539 22.4808 15.4629 22.4431C15.3719 22.4054 15.2892 22.3502 15.2195 22.2805C15.1499 22.2109 15.0946 22.1281 15.0569 22.0371C15.0193 21.9461 14.9999 21.8485 15 21.75V19.5H3.00002C2.35695 19.5 1.73588 19.2869 1.20263 18.8833C1.09164 18.7984 0.959018 18.7465 0.819914 18.7334C0.680809 18.7203 0.540831 18.7466 0.415969 18.8093C0.290995 18.8715 0.185849 18.9673 0.112361 19.086C0.038873 19.2046 -4.02143e-05 19.3415 3.11858e-08 19.481L3.11858e-08 30.0001C3.11858e-08 31.6546 1.34543 33.0001 3.00002 33.0001H33C34.6546 33.0001 36.0001 31.6547 36.0001 30.0001V19.481C36.0001 19.3414 35.9611 19.2046 35.8876 19.086C35.8141 18.9673 35.709 18.8715 35.584 18.8093Z" fill="white"/>
</g>
<defs>
<clipPath id="clip0_195_1522">
<rect width="36" height="36" fill="white"/>
</clipPath>
</defs>
</svg>
