<svg width="36" height="36" viewBox="0 0 36 36" fill="none" xmlns="http://www.w3.org/2000/svg">
<path d="M0 14.6997L12.9951 22.1398L16.3711 17.904L2.68762 10.679L0 14.6997ZM19.5925 17.8882L22.9811 22.1399L36 14.6861L33.2758 10.3856L19.5925 17.8882ZM4.65969 9.33643L17.9787 16.369L31.3168 9.05566L18.0077 2.76904L4.65969 9.33643Z" fill="white"/>
<path d="M3.39258 26.0805L16.9338 33.2304V20.5785L14.0789 24.1606C13.9221 24.3574 13.7001 24.4916 13.453 24.5388C13.2059 24.5861 12.95 24.5433 12.7317 24.4183L3.39258 19.0714V26.0805ZM19.041 20.5785V33.1977L32.5823 25.7626V19.0713L23.2431 24.4182C23.0248 24.5432 22.769 24.5859 22.5219 24.5387C22.2748 24.4914 22.0528 24.3573 21.896 24.1605L19.041 20.5785Z" fill="white"/>
</svg>
