<svg width="36" height="36" viewBox="0 0 36 36" fill="none" xmlns="http://www.w3.org/2000/svg">
<path d="M19.7708 26.5H10.5625C10.2807 26.5 10.0105 26.3881 9.8112 26.1888C9.61194 25.9895 9.5 25.7193 9.5 25.4375V2.0625C9.5 1.78071 9.61194 1.51046 9.8112 1.3112C10.0105 1.11194 10.2807 1 10.5625 1H19.7708C20.0526 1 20.3229 1.11194 20.5221 1.3112C20.7214 1.51046 20.8333 1.78071 20.8333 2.0625V25.4375C20.8333 25.7193 20.7214 25.9895 20.5221 26.1888C20.3229 26.3881 20.0526 26.5 19.7708 26.5ZM33.9375 26.5H24.0208C23.739 26.5 23.4688 26.3881 23.2695 26.1888C23.0703 25.9895 22.9583 25.7193 22.9583 25.4375V16.9375C22.9583 16.6557 23.0703 16.3855 23.2695 16.1862C23.4688 15.9869 23.739 15.875 24.0208 15.875H33.9375C34.2193 15.875 34.4895 15.9869 34.6888 16.1862C34.8881 16.3855 35 16.6557 35 16.9375V25.4375C35 25.7193 34.8881 25.9895 34.6888 26.1888C34.4895 26.3881 34.2193 26.5 33.9375 26.5ZM32.5208 13.75H26.1458C25.864 13.75 25.5938 13.6381 25.3945 13.4388C25.1953 13.2395 25.0833 12.9693 25.0833 12.6875V7.72917C25.0833 7.44737 25.1953 7.17712 25.3945 6.97787C25.5938 6.77861 25.864 6.66667 26.1458 6.66667H32.5208C32.8026 6.66667 33.0729 6.77861 33.2721 6.97787C33.4714 7.17712 33.5833 7.44737 33.5833 7.72917V12.6875C33.5833 12.9693 33.4714 13.2395 33.2721 13.4388C33.0729 13.6381 32.8026 13.75 32.5208 13.75Z" fill="white"/>
<path d="M33.4842 30.75L8.79167 30.7457C6.4485 30.7457 4.54167 28.8389 4.54167 26.4957V12.3333H2.41667C2.04094 12.3333 1.68061 12.1841 1.41493 11.9184C1.14926 11.6527 1 11.2924 1 10.9167C1 10.5409 1.14926 10.1806 1.41493 9.91493C1.68061 9.64926 2.04094 9.5 2.41667 9.5H4.54167C6.10425 9.5 7.375 10.7707 7.375 12.3333V26.4957C7.375 27.2763 8.00967 27.9124 8.79167 27.9124L33.4842 27.9167C33.8599 27.9167 34.2202 28.0659 34.4859 28.3316C34.7516 28.5973 34.9008 28.9576 34.9008 29.3333C34.9008 29.7091 34.7516 30.0694 34.4859 30.3351C34.2202 30.6007 33.8599 30.75 33.4842 30.75Z" fill="white"/>
<path d="M13.7493 33.9377C14.7274 33.9377 15.5202 33.1448 15.5202 32.1668C15.5202 31.1888 14.7274 30.396 13.7493 30.396C12.7713 30.396 11.9785 31.1888 11.9785 32.1668C11.9785 33.1448 12.7713 33.9377 13.7493 33.9377Z" fill="white"/>
<path d="M13.7493 35.0002C12.1868 35.0002 10.916 33.7294 10.916 32.1668C10.916 30.6042 12.1868 29.3335 13.7493 29.3335C15.3119 29.3335 16.5827 30.6042 16.5827 32.1668C16.5827 33.7294 15.3119 35.0002 13.7493 35.0002ZM13.7493 31.4585C13.6561 31.4587 13.5639 31.4772 13.4778 31.5131C13.3918 31.5489 13.3137 31.6013 13.2479 31.6674C13.1821 31.7334 13.13 31.8118 13.0945 31.8979C13.059 31.9841 13.0408 32.0765 13.041 32.1697C13.0412 32.2629 13.0597 32.3551 13.0956 32.4412C13.1314 32.5272 13.1839 32.6053 13.2499 32.6711C13.3159 32.7369 13.3943 32.789 13.4805 32.8245C13.5666 32.86 13.659 32.8782 13.7522 32.878C13.9404 32.8776 14.1208 32.8025 14.2536 32.6691C14.3865 32.5357 14.4609 32.3551 14.4605 32.1668C14.4601 31.9786 14.385 31.7982 14.2516 31.6654C14.1183 31.5325 13.9376 31.4581 13.7493 31.4585Z" fill="white"/>
<path d="M27.9173 33.9377C28.8953 33.9377 29.6882 33.1448 29.6882 32.1668C29.6882 31.1888 28.8953 30.396 27.9173 30.396C26.9393 30.396 26.1465 31.1888 26.1465 32.1668C26.1465 33.1448 26.9393 33.9377 27.9173 33.9377Z" fill="white"/>
<path d="M27.9173 35.0002C26.3547 35.0002 25.084 33.7294 25.084 32.1668C25.084 30.6042 26.3547 29.3335 27.9173 29.3335C29.4799 29.3335 30.7507 30.6042 30.7507 32.1668C30.7507 33.7294 29.4799 35.0002 27.9173 35.0002ZM27.9173 31.4585C27.8241 31.4587 27.7319 31.4772 27.6458 31.5131C27.5598 31.5489 27.4816 31.6013 27.4159 31.6674C27.3501 31.7334 27.298 31.8118 27.2625 31.8979C27.227 31.9841 27.2088 32.0765 27.209 32.1697C27.2092 32.2629 27.2277 32.3551 27.2636 32.4412C27.2994 32.5272 27.3518 32.6053 27.4179 32.6711C27.4839 32.7369 27.5623 32.789 27.6484 32.8245C27.7346 32.86 27.8269 32.8782 27.9202 32.878C28.1084 32.8776 28.2888 32.8025 28.4216 32.6691C28.5544 32.5357 28.6289 32.3551 28.6285 32.1668C28.6281 31.9786 28.553 31.7982 28.4196 31.6654C28.2862 31.5325 28.1056 31.4581 27.9173 31.4585Z" fill="white"/>
</svg>
