<svg width="41" height="41" viewBox="0 0 41 41" fill="none" xmlns="http://www.w3.org/2000/svg">
<g clip-path="url(#clip0_35_426)">
<path d="M40.607 20.8291C40.607 24.8262 39.4205 28.7134 37.176 32.0705C36.871 32.5269 36.3698 32.7735 35.8593 32.7735C35.5572 32.7735 35.2516 32.6873 34.9815 32.5065C34.2551 32.0211 34.0601 31.0385 34.5455 30.3121C36.4412 27.4771 37.4429 24.1981 37.4429 20.8291C37.4429 19.3816 37.2618 17.9437 36.9046 16.5564C36.6868 15.7104 37.1964 14.8477 38.0424 14.6299C38.889 14.4123 39.7511 14.9215 39.969 15.7676C40.3922 17.4127 40.607 19.1155 40.607 20.8291ZM29.1953 35.4546C26.5381 37.0641 23.4818 37.9151 20.357 37.9151C10.9358 37.9151 3.271 30.2503 3.271 20.8291C3.271 11.408 10.9358 3.74317 20.357 3.74317C23.8452 3.74317 27.1993 4.78692 30.0571 6.76169C30.7758 7.25829 31.7612 7.0781 32.2581 6.35938C32.7546 5.64066 32.5748 4.65529 31.8557 4.15845C28.4667 1.81688 24.4906 0.579102 20.357 0.579102C14.9481 0.579102 9.8627 2.6855 6.03798 6.51015C2.21341 10.3349 0.106934 15.4202 0.106934 20.8291C0.106934 26.238 2.21333 31.3234 6.03798 35.1481C9.8627 38.9727 14.9481 41.0792 20.357 41.0792C24.06 41.0792 27.6831 40.07 30.8348 38.1607C31.5823 37.7081 31.8212 36.7353 31.3685 35.9879C30.9155 35.2404 29.9428 35.0019 29.1953 35.4546ZM20.5096 25.4164C20.259 25.4263 20.0251 25.3373 19.8434 25.1643L11.5579 17.3082C10.9238 16.7069 9.92235 16.7335 9.32133 17.3675C8.72008 18.0016 8.74666 19.003 9.38066 19.604L17.6647 27.4588C18.4298 28.1862 19.4195 28.5811 20.4682 28.5811C20.5244 28.5811 20.5807 28.5798 20.6369 28.5777C21.7477 28.5329 22.768 28.0521 23.5096 27.2237C23.5285 27.203 23.5463 27.1817 23.564 27.1597L40.2578 6.39553C40.8054 5.71446 40.6973 4.71865 40.0162 4.17143C39.3355 3.62388 38.3393 3.73202 37.7919 4.41308L21.1306 25.1368C20.9679 25.3073 20.7451 25.4077 20.5096 25.4164H20.5096Z" fill="#3730A3"/>
</g>
<defs>
<clipPath id="clip0_35_426">
<rect width="40.5001" height="40.5001" fill="white" transform="translate(0.106934 0.5)"/>
</clipPath>
</defs>
</svg>
