<svg width="46" height="46" viewBox="0 0 46 46" fill="none" xmlns="http://www.w3.org/2000/svg">
<path d="M30.1878 15.8081C29.8066 15.8081 29.4409 15.9596 29.1714 16.2291C28.9018 16.4987 28.7503 16.8644 28.7503 17.2456C28.7503 20.4167 26.1714 22.9956 23.0003 22.9956C19.8291 22.9956 17.2503 20.4167 17.2503 17.2456C17.2503 16.8644 17.0988 16.4987 16.8292 16.2291C16.5596 15.9596 16.194 15.8081 15.8128 15.8081C15.4315 15.8081 15.0659 15.9596 14.7963 16.2291C14.5267 16.4987 14.3752 16.8644 14.3752 17.2456C14.3752 22.0023 18.2436 25.8706 23.0003 25.8706C27.757 25.8706 31.6253 22.0023 31.6253 17.2456C31.6253 16.8644 31.4739 16.4987 31.2043 16.2291C30.9347 15.9596 30.5691 15.8081 30.1878 15.8081Z" fill="#3730A3"/>
<path d="M42.0558 34.8134L38.7165 13.7022C38.5602 12.686 38.0442 11.7596 37.2625 11.0916C36.4809 10.4237 35.4854 10.0585 34.4571 10.0625H31.4959C30.8059 5.99006 27.2653 2.875 23.0002 2.875C18.7351 2.875 15.1931 5.99006 14.5045 10.0625H11.5433C10.5151 10.0585 9.51957 10.4237 8.73789 11.0916C7.9562 11.7596 7.44027 12.686 7.28394 13.7022L3.94462 34.8134C3.78159 35.8397 3.8433 36.8893 4.12549 37.8895C4.40768 38.8897 4.90362 39.8167 5.57906 40.6065C6.25348 41.3969 7.09145 42.0314 8.03507 42.4662C8.97869 42.901 10.0055 43.1258 11.0445 43.125H34.956C37.0619 43.125 39.0529 42.2064 40.4214 40.6065C41.0968 39.8167 41.5927 38.8897 41.8749 37.8895C42.1571 36.8893 42.2188 35.8397 42.0558 34.8134ZM23.0002 5.75C25.6711 5.75 27.9021 7.59 28.5461 10.0625H17.4543C18.0969 7.59 20.3293 5.75 23.0002 5.75ZM38.2349 38.7378C37.8304 39.2121 37.3277 39.593 36.7616 39.8541C36.1955 40.1152 35.5794 40.2503 34.956 40.25H11.0445C9.7809 40.25 8.58633 39.6994 7.76551 38.7378C7.36008 38.2642 7.06231 37.7083 6.89279 37.1084C6.72327 36.5085 6.68605 35.879 6.78369 35.2633L10.123 14.1508C10.175 13.8119 10.3471 13.503 10.6078 13.2803C10.8684 13.0576 11.2004 12.9359 11.5433 12.9375H34.4571C35.1687 12.9375 35.7653 13.4478 35.8774 14.1508L39.2167 35.2633C39.3144 35.879 39.2772 36.5085 39.1076 37.1084C38.9381 37.7083 38.6403 38.2642 38.2349 38.7378Z" fill="#3730A3"/>
</svg>
