<svg width="42" height="42" viewBox="0 0 42 42" fill="none" xmlns="http://www.w3.org/2000/svg">
<path d="M27.3317 19.4746C30.0191 17.5147 31.7691 14.3427 31.7691 10.7692C31.7691 4.83107 26.9381 0 20.9999 0C15.0618 0 10.2307 4.83107 10.2307 10.7692C10.2307 14.3427 11.9807 17.5147 14.6682 19.4746C7.98754 22.0311 3.23071 28.5084 3.23071 36.0769C3.23071 39.3429 5.88779 42 9.15378 42H32.846C36.112 42 38.7691 39.3429 38.7691 36.0769C38.7691 28.5084 34.0123 22.0311 27.3317 19.4746ZM13.4615 10.7692C13.4615 6.61254 16.8432 3.2308 20.9999 3.2308C25.1566 3.2308 28.5383 6.61254 28.5383 10.7692C28.5383 14.9259 25.1566 18.3077 20.9999 18.3077C16.8432 18.3077 13.4615 14.9259 13.4615 10.7692ZM32.846 38.7692H9.15378C7.66926 38.7692 6.46151 37.5615 6.46151 36.0769C6.46151 28.0603 12.9833 21.5384 21 21.5384C29.0167 21.5384 35.5385 28.0602 35.5385 36.0769C35.5384 37.5615 34.3306 38.7692 32.846 38.7692Z" fill="#3730A3"/>
</svg>
