<svg width="46" height="45" viewBox="0 0 46 45" fill="none" xmlns="http://www.w3.org/2000/svg">
<path d="M45.9234 25.4993L42.4317 6.12681C41.9571 3.49473 39.3818 1.73081 36.6916 2.19499L6.74346 7.36098C4.0528 7.82507 2.24977 10.344 2.72418 12.9761L2.98075 14.3997C1.22844 15.1475 0 16.8578 0 18.8445V38.0319C0 40.7046 2.22274 42.879 4.95485 42.879H34.6839C37.416 42.879 39.6388 40.7046 39.6388 38.0319V31.5052L41.9041 31.1144C43.2075 30.8896 44.3434 30.1817 45.1025 29.1211C45.8617 28.0605 46.1532 26.7742 45.9234 25.4993ZM42.8887 27.6046C42.5437 28.0867 42.0273 28.4085 41.4349 28.5107L39.6388 28.8205V18.8444C39.6388 16.1717 37.416 13.9972 34.6839 13.9972H5.65267L5.38583 12.5169C5.28133 11.9374 5.41394 11.3527 5.75898 10.8706C6.10401 10.3885 6.6204 10.0667 7.21282 9.96451L37.161 4.79861C37.2905 4.77622 37.4217 4.76496 37.5532 4.76494C38.6249 4.76494 39.5778 5.51827 39.7701 6.58579L43.2619 25.9583C43.3663 26.5379 43.2338 27.1226 42.8887 27.6046ZM34.6839 40.2351H4.95485C3.71298 40.2351 2.70264 39.2467 2.70264 38.0319V28.6356H36.9361V38.0318C36.9361 39.2467 35.9258 40.2351 34.6839 40.2351ZM4.95485 16.6412H34.6839C35.9258 16.6412 36.9361 17.6296 36.9361 18.8445V19.9945H2.70264V18.8445C2.70264 17.6296 3.71298 16.6412 4.95485 16.6412ZM36.9361 22.6384V25.9918H2.70264V22.6384H36.9361Z" fill="#3730A3"/>
<path d="M13.0045 34.9263H6.87403C6.12774 34.9263 5.52271 35.5181 5.52271 36.2482C5.52271 36.9783 6.12774 37.5702 6.87403 37.5702H13.0045C13.7508 37.5702 14.3558 36.9783 14.3558 36.2482C14.3558 35.5181 13.7508 34.9263 13.0045 34.9263Z" fill="#3730A3"/>
</svg>
