<svg width="18" height="18" viewBox="0 0 18 18" fill="none" xmlns="http://www.w3.org/2000/svg">
<g clip-path="url(#clip0_35_194)">
<path d="M17.5223 6.43829L11.9888 5.59304L9.50857 0.310035C9.32332 -0.0844649 8.67607 -0.0844649 8.49082 0.310035L6.01132 5.59304L0.477821 6.43829C0.375654 6.45398 0.279787 6.49752 0.200746 6.56414C0.121705 6.63075 0.0625472 6.71785 0.0297671 6.81588C-0.00301305 6.91391 -0.00814745 7.01908 0.0149276 7.11983C0.0380026 7.22059 0.0883948 7.31304 0.160571 7.38704L4.18057 11.5075L3.23032 17.3328C3.21335 17.437 3.22604 17.5438 3.26693 17.6411C3.30783 17.7384 3.37527 17.8223 3.46156 17.8831C3.54786 17.9439 3.64951 17.9791 3.75491 17.9849C3.8603 17.9906 3.96519 17.9666 4.05757 17.9155L9.00007 15.184L13.9426 17.9163C14.035 17.9673 14.1398 17.9914 14.2452 17.9856C14.3506 17.9799 14.4523 17.9446 14.5386 17.8838C14.6249 17.823 14.6923 17.7392 14.7332 17.6419C14.7741 17.5446 14.7868 17.4377 14.7698 17.3335L13.8196 11.5083L17.8396 7.38779C17.912 7.31381 17.9625 7.22131 17.9857 7.12044C18.0089 7.01958 18.0039 6.91427 17.9711 6.8161C17.9383 6.71794 17.879 6.63073 17.7998 6.56407C17.7207 6.49741 17.6246 6.45388 17.5223 6.43829Z" fill="#FFC107"/>
</g>
<defs>
<clipPath id="clip0_35_194">
<rect width="18" height="18" fill="white"/>
</clipPath>
</defs>
</svg>
