<?xml version="1.0" standalone="no"?>
<!DOCTYPE svg PUBLIC "-//W3C//DTD SVG 20010904//EN"
 "http://www.w3.org/TR/2001/REC-SVG-20010904/DTD/svg10.dtd">
<svg version="1.0" xmlns="http://www.w3.org/2000/svg"
 width="664.000000pt" height="106.000000pt" viewBox="0 0 664.000000 106.000000"
 preserveAspectRatio="xMidYMid meet">

<g transform="translate(0.000000,106.000000) scale(0.100000,-0.100000)"
fill="#000000" stroke="none">
<path d="M164 896 l-34 -34 2 -234 3 -233 47 -6 c67 -10 155 -37 213 -66 66
-33 189 -125 217 -163 22 -31 62 -43 52 -16 -9 23 136 98 231 120 29 7 29 7
12 -12 -10 -11 -39 -28 -65 -37 -26 -10 -72 -32 -102 -49 l-55 -31 75 -3 c92
-4 115 2 146 35 19 21 24 37 24 80 0 53 0 53 -27 47 -72 -16 -164 -54 -213
-87 -34 -23 -58 -33 -64 -27 -6 6 -4 15 4 25 21 25 184 102 244 116 34 7 56
17 56 26 0 16 1 16 -73 -3 -55 -14 -174 -69 -239 -111 -15 -9 -30 -14 -34 -10
-26 25 151 124 274 154 43 10 72 22 72 30 0 9 -10 11 -32 7 -106 -19 -210 -62
-290 -120 -32 -22 -56 -33 -66 -29 -47 18 180 144 311 172 l77 16 0 206 c0
180 -3 209 -18 227 -34 42 -48 44 -387 44 l-327 0 -34 -34z m472 -31 c82 -24
86 -31 59 -93 l-24 -53 -40 21 c-67 33 -131 22 -131 -24 0 -31 16 -43 81 -62
118 -35 159 -78 159 -167 l0 -44 -65 -32 c-35 -18 -87 -50 -114 -71 l-50 -39
-83 42 c-46 23 -85 43 -86 44 -2 1 8 22 23 48 l28 46 26 -25 c14 -14 43 -32
64 -41 51 -21 104 -6 113 32 10 37 -6 55 -62 76 -148 56 -179 87 -179 176 1
75 31 122 99 156 57 29 110 32 182 10z"/>
<path d="M1248 790 c-87 -26 -134 -89 -125 -167 8 -72 53 -106 186 -138 103
-25 135 -60 90 -101 -30 -27 -136 -24 -203 5 -27 12 -49 20 -50 19 -9 -18 -36
-80 -36 -82 0 -14 117 -50 177 -54 95 -6 155 11 204 58 36 34 39 41 39 92 0
91 -34 121 -181 158 -46 12 -90 26 -96 32 -20 16 -16 66 6 78 29 15 136 12
178 -5 19 -8 37 -15 38 -15 2 0 10 19 19 42 20 48 18 50 -58 73 -53 16 -144
18 -188 5z"/>
<path d="M4772 782 c-70 -25 -121 -68 -152 -128 -34 -66 -35 -179 -3 -240 47
-88 147 -144 258 -144 226 0 355 246 222 422 -70 92 -210 131 -325 90z m173
-102 c53 -26 85 -80 85 -145 0 -95 -54 -155 -145 -163 -72 -6 -126 22 -154 81
-74 152 65 299 214 227z"/>
<path d="M6220 791 c-90 -29 -130 -77 -130 -152 0 -81 49 -120 196 -158 69
-18 104 -38 104 -62 0 -4 -9 -17 -19 -30 -17 -21 -27 -24 -88 -23 -47 0 -83 7
-117 22 -27 12 -50 22 -51 22 -3 0 -35 -77 -35 -84 0 -2 24 -14 53 -27 72 -33
222 -34 282 -3 108 56 117 197 16 249 -15 7 -65 23 -112 35 -115 30 -142 57
-99 100 25 25 116 27 180 5 23 -8 44 -15 45 -15 3 0 35 77 35 84 0 2 -19 12
-42 21 -48 19 -180 29 -218 16z"/>
<path d="M1580 612 c0 -175 1 -180 28 -233 22 -44 36 -58 81 -81 114 -59 262
-26 319 70 26 46 27 51 30 235 l4 187 -56 0 -56 0 0 -140 c0 -237 -23 -286
-128 -278 -96 8 -111 44 -112 276 l0 142 -55 0 -55 0 0 -178z"/>
<path d="M2120 536 l0 -256 60 0 60 0 0 70 0 70 58 0 57 -1 48 -69 47 -70 60
0 c33 0 60 2 60 4 0 3 -22 37 -50 77 -27 40 -50 75 -50 79 0 3 13 13 29 23 36
21 71 91 71 142 0 61 -35 121 -88 153 -45 26 -54 27 -204 30 l-158 4 0 -256z
m305 129 c27 -26 33 -72 14 -107 -16 -29 -70 -48 -139 -48 l-60 0 0 90 0 90
80 0 c73 0 83 -3 105 -25z"/>
<path d="M2630 535 l0 -255 195 0 195 0 0 45 0 45 -140 0 -140 0 0 60 0 60
120 0 120 0 0 45 0 44 -117 3 -118 3 0 55 0 55 133 3 132 3 0 44 0 45 -190 0
-190 0 0 -255z"/>
<path d="M3250 535 l0 -255 60 0 60 0 0 255 0 255 -60 0 -60 0 0 -255z"/>
<path d="M3460 535 l0 -255 55 0 55 0 0 147 0 148 73 -120 c100 -167 102 -167
201 1 l76 128 0 -152 0 -152 55 0 55 0 0 255 0 255 -48 0 -47 0 -72 -122 c-40
-68 -83 -140 -95 -160 l-23 -38 -95 160 -95 159 -47 1 -48 0 0 -255z"/>
<path d="M4120 535 l0 -255 60 0 60 0 0 70 0 70 79 0 c160 0 244 64 244 185 0
83 -42 141 -122 170 -31 11 -83 15 -182 15 l-139 0 0 -255z m298 135 c31 -29
38 -66 19 -105 -19 -39 -60 -55 -144 -55 l-53 0 0 90 0 90 78 0 c65 0 82 -3
100 -20z"/>
<path d="M5210 536 l0 -256 55 0 55 0 0 70 0 70 59 0 58 0 47 -70 46 -70 60 0
c33 0 60 3 60 6 0 3 -23 39 -52 80 -28 40 -50 75 -47 77 2 2 16 11 31 20 39
24 68 87 68 144 0 65 -33 121 -90 153 -42 23 -57 25 -197 28 l-153 4 0 -256z
m295 129 c27 -26 33 -72 14 -107 -16 -29 -70 -48 -139 -48 l-60 0 0 90 0 90
80 0 c73 0 83 -3 105 -25z"/>
<path d="M5650 740 l0 -50 80 0 80 0 0 -205 0 -205 60 0 60 0 0 205 0 205 80
0 80 0 0 50 0 50 -220 0 -220 0 0 -50z"/>
</g>
</svg>
