<svg width="44" height="44" viewBox="0 0 44 44" fill="none" xmlns="http://www.w3.org/2000/svg">
<path d="M6.1948 29.333H1.83398C1.83398 30.0624 2.12372 30.7618 2.63944 31.2776C3.15517 31.7933 3.85464 32.083 4.58398 32.083H5.06523C5.15524 31.0733 5.54906 30.1145 6.1948 29.333ZM27.5006 29.333H13.9731C14.6188 30.1145 15.0125 31.0733 15.1025 32.083H27.5006C27.7437 32.083 27.9769 31.9864 28.1488 31.8145C28.3207 31.6426 28.4173 31.4094 28.4173 31.1663V30.2497C28.4173 30.0066 28.3207 29.7734 28.1488 29.6015C27.9769 29.4296 27.7437 29.333 27.5006 29.333Z" fill="url(#paint0_linear_195_1407)"/>
<path d="M10.0833 35.7496C11.8552 35.7496 13.2916 34.3132 13.2916 32.5413C13.2916 30.7694 11.8552 29.333 10.0833 29.333C8.31141 29.333 6.875 30.7694 6.875 32.5413C6.875 34.3132 8.31141 35.7496 10.0833 35.7496Z" fill="url(#paint1_linear_195_1407)"/>
<path d="M43.5891 23.6477L40.067 15.8993C39.775 15.259 39.3052 14.7161 38.7136 14.3351C38.122 13.9541 37.4334 13.751 36.7297 13.75H31.1667C30.9236 13.75 30.6904 13.8466 30.5185 14.0185C30.3466 14.1904 30.25 14.4236 30.25 14.6667V29.0885C30.9145 28.3807 31.7695 27.8802 32.7119 27.6471C33.6544 27.4141 34.6441 27.4585 35.5619 27.7749C36.4797 28.0914 37.2864 28.6665 37.8849 29.4309C38.4834 30.1953 38.8481 31.1164 38.9352 32.0833H41.25C41.9793 32.0833 42.6788 31.7936 43.1945 31.2778C43.7103 30.7621 44 30.0627 44 29.3333V25.5442C44 24.89 43.8599 24.2433 43.5891 23.6477ZM39.4097 22.9166H33.4583C33.2152 22.9166 32.9821 22.82 32.8102 22.6481C32.6383 22.4762 32.5417 22.2431 32.5417 22V18.3333C32.5417 18.0902 32.6383 17.857 32.8102 17.6851C32.9821 17.5132 33.2153 17.4166 33.4584 17.4166H37.1529C37.5049 17.4166 37.8494 17.5178 38.1454 17.7083C38.4413 17.8988 38.6762 18.1705 38.8219 18.4908L40.2445 21.6207C40.308 21.7603 40.3354 21.9137 40.3243 22.0667C40.3131 22.2197 40.2637 22.3674 40.1807 22.4964C40.0976 22.6254 39.9835 22.7314 39.8488 22.8049C39.7141 22.8783 39.5631 22.9167 39.4097 22.9167V22.9166Z" fill="url(#paint2_linear_195_1407)"/>
<path d="M33.9173 35.7496C35.6892 35.7496 37.1256 34.3132 37.1256 32.5413C37.1256 30.7694 35.6892 29.333 33.9173 29.333C32.1454 29.333 30.709 30.7694 30.709 32.5413C30.709 34.3132 32.1454 35.7496 33.9173 35.7496Z" fill="url(#paint3_linear_195_1407)"/>
<path d="M25.6671 8.25H4.58366C3.85431 8.25 3.15484 8.53973 2.63912 9.05546C2.12339 9.57118 1.83366 10.2707 1.83366 11V22H0.965691C0.509534 22 0.0862921 22.312 0.0129015 22.7627C-0.00939541 22.8942 -0.00273172 23.0291 0.032428 23.1578C0.0675876 23.2865 0.130397 23.406 0.216477 23.5079C0.302557 23.6098 0.409835 23.6918 0.530831 23.748C0.651828 23.8042 0.783631 23.8333 0.91705 23.8334H3.16002C3.61669 23.8334 4.03985 24.1453 4.11324 24.5961C4.13553 24.7276 4.12887 24.8625 4.09371 24.9912C4.05855 25.1199 3.99574 25.2393 3.90966 25.3413C3.82358 25.4432 3.7163 25.5251 3.59531 25.5814C3.47431 25.6376 3.34251 25.6667 3.20909 25.6668H0.96612C0.509534 25.6667 0.0862921 25.9789 0.0129015 26.4293C-0.00939541 26.5608 -0.00273172 26.6957 0.032428 26.8244C0.0675876 26.9531 0.130397 27.0726 0.216477 27.1745C0.302557 27.2764 0.409835 27.3584 0.530831 27.4146C0.651828 27.4708 0.783631 27.5 0.91705 27.5H27.5004C27.7435 27.5 27.9766 27.4034 28.1486 27.2315C28.3205 27.0596 28.4171 26.8264 28.4171 26.5833V11C28.4171 10.2707 28.1273 9.57118 27.6116 9.05546C27.0959 8.53973 26.3964 8.25 25.6671 8.25Z" fill="url(#paint4_linear_195_1407)"/>
<defs>
<linearGradient id="paint0_linear_195_1407" x1="-1.18653" y1="30.408" x2="16.0608" y2="46.9634" gradientUnits="userSpaceOnUse">
<stop stop-color="#161629"/>
<stop offset="1" stop-color="#464681"/>
</linearGradient>
<linearGradient id="paint1_linear_195_1407" x1="6.14592" y1="31.8413" x2="14.0667" y2="32.6278" gradientUnits="userSpaceOnUse">
<stop stop-color="#161629"/>
<stop offset="1" stop-color="#464681"/>
</linearGradient>
<linearGradient id="paint2_linear_195_1407" x1="28.6877" y1="20.9167" x2="45.7338" y2="22.1861" gradientUnits="userSpaceOnUse">
<stop stop-color="#161629"/>
<stop offset="1" stop-color="#464681"/>
</linearGradient>
<linearGradient id="paint3_linear_195_1407" x1="29.9799" y1="31.8413" x2="37.9007" y2="32.6278" gradientUnits="userSpaceOnUse">
<stop stop-color="#161629"/>
<stop offset="1" stop-color="#464681"/>
</linearGradient>
<linearGradient id="paint4_linear_195_1407" x1="-3.22887" y1="15.775" x2="31.4504" y2="20.8585" gradientUnits="userSpaceOnUse">
<stop stop-color="#161629"/>
<stop offset="1" stop-color="#464681"/>
</linearGradient>
</defs>
</svg>
