<svg width="212" height="141" viewBox="0 0 212 141" fill="none" xmlns="http://www.w3.org/2000/svg">
<g clip-path="url(#clip0_273_127)">
<path d="M191.232 46.5675L187.64 57.1081L198.84 65.1966C199.216 65.4675 199.272 65.9685 198.967 66.3161C198.661 66.6637 198.11 66.7259 197.735 66.455L186.534 58.3664L176.005 63.8976C175.685 64.0651 175.517 64.3889 175.561 64.7033C175.583 64.8607 175.656 65.0076 175.772 65.1251C175.887 65.2425 176.039 65.3252 176.208 65.3625L205.282 71.8131C205.444 71.8488 205.616 71.8408 205.776 71.7902C205.936 71.7396 206.077 71.6484 206.183 71.5275C206.402 71.2813 206.441 70.9425 206.289 70.6669L192.852 46.4186C192.774 46.2776 192.651 46.1619 192.499 46.0864C192.347 46.0109 192.173 45.979 191.998 45.9948C191.824 46.0108 191.658 46.0739 191.521 46.176C191.385 46.278 191.284 46.4144 191.232 46.5675Z" fill="white"/>
</g>
<path d="M12.1374 120.079C2.23888 51.7945 95.1892 -23.8036 185.798 55.5994" stroke="url(#paint0_linear_273_127)" stroke-width="1.5" stroke-dasharray="5 5"/>
<defs>
<linearGradient id="paint0_linear_273_127" x1="-6.78761" y1="110.394" x2="184.483" y2="68.6386" gradientUnits="userSpaceOnUse">
<stop stop-color="white" stop-opacity="0.21"/>
<stop offset="0.52242" stop-color="white" stop-opacity="0.728006"/>
<stop offset="1" stop-color="white"/>
</linearGradient>
<clipPath id="clip0_273_127">
<rect width="27.1949" height="29.9225" fill="white" transform="translate(203.419 44.7068) rotate(83.5687)"/>
</clipPath>
</defs>
</svg>
