<svg width="35" height="35" viewBox="0 0 35 35" fill="none" xmlns="http://www.w3.org/2000/svg">
<g clip-path="url(#clip0_195_1690)">
<path d="M15.5476 22.6853C15.2234 22.685 14.9125 22.5553 14.6834 22.3247L10.7375 18.3585C10.2646 17.8832 10.2646 17.0965 10.7375 16.6212C11.2103 16.146 11.993 16.146 12.4659 16.6212L15.5476 19.7188L22.559 12.6714C23.0319 12.1961 23.8146 12.1961 24.2874 12.6714C24.7603 13.1467 24.7603 13.9334 24.2874 14.4087L16.4118 22.3247C16.1827 22.5553 15.8718 22.685 15.5476 22.6853Z" fill="#3730A3"/>
<path d="M17.4995 35C16.4742 35 15.4488 34.6581 14.6513 33.9744L12.0798 31.7605C11.8194 31.5326 11.1684 31.3046 10.8266 31.3046H8.0273C6.87048 31.3046 5.76105 30.845 4.94305 30.0268C4.12506 29.2086 3.66552 28.0989 3.66552 26.9419V24.1581C3.66552 23.8163 3.43767 23.1814 3.20981 22.9209L1.01265 20.3326C-0.321925 18.7535 -0.321925 16.2628 1.01265 14.6837L3.20981 12.0953C3.43767 11.8349 3.66552 11.2 3.66552 10.8581V8.05814C3.66552 5.64884 5.61855 3.69535 8.0273 3.69535H10.8429C11.1847 3.69535 11.8357 3.45116 12.0961 3.23953L14.6676 1.02558C16.2626 -0.34186 18.7527 -0.34186 20.3477 1.02558L22.9192 3.23953C23.1796 3.46744 23.8306 3.69535 24.1724 3.69535H26.9392C29.3479 3.69535 31.301 5.64884 31.301 8.05814V10.8256C31.301 11.1674 31.5451 11.8186 31.7729 12.0791L33.9864 14.6512C35.3535 16.2465 35.3535 18.7372 33.9864 20.3326L31.7729 22.9046C31.5451 23.1651 31.301 23.8163 31.301 24.1581V26.9256C31.301 29.3349 29.3479 31.2884 26.9392 31.2884H24.1724C23.8306 31.2884 23.1796 31.5326 22.9192 31.7442L20.3477 33.9581C19.5502 34.6581 18.5249 35 17.4995 35ZM8.0273 6.13721C6.9694 6.13721 6.10681 7 6.10681 8.05814V10.8419C6.10681 11.7698 5.66738 12.9581 5.0652 13.6581L2.86803 16.2465C2.2984 16.914 2.2984 18.0698 2.86803 18.7372L5.0652 21.3256C5.66738 22.0419 6.10681 23.214 6.10681 24.1419V26.9256C6.10681 27.9837 6.9694 28.8465 8.0273 28.8465H10.8429C11.7869 28.8465 12.975 29.286 13.6911 29.9047L16.2626 32.1186C16.9299 32.6884 18.1017 32.6884 18.769 32.1186L21.3405 29.9047C22.0566 29.3023 23.2447 28.8465 24.1887 28.8465H26.9555C28.0133 28.8465 28.8759 27.9837 28.8759 26.9256V24.1581C28.8759 23.214 29.3154 22.0256 29.9338 21.3093L32.1473 18.7372C32.7169 18.0698 32.7169 16.8977 32.1473 16.2302L29.9338 13.6581C29.3154 12.9419 28.8759 11.7535 28.8759 10.8093V8.05814C28.8759 7 28.0133 6.13721 26.9555 6.13721H24.1887C23.2447 6.13721 22.0566 5.69767 21.3405 5.07907L18.769 2.86512C18.1017 2.29535 16.9299 2.29535 16.2626 2.86512L13.6911 5.09535C12.975 5.69767 11.7706 6.13721 10.8429 6.13721H8.0273Z" fill="#3730A3"/>
</g>
<defs>
<clipPath id="clip0_195_1690">
<rect width="35" height="35" fill="white"/>
</clipPath>
</defs>
</svg>
