<svg width="35" height="35" viewBox="0 0 35 35" fill="none" xmlns="http://www.w3.org/2000/svg">
<g clip-path="url(#clip0_195_1681)">
<mask id="mask0_195_1681" style="mask-type:luminance" maskUnits="userSpaceOnUse" x="0" y="0" width="35" height="35">
<path d="M0 0H35V35H0V0Z" fill="white"/>
</mask>
<g mask="url(#mask0_195_1681)">
<path d="M10.6582 23.2107C10.5272 23.1517 10.3859 23.1191 10.2423 23.1148C10.0987 23.1104 9.95568 23.1344 9.82135 23.1853C9.68701 23.2362 9.56402 23.3131 9.4594 23.4115C9.35477 23.51 9.27056 23.6281 9.21158 23.7591C9.15259 23.89 9.11998 24.0314 9.11562 24.175C9.11125 24.3186 9.13521 24.4616 9.18613 24.596C9.23705 24.7303 9.31392 24.8533 9.41237 24.9579C9.51082 25.0625 9.62892 25.1467 9.75991 25.2057L12.6766 26.5182C12.8076 26.5772 12.9489 26.6098 13.0925 26.6142C13.2361 26.6185 13.3791 26.5946 13.5135 26.5437C13.6478 26.4928 13.7708 26.4159 13.8754 26.3174C13.98 26.219 14.0643 26.1009 14.1232 25.9699C14.1822 25.8389 14.2148 25.6976 14.2192 25.554C14.2236 25.4104 14.1996 25.2673 14.1487 25.133C14.0978 24.9987 14.0209 24.8757 13.9224 24.771C13.824 24.6664 13.7059 24.5822 13.5749 24.5232L10.6582 23.2107Z" fill="#3730A3"/>
<path fill-rule="evenodd" clip-rule="evenodd" d="M20.4171 0.645246C19.5033 0.220216 18.5077 0 17.4999 0C16.4921 0 15.4965 0.220216 14.5827 0.645246L4.00127 5.56759C2.80612 6.12348 1.79458 7.00927 1.0857 8.12073C0.376824 9.23219 0.000104377 10.5231 -0.00012207 11.8414V23.2639C1.8314e-05 24.5921 0.382286 25.8923 1.10105 27.0091C1.81981 28.1259 2.8447 29.0122 4.05337 29.5622L14.6348 34.3787C15.5345 34.7882 16.5114 35 17.4999 35C18.4883 35 19.4653 34.7882 20.365 34.3787L30.9464 29.5622C32.1551 29.0122 33.1799 28.1259 33.8987 27.0091C34.6175 25.8923 34.9997 24.5921 34.9999 23.2639V11.8414C34.9996 10.5231 34.6229 9.23219 33.9141 8.12073C33.2052 7.00927 32.1936 6.12348 30.9985 5.56759L20.4171 0.645246ZM15.6131 2.85973C16.2044 2.58473 16.8486 2.44224 17.5007 2.44224C18.1528 2.44224 18.797 2.58473 19.3882 2.85973L29.9696 7.78208C30.7299 8.13542 31.3599 8.68742 31.8059 9.35827L26.9548 11.6574L12.1962 4.44895L15.6131 2.85973ZM9.34569 5.77439L5.03011 7.78371C4.28364 8.12983 3.64711 8.67524 3.19058 9.3599L17.4999 16.1369L24.132 12.9943L9.34569 5.77439ZM2.44174 11.7079L16.2789 18.2634V32.3906C16.0618 32.329 15.8496 32.2511 15.6441 32.1577L5.06267 27.3412C4.2806 26.9852 3.61746 26.4117 3.15243 25.689C2.6874 24.9663 2.44012 24.125 2.44011 23.2656V11.8414L2.44174 11.7079ZM18.7208 32.3889C18.9368 32.3278 19.148 32.2505 19.3524 32.1577L29.9338 27.3412C30.7159 26.9852 31.379 26.4117 31.8441 25.689C32.3091 24.9663 32.5564 24.125 32.5564 23.2656V11.8414L32.5548 11.7063L18.7192 18.2602L18.7208 32.3889Z" fill="#3730A3"/>
</g>
</g>
<defs>
<clipPath id="clip0_195_1681">
<rect width="35" height="35" fill="white"/>
</clipPath>
</defs>
</svg>
