<svg width="35" height="35" viewBox="0 0 35 35" fill="none" xmlns="http://www.w3.org/2000/svg">
<g clip-path="url(#clip0_195_1671)">
<path d="M35 17.5003C35 19.7944 34.5481 22.0661 33.6702 24.1856C32.7923 26.305 31.5055 28.2308 29.8833 29.853C28.2612 31.4752 26.3354 32.762 24.2159 33.6399C22.0964 34.5178 19.8247 34.9697 17.5306 34.9697C15.2365 34.9697 12.9649 34.5178 10.8454 33.6399C8.7259 32.762 6.80009 31.4752 5.17791 29.853C3.55573 28.2308 2.26895 26.305 1.39103 24.1856C0.513109 22.0661 0.06125 19.7944 0.06125 17.5003C0.06125 17.1909 0.184166 16.8942 0.402959 16.6754C0.621751 16.4566 0.918498 16.3337 1.22792 16.3337C1.53734 16.3337 1.83408 16.4566 2.05287 16.6754C2.27167 16.8942 2.39458 17.1909 2.39458 17.5003C2.39838 21.217 3.76819 24.8027 6.24347 27.5752C8.71874 30.3477 12.1268 32.1136 15.8193 32.5371C19.5117 32.9606 23.2311 32.012 26.2698 29.8718C29.3084 27.7317 31.4544 24.5492 32.2995 20.9299C33.1447 17.3106 32.6299 13.5069 30.8532 10.2423C29.0766 6.97777 26.1619 4.48017 22.6637 3.22462C19.1655 1.96906 15.3278 2.04315 11.8807 3.4328C8.43356 4.82244 5.61748 7.43067 3.96813 10.7614H6.40763C6.71704 10.7614 7.01379 10.8843 7.23258 11.1031C7.45138 11.3219 7.57429 11.6186 7.57429 11.928C7.57429 12.2374 7.45138 12.5342 7.23258 12.753C7.01379 12.9718 6.71704 13.0947 6.40763 13.0947H1.16667C0.857247 13.0947 0.560501 12.9718 0.341709 12.753C0.122916 12.5342 0 12.2374 0 11.928V6.35603C0 6.04661 0.122916 5.74986 0.341709 5.53107C0.560501 5.31227 0.857247 5.18936 1.16667 5.18936C1.47609 5.18936 1.77283 5.31227 1.99162 5.53107C2.21042 5.74986 2.33333 6.04661 2.33333 6.35603V8.87107C4.2332 5.50971 7.19348 2.87275 10.7512 1.37256C14.309 -0.12763 18.2636 -0.406463 21.9967 0.579665C25.7297 1.56579 29.0308 3.76128 31.3835 6.82279C33.7362 9.8843 35.008 13.6392 35 17.5003ZM16.3333 23.1919V18.5728C13.6739 18.1394 11.6667 16.254 11.6667 14.0003C11.6667 11.7466 13.6739 9.86157 16.3333 9.42757V8.16698C16.3333 7.85756 16.4563 7.56082 16.675 7.34203C16.8938 7.12323 17.1906 7.00032 17.5 7.00032C17.8094 7.00032 18.1062 7.12323 18.325 7.34203C18.5438 7.56082 18.6667 7.85756 18.6667 8.16698V9.42757C21.3261 9.86157 23.3333 11.7466 23.3333 14.0003C23.3333 14.3097 23.2104 14.6065 22.9916 14.8253C22.7728 15.0441 22.4761 15.167 22.1667 15.167C21.8572 15.167 21.5605 15.0441 21.3417 14.8253C21.1229 14.6065 21 14.3097 21 14.0003C21 13.0069 20.0101 12.1374 18.6667 11.8087V16.4276C21.3261 16.8616 23.3333 18.7466 23.3333 21.0003C23.3333 23.254 21.3261 25.1391 18.6667 25.5728V26.8336C18.6667 27.1431 18.5438 27.4398 18.325 27.6586C18.1062 27.8774 17.8094 28.0003 17.5 28.0003C17.1906 28.0003 16.8938 27.8774 16.675 27.6586C16.4563 27.4398 16.3333 27.1431 16.3333 26.8336V25.5728C13.6739 25.1394 11.6667 23.254 11.6667 21.0003C11.6667 20.6909 11.7896 20.3941 12.0084 20.1754C12.2272 19.9566 12.5239 19.8336 12.8333 19.8336C13.1428 19.8336 13.4395 19.9566 13.6583 20.1754C13.8771 20.3941 14 20.6909 14 21.0003C14 21.9937 14.9899 22.8632 16.3333 23.1919ZM18.6667 18.8087V23.1919C20.0101 22.8632 21 21.9937 21 21.0003C21 20.0069 20.0101 19.1374 18.6667 18.8087ZM16.3333 16.1919V11.8087C14.9899 12.1374 14 13.0069 14 14.0003C14 14.9937 14.9899 15.8632 16.3333 16.1919Z" fill="#3730A3"/>
</g>
<defs>
<clipPath id="clip0_195_1671">
<rect width="35" height="35" fill="white"/>
</clipPath>
</defs>
</svg>
