<svg width="35" height="35" viewBox="0 0 35 35" fill="none" xmlns="http://www.w3.org/2000/svg">
<g clip-path="url(#clip0_195_1696)">
<path d="M6.5169 20.2799C8.41717 20.2799 9.95764 18.7394 9.95764 16.8392C9.95764 14.9389 8.41717 13.3984 6.5169 13.3984C4.61664 13.3984 3.07617 14.9389 3.07617 16.8392C3.07617 18.7394 4.61664 20.2799 6.5169 20.2799Z" stroke="#3730A3" stroke-width="2.8125" stroke-miterlimit="10"/>
<path d="M12.0085 25.7715C12.0085 22.7386 9.54987 20.28 6.51697 20.28C3.48407 20.28 1.02539 22.7386 1.02539 25.7715V31.9239H12.0085V25.7715Z" stroke="#3730A3" stroke-width="2.8125" stroke-miterlimit="10"/>
<path d="M12.0091 7.90685C13.9094 7.90685 15.4498 6.36639 15.4498 4.46612C15.4498 2.56586 13.9094 1.02539 12.0091 1.02539C10.1088 1.02539 8.56836 2.56586 8.56836 4.46612C8.56836 6.36639 10.1088 7.90685 12.0091 7.90685Z" stroke="#3730A3" stroke-width="2.8125" stroke-miterlimit="10"/>
<path d="M17.5007 13.3985C17.5007 10.3656 15.0421 7.90698 12.0092 7.90698C8.97626 7.90698 6.51758 10.3656 6.51758 13.3985" stroke="#3730A3" stroke-width="2.8125" stroke-miterlimit="10"/>
<path d="M22.9915 7.90685C24.8918 7.90685 26.4322 6.36639 26.4322 4.46612C26.4322 2.56586 24.8918 1.02539 22.9915 1.02539C21.0913 1.02539 19.5508 2.56586 19.5508 4.46612C19.5508 6.36639 21.0913 7.90685 22.9915 7.90685Z" stroke="#3730A3" stroke-width="2.8125" stroke-miterlimit="10"/>
<path d="M17.4993 22.3307C19.3996 22.3307 20.9401 20.7902 20.9401 18.89C20.9401 16.9897 19.3996 15.4492 17.4993 15.4492C15.5991 15.4492 14.0586 16.9897 14.0586 18.89C14.0586 20.7902 15.5991 22.3307 17.4993 22.3307Z" stroke="#3730A3" stroke-width="2.8125" stroke-miterlimit="10"/>
<path d="M22.9908 27.8223C22.9908 24.7894 20.5322 22.3308 17.4993 22.3308C14.4664 22.3308 12.0078 24.7894 12.0078 27.8223V33.9747H22.9909V27.8223H22.9908Z" stroke="#3730A3" stroke-width="2.8125" stroke-miterlimit="10"/>
<path d="M28.4837 20.2799C30.384 20.2799 31.9244 18.7394 31.9244 16.8392C31.9244 14.9389 30.384 13.3984 28.4837 13.3984C26.5834 13.3984 25.043 14.9389 25.043 16.8392C25.043 18.7394 26.5834 20.2799 28.4837 20.2799Z" stroke="#3730A3" stroke-width="2.8125" stroke-miterlimit="10"/>
<path d="M17.5 15.4493V13.3985C17.5 10.3656 19.9586 7.90698 22.9915 7.90698C26.0244 7.90698 28.483 10.3656 28.483 13.3985M33.9746 25.7715C33.9746 22.7386 31.516 20.28 28.4831 20.28C25.4502 20.28 22.9915 22.7386 22.9915 25.7715V31.9239H33.9746V25.7715Z" stroke="#3730A3" stroke-width="2.8125" stroke-miterlimit="10"/>
</g>
<defs>
<clipPath id="clip0_195_1696">
<rect width="35" height="35" fill="white"/>
</clipPath>
</defs>
</svg>
