<svg width="35" height="35" viewBox="0 0 35 35" fill="none" xmlns="http://www.w3.org/2000/svg">
<g clip-path="url(#clip0_195_1676)">
<path d="M17.5 -0.0383301L2.53333 5.40455V17.5026C2.53333 31.1722 17.0572 34.8914 17.2032 34.9288L17.5 34.9999L17.7968 34.9288C17.9428 34.8914 32.4667 31.1722 32.4667 17.5026V5.40455L17.5 -0.0383301ZM29.9722 17.5026C29.9722 28.3273 19.4831 31.8544 17.505 32.4231C15.5967 31.8581 5.02777 28.2337 5.02777 17.5026V7.15066L17.5 2.61576L29.9722 7.15066V17.5026Z" fill="#3730A3"/>
<path d="M10.8986 16.621L9.13501 18.3845L15.0057 24.2552L25.8653 13.3957L24.1017 11.6321L15.0057 20.7281L10.8986 16.621Z" fill="#3730A3"/>
</g>
<defs>
<clipPath id="clip0_195_1676">
<rect width="35" height="35" fill="white"/>
</clipPath>
</defs>
</svg>
