<svg width="35" height="35" viewBox="0 0 35 35" fill="none" xmlns="http://www.w3.org/2000/svg">
<g clip-path="url(#clip0_195_1708)">
<path fill-rule="evenodd" clip-rule="evenodd" d="M31.3066 11.4784C32.1358 13.3775 32.5626 15.4278 32.5601 17.5C32.5601 25.8105 25.8124 32.5581 17.502 32.5581C9.19149 32.5581 2.44381 25.8105 2.44381 17.5C2.44381 9.18953 9.19149 2.44186 17.502 2.44186C17.8258 2.44186 18.1363 2.31323 18.3653 2.08426C18.5942 1.85529 18.7229 1.54474 18.7229 1.22093C18.7229 0.897119 18.5942 0.586571 18.3653 0.357602C18.1363 0.128633 17.8258 0 17.502 0C7.84358 0 0.00195312 7.84163 0.00195312 17.5C0.00195312 27.1584 7.84358 35 17.502 35C27.1603 35 35.0019 27.1584 35.0019 17.5C35.0019 15.0109 34.481 12.644 33.5433 10.4984C33.4134 10.2018 33.1709 9.96892 32.8693 9.85108C32.5677 9.73324 32.2316 9.74004 31.935 9.87C31.6384 9.99996 31.4055 10.2424 31.2877 10.544C31.1698 10.8457 31.1766 11.1818 31.3066 11.4784Z" fill="#3730A3"/>
<path fill-rule="evenodd" clip-rule="evenodd" d="M25.6417 0C24.1558 0.000431521 22.7308 0.590911 21.6801 1.64163C20.6294 2.69235 20.0389 4.11731 20.0385 5.60325C20.0385 6.57023 20.4764 7.74721 21.1536 8.89651C22.5129 11.2098 24.7789 13.4791 24.7789 13.4791C24.8922 13.5925 25.0267 13.6824 25.1747 13.7438C25.3227 13.8052 25.4814 13.8368 25.6417 13.8368C25.802 13.8368 25.9607 13.8052 26.1087 13.7438C26.2568 13.6824 26.3913 13.5925 26.5045 13.4791C26.5045 13.4791 28.7705 11.2098 30.1298 8.89651C30.8071 7.74721 31.245 6.57023 31.245 5.60325C31.245 2.51023 28.7347 0 25.6417 0ZM25.6417 2.44186C27.3868 2.44186 28.8031 3.85814 28.8031 5.60325C28.8031 6.46279 28.1633 7.5193 27.4764 8.51558C26.9109 9.32164 26.2983 10.0935 25.6417 10.8272C25.1126 10.2314 24.4208 9.40442 23.8071 8.51558C23.1201 7.5193 22.4803 6.46279 22.4803 5.60325C22.4803 3.85814 23.8966 2.44186 25.6417 2.44186ZM0.576828 18.5353L5.90008 21.8628C6.87032 22.4684 7.99194 22.7907 9.13473 22.7907H10.3719C11.4415 22.7907 12.4573 23.2579 13.154 24.0702L14.865 26.0677C15.2592 26.5272 15.5334 27.0774 15.6629 27.6688C15.7924 28.2603 15.7733 28.8747 15.6073 29.457L14.7005 32.6298C14.6189 32.9388 14.6616 33.2674 14.8196 33.5453C14.9776 33.8231 15.2382 34.0279 15.5455 34.1157C15.8528 34.2035 16.1823 34.1673 16.4632 34.0149C16.7441 33.8624 16.9541 33.606 17.048 33.3005L17.9547 30.1277C18.232 29.1574 18.2642 28.1334 18.0486 27.1476C17.833 26.1617 17.3762 25.2448 16.7192 24.4788L15.0066 22.4814C14.4339 21.8123 13.7231 21.2753 12.923 20.9072C12.1229 20.539 11.2526 20.3485 10.3719 20.3488H9.13473C8.44938 20.3488 7.77706 20.1567 7.19427 19.7921L1.86939 16.4646C1.7334 16.3747 1.58077 16.3128 1.4205 16.2828C1.26023 16.2528 1.09557 16.2552 0.936237 16.2898C0.776903 16.3245 0.626122 16.3907 0.492794 16.4845C0.359466 16.5784 0.246291 16.698 0.159949 16.8364C0.0736069 16.9747 0.0158463 17.1289 -0.00992401 17.2899C-0.0356943 17.4509 -0.0289522 17.6155 0.00990463 17.7738C0.0487614 17.9322 0.118945 18.0811 0.216315 18.2119C0.313685 18.3427 0.436267 18.4527 0.576828 18.5353Z" fill="#3730A3"/>
<path fill-rule="evenodd" clip-rule="evenodd" d="M6.64249 5.02209L9.24063 10.2184C9.52471 10.7871 9.92675 11.2887 10.42 11.6899C10.9132 12.091 11.4862 12.3824 12.1009 12.5446L14.9627 13.3016C15.6839 13.4921 16.2423 14.0619 16.4181 14.7863L17.6439 19.8116C17.9096 20.9024 18.5754 21.8536 19.5095 22.4765L20.2681 22.9812C20.7959 23.3343 21.3929 23.5709 22.0193 23.6753C22.6457 23.7797 23.2872 23.7493 23.901 23.5864C24.5148 23.4234 25.0868 23.1316 25.579 22.7302C26.0711 22.3289 26.4721 21.8273 26.7553 21.2588L27.6913 19.3851C27.8227 19.1227 28.0094 18.8919 28.2384 18.7084C28.4674 18.5249 28.7333 18.3931 29.0181 18.3221L33.5616 17.1858C33.8715 17.1034 34.1366 16.9024 34.2996 16.6262C34.4625 16.3499 34.5103 16.0207 34.4324 15.7095C34.3546 15.3984 34.1574 15.1304 33.8836 14.9634C33.6098 14.7964 33.2812 14.7439 32.969 14.8172L28.4255 15.9519C27.7993 16.1088 27.2144 16.3993 26.7109 16.8033C26.2074 17.2074 25.7972 17.7154 25.5083 18.2928L24.5706 20.1665C24.4424 20.4252 24.2603 20.6536 24.0367 20.8363C23.8131 21.019 23.5531 21.1519 23.274 21.226C22.9949 21.3001 22.7032 21.3138 22.4184 21.2661C22.1336 21.2185 21.8622 21.1105 21.6225 20.9495L20.8639 20.4449C20.4393 20.1618 20.1366 19.7295 20.0157 19.2337L18.7916 14.2084C18.6007 13.4258 18.2021 12.7092 17.638 12.1342C17.0739 11.5591 16.365 11.147 15.5862 10.9412L12.7243 10.1842C12.445 10.1104 12.1846 9.97786 11.9606 9.79539C11.7365 9.61291 11.554 9.38471 11.4253 9.12604L8.82714 3.93139C8.75629 3.78667 8.65749 3.6574 8.53644 3.55105C8.41539 3.44469 8.27449 3.36335 8.12185 3.31171C7.96922 3.26007 7.80787 3.23916 7.64712 3.25017C7.48636 3.26118 7.32937 3.30391 7.18521 3.37589C7.04104 3.44786 6.91255 3.54766 6.80714 3.66953C6.70173 3.7914 6.62148 3.93294 6.57103 4.08597C6.52058 4.239 6.50092 4.4005 6.51319 4.56117C6.52545 4.72184 6.56939 4.87849 6.64249 5.02209Z" fill="#3730A3"/>
</g>
<defs>
<clipPath id="clip0_195_1708">
<rect width="35" height="35" fill="white"/>
</clipPath>
</defs>
</svg>
