<svg width="20" height="20" viewBox="0 0 20 20" fill="none" xmlns="http://www.w3.org/2000/svg">
<g id="fi_13687580">
<path id="Vector" d="M14.7313 1.25H5.26875C3.74374 1.25 2.5 2.49374 2.5 4.01875V15.9813C2.5 17.5063 3.74374 18.75 5.26875 18.75H14.7313C16.2563 18.75 17.5 17.5063 17.5 15.9813V4.01875C17.5 2.49374 16.2563 1.25 14.7313 1.25ZM13.4875 12.6C13.1438 12.6 12.8625 12.3187 12.8625 11.975C12.8625 11.625 13.1438 11.35 13.4875 11.35C13.8313 11.35 14.1125 11.625 14.1125 11.975C14.1125 12.3187 13.8313 12.6 13.4875 12.6ZM14.1125 15.05C14.1125 15.3938 13.8313 15.675 13.4875 15.675C13.1438 15.675 12.8625 15.3938 12.8625 15.05C12.8625 14.7 13.1438 14.425 13.4875 14.425C13.8313 14.425 14.1125 14.7 14.1125 15.05ZM13.4938 7.73125H6.51249C6.16249 7.73125 5.88749 7.45625 5.88749 7.10625C5.88749 6.7625 6.16249 6.48125 6.51249 6.48125H13.4938C13.8375 6.48125 14.1188 6.7625 14.1188 7.10625C14.1188 7.45625 13.8375 7.73125 13.4938 7.73125ZM10 12.6C9.65626 12.6 9.375 12.3187 9.375 11.975C9.375 11.625 9.65626 11.35 10 11.35C10.3437 11.35 10.625 11.625 10.625 11.975C10.625 12.3187 10.3437 12.6 10 12.6ZM10.625 15.0438C10.625 15.3938 10.3437 15.6688 10 15.6688C9.65626 15.6688 9.375 15.3938 9.375 15.0438C9.375 14.7 9.65626 14.4188 10 14.4188C10.3437 14.4188 10.625 14.7 10.625 15.0438ZM6.51249 12.6C6.16875 12.6 5.88749 12.3187 5.88749 11.975C5.88749 11.625 6.16875 11.35 6.51249 11.35C6.85623 11.35 7.13749 11.625 7.13749 11.975C7.13749 12.3187 6.85623 12.6 6.51249 12.6ZM7.13123 15.0438C7.13123 15.3875 6.85001 15.6688 6.50623 15.6688C6.16249 15.6688 5.88123 15.3875 5.88123 15.0438C5.88123 14.6938 6.16249 14.4188 6.50623 14.4188C6.85001 14.4188 7.13123 14.6938 7.13123 15.0438Z" fill="#475569"/>
</g>
</svg>
