<svg width="20" height="20" viewBox="0 0 20 20" fill="none" xmlns="http://www.w3.org/2000/svg">
<g id="fi_45947" clip-path="url(#clip0_161_2169)">
<g id="Group">
<g id="Group_2">
<path id="Vector" d="M8.7203 15.5591H7.30243V14.2196C10.114 13.7123 12.243 11.2532 12.243 8.30465C12.243 7.50745 12.0907 6.74658 11.8065 6.05007C11.4968 5.93345 11.1667 5.871 10.8258 5.871C10.2847 5.871 9.76985 6.02458 9.32569 6.31007C9.69848 6.8855 9.91514 7.5699 9.91514 8.30465C9.91514 10.3336 8.26659 11.9835 6.23759 11.9835C4.20987 11.9835 2.56067 10.3336 2.56067 8.30465C2.56067 6.7606 3.51718 5.43768 4.86751 4.89283C5.1428 4.46141 5.46716 4.05612 5.83804 3.68588C6.34401 3.18055 6.91498 2.76124 7.53375 2.43688C7.11699 2.34512 6.68366 2.29541 6.24014 2.29541C2.92709 2.29541 0.220703 4.99224 0.220703 8.30529C0.220703 11.1882 2.26499 13.6008 4.95991 14.1807V15.5597H3.6389C2.99464 15.5597 2.4721 16.088 2.4721 16.731C2.4721 17.3759 2.99464 17.9035 3.6389 17.9035H4.95991V18.8352C4.95991 19.4781 5.48755 20 6.13117 20C6.77543 20 7.30243 19.4781 7.30243 18.8352V17.9035H8.7203C9.36456 17.9035 9.88583 17.3759 9.88583 16.731C9.88583 16.0873 9.36392 15.5591 8.7203 15.5591Z" fill="#475569"/>
<path id="Vector_2" d="M18.5624 0.000111353C18.5088 -0.00243764 14.8364 0.0396207 14.8364 0.0396207C14.1838 0.0472676 13.6587 0.687064 13.6677 1.34215C13.6759 1.99087 14.2049 2.6141 14.851 2.6141C14.8549 2.6141 14.8612 2.6141 14.8663 2.6141L15.5501 2.50131L14.3043 3.69742C13.2885 2.99135 12.0873 2.58032 10.8255 2.58032C9.19483 2.58032 7.66161 3.20292 6.50819 4.3557C4.66527 6.19798 4.24979 8.92922 5.25791 11.1755C5.32291 11.1972 5.38855 11.2176 5.45546 11.2361C5.67786 11.2966 5.90727 11.3291 6.13604 11.3367C6.16918 11.338 6.20295 11.3386 6.23672 11.3386C6.79878 11.3386 7.34681 11.1825 7.82474 10.8868C6.73951 9.425 6.85804 7.34502 8.18415 6.01827C8.88895 5.31284 9.82761 4.92348 10.8262 4.92348C11.8247 4.92348 12.7628 5.3122 13.4682 6.01827C14.9269 7.47629 14.9269 9.84813 13.4682 11.3049C12.9304 11.844 12.2562 12.1977 11.5221 12.3347C11.4717 12.4009 11.4201 12.4672 11.3678 12.5316C10.6809 13.3664 9.8034 14.0195 8.8163 14.4363C9.45418 14.6574 10.1309 14.7728 10.8255 14.7728C12.4569 14.7728 13.9901 14.1349 15.1442 12.9815C17.2139 10.9111 17.5549 7.71208 16.0267 5.34661L17.4344 4.01349V4.84128C17.4344 5.49509 17.9519 6.02592 18.6057 6.02592C19.2601 6.02592 19.7782 5.49509 19.7782 4.84128V1.17519C19.7789 0.858483 19.7253 0.0721203 18.5624 0.000111353Z" fill="#475569"/>
</g>
</g>
</g>
<defs>
<clipPath id="clip0_161_2169">
<rect width="20" height="20" fill="white"/>
</clipPath>
</defs>
</svg>
