<svg width="20" height="20" viewBox="0 0 20 20" fill="none" xmlns="http://www.w3.org/2000/svg">
<g id="Frame" clip-path="url(#clip0_161_1190)">
<path id="Vector" d="M15.0013 2.5C15.8854 2.5 16.7332 2.85119 17.3583 3.47631C17.9834 4.10143 18.3346 4.94928 18.3346 5.83333V12.5C18.3346 13.3841 17.9834 14.2319 17.3583 14.857C16.7332 15.4821 15.8854 15.8333 15.0013 15.8333H11.0646L7.0963 18.2142C6.97679 18.2859 6.8412 18.3265 6.70195 18.3322C6.56269 18.338 6.42421 18.3088 6.29918 18.2472C6.17416 18.1856 6.06658 18.0936 5.9863 17.9796C5.90601 17.8657 5.85559 17.7335 5.83963 17.595L5.83463 17.5V15.8333H5.0013C4.1461 15.8333 3.32361 15.5046 2.70396 14.9152C2.08431 14.3258 1.7149 13.5208 1.67214 12.6667L1.66797 12.5V5.83333C1.66797 4.94928 2.01916 4.10143 2.64428 3.47631C3.2694 2.85119 4.11725 2.5 5.0013 2.5H15.0013ZM11.668 10H6.66797C6.44695 10 6.23499 10.0878 6.07871 10.2441C5.92243 10.4004 5.83463 10.6123 5.83463 10.8333C5.83463 11.0543 5.92243 11.2663 6.07871 11.4226C6.23499 11.5789 6.44695 11.6667 6.66797 11.6667H11.668C11.889 11.6667 12.1009 11.5789 12.2572 11.4226C12.4135 11.2663 12.5013 11.0543 12.5013 10.8333C12.5013 10.6123 12.4135 10.4004 12.2572 10.2441C12.1009 10.0878 11.889 10 11.668 10ZM13.3346 6.66667H6.66797C6.44695 6.66667 6.23499 6.75446 6.07871 6.91074C5.92243 7.06702 5.83463 7.27899 5.83463 7.5C5.83463 7.72101 5.92243 7.93297 6.07871 8.08926C6.23499 8.24554 6.44695 8.33333 6.66797 8.33333H13.3346C13.5556 8.33333 13.7676 8.24554 13.9239 8.08926C14.0802 7.93297 14.168 7.72101 14.168 7.5C14.168 7.27899 14.0802 7.06702 13.9239 6.91074C13.7676 6.75446 13.5556 6.66667 13.3346 6.66667Z" fill="#475569"/>
</g>
<defs>
<clipPath id="clip0_161_1190">
<rect width="20" height="20" fill="white"/>
</clipPath>
</defs>
</svg>
