<svg width="20" height="21" viewBox="0 0 20 21" fill="none" xmlns="http://www.w3.org/2000/svg">
<g id="fi_14673907">
<g id="Layer 2">
<path id="Vector" d="M9.99935 10.2917C12.1855 10.2917 13.9577 8.51946 13.9577 6.33333C13.9577 4.14721 12.1855 2.375 9.99935 2.375C7.81322 2.375 6.04102 4.14721 6.04102 6.33333C6.04102 8.51946 7.81322 10.2917 9.99935 10.2917Z" fill="white"/>
<path id="Vector_2" d="M17.0579 14.9334L16.9496 14.6667C16.5855 13.7521 15.9595 12.9652 15.1501 12.4048C14.3407 11.8445 13.3839 11.5355 12.3996 11.5167H7.6079C6.62362 11.5355 5.66679 11.8445 4.85737 12.4048C4.04796 12.9652 3.42197 13.7521 3.0579 14.6667L2.94124 14.9251C2.7595 15.3422 2.68344 15.7976 2.71978 16.2511C2.75612 16.7047 2.90374 17.1422 3.14957 17.5251C3.34974 17.852 3.63012 18.1223 3.9641 18.3104C4.29808 18.4986 4.67458 18.5983 5.0579 18.6001H14.9329C15.3173 18.5981 15.6949 18.4984 16.0302 18.3104C16.3655 18.1223 16.6475 17.8521 16.8496 17.5251C17.0933 17.1429 17.2397 16.7069 17.276 16.2551C17.3124 15.8033 17.2375 15.3495 17.0579 14.9334Z" fill="white"/>
</g>
</g>
</svg>
