<svg width="18" height="19" viewBox="0 0 18 19" fill="none" xmlns="http://www.w3.org/2000/svg">
<g id="fi_66455" clip-path="url(#clip0_208_4332)">
<g id="Group">
<g id="Layer_1_78_">
<g id="Group_2">
<path id="Vector" d="M17.1743 16.8597H0.818025C0.36612 16.8597 0 17.2259 0 17.6781C0 18.1297 0.36612 18.4958 0.818025 18.4958H17.1739C17.6258 18.4958 17.992 18.1297 17.992 17.6781C17.9916 17.2259 17.6255 16.8597 17.1743 16.8597Z" fill="white"/>
<path id="Vector_2" d="M1.84146 14.7331C1.38956 14.7331 1.02344 15.0992 1.02344 15.5512C1.02344 16.0031 1.38956 16.3696 1.84146 16.3696H16.1531C16.605 16.3696 16.9711 16.0031 16.9711 15.5512C16.9711 15.0992 16.605 14.7331 16.1531 14.7331H15.9489V7.37244H16.1531C16.3794 7.37244 16.5617 7.18938 16.5617 6.96381C16.5617 6.73824 16.3786 6.55518 16.1531 6.55518H1.84146C1.61551 6.55518 1.43283 6.73824 1.43283 6.96381C1.43283 7.18938 1.61589 7.37244 1.84146 7.37244H2.04597V14.7327L1.84146 14.7331ZM14.3129 7.37244V14.7327H11.8596V7.37244H14.3129ZM10.2235 7.37244V14.7327H7.77023V7.37244H10.2235ZM3.68125 7.37244H6.13456V14.7327H3.68125V7.37244Z" fill="white"/>
<path id="Vector_3" d="M0.818041 5.81983H17.1739C17.1766 5.81983 17.1797 5.81983 17.182 5.81983C17.6343 5.81983 18 5.45371 18 5.00181C18 4.64258 17.7687 4.33812 17.4474 4.22783L9.33224 0.576202C9.11893 0.480459 8.87498 0.480459 8.66128 0.576202L0.482558 4.25617C0.130608 4.41472 -0.0627916 4.79692 0.0183981 5.17376C0.0992049 5.55061 0.432389 5.81983 0.818041 5.81983Z" fill="white"/>
</g>
</g>
</g>
</g>
<defs>
<clipPath id="clip0_208_4332">
<rect width="18" height="18" fill="white" transform="translate(0 0.5)"/>
</clipPath>
</defs>
</svg>
