<svg width="20" height="20" viewBox="0 0 20 20" fill="none" xmlns="http://www.w3.org/2000/svg">
<g id="fi_7192499" clip-path="url(#clip0_251_2260)">
<path id="Vector" d="M10.542 19.9352C21.4207 19.3108 23.4431 3.99008 13.1208 0.54969C10.2645 -0.406247 6.98947 0.0285572 4.4906 1.71422H4.4913C3.3332 2.48423 2.34937 3.48845 1.60328 4.66211C0.857187 5.83576 0.365407 7.15278 0.159662 8.52821L0.159037 8.52778C-0.819986 14.6675 4.33173 20.3412 10.542 19.9352ZM18.5935 13.6295C18.2384 14.4703 17.7611 15.254 17.177 15.9554C17.1358 15.7095 17.2496 15.4248 17.0801 15.1954C16.8962 14.8368 16.7258 14.4711 16.5342 14.1168C16.4629 13.985 16.4826 13.9093 16.5876 13.8145C17.7123 12.8276 16.7097 13.3523 16.8201 11.9419C16.8241 11.9038 16.8166 11.8653 16.7985 11.8315C16.7803 11.7978 16.7525 11.7702 16.7186 11.7524C16.1854 11.412 15.4895 11.2951 14.9385 11.6734C14.2519 11.9979 13.2725 11.7497 13.0504 10.9616C12.8539 10.4377 12.878 9.90868 12.8729 9.37367C12.9045 9.08516 13.3003 9.03672 13.2361 8.70325C13.2514 8.27981 13.1134 7.83282 13.5138 7.55645C13.5445 7.52937 13.581 7.50981 13.6206 7.49934C13.6601 7.48886 13.7016 7.48775 13.7417 7.4961C14.1075 7.54035 14.4773 7.45412 14.7859 7.25258C15.1131 7.04512 15.5171 7.17942 15.8796 7.13219C16.0524 7.11989 16.1804 7.17063 16.2868 7.30512C16.4959 7.56918 16.8231 7.64672 17.0979 7.80711C17.1904 7.86106 17.24 7.79305 17.2834 7.73711C17.5143 7.43922 17.8681 7.33914 18.1784 7.16785C18.3474 7.07102 18.6862 7.44071 18.9747 7.45383C19.5495 9.46578 19.4161 11.7055 18.5935 13.6295ZM18.4584 6.06782C18.1139 6.11313 18.3456 5.7859 18.1678 5.61469C17.9893 5.45538 17.8195 5.28657 17.6591 5.10899C17.5761 5.02032 17.5224 5.00606 17.4264 5.10078C17.1686 5.35586 17.1831 5.32879 17.4837 5.6336C17.8347 6.01946 18.0993 6.01301 17.4642 6.28114C17.3197 6.34621 17.1832 6.49449 17.0254 6.28024C16.93 6.15059 16.8 6.06348 16.8154 5.86375C16.8392 5.55578 16.6042 5.3325 16.4955 5.0666C16.463 4.98727 16.4056 5.04317 16.3751 5.08223C16.1463 5.37629 15.8008 5.48996 15.4879 5.65332C14.9473 6.12598 15.0707 6.07449 14.3533 6.05395C14.2869 6.0568 14.2674 5.97672 14.2386 5.92992C13.8774 5.3386 13.9474 5.19446 14.3216 4.63621C14.4593 4.55364 15.0675 4.64895 15.1824 4.76903C15.2341 4.82293 15.2765 4.88575 15.3511 4.97973C15.4084 4.75082 15.3794 4.57543 15.3853 4.40266C15.4823 3.69371 16.078 4.01321 16.5009 3.85922C16.7008 3.70645 16.7828 3.63039 16.7404 3.55543C17.4474 4.29269 18.0278 5.14156 18.4584 6.06782ZM16.6826 3.4961C16.3939 3.30817 15.7527 3.11004 15.7356 2.64567C16.0704 2.90706 16.3868 3.19121 16.6826 3.4961ZM3.40732 3.40625C3.94539 2.8674 4.54741 2.39645 5.19994 2.00391C5.42185 2.11719 5.58017 2.53395 5.85853 2.38586C6.1554 2.23008 6.47181 2.10653 6.68494 1.82797C6.80568 1.68129 7.01697 1.79356 7.17466 1.74907C7.79466 1.66512 7.96228 2.37106 8.19419 2.79102C8.17373 2.80824 8.16294 2.82477 8.15404 2.82375C7.61607 2.76305 7.12279 2.93578 6.63525 3.12352C6.47509 3.1852 6.35165 3.19043 6.25146 3.03621C6.12763 2.84551 5.96853 2.84 5.77099 2.92227C5.58802 3.0516 4.93064 3.07395 4.97607 3.33352C5.02068 3.57739 4.82814 3.99305 5.26587 3.90996C5.47099 3.8386 5.64732 4.44473 5.77267 4.09625C6.04165 3.00641 7.17564 3.95746 8.05001 3.2611C8.37169 3.07024 8.63626 3.69891 8.76126 3.92035C8.85626 4.12813 8.92497 4.37274 9.259 4.30028C9.04955 4.50981 8.83865 4.71793 8.63154 4.92973C8.57146 4.99117 8.51685 4.97149 8.44939 4.94805C8.189 4.85766 7.92505 4.77731 7.66556 4.68438C7.54177 4.64004 7.4824 4.63571 7.48521 4.80157C7.69708 5.94219 6.7254 4.84211 6.0506 5.6975C5.20857 6.54375 5.86021 7.25391 4.70294 8.14356C4.63376 8.20707 4.5763 8.21473 4.5079 8.1645C4.00517 7.80762 2.87564 7.61371 2.50009 8.19707C2.4947 8.21465 2.49339 8.23322 2.49625 8.25138C2.4991 8.26954 2.50605 8.28681 2.51658 8.30188C2.71771 8.62426 2.73349 9.16664 3.11537 8.62586C3.22904 8.52899 3.36255 8.5616 3.47896 8.58094C3.60142 8.60129 3.5406 8.73098 3.53755 8.80641C3.55486 9.10719 3.98751 9.16078 3.9024 9.49938C3.85384 9.74434 4.1624 9.60895 4.29798 9.65004C4.51716 9.68164 4.68345 9.60832 4.82396 9.43715C4.93052 9.30735 5.5422 9.21914 5.68306 9.30266C5.79474 9.4152 5.84165 9.59102 5.92177 9.72844C6.05494 9.99563 6.06068 10.001 6.25669 9.78985C6.70708 9.43629 7.34017 9.71602 7.76872 9.96153C8.1054 10.1501 7.99419 10.8234 8.49572 10.7266C8.59204 10.7039 8.64415 10.786 8.69697 10.8455C9.06126 11.2911 9.64947 11.2378 9.86494 11.8489C10.0038 12.1038 9.98892 12.3272 9.87095 12.5794C9.78712 13.0531 9.55419 13.4021 9.06236 13.5348C8.67236 13.6748 9.33033 14.3112 8.43763 14.5649C8.20869 14.6148 8.17904 14.7901 8.20869 14.9957C8.30337 15.5254 8.17478 15.925 7.59228 16.0646C7.42001 16.1215 7.45072 16.3505 7.36896 16.4811C6.96708 17.2135 7.3324 17.7479 7.84419 18.2608C7.39497 18.2873 6.90814 18.333 6.75287 17.8494C6.55888 17.286 6.38333 16.7177 6.09568 16.191C5.99908 16.0141 6.06126 15.8086 6.05876 15.6168C5.98865 14.8319 5.18716 14.2444 5.33771 13.4081C5.39607 12.9893 4.79865 13.5874 4.18009 12.8251C3.97392 12.5805 3.49419 11.9895 3.57705 11.6831C3.74638 11.261 3.76423 10.7518 4.15517 10.4588C4.32169 10.3294 4.33685 9.92571 4.02626 10.004C3.22845 10.1375 3.39892 9.53797 2.93165 9.6518C2.61525 9.68547 2.38685 9.58176 2.14095 9.36039C1.40322 8.68188 1.19173 9.18461 0.769037 8.68157C1.0527 6.68342 1.97873 4.8318 3.40732 3.40625Z" fill="#475569"/>
</g>
<defs>
<clipPath id="clip0_251_2260">
<rect width="20" height="20" fill="white"/>
</clipPath>
</defs>
</svg>
