<svg width="20" height="20" viewBox="0 0 20 20" fill="none" xmlns="http://www.w3.org/2000/svg">
<g id="fi_9573491">
<path id="Vector" d="M18.125 8.125C18.47 8.125 18.75 7.845 18.75 7.5V5.625C18.75 4.59125 17.9088 3.75 16.875 3.75H13.125V5.625C13.125 5.97 12.845 6.25 12.5 6.25C12.155 6.25 11.875 5.97 11.875 5.625V3.75H3.125C2.09125 3.75 1.25 4.59125 1.25 5.625V7.5C1.25 7.845 1.53 8.125 1.875 8.125C2.90875 8.125 3.75 8.96625 3.75 10C3.75 11.0338 2.90875 11.875 1.875 11.875C1.53 11.875 1.25 12.155 1.25 12.5V14.375C1.25 15.4087 2.09125 16.25 3.125 16.25H11.875V14.375C11.875 14.03 12.155 13.75 12.5 13.75C12.845 13.75 13.125 14.03 13.125 14.375V16.25H16.875C17.9088 16.25 18.75 15.4087 18.75 14.375V12.5C18.75 12.155 18.47 11.875 18.125 11.875C17.0913 11.875 16.25 11.0338 16.25 10C16.25 8.96625 17.0913 8.125 18.125 8.125ZM13.125 11.875C13.125 12.22 12.845 12.5 12.5 12.5C12.155 12.5 11.875 12.22 11.875 11.875V11.25C11.875 10.905 12.155 10.625 12.5 10.625C12.845 10.625 13.125 10.905 13.125 11.25V11.875ZM13.125 8.75C13.125 9.095 12.845 9.375 12.5 9.375C12.155 9.375 11.875 9.095 11.875 8.75V8.125C11.875 7.78 12.155 7.5 12.5 7.5C12.845 7.5 13.125 7.78 13.125 8.125V8.75Z" fill="#475569"/>
</g>
</svg>
