<svg width="20" height="20" viewBox="0 0 20 20" fill="none" xmlns="http://www.w3.org/2000/svg">
<g id="Frame" clip-path="url(#clip0_251_2246)">
<path id="Vector" d="M15.8327 4.16667C16.4957 4.16667 17.1316 4.43006 17.6004 4.8989C18.0693 5.36775 18.3327 6.00363 18.3327 6.66667V13.3333C18.3327 13.9964 18.0693 14.6323 17.6004 15.1011C17.1316 15.5699 16.4957 15.8333 15.8327 15.8333H4.16602C3.50297 15.8333 2.86709 15.5699 2.39825 15.1011C1.92941 14.6323 1.66602 13.9964 1.66602 13.3333V6.66667C1.66602 6.00363 1.92941 5.36775 2.39825 4.8989C2.86709 4.43006 3.50297 4.16667 4.16602 4.16667H15.8327ZM9.99935 7.50001C9.35798 7.50006 8.74117 7.7466 8.27647 8.18865C7.81178 8.6307 7.53475 9.23444 7.50268 9.87501L7.49935 10C7.49935 10.4945 7.64597 10.9778 7.92067 11.3889C8.19538 11.8001 8.58582 12.1205 9.04264 12.3097C9.49945 12.4989 10.0021 12.5484 10.4871 12.452C10.972 12.3555 11.4175 12.1174 11.7671 11.7678C12.1167 11.4181 12.3548 10.9727 12.4513 10.4877C12.5478 10.0028 12.4983 9.50011 12.309 9.0433C12.1198 8.58648 11.7994 8.19604 11.3883 7.92133C10.9771 7.64663 10.4938 7.50001 9.99935 7.50001ZM15.0077 9.16667H14.9993C14.7783 9.16667 14.5664 9.25447 14.4101 9.41075C14.2538 9.56703 14.166 9.77899 14.166 10C14.166 10.221 14.2538 10.433 14.4101 10.5893C14.5664 10.7455 14.7783 10.8333 14.9993 10.8333H15.0077C15.2287 10.8333 15.4407 10.7455 15.5969 10.5893C15.7532 10.433 15.841 10.221 15.841 10C15.841 9.77899 15.7532 9.56703 15.5969 9.41075C15.4407 9.25447 15.2287 9.16667 15.0077 9.16667ZM5.00768 9.16667H4.99935C4.88991 9.16722 4.78166 9.18932 4.68076 9.2317C4.57987 9.27408 4.48831 9.33593 4.41131 9.4137C4.33432 9.49147 4.27339 9.58364 4.23202 9.68495C4.19065 9.78627 4.16963 9.89474 4.17018 10.0042C4.17073 10.1136 4.19283 10.2219 4.23521 10.3228C4.27759 10.4237 4.33944 10.5152 4.41721 10.5922C4.49497 10.6692 4.58715 10.7301 4.68846 10.7715C4.78978 10.8129 4.89825 10.8339 5.00768 10.8333C5.2287 10.8333 5.44066 10.7455 5.59694 10.5893C5.75322 10.433 5.84102 10.221 5.84102 10C5.84102 9.77899 5.75322 9.56703 5.59694 9.41075C5.44066 9.25447 5.2287 9.16667 5.00768 9.16667Z" fill="#475569"/>
</g>
<defs>
<clipPath id="clip0_251_2246">
<rect width="20" height="20" fill="white"/>
</clipPath>
</defs>
</svg>
