<svg width="20" height="20" viewBox="0 0 20 20" fill="none" xmlns="http://www.w3.org/2000/svg">
<g id="Frame" clip-path="url(#clip0_251_1683)">
<path id="Vector" d="M3.33398 5.83325H16.6673" stroke="#EF4444" stroke-width="1.5" stroke-linecap="round" stroke-linejoin="round"/>
<path id="Vector_2" d="M8.33398 9.16675V14.1667" stroke="#EF4444" stroke-width="1.5" stroke-linecap="round" stroke-linejoin="round"/>
<path id="Vector_3" d="M11.666 9.16675V14.1667" stroke="#EF4444" stroke-width="1.5" stroke-linecap="round" stroke-linejoin="round"/>
<path id="Vector_4" d="M4.16602 5.83325L4.99935 15.8333C4.99935 16.2753 5.17494 16.6992 5.4875 17.0118C5.80006 17.3243 6.22399 17.4999 6.66602 17.4999H13.3327C13.7747 17.4999 14.1986 17.3243 14.5112 17.0118C14.8238 16.6992 14.9993 16.2753 14.9993 15.8333L15.8327 5.83325" stroke="#EF4444" stroke-width="1.5" stroke-linecap="round" stroke-linejoin="round"/>
<path id="Vector_5" d="M7.5 5.83333V3.33333C7.5 3.11232 7.5878 2.90036 7.74408 2.74408C7.90036 2.5878 8.11232 2.5 8.33333 2.5H11.6667C11.8877 2.5 12.0996 2.5878 12.2559 2.74408C12.4122 2.90036 12.5 3.11232 12.5 3.33333V5.83333" stroke="#EF4444" stroke-width="1.5" stroke-linecap="round" stroke-linejoin="round"/>
</g>
<defs>
<clipPath id="clip0_251_1683">
<rect width="20" height="20" fill="white"/>
</clipPath>
</defs>
</svg>
