<svg width="100" height="100" viewBox="0 0 100 100" fill="none" xmlns="http://www.w3.org/2000/svg">
<g id="Frame" clip-path="url(#clip0_251_2853)">
<path id="Vector" d="M50 6.95825C53.9791 6.95825 57.6875 8.90409 59.9583 12.1541L60.3958 12.8208L94.2041 69.2708C95.2316 71.0502 95.7906 73.0614 95.8288 75.1158C95.8671 77.1703 95.3833 79.2008 94.4228 81.0173C93.4623 82.8338 92.0565 84.3769 90.3371 85.5019C88.6176 86.627 86.6408 87.2972 84.5916 87.4499L83.7791 87.4833H16.175C14.1237 87.4602 12.1118 86.9178 10.3269 85.9066C8.54207 84.8955 7.04249 83.4486 5.96816 81.7011C4.89384 79.9536 4.2798 77.9623 4.18335 75.9132C4.0869 73.8641 4.5112 71.824 5.41663 69.9833L5.82913 69.2124L39.6208 12.8041C40.7027 11.02 42.2262 9.54478 44.0442 8.52083C45.8622 7.49688 47.9134 6.95871 50 6.95825ZM50.0416 62.4999L49.5125 62.5291C48.4998 62.6495 47.5664 63.1372 46.8892 63.8998C46.212 64.6623 45.8379 65.6467 45.8379 66.6666C45.8379 67.6864 46.212 68.6709 46.8892 69.4334C47.5664 70.1959 48.4998 70.6836 49.5125 70.8041L50 70.8333L50.5291 70.8041C51.5418 70.6836 52.4752 70.1959 53.1524 69.4334C53.8296 68.6709 54.2037 67.6864 54.2037 66.6666C54.2037 65.6467 53.8296 64.6623 53.1524 63.8998C52.4752 63.1372 51.5418 62.6495 50.5291 62.5291L50.0416 62.4999ZM50 33.3333C48.9794 33.3334 47.9944 33.7081 47.2317 34.3862C46.4691 35.0644 45.9819 35.9989 45.8625 37.0124L45.8333 37.4999V54.1666L45.8625 54.6541C45.9829 55.6668 46.4706 56.6002 47.2332 57.2774C47.9957 57.9546 48.9801 58.3286 50 58.3286C51.0198 58.3286 52.0042 57.9546 52.7668 57.2774C53.5293 56.6002 54.017 55.6668 54.1375 54.6541L54.1666 54.1666V37.4999L54.1375 37.0124C54.0181 35.9989 53.5308 35.0644 52.7682 34.3862C52.0055 33.7081 51.0205 33.3334 50 33.3333Z" fill="#EF4444"/>
</g>
<defs>
<clipPath id="clip0_251_2853">
<rect width="100" height="100" fill="white"/>
</clipPath>
</defs>
</svg>
