<svg width="20" height="20" viewBox="0 0 20 20" fill="none" xmlns="http://www.w3.org/2000/svg">
<g id="Frame" clip-path="url(#clip0_230_6073)">
<path id="Vector" d="M5.83398 5.83325H5.00065C4.55862 5.83325 4.1347 6.00885 3.82214 6.32141C3.50958 6.63397 3.33398 7.05789 3.33398 7.49992V14.9999C3.33398 15.4419 3.50958 15.8659 3.82214 16.1784C4.1347 16.491 4.55862 16.6666 5.00065 16.6666H12.5007C12.9427 16.6666 13.3666 16.491 13.6792 16.1784C13.9917 15.8659 14.1673 15.4419 14.1673 14.9999V14.1666" stroke="#3B82F6" stroke-width="1.5" stroke-linecap="round" stroke-linejoin="round"/>
<path id="Vector_2" d="M16.9875 5.48759C17.3157 5.15938 17.5001 4.71424 17.5001 4.25009C17.5001 3.78594 17.3157 3.34079 16.9875 3.01259C16.6593 2.68438 16.2142 2.5 15.75 2.5C15.2858 2.5 14.8407 2.68438 14.5125 3.01259L7.5 10.0001V12.5001H10L16.9875 5.48759Z" stroke="#3B82F6" stroke-width="1.5" stroke-linecap="round" stroke-linejoin="round"/>
<path id="Vector_3" d="M13.334 4.16675L15.834 6.66675" stroke="#3B82F6" stroke-width="1.5" stroke-linecap="round" stroke-linejoin="round"/>
</g>
<defs>
<clipPath id="clip0_230_6073">
<rect width="20" height="20" fill="white"/>
</clipPath>
</defs>
</svg>
