<svg width="65" height="65" viewBox="0 0 65 65" fill="none" xmlns="http://www.w3.org/2000/svg">
<g id="fi_11268850">
<path id="Vector" fill-rule="evenodd" clip-rule="evenodd" d="M46.9155 27.0275H56.1504C57.2609 27.0275 58.2081 27.6197 58.6097 28.5651L62.7903 38.4086C62.9139 38.6998 62.9686 38.9669 62.9686 39.2792V44.7693H60.2941C59.8928 44.7693 59.5654 45.0966 59.5654 45.498V48.5586C59.5654 48.9599 59.8927 49.2873 60.2941 49.2873H62.9688V51.4577C62.9688 52.3283 62.2587 53.0384 61.3881 53.0384H59.9827C59.9827 49.5892 57.1854 46.7919 53.7362 46.7919C50.287 46.7919 47.4897 49.5892 47.4897 53.0384H46.9155C46.7058 53.0384 46.5347 52.8673 46.5347 52.6575V27.4083C46.5347 27.1986 46.7057 27.0275 46.9155 27.0275ZM18.8812 7.74609C28.1873 7.74609 35.7312 15.2902 35.7312 24.5961C35.7312 33.902 28.1873 41.4461 18.8812 41.4461C9.57531 41.4461 2.03125 33.9021 2.03125 24.5961C2.03125 15.29 9.57531 7.74609 18.8812 7.74609ZM15.436 15.5392C15.2334 15.5936 15.1124 15.803 15.1667 16.0057L16.3306 20.3495C16.3849 20.5521 16.5944 20.6731 16.797 20.6188L21.8787 19.2572C22.0813 19.2029 22.2023 18.9934 22.148 18.7908L20.9841 14.4469C20.9297 14.2443 20.7203 14.1233 20.5177 14.1777L18.9566 14.596L19.3199 15.9518C19.4645 16.493 19.1429 17.049 18.6018 17.1936C18.0606 17.3382 17.5047 17.0166 17.3601 16.4755L16.9971 15.1211L15.436 15.5392ZM17.4356 23.0018C17.233 23.0561 17.112 23.2656 17.1663 23.4682L18.6492 29.0022C18.7035 29.2049 18.913 29.3258 19.1156 29.2715L25.5602 27.5447C25.7629 27.4904 25.8838 27.2809 25.8295 27.0783L24.3467 21.5442C24.2924 21.3416 24.0829 21.2206 23.8803 21.275L21.6376 21.8758L22.0859 23.5492C22.2305 24.0904 21.9089 24.6463 21.3679 24.7909C20.8267 24.9355 20.2707 24.614 20.1261 24.0729L19.6781 22.4009L17.4356 23.0018ZM28.7601 30.0733L27.4713 29.5692C27.2697 29.4905 27.0496 29.4781 26.8406 29.534L17.6029 32.0086C17.455 31.8858 17.2867 31.787 17.1038 31.7176L13.6165 18.2442C13.5488 17.9831 12.6365 17.4835 12.6365 17.4825H9.3713C8.81042 17.4825 8.35567 17.9373 8.35567 18.4981C8.35567 19.059 8.81042 19.5138 9.3713 19.5138H11.8537L15.1439 32.2254C14.8849 32.5312 14.7286 32.9267 14.7286 33.3588C14.7286 34.3277 15.5141 35.1131 16.483 35.1131C17.2377 35.1131 17.881 34.6365 18.1285 33.9679L27.0439 31.579L28.0221 31.9616C28.5435 32.1654 29.1316 31.9078 29.3353 31.3864C29.5391 30.865 29.2815 30.2771 28.7601 30.0733ZM23.4155 48.8233C25.7437 48.8233 27.6308 50.7105 27.6308 53.0386C27.6308 55.3668 25.7437 57.254 23.4155 57.254C21.0874 57.254 19.2001 55.3668 19.2001 53.0386C19.2001 50.7106 21.0874 48.8233 23.4155 48.8233ZM10.6985 50.931C10.6985 52.0917 11.6453 53.0385 12.806 53.0385H17.1689C17.1689 49.5893 19.9663 46.792 23.4154 46.792C26.8646 46.792 29.6618 49.5893 29.6618 53.0385H44.5033V22.3715C44.5033 21.2107 43.5565 20.2638 42.3957 20.2638H37.2621C37.5888 21.655 37.7622 23.1053 37.7622 24.5961C37.7622 35.0239 29.3089 43.4772 18.8811 43.4772C15.9495 43.4772 13.1739 42.809 10.6983 41.6167L10.6985 50.931ZM53.7362 48.8233C51.4081 48.8233 49.5209 50.7105 49.5209 53.0386C49.5209 55.3668 51.4081 57.254 53.7362 57.254C56.0644 57.254 57.9516 55.3668 57.9516 53.0386C57.9516 50.7106 56.0643 48.8233 53.7362 48.8233ZM60.3505 37.9627L57.1808 30.4994C57.1198 30.3557 56.9865 30.2675 56.8303 30.2675H49.3938C49.1841 30.2675 49.0129 30.4386 49.0129 30.6483V38.1116C49.0129 38.3214 49.1841 38.4925 49.3938 38.4925H60C60.274 38.4925 60.4576 38.215 60.3505 37.9627Z" fill="#3E4095"/>
<path id="Vector_2" fill-rule="evenodd" clip-rule="evenodd" d="M18.8812 7.74609C28.1873 7.74609 35.7312 15.2902 35.7312 24.5961C35.7312 33.902 28.1873 41.4461 18.8812 41.4461C9.57531 41.4461 2.03125 33.9021 2.03125 24.5961C2.03125 15.29 9.57531 7.74609 18.8812 7.74609ZM15.436 15.5392C15.2334 15.5936 15.1124 15.803 15.1667 16.0057L16.3306 20.3495C16.3849 20.5521 16.5944 20.6731 16.797 20.6188L21.8787 19.2572C22.0813 19.2029 22.2023 18.9934 22.148 18.7908L20.9841 14.4469C20.9297 14.2443 20.7203 14.1233 20.5177 14.1777L18.9566 14.596L19.3199 15.9518C19.4645 16.493 19.1429 17.049 18.6018 17.1936C18.0606 17.3382 17.5047 17.0166 17.3601 16.4755L16.9971 15.1211L15.436 15.5392ZM17.4356 23.0018C17.233 23.0561 17.112 23.2656 17.1663 23.4682L18.6492 29.0022C18.7035 29.2049 18.913 29.3258 19.1156 29.2715L25.5602 27.5447C25.7629 27.4904 25.8838 27.2809 25.8295 27.0783L24.3467 21.5442C24.2924 21.3416 24.0829 21.2206 23.8803 21.275L21.6376 21.8758L22.0859 23.5492C22.2305 24.0904 21.9089 24.6463 21.3679 24.7909C20.8267 24.9355 20.2707 24.614 20.1261 24.0729L19.6781 22.4009L17.4356 23.0018ZM28.7601 30.0733L27.4713 29.5692C27.2697 29.4905 27.0496 29.4781 26.8406 29.534L17.6029 32.0086C17.455 31.8858 17.2867 31.787 17.1038 31.7176L13.6165 18.2442C13.5488 17.9831 12.6365 17.4825 12.6365 17.4825H9.3713C8.81042 17.4825 8.35567 17.9373 8.35567 18.4981C8.35567 19.059 8.81042 19.5138 9.3713 19.5138H11.8537L15.1439 32.2254C14.8849 32.5312 14.7286 32.9267 14.7286 33.3588C14.7286 34.3277 15.5141 35.1131 16.483 35.1131C17.2377 35.1131 17.881 34.6365 18.1285 33.9679L27.0439 31.579L28.0221 31.9616C28.5435 32.1654 29.1316 31.9078 29.3353 31.3864C29.5391 30.865 29.2815 30.2771 28.7601 30.0733Z" fill="#F58634"/>
</g>
</svg>
