<svg width="101" height="100" viewBox="0 0 101 100" fill="none" xmlns="http://www.w3.org/2000/svg">
<g id="Frame" clip-path="url(#clip0_251_3444)">
<path id="Vector" d="M50.5421 8.37891C53.7829 8.3791 56.9126 9.55962 59.3463 11.6997L59.9879 12.3039L62.8963 15.2122C63.6944 16.0052 64.7367 16.5058 65.8546 16.6331L66.4171 16.6664H70.5838C73.9888 16.6662 77.2649 17.9688 79.7403 20.307C82.2156 22.6452 83.7026 25.8418 83.8962 29.2414L83.9171 29.9997V34.1664C83.9171 35.2914 84.3004 36.3872 84.9921 37.2622L85.3671 37.6789L88.2713 40.5872C90.6784 42.9808 92.082 46.2023 92.1958 49.595C92.3096 52.9877 91.1251 56.2961 88.8838 58.8456L88.2796 59.4872L85.3713 62.3956C84.5783 63.1937 84.0777 64.236 83.9504 65.3539L83.9171 65.9164V70.0831C83.9173 73.4881 82.6147 76.7643 80.2765 79.2396C77.9383 81.7149 74.7417 83.2019 71.3421 83.3956L70.5838 83.4164H66.4171C65.2937 83.4168 64.2031 83.7955 63.3213 84.4914L62.9046 84.8664L59.9963 87.7706C57.6027 90.1777 54.3812 91.5813 50.9885 91.6951C47.5958 91.8089 44.2874 90.6244 41.7379 88.3831L41.0962 87.7789L38.1879 84.8706C37.3897 84.0776 36.3475 83.577 35.2296 83.4497L34.6671 83.4164H30.5004C27.0953 83.4166 23.8192 82.114 21.3439 79.7758C18.8685 77.4376 17.3816 74.241 17.1879 70.8414L17.1671 70.0831V65.9164C17.1667 64.793 16.788 63.7024 16.0921 62.8206L15.7171 62.4039L12.8129 59.4956C10.4058 57.102 9.00218 53.8805 8.88836 50.4878C8.77455 47.0951 9.95907 43.7867 12.2004 41.2372L12.8046 40.5956L15.7129 37.6872C16.5059 36.8891 17.0065 35.8468 17.1337 34.7289L17.1671 34.1664V29.9997L17.1879 29.2414C17.374 25.9724 18.7564 22.8862 21.0716 20.5709C23.3869 18.2557 26.4731 16.8733 29.7421 16.6872L30.5004 16.6664H34.6671C35.7905 16.666 36.881 16.2874 37.7629 15.5914L38.1796 15.2164L41.0879 12.3122C42.3268 11.0659 43.7999 10.0768 45.4224 9.40182C47.0448 8.7268 48.7848 8.37916 50.5421 8.37891ZM65.9463 38.7206C65.1649 37.9394 64.1053 37.5006 63.0004 37.5006C61.8956 37.5006 60.836 37.9394 60.0546 38.7206L46.3338 52.4372L40.9462 47.0539L40.5546 46.7081C39.7171 46.0605 38.6646 45.756 37.6107 45.8564C36.5569 45.9568 35.5808 46.4546 34.8806 47.2486C34.1805 48.0426 33.8088 49.0733 33.8411 50.1315C33.8734 51.1896 34.3073 52.1957 35.0546 52.9456L43.3879 61.2789L43.7796 61.6247C44.5813 62.2466 45.5823 62.5546 46.5949 62.4909C47.6075 62.4273 48.5621 61.9963 49.2796 61.2789L65.9463 44.6122L66.2921 44.2206C66.914 43.4189 67.222 42.4178 67.1583 41.4052C67.0946 40.3926 66.6637 39.438 65.9463 38.7206Z" fill="#22C55E"/>
</g>
<defs>
<clipPath id="clip0_251_3444">
<rect width="100" height="100" fill="white" transform="translate(0.5)"/>
</clipPath>
</defs>
</svg>
