<svg width="25" height="25" viewBox="0 0 25 25" fill="none" xmlns="http://www.w3.org/2000/svg">
<g id="fi_1384031" clip-path="url(#clip0_98_359)">
<path id="Vector" d="M24.1868 7.26651C24.1306 5.9913 23.9244 5.1146 23.629 4.35494C23.3242 3.54856 22.8554 2.82662 22.2411 2.22647C21.641 1.61697 20.9143 1.14337 20.1172 0.843385C19.3532 0.547979 18.481 0.341761 17.2058 0.285537C15.9211 0.224551 15.5132 0.210449 12.2548 0.210449C8.99634 0.210449 8.58848 0.224551 7.30851 0.280775C6.0333 0.337 5.1566 0.5434 4.39711 0.838624C3.59056 1.14337 2.86861 1.61221 2.26846 2.22647C1.65897 2.82662 1.18555 3.55333 0.885378 4.35036C0.589971 5.11461 0.383754 5.98654 0.327529 7.26175C0.266543 8.54649 0.252441 8.95434 0.252441 12.2128C0.252441 15.4712 0.266543 15.8791 0.322768 17.1591C0.378992 18.4343 0.585392 19.311 0.880799 20.0707C1.18555 20.877 1.65897 21.599 2.26846 22.1991C2.86861 22.8086 3.59532 23.2822 4.39235 23.5822C5.1566 23.8776 6.02853 24.0838 7.30393 24.14C8.58372 24.1965 8.99176 24.2104 12.2502 24.2104C15.5087 24.2104 15.9165 24.1965 17.1965 24.14C18.4717 24.0838 19.3484 23.8776 20.1079 23.5822C21.7208 22.9586 22.996 21.6834 23.6196 20.0707C23.9148 19.3064 24.1212 18.4343 24.1775 17.1591C24.2337 15.8791 24.2478 15.4712 24.2478 12.2128C24.2478 8.95434 24.243 8.54649 24.1868 7.26651ZM22.0256 17.0653C21.9739 18.2374 21.777 18.8703 21.6129 19.2923C21.2097 20.3379 20.3798 21.1677 19.3343 21.5709C18.9123 21.735 18.2748 21.9319 17.1073 21.9834C15.8414 22.0398 15.4618 22.0537 12.2595 22.0537C9.05732 22.0537 8.67291 22.0398 7.41162 21.9834C6.23951 21.9319 5.60658 21.735 5.18462 21.5709C4.66431 21.3786 4.19071 21.0739 3.8063 20.6754C3.40778 20.2862 3.10303 19.8174 2.91074 19.2971C2.74664 18.8751 2.54977 18.2374 2.4983 17.0701C2.4419 15.8042 2.42798 15.4244 2.42798 12.2221C2.42798 9.01991 2.4419 8.6355 2.4983 7.37438C2.54977 6.20228 2.74664 5.56934 2.91074 5.14739C3.10303 4.6269 3.40778 4.15348 3.81106 3.76888C4.20005 3.37037 4.66889 3.06562 5.18938 2.87351C5.61134 2.70941 6.24904 2.51253 7.41638 2.46089C8.68225 2.40466 9.06209 2.39056 12.2641 2.39056C15.4711 2.39056 15.8508 2.40466 17.1121 2.46089C18.2842 2.51253 18.9171 2.70941 19.3391 2.87351C19.8594 3.06562 20.333 3.37037 20.7174 3.76888C21.1159 4.15806 21.4206 4.6269 21.6129 5.14739C21.777 5.56934 21.9739 6.20686 22.0256 7.37438C22.0818 8.64026 22.0959 9.01991 22.0959 12.2221C22.0959 15.4244 22.0818 15.7994 22.0256 17.0653Z" fill="#F58634"/>
<path id="Vector_2" d="M12.2551 6.04761C8.85143 6.04761 6.08984 8.80901 6.08984 12.2129C6.08984 15.6167 8.85143 18.3781 12.2551 18.3781C15.659 18.3781 18.4204 15.6167 18.4204 12.2129C18.4204 8.80901 15.659 6.04761 12.2551 6.04761ZM12.2551 16.2121C10.047 16.2121 8.25586 14.4212 8.25586 12.2129C8.25586 10.0046 10.047 8.21362 12.2551 8.21362C14.4634 8.21362 16.2544 10.0046 16.2544 12.2129C16.2544 14.4212 14.4634 16.2121 12.2551 16.2121Z" fill="#F58634"/>
<path id="Vector_3" d="M20.1034 5.80381C20.1034 6.59864 19.4589 7.24312 18.6639 7.24312C17.8691 7.24312 17.2246 6.59864 17.2246 5.80381C17.2246 5.00879 17.8691 4.3645 18.6639 4.3645C19.4589 4.3645 20.1034 5.00879 20.1034 5.80381Z" fill="#F58634"/>
</g>
<defs>
<clipPath id="clip0_98_359">
<rect width="24" height="24" fill="white" transform="translate(0.210449 0.210449)"/>
</clipPath>
</defs>
</svg>
