<svg width="20" height="20" viewBox="0 0 20 20" fill="none" xmlns="http://www.w3.org/2000/svg">
<g id="fi_3059474">
<path id="Vector" d="M19.3402 4.46187C19.2587 3.91742 18.9849 3.42016 18.5683 3.06024C18.1518 2.70032 17.62 2.50156 17.0695 2.5H2.93078C2.38027 2.50156 1.84854 2.70032 1.43198 3.06024C1.01541 3.42016 0.741595 3.91742 0.660156 4.46187L10.0002 10.5056L19.3402 4.46187Z" fill="#475569"/>
<path id="Vector_2" d="M10.3394 11.7746C10.2383 11.84 10.1204 11.8748 10 11.8748C9.87959 11.8748 9.76174 11.84 9.66062 11.7746L0.625 5.92836V15.194C0.625662 15.8053 0.868788 16.3913 1.30103 16.8236C1.73328 17.2558 2.31934 17.4989 2.93062 17.4996H17.0694C17.6807 17.4989 18.2667 17.2558 18.699 16.8236C19.1312 16.3913 19.3743 15.8053 19.375 15.194V5.92773L10.3394 11.7746Z" fill="#475569"/>
</g>
</svg>
