<svg width="25" height="25" viewBox="0 0 25 25" fill="none" xmlns="http://www.w3.org/2000/svg">
<g id="notification-bing-svgrepo-com 1">
<path id="Vector" opacity="0.4" d="M21.2484 17.0103C20.9568 17.7915 20.3422 18.3853 19.5401 18.6561C18.4151 19.0311 17.2588 19.3123 16.0922 19.5103C15.9776 19.5311 15.863 19.5519 15.7484 19.5623C15.5609 19.5936 15.3734 19.6144 15.1859 19.6353C14.9568 19.6665 14.7172 19.6873 14.4776 19.7082C13.8213 19.7603 13.1755 19.7915 12.5193 19.7915C11.8526 19.7915 11.1859 19.7603 10.5297 19.6978C10.2485 19.6769 9.97763 19.6457 9.70679 19.604C9.55054 19.5832 9.39429 19.5623 9.24846 19.5415C9.13388 19.5207 9.01929 19.5103 8.90471 19.4894C7.74846 19.3019 6.60263 19.0207 5.48804 18.6457C4.65471 18.3644 4.01929 17.7707 3.73804 17.0103C3.45679 16.2603 3.56096 15.3853 4.00888 14.6353L5.18596 12.6769C5.43596 12.2498 5.66513 11.4269 5.66513 10.9269V8.98942C5.66513 5.20817 8.73804 2.13525 12.5193 2.13525C16.2901 2.13525 19.363 5.20817 19.363 8.98942V10.9269C19.363 11.4269 19.5922 12.2498 19.8526 12.6769L21.0297 14.6353C21.4568 15.3644 21.5401 16.2186 21.2484 17.0103Z" fill="#64748B"/>
<path id="Vector_2" d="M12.5007 11.2085C12.0632 11.2085 11.709 10.8543 11.709 10.4168V7.18766C11.709 6.75016 12.0632 6.396 12.5007 6.396C12.9382 6.396 13.2923 6.75016 13.2923 7.18766V10.4168C13.2819 10.8543 12.9277 11.2085 12.5007 11.2085Z" fill="#64748B"/>
<path id="Vector_3" d="M15.4479 20.8437C15.0104 22.052 13.8542 22.9166 12.5 22.9166C11.6771 22.9166 10.8646 22.5833 10.2917 21.9895C9.95833 21.677 9.70833 21.2603 9.5625 20.8333C9.69792 20.8541 9.83333 20.8645 9.97917 20.8853C10.2187 20.9166 10.4688 20.9478 10.7188 20.9687C11.3125 21.0208 11.9167 21.052 12.5208 21.052C13.1146 21.052 13.7083 21.0208 14.2917 20.9687C14.5104 20.9478 14.7292 20.9374 14.9375 20.9062C15.1042 20.8853 15.2708 20.8645 15.4479 20.8437Z" fill="#64748B"/>
</g>
</svg>
