<svg width="20" height="20" viewBox="0 0 20 20" fill="none" xmlns="http://www.w3.org/2000/svg">
<g id="fi_2089784" clip-path="url(#clip0_127_246)">
<path id="Vector" d="M16.25 7.84768V6.24999C16.25 2.80396 13.446 0 9.99998 0C6.55395 0 3.74999 2.80396 3.74999 6.24999V7.84768C3.00637 8.28127 2.5 9.07863 2.5 10V17.5C2.5 18.8788 3.6212 20 4.99998 20H15C16.3788 20 17.5 18.8788 17.5 17.5V10C17.5 9.07859 16.9936 8.28123 16.25 7.84768ZM9.99998 2.49998C12.0678 2.49998 13.75 4.18209 13.75 6.24999V7.49998H6.24997V6.24999C6.24997 4.18213 7.93212 2.49998 9.99998 2.49998ZM11.25 14.5134V16.25H8.74999V14.5134C8.36896 14.1702 8.125 13.6781 8.125 13.125C8.125 12.0894 8.96444 11.25 9.99998 11.25C11.0355 11.25 11.875 12.0894 11.875 13.125C11.875 13.6781 11.631 14.1702 11.25 14.5134Z" fill="#475569"/>
</g>
<defs>
<clipPath id="clip0_127_246">
<rect width="20" height="20" fill="white"/>
</clipPath>
</defs>
</svg>
