<svg width="66" height="65" viewBox="0 0 66 65" fill="none" xmlns="http://www.w3.org/2000/svg">
<g id="fi_726559">
<g id="Group">
<g id="Group_2">
<path id="Vector" d="M29.3563 21.5697V17.9268H7.49845C5.49117 17.9268 3.85547 19.5625 3.85547 21.5697V28.8557H30.125C29.6186 26.6298 29.3563 24.2328 29.3563 21.5697Z" fill="#3E4095"/>
</g>
</g>
<g id="Group_3">
<g id="Group_4">
<path id="Vector_2" d="M61.9938 36.1426C59.5093 39.9714 55.7206 43.2282 50.2926 46.3466C49.4583 46.8238 48.5184 47.0715 47.5713 47.0715C46.6241 47.0715 45.6842 46.8238 44.8609 46.3539C39.4328 43.2282 35.6441 39.9677 33.156 36.1426H3.85547V54.3575C3.85547 56.3684 5.49117 58.0005 7.49845 58.0005H58.5002C60.5111 58.0005 62.1432 56.3684 62.1432 54.3575V36.1426H61.9938ZM20.2489 47.0715H12.9629C11.9575 47.0715 11.1414 46.2555 11.1414 45.25C11.1414 44.2446 11.9575 43.4285 12.9629 43.4285H20.2489C21.2544 43.4285 22.0704 44.2446 22.0704 45.25C22.0704 46.2555 21.2544 47.0715 20.2489 47.0715Z" fill="#3E4095"/>
</g>
</g>
<g id="Group_5">
<g id="Group_6">
<path id="Vector_3" d="M61.04 12.612L48.2896 7.14754C47.8269 6.95082 47.3133 6.95082 46.8506 7.14754L34.1002 12.612C33.4335 12.8962 33 13.5555 33 14.2841V21.5701C33 31.592 36.7049 37.4499 46.6648 43.1876C46.9453 43.3479 47.2586 43.428 47.5719 43.428C47.8852 43.428 48.1985 43.3479 48.479 43.1876C58.4389 37.4644 62.1439 31.6065 62.1439 21.5701V14.2841C62.1439 13.5555 61.7103 12.8962 61.04 12.612ZM54.4608 20.8889L47.1748 29.9963C46.8251 30.4262 46.3005 30.6776 45.7504 30.6776C45.7249 30.6776 45.6958 30.6776 45.6739 30.6776C45.0947 30.6521 44.5592 30.3533 44.235 29.8688L40.592 24.4043C40.0346 23.5665 40.2605 22.4371 41.0983 21.8798C41.9289 21.326 43.0619 21.5446 43.6229 22.3861L45.8852 25.7778L51.612 18.6156C52.2422 17.8324 53.3898 17.7085 54.173 18.3315C54.9599 18.9544 55.0838 20.102 54.4608 20.8889Z" fill="#F58634"/>
</g>
</g>
</g>
</svg>
