<svg width="23" height="23" viewBox="0 0 23 23" fill="none" xmlns="http://www.w3.org/2000/svg">
<g id="setting-svgrepo-com (1) 1">
<path id="Vector" opacity="0.4" d="M18.1497 5.19405L13.1951 2.32863C12.2464 1.78238 10.761 1.78238 9.81221 2.32863L4.80969 5.21322C2.82594 6.55488 2.71094 6.75613 2.71094 8.89322V14.0969C2.71094 16.234 2.82594 16.4448 4.84802 17.8057L9.80262 20.6711C10.2818 20.949 10.8951 21.0832 11.4989 21.0832C12.1026 21.0832 12.716 20.949 13.1855 20.6711L18.188 17.7865C20.1718 16.4448 20.2868 16.2436 20.2868 14.1065V8.89322C20.2868 6.75613 20.1718 6.55488 18.1497 5.19405Z" fill="#64748B"/>
<path id="Vector_2" d="M11.5013 14.6147C13.2214 14.6147 14.6159 13.2202 14.6159 11.5001C14.6159 9.77997 13.2214 8.3855 11.5013 8.3855C9.78119 8.3855 8.38672 9.77997 8.38672 11.5001C8.38672 13.2202 9.78119 14.6147 11.5013 14.6147Z" fill="#64748B"/>
</g>
</svg>
