<svg width="65" height="65" viewBox="0 0 65 65" fill="none" xmlns="http://www.w3.org/2000/svg">
<g id="fi_5163890" clip-path="url(#clip0_127_497)">
<path id="Vector" d="M9.15109 43.333H2.70898C2.70898 44.4104 3.137 45.4438 3.89886 46.2056C4.66073 46.9675 5.69404 47.3955 6.77148 47.3955H7.48242C7.61539 45.9038 8.19717 44.4875 9.15109 43.333Z" fill="#3E4095"/>
<path id="Vector_2" d="M40.6244 43.333H20.6406C21.5945 44.4875 22.1761 45.9039 22.309 47.3955H40.6244C40.9836 47.3955 41.328 47.2528 41.582 46.9989C41.836 46.7449 41.9787 46.4005 41.9787 46.0413V44.6872C41.9787 44.3281 41.836 43.9836 41.582 43.7296C41.328 43.4757 40.9836 43.333 40.6244 43.333Z" fill="#3E4095"/>
<path id="Vector_3" d="M14.8958 52.8121C17.5134 52.8121 19.6353 50.6901 19.6353 48.0725C19.6353 45.455 17.5134 43.333 14.8958 43.333C12.2782 43.333 10.1562 45.455 10.1562 48.0725C10.1562 50.6901 12.2782 52.8121 14.8958 52.8121Z" fill="#F58634"/>
<path id="Vector_4" d="M64.393 34.9341L59.1899 23.4876C58.7585 22.5418 58.0646 21.7397 57.1906 21.1769C56.3166 20.614 55.2993 20.314 54.2598 20.3125H46.0417C45.6825 20.3125 45.3381 20.4552 45.0841 20.7091C44.8302 20.9631 44.6875 21.3076 44.6875 21.6667V42.9716C45.6692 41.9261 46.9322 41.1866 48.3244 40.8423C49.7167 40.4981 51.1787 40.5636 52.5346 41.0311C53.8904 41.4987 55.0822 42.3482 55.9663 43.4774C56.8505 44.6066 57.3893 45.9674 57.5179 47.3958H60.9375C62.0149 47.3958 63.0483 46.9678 63.8101 46.2059C64.572 45.444 65 44.4107 65 43.3333V37.7358C65 36.7693 64.7931 35.8139 64.393 34.9341ZM58.2189 33.8541H49.427C49.0679 33.854 48.7235 33.7114 48.4696 33.4574C48.2157 33.2035 48.073 32.8591 48.073 32.5V27.0833C48.073 26.7241 48.2156 26.3797 48.4696 26.1257C48.7236 25.8718 49.068 25.7291 49.4272 25.7291H54.885C55.4049 25.729 55.9139 25.8786 56.3511 26.16C56.7883 26.4414 57.1353 26.8427 57.3506 27.316L59.4521 31.9396C59.5459 32.1459 59.5864 32.3725 59.5699 32.5985C59.5535 32.8245 59.4805 33.0428 59.3578 33.2333C59.2351 33.4238 59.0665 33.5805 58.8675 33.689C58.6686 33.7975 58.4455 33.8543 58.2189 33.8542V33.8541Z" fill="#3E4095"/>
<path id="Vector_5" d="M50.1048 52.8121C52.7223 52.8121 54.8443 50.6901 54.8443 48.0725C54.8443 45.455 52.7223 43.333 50.1048 43.333C47.4872 43.333 45.3652 45.455 45.3652 48.0725C45.3652 50.6901 47.4872 52.8121 50.1048 52.8121Z" fill="#F58634"/>
<path id="Vector_6" d="M37.9172 12.1875H6.77132C5.69387 12.1875 4.66056 12.6155 3.89869 13.3774C3.13683 14.1392 2.70882 15.1726 2.70882 16.25V32.5H1.42659C0.752721 32.5 0.127477 32.9608 0.0190591 33.6267C-0.0138796 33.821 -0.00403549 34.0202 0.0479049 34.2103C0.0998454 34.4005 0.192632 34.577 0.319795 34.7276C0.446958 34.8781 0.605438 34.9992 0.784183 35.0822C0.962928 35.1653 1.15764 35.2083 1.35473 35.2084H4.66821C5.34284 35.2084 5.96796 35.6693 6.07637 36.3351C6.10931 36.5295 6.09947 36.7286 6.04753 36.9188C5.99559 37.1089 5.9028 37.2854 5.77564 37.436C5.64847 37.5866 5.49 37.7076 5.31125 37.7907C5.1325 37.8737 4.9378 37.9168 4.7407 37.9168H1.42722C0.752721 37.9167 0.127477 38.3779 0.0190591 39.0433C-0.0138796 39.2376 -0.00403549 39.4368 0.0479049 39.6269C0.0998454 39.817 0.192632 39.9936 0.319795 40.1441C0.446958 40.2947 0.605438 40.4158 0.784183 40.4988C0.962928 40.5819 1.15764 40.6249 1.35473 40.625H40.6255C40.9847 40.625 41.3291 40.4823 41.5831 40.2284C41.8371 39.9744 41.9797 39.63 41.9797 39.2708V16.25C41.9797 15.1726 41.5517 14.1392 40.7899 13.3774C40.028 12.6155 38.9947 12.1875 37.9172 12.1875Z" fill="#3E4095"/>
</g>
<defs>
<clipPath id="clip0_127_497">
<rect width="65" height="65" fill="white"/>
</clipPath>
</defs>
</svg>
