<svg width="61" height="60" viewBox="0 0 61 60" fill="none" xmlns="http://www.w3.org/2000/svg">
<g id="fi_9261196">
<g id="Group">
<path id="Vector" d="M23 26.875C19.2 26.875 16.125 23.8 16.125 20C16.125 16.2 19.2 13.125 23 13.125C26.8 13.125 29.875 16.2 29.875 20C29.875 23.8 26.8 26.875 23 26.875ZM23 16.875C21.275 16.875 19.875 18.275 19.875 20C19.875 21.725 21.275 23.125 23 23.125C24.725 23.125 26.125 21.725 26.125 20C26.125 18.275 24.725 16.875 23 16.875Z" fill="#3E4095"/>
<path id="Vector_2" d="M38 56.875H23C9.425 56.875 3.625 51.075 3.625 37.5V22.5C3.625 8.925 9.425 3.125 23 3.125H33C34.025 3.125 34.875 3.975 34.875 5C34.875 6.025 34.025 6.875 33 6.875H23C11.475 6.875 7.375 10.975 7.375 22.5V37.5C7.375 49.025 11.475 53.125 23 53.125H38C49.525 53.125 53.625 49.025 53.625 37.5V25C53.625 23.975 54.475 23.125 55.5 23.125C56.525 23.125 57.375 23.975 57.375 25V37.5C57.375 51.075 51.575 56.875 38 56.875Z" fill="#3E4095"/>
<path id="Vector_3" d="M45.5 21.8748C44.475 21.8748 43.625 21.0248 43.625 19.9998V4.99985C43.625 4.24985 44.075 3.54985 44.775 3.27485C45.475 2.99985 46.275 3.14985 46.825 3.67485L51.825 8.67485C52.55 9.39985 52.55 10.5998 51.825 11.3248C51.1 12.0498 49.9 12.0498 49.175 11.3248L47.375 9.52485V19.9998C47.375 21.0248 46.525 21.8748 45.5 21.8748Z" fill="#3E4095"/>
<path id="Vector_4" d="M40.4996 11.8749C40.0246 11.8749 39.5496 11.6999 39.1746 11.3249C38.4496 10.5999 38.4496 9.39985 39.1746 8.67485L44.1746 3.67485C44.8996 2.94985 46.0996 2.94985 46.8246 3.67485C47.5496 4.39985 47.5496 5.59985 46.8246 6.32485L41.8246 11.3249C41.4496 11.6999 40.9746 11.8749 40.4996 11.8749Z" fill="#3E4095"/>
<path id="Vector_5" d="M7.17524 49.2501C6.57524 49.2501 5.97524 48.9501 5.62524 48.4251C5.05024 47.5751 5.27524 46.4001 6.12524 45.8251L18.4502 37.5501C21.1502 35.7501 24.8752 35.9501 27.3252 38.0251L28.1502 38.7501C29.4002 39.8251 31.5252 39.8251 32.7502 38.7501L43.1502 29.8251C45.8002 27.5501 49.9752 27.5501 52.6502 29.8251L56.7252 33.3251C57.5002 34.0001 57.6002 35.1751 56.9252 35.9751C56.2502 36.7501 55.0502 36.8501 54.2752 36.1751L50.2002 32.6751C48.9502 31.6001 46.8502 31.6001 45.6002 32.6751L35.2002 41.6001C32.5502 43.8751 28.3752 43.8751 25.7002 41.6001L24.8752 40.8751C23.7252 39.9001 21.8253 39.8001 20.5503 40.6751L8.25024 48.9501C7.90024 49.1501 7.52524 49.2501 7.17524 49.2501Z" fill="#3E4095"/>
</g>
</g>
</svg>
