<svg width="65" height="65" viewBox="0 0 65 65" fill="none" xmlns="http://www.w3.org/2000/svg">
<g id="fi_10150451">
<path id="Vector" d="M26.0731 22.9517C26.0449 22.9026 26.0297 22.8403 26.0297 22.7628V4.5498H38.966V22.7628C38.966 22.8403 38.954 22.9026 38.9226 22.9517C38.8911 23.0008 38.8456 23.0478 38.7816 23.0816C38.7165 23.1154 38.6525 23.134 38.5906 23.1307C38.5353 23.1275 38.4735 23.1056 38.4127 23.0652L33.6743 19.9493C33.312 19.7113 32.9052 19.5934 32.4995 19.5934C32.0905 19.5934 31.688 19.7113 31.3246 19.9493L26.5862 23.0652C26.5243 23.1056 26.4636 23.1275 26.405 23.1307C26.3464 23.134 26.2824 23.1154 26.2173 23.0816C26.1523 23.0478 26.1034 23.0008 26.0731 22.9517ZM49.7077 4.5498H40.7592V22.7628C40.7592 23.1624 40.655 23.5423 40.4576 23.8742C40.2634 24.2018 39.9814 24.4747 39.6299 24.6669C39.2795 24.859 38.9009 24.9453 38.5234 24.9267C38.1394 24.9114 37.7673 24.7935 37.4353 24.5741L32.6969 21.4581C32.6318 21.4177 32.5645 21.3959 32.5005 21.3959C32.4365 21.3959 32.3682 21.4177 32.3042 21.4581L27.5636 24.573C27.2316 24.7924 26.8596 24.9103 26.4755 24.9256C26.0969 24.9442 25.7194 24.8579 25.369 24.6658C25.0186 24.4736 24.7355 24.2018 24.5413 23.8731C24.345 23.5423 24.2397 23.1613 24.2397 22.7617V4.5498H15.2912C12.244 4.5498 9.75 7.0598 9.75 10.1266V44.7632C9.75 47.83 12.244 50.34 15.2912 50.34H18.4588C18.1757 49.7122 17.9359 49.068 17.7396 48.4086L16.0603 47.8605C15.0113 47.5166 14.3105 46.545 14.3105 45.4368V42.453C14.3105 41.3416 15.0113 40.3731 16.0603 40.0292L17.7396 39.4779C18.0379 38.4811 18.4371 37.516 18.9264 36.6L18.1236 35.0125C17.6257 34.0256 17.8101 32.8399 18.5912 32.0538L20.6881 29.9434C21.4659 29.1606 22.644 28.975 23.6247 29.4761L25.202 30.284C26.1121 29.7917 27.0711 29.3899 28.0615 29.0896L28.6093 27.3996C28.9511 26.3438 29.9133 25.6385 31.0176 25.6385H33.9824C35.0835 25.6385 36.0489 26.3438 36.3907 27.3996L36.9385 29.0896C37.9289 29.3899 38.8879 29.7895 39.798 30.284L41.3753 29.4761C42.356 28.975 43.5341 29.1606 44.3119 29.9434L46.4088 32.0538C47.1866 32.8399 47.3743 34.0256 46.8764 35.0125L46.0736 36.6C46.5629 37.516 46.9621 38.4811 47.2572 39.4779L48.9397 40.0292C49.9887 40.3731 50.6895 41.3416 50.6895 42.453V45.4368C50.6895 46.545 49.9887 47.5166 48.9397 47.8605L47.2572 48.4086C47.0608 49.068 46.82 49.7111 46.5412 50.34H49.7088C52.756 50.34 55.25 47.83 55.25 44.7632V10.1266C55.2489 7.0598 52.7549 4.5498 49.7077 4.5498ZM32.4995 37.0269C30.6021 37.0269 28.8827 37.8009 27.6374 39.0543C26.3953 40.3076 25.6229 42.0348 25.6229 43.9476C25.6229 45.8571 26.3942 47.5876 27.6374 48.841C28.8827 50.091 30.6021 50.8651 32.4995 50.8651C34.3968 50.8651 36.1162 50.091 37.3616 48.841C38.6037 47.5876 39.376 45.8571 39.376 43.9476C39.376 42.0348 38.6047 40.3076 37.3616 39.0543C36.1162 37.8009 34.3968 37.0269 32.4995 37.0269ZM45.7742 46.998C45.4303 48.5243 44.8337 49.9502 44.0309 51.2352L45.2796 53.6961C45.4271 53.9898 45.3718 54.3271 45.1407 54.5597L43.0438 56.6701C42.8127 56.9026 42.4775 56.9583 42.1857 56.8066L39.7405 55.5532C38.4648 56.3611 37.047 56.9616 35.5304 57.3077L34.6843 59.9356C34.5823 60.2478 34.3057 60.4498 33.9802 60.4498H31.0154C30.69 60.4498 30.4123 60.2489 30.3114 59.9356L29.4631 57.3077C27.9498 56.9616 26.533 56.3611 25.2562 55.5532L22.8111 56.8066C22.5192 56.9583 22.1808 56.9026 21.953 56.6701L19.856 54.5597C19.625 54.3271 19.5697 53.9898 19.7172 53.6961L20.9658 51.2352C20.163 49.9513 19.5632 48.5243 19.2193 46.998L16.6114 46.1465C16.3011 46.0438 16.1005 45.7654 16.1005 45.4379V42.4541C16.1005 42.1265 16.3001 41.847 16.6114 41.7455L19.2193 40.8917C19.5664 39.3687 20.163 37.9429 20.9658 36.6578L19.7172 34.197C19.5697 33.9033 19.625 33.5626 19.856 33.3301L21.953 31.2197C22.1808 30.9904 22.5192 30.9347 22.8111 31.0832L25.2562 32.3399C26.5319 31.5287 27.9498 30.9282 29.4631 30.5821L30.3114 27.9575C30.4134 27.6452 30.69 27.4432 31.0154 27.4432H33.9802C34.3057 27.4432 34.5834 27.6441 34.6843 27.9575L35.5304 30.5821C37.0459 30.9282 38.4637 31.5287 39.7405 32.3366L42.1857 31.0832C42.4775 30.9347 42.8127 30.9904 43.0438 31.2197L45.1407 33.3301C45.3718 33.5626 45.4271 33.9022 45.2796 34.197L44.0309 36.6589C44.8337 37.9429 45.4303 39.3698 45.7775 40.8928L48.3853 41.7466C48.6956 41.8492 48.8963 42.1276 48.8963 42.4552V45.439C48.8963 45.7665 48.6967 46.046 48.3853 46.1475L45.7742 46.998ZM41.1649 43.9465C41.1649 41.5392 40.1962 39.3567 38.6275 37.7791C37.0589 36.2004 34.8915 35.2254 32.4995 35.2254C30.1075 35.2254 27.9389 36.2004 26.3714 37.7791C24.8028 39.3578 23.834 41.5392 23.834 43.9465C23.834 46.3539 24.8028 48.5364 26.3714 50.114C27.94 51.6927 30.1075 52.6676 32.4995 52.6676C34.8915 52.6676 37.06 51.6927 38.6275 50.114C40.1962 48.5364 41.1649 46.355 41.1649 43.9465Z" fill="#3E4095"/>
<path id="Vector_2" d="M32.4995 37.0269C30.6021 37.0269 28.8827 37.8009 27.6374 39.0543C26.3953 40.3076 25.6229 42.0348 25.6229 43.9476C25.6229 45.8571 26.3942 47.5876 27.6374 48.841C28.8827 50.091 30.6021 50.8651 32.4995 50.8651C34.3968 50.8651 36.1162 50.091 37.3616 48.841C38.6037 47.5876 39.376 45.8571 39.376 43.9476C39.376 42.0348 38.6047 40.3076 37.3616 39.0543C36.1162 37.8009 34.3968 37.0269 32.4995 37.0269ZM45.7742 46.998C45.4303 48.5243 44.8337 49.9502 44.0309 51.2352L45.2796 53.6961C45.4271 53.9898 45.3718 54.3271 45.1407 54.5597L43.0438 56.6701C42.8127 56.9026 42.4775 56.9583 42.1857 56.8066L39.7405 55.5532C38.4648 56.3611 37.047 56.9616 35.5304 57.3077L34.6843 59.9356C34.5823 60.2478 34.3057 60.4498 33.9802 60.4498H31.0154C30.69 60.4498 30.4123 60.2489 30.3114 59.9356L29.4631 57.3077C27.9498 56.9616 26.533 56.3611 25.2562 55.5532L22.8111 56.8066C22.5192 56.9583 22.1808 56.9026 21.953 56.6701L19.856 54.5597C19.625 54.3271 19.5697 53.9898 19.7172 53.6961L20.9658 51.2352C20.163 49.9513 19.5632 48.5243 19.2193 46.998L16.6114 46.1465C16.3011 46.0438 16.1005 45.7654 16.1005 45.4379V42.4541C16.1005 42.1265 16.3001 41.847 16.6114 41.7455L19.2193 40.8917C19.5664 39.3687 20.163 37.9429 20.9658 36.6578L19.7172 34.197C19.5697 33.9033 19.625 33.5626 19.856 33.3301L21.953 31.2197C22.1808 30.9904 22.5192 30.9347 22.8111 31.0832L25.2562 32.3399C26.5319 31.5287 27.9498 30.9282 29.4631 30.5821L30.3114 27.9575C30.4134 27.6452 30.69 27.4432 31.0154 27.4432H33.9802C34.3057 27.4432 34.5834 27.6441 34.6843 27.9575L35.5304 30.5821C37.0459 30.9282 38.4637 31.5287 39.7405 32.3366L42.1857 31.0832C42.4775 30.9347 42.8127 30.9904 43.0438 31.2197L45.1407 33.3301C45.3718 33.5626 45.4271 33.9022 45.2796 34.197L44.0309 36.6589C44.8337 37.9429 45.4303 39.3698 45.7775 40.8928L48.3853 41.7466C48.6956 41.8492 48.8963 42.1276 48.8963 42.4552V45.439C48.8963 45.7665 48.6967 46.046 48.3853 46.1475L45.7742 46.998ZM41.1649 43.9465C41.1649 41.5392 40.1962 39.3567 38.6275 37.7791C37.0589 36.2004 34.8915 35.2254 32.4995 35.2254C30.1075 35.2254 27.9389 36.2004 26.3714 37.7791C24.8028 39.3578 23.834 41.5392 23.834 43.9465C23.834 46.3539 24.8028 48.5364 26.3714 50.114C27.94 51.6927 30.1075 52.6676 32.4995 52.6676C34.8915 52.6676 37.06 51.6927 38.6275 50.114C40.1962 48.5364 41.1649 46.355 41.1649 43.9465Z" fill="#F58634"/>
</g>
</svg>
