<svg width="25" height="25" viewBox="0 0 25 25" fill="none" xmlns="http://www.w3.org/2000/svg">
<g id="fi_3046120" clip-path="url(#clip0_98_356)">
<g id="Group">
<path id="Vector" d="M22.9888 6.22876C21.6192 6.22876 20.3554 5.77501 19.3406 5.00954C18.1767 4.13204 17.3404 2.84485 17.0451 1.36126C16.972 0.994697 16.9326 0.616416 16.9288 0.22876H13.0162V10.92L13.0115 16.7761C13.0115 18.3417 11.992 19.6692 10.5787 20.1361C10.1685 20.2716 9.72556 20.3358 9.26431 20.3105C8.67556 20.2781 8.12384 20.1005 7.64431 19.8136C6.62384 19.2033 5.93196 18.0961 5.91321 16.8295C5.88368 14.85 7.48399 13.2361 9.46212 13.2361C9.85259 13.2361 10.2276 13.2999 10.5787 13.4156V10.4934V9.44298C10.2084 9.38813 9.8315 9.35954 9.4504 9.35954C7.28524 9.35954 5.26024 10.2595 3.81274 11.8809C2.71868 13.1063 2.06243 14.6695 1.96118 16.3088C1.82853 18.4622 2.61649 20.5092 4.14462 22.0195C4.36915 22.2413 4.60493 22.447 4.85149 22.6369C6.16165 23.6452 7.76337 24.1917 9.4504 24.1917C9.8315 24.1917 10.2084 24.1636 10.5787 24.1088C12.1546 23.8753 13.6087 23.1539 14.7562 22.0195C16.1662 20.6259 16.9452 18.7758 16.9537 16.8066L16.9335 8.06157C17.6062 8.58048 18.3417 9.00985 19.131 9.34313C20.3587 9.8611 21.6604 10.1236 23.0001 10.1231V7.28204V6.22782C23.001 6.22876 22.9898 6.22876 22.9888 6.22876Z" fill="#F58634"/>
</g>
</g>
<defs>
<clipPath id="clip0_98_356">
<rect width="24" height="24" fill="white" transform="translate(0.473633 0.210449)"/>
</clipPath>
</defs>
</svg>
