<svg width="20" height="20" viewBox="0 0 20 20" fill="none" xmlns="http://www.w3.org/2000/svg">
<g id="fi_14673907">
<g id="Layer 2">
<path id="Vector" d="M9.99935 9.79167C12.1855 9.79167 13.9577 8.01946 13.9577 5.83333C13.9577 3.64721 12.1855 1.875 9.99935 1.875C7.81322 1.875 6.04102 3.64721 6.04102 5.83333C6.04102 8.01946 7.81322 9.79167 9.99935 9.79167Z" fill="#475569"/>
<path id="Vector_2" d="M17.0579 14.4333L16.9496 14.1666C16.5855 13.2519 15.9595 12.4651 15.1501 11.9047C14.3407 11.3444 13.3839 11.0354 12.3996 11.0166H7.6079C6.62362 11.0354 5.66679 11.3444 4.85737 11.9047C4.04796 12.4651 3.42197 13.2519 3.0579 14.1666L2.94124 14.4249C2.7595 14.842 2.68344 15.2975 2.71978 15.751C2.75612 16.2045 2.90374 16.6421 3.14957 17.0249C3.34974 17.3518 3.63012 17.6222 3.9641 17.8103C4.29808 17.9985 4.67458 18.0981 5.0579 18.0999H14.9329C15.3173 18.098 15.6949 17.9983 16.0302 17.8102C16.3655 17.6222 16.6475 17.3519 16.8496 17.0249C17.0933 16.6428 17.2397 16.2068 17.276 15.755C17.3124 15.3032 17.2375 14.8494 17.0579 14.4333Z" fill="#475569"/>
</g>
</g>
</svg>
