<svg width="20" height="20" viewBox="0 0 20 20" fill="none" xmlns="http://www.w3.org/2000/svg">
<g id="Frame" clip-path="url(#clip0_127_249)">
<path id="Vector" d="M8.33301 9.99967C8.33301 10.4417 8.5086 10.8656 8.82116 11.1782C9.13372 11.4907 9.55765 11.6663 9.99967 11.6663C10.4417 11.6663 10.8656 11.4907 11.1782 11.1782C11.4907 10.8656 11.6663 10.4417 11.6663 9.99967C11.6663 9.55765 11.4907 9.13372 11.1782 8.82116C10.8656 8.5086 10.4417 8.33301 9.99967 8.33301C9.55765 8.33301 9.13372 8.5086 8.82116 8.82116C8.5086 9.13372 8.33301 9.55765 8.33301 9.99967Z" stroke="#475569" stroke-width="2" stroke-linecap="round" stroke-linejoin="round"/>
<path id="Vector_2" d="M17.5 10C15.5 13.3333 13 15 10 15C7 15 4.5 13.3333 2.5 10C4.5 6.66667 7 5 10 5C13 5 15.5 6.66667 17.5 10Z" stroke="#475569" stroke-width="2" stroke-linecap="round" stroke-linejoin="round"/>
</g>
<defs>
<clipPath id="clip0_127_249">
<rect width="20" height="20" fill="white"/>
</clipPath>
</defs>
</svg>
