<svg width="101" height="100" viewBox="0 0 101 100" fill="none" xmlns="http://www.w3.org/2000/svg">
<g id="Frame" clip-path="url(#clip0_251_3464)">
<path id="Vector" d="M62.5702 4.16699C66.6646 4.16677 70.6158 5.67369 73.6702 8.40033L74.3577 9.05032L91.441 26.1337C94.3431 29.0299 96.0758 32.8943 96.3077 36.9878L96.3327 37.9337V62.0753C96.3329 66.1697 94.826 70.1209 92.0993 73.1753L91.4493 73.8628L74.366 90.9462C71.4718 93.8464 67.6108 95.5789 63.5202 95.8128L62.5743 95.8378H38.4285C34.3335 95.8373 30.3821 94.3288 27.3285 91.6003L26.641 90.9503L9.55768 73.867C6.65653 70.9718 4.92394 67.109 4.69102 63.017L4.66602 62.0712V37.9295C4.66579 33.8351 6.17271 29.8839 8.89935 26.8295L9.54935 26.142L26.6327 9.05866C29.529 6.15658 33.3933 4.42391 37.4868 4.19199L38.4327 4.16699H62.5702ZM50.4993 45.8337H46.3327L45.8452 45.8628C44.8325 45.9833 43.8991 46.471 43.2219 47.2335C42.5447 47.9961 42.1707 48.9805 42.1707 50.0003C42.1707 51.0202 42.5447 52.0046 43.2219 52.7671C43.8991 53.5297 44.8325 54.0174 45.8452 54.1378L46.3327 54.167V66.667L46.3618 67.1545C46.4715 68.0846 46.8913 68.9506 47.5536 69.6128C48.2158 70.275 49.0818 70.6948 50.0118 70.8045L50.4993 70.8337H54.666L55.1535 70.8045C56.0836 70.6948 56.9496 70.275 57.6118 69.6128C58.274 68.9506 58.6938 68.0846 58.8035 67.1545L58.8327 66.667L58.8035 66.1795C58.7039 65.3294 58.3449 64.5306 57.7754 63.8917C57.2058 63.2528 56.4533 62.8048 55.6202 62.6087L55.1535 62.5253L54.666 62.5003V50.0003L54.6368 49.5128C54.5272 48.5828 54.1073 47.7168 53.4451 47.0545C52.7829 46.3923 51.9169 45.9725 50.9868 45.8628L50.4993 45.8337ZM50.541 33.3337L50.0118 33.3628C48.9991 33.4833 48.0658 33.971 47.3886 34.7335C46.7114 35.4961 46.3373 36.4805 46.3373 37.5003C46.3373 38.5202 46.7114 39.5046 47.3886 40.2671C48.0658 41.0297 48.9991 41.5174 50.0118 41.6378L50.4993 41.667L51.0285 41.6378C52.0412 41.5174 52.9746 41.0297 53.6518 40.2671C54.329 39.5046 54.703 38.5202 54.703 37.5003C54.703 36.4805 54.329 35.4961 53.6518 34.7335C52.9746 33.971 52.0412 33.4833 51.0285 33.3628L50.541 33.3337Z" fill="#F58634"/>
</g>
<defs>
<clipPath id="clip0_251_3464">
<rect width="100" height="100" fill="white" transform="translate(0.5)"/>
</clipPath>
</defs>
</svg>
