<svg width="25" height="25" viewBox="0 0 25 25" fill="none" xmlns="http://www.w3.org/2000/svg">
<g id="fi_717426" clip-path="url(#clip0_98_352)">
<g id="Group">
<g id="Group_2">
<path id="Vector" d="M24.4022 6.49217C24.2762 5.44127 23.2859 4.43355 22.2497 4.29855C15.931 3.51344 9.54145 3.51344 3.2248 4.29855C2.18773 4.43326 1.19736 5.44127 1.07138 6.49217C0.625296 10.3437 0.625296 14.0781 1.07138 17.9287C1.19736 18.9796 2.18773 19.9883 3.2248 20.1223C9.54145 20.9074 15.9312 20.9074 22.2497 20.1223C23.2859 19.9885 24.2762 18.9796 24.4022 17.9287C24.8484 14.0785 24.8484 10.3437 24.4022 6.49217ZM10.7367 16.2112V8.21093L16.7368 12.2112L10.7367 16.2112Z" fill="#F58634"/>
</g>
</g>
</g>
<defs>
<clipPath id="clip0_98_352">
<rect width="24" height="24" fill="white" transform="translate(0.736816 0.210449)"/>
</clipPath>
</defs>
</svg>
