<svg width="32" height="32" viewBox="0 0 32 32" fill="none" xmlns="http://www.w3.org/2000/svg">
<g id="fi_66455" clip-path="url(#clip0_192_2585)">
<g id="Group">
<g id="Layer_1_78_">
<g id="Group_2">
<path id="Vector" d="M30.5321 29.084H1.45427C0.65088 29.084 0 29.7349 0 30.5389C0 31.3416 0.65088 31.9925 1.45427 31.9925H30.5314C31.3348 31.9925 31.9857 31.3416 31.9857 30.5389C31.985 29.7349 31.3341 29.084 30.5321 29.084Z" fill="#475569"/>
<path id="Vector_2" d="M3.27263 25.3032C2.46924 25.3032 1.81836 25.9541 1.81836 26.7575C1.81836 27.5609 2.46924 28.2125 3.27263 28.2125H28.7155C29.5189 28.2125 30.1698 27.5609 30.1698 26.7575C30.1698 25.9541 29.5189 25.3032 28.7155 25.3032H28.3526V12.2176H28.7155C29.1179 12.2176 29.4419 11.8921 29.4419 11.4911C29.4419 11.0901 29.1165 10.7646 28.7155 10.7646H3.27263C2.87093 10.7646 2.54617 11.0901 2.54617 11.4911C2.54617 11.8921 2.87161 12.2176 3.27263 12.2176H3.63619V25.3026L3.27263 25.3032ZM25.4441 12.2176V25.3026H21.0826V12.2176H25.4441ZM18.1741 12.2176V25.3026H13.8127V12.2176H18.1741ZM6.54337 12.2176H10.9048V25.3026H6.54337V12.2176Z" fill="#475569"/>
<path id="Vector_3" d="M1.45429 9.45748H30.5315C30.5362 9.45748 30.5417 9.45748 30.5458 9.45748C31.3498 9.45748 32 8.8066 32 8.00322C32 7.36459 31.5888 6.82333 31.0176 6.62725L16.5907 0.135469C16.2114 -0.0347398 15.7777 -0.0347398 15.3978 0.135469L0.857882 6.67763C0.232193 6.95949 -0.11163 7.63897 0.0327078 8.30891C0.176364 8.97886 0.768692 9.45748 1.45429 9.45748Z" fill="#475569"/>
</g>
</g>
</g>
</g>
<defs>
<clipPath id="clip0_192_2585">
<rect width="32" height="32" fill="white"/>
</clipPath>
</defs>
</svg>
