<svg width="32" height="32" viewBox="0 0 32 32" fill="none" xmlns="http://www.w3.org/2000/svg">
<g id="fi_10801984">
<g id="Group">
<path id="Vector" d="M30.9998 11.4999V8.49997C30.9998 6.02499 28.9748 4 26.4998 4H5.49997C3.02499 4 1 6.02499 1 8.49997V11.4999H30.9998Z" fill="#475569"/>
<path id="Vector_2" d="M1 14.4998V23.4997C1 25.9747 3.02499 27.9997 5.49997 27.9997H26.4998C28.9748 27.9997 30.9998 25.9747 30.9998 23.4997V14.4998H1ZM14.4999 21.9997H8.49995C7.67495 21.9997 6.99996 21.3247 6.99996 20.4997C6.99996 19.6747 7.67495 18.9997 8.49995 18.9997H14.4999C15.3249 18.9997 15.9999 19.6747 15.9999 20.4997C15.9999 21.3247 15.3249 21.9997 14.4999 21.9997Z" fill="#475569"/>
</g>
</g>
</svg>
