<svg width="32" height="32" viewBox="0 0 32 32" fill="none" xmlns="http://www.w3.org/2000/svg">
<g id="fi_12947893">
<path id="Vector" d="M13.045 8.04498C14.755 6.63 17.245 6.63 18.955 8.04498C19.6632 8.66319 20.5874 8.87772 21.5 8.91494C21.5 8.91498 21.5 6.5 21.5 6.5C21.5 4.01999 19.48 2 17 2H15C12.52 2 10.5 4.01999 10.5 6.5V8.91498C11.4138 8.87723 12.336 8.66352 13.045 8.04498ZM15.25 3.98999H16.75C17.407 4.00227 17.4071 4.98093 16.75 4.98999H15.25C14.5937 4.98102 14.5922 4.00237 15.25 3.98999Z" fill="#475569"/>
<path id="Vector_2" d="M13.125 15.8149C14.8295 16.8883 17.1705 16.8884 18.875 15.8149C20.45 14.8449 21.5 13.1049 21.5 11.1249V9.92489C20.354 9.87824 19.2049 9.5787 18.32 8.81987C16.975 7.70489 15.025 7.70489 13.68 8.81991C12.955 9.41488 12.08 9.7799 11.145 9.8649L10.5 9.9249V11.1249C10.5 13.1049 11.55 14.8449 13.125 15.8149Z" fill="#475569"/>
<path id="Vector_3" d="M9.59 19.9449C7.44501 20.6599 6 22.6599 6 24.9249V29.4999C6 29.7749 6.22501 29.9999 6.5 29.9999H15.5V22.7599L10.91 19.5049L9.59 19.9449Z" fill="#475569"/>
<path id="Vector_4" d="M18.8755 17.4151V16.9551C17.3203 17.7311 15.4138 17.8434 13.7805 17.2351C13.5655 17.1551 13.3455 17.0651 13.1255 16.9551V17.4151C13.1255 18.1401 12.7055 18.7951 12.0605 19.1001L16.0005 21.8851L19.9405 19.1001C19.2956 18.7951 18.8755 18.1401 18.8755 17.4151Z" fill="#475569"/>
<path id="Vector_5" d="M22.41 19.9449L21.09 19.5049L16.5 22.7599V29.9999H25.5C25.775 29.9999 26 29.7749 26 29.4999V24.9249C26 22.6599 24.555 20.6599 22.41 19.9449ZM22 26.9999H19.5C18.8439 26.9875 18.8426 26.0125 19.5 25.9999C19.5 25.9999 22 25.9999 22 25.9999C22.6561 26.0122 22.6574 26.9873 22 26.9999Z" fill="#475569"/>
</g>
</svg>
