<svg width="32" height="32" viewBox="0 0 32 32" fill="none" xmlns="http://www.w3.org/2000/svg">
<g id="fi_10994678">
<path id="Vector" d="M20.4571 13.3077C15.7459 13.3077 11.9143 17.2769 11.9143 22.1538C11.9143 27.0308 15.7459 31 20.4571 31C25.1683 31 29 27.0308 29 22.1538C29 17.2769 25.1683 13.3077 20.4571 13.3077ZM23.3617 23.3077H20.4571C19.8421 23.3077 19.3429 22.7908 19.3429 22.1538V19.0231C19.3429 18.3862 19.8421 17.8692 20.4571 17.8692C21.0722 17.8692 21.5714 18.3862 21.5714 19.0231V21H23.3617C23.9768 21 24.476 21.5169 24.476 22.1538C24.476 22.7908 23.9768 23.3077 23.3617 23.3077ZM21.9429 1H7.08571C4.82743 1 3 2.89231 3 5.23077V25.2308C3 27.5692 4.82743 29.4615 7.08571 29.4615H12.3451C10.6811 27.5077 9.68571 24.9538 9.68571 22.1538C9.68571 16 14.5143 11 20.4571 11C22.5074 11 24.4091 11.5846 26.0286 12.6308V5.23077C26.0286 2.89231 24.2011 1 21.9429 1ZM10.0571 17.1538H8.57143C7.96229 17.1538 7.45714 16.6308 7.45714 16C7.45714 15.3692 7.96229 14.8462 8.57143 14.8462H10.0571C10.6663 14.8462 11.1714 15.3692 11.1714 16C11.1714 16.6308 10.6663 17.1538 10.0571 17.1538ZM14.5143 12.5385H8.57143C7.96229 12.5385 7.45714 12.0154 7.45714 11.3846C7.45714 10.7538 7.96229 10.2308 8.57143 10.2308H14.5143C15.1234 10.2308 15.6286 10.7538 15.6286 11.3846C15.6286 12.0154 15.1234 12.5385 14.5143 12.5385ZM20.4571 7.92308H8.57143C7.96229 7.92308 7.45714 7.4 7.45714 6.76923C7.45714 6.13846 7.96229 5.61538 8.57143 5.61538H20.4571C21.0663 5.61538 21.5714 6.13846 21.5714 6.76923C21.5714 7.4 21.0663 7.92308 20.4571 7.92308Z" fill="#475569"/>
</g>
</svg>
