<svg width="20" height="20" viewBox="0 0 20 20" fill="none" xmlns="http://www.w3.org/2000/svg">
<g id="fi_8721150" clip-path="url(#clip0_161_1817)">
<g id="Group">
<g id="Group_2">
<path id="Vector" d="M0.909099 7.27272C0.363647 7.27272 0 6.90907 0 6.36362V2.72726C0 1.18181 1.18181 0 2.72726 0H6.36362C6.90907 0 7.27272 0.363647 7.27272 0.909099C7.27272 1.45455 6.90907 1.8182 6.36362 1.8182H2.72726C2.18181 1.8182 1.81816 2.18185 1.81816 2.7273V6.36366C1.8182 6.90907 1.45455 7.27272 0.909099 7.27272Z" fill="#3E4095"/>
</g>
<g id="Group_3">
<path id="Vector_2" d="M19.0902 7.27272C18.5448 7.27272 18.1811 6.90907 18.1811 6.36362V2.72726C18.1811 2.18181 17.8175 1.81816 17.272 1.81816H13.6357C13.0902 1.81816 12.7266 1.45451 12.7266 0.909062C12.7266 0.36361 13.0902 0 13.6357 0H17.272C18.8175 0 19.9993 1.18181 19.9993 2.72726V6.36362C19.9993 6.90907 19.6357 7.27272 19.0902 7.27272Z" fill="#3E4095"/>
</g>
<g id="Group_4">
<path id="Vector_3" d="M6.36362 20H2.72726C1.18181 20 0 18.8182 0 17.2728V13.6364C0 13.0909 0.363647 12.7273 0.909099 12.7273C1.45455 12.7273 1.8182 13.0909 1.8182 13.6364V17.2728C1.8182 17.8182 2.18185 18.1819 2.7273 18.1819H6.36366C6.90911 18.1819 7.27276 18.5455 7.27276 19.091C7.27272 19.6364 6.90907 20 6.36362 20Z" fill="#3E4095"/>
</g>
<g id="Group_5">
<path id="Vector_4" d="M17.272 20.0001H13.6357C13.0902 20.0001 12.7266 19.6364 12.7266 19.091C12.7266 18.5455 13.0902 18.1819 13.6357 18.1819H17.272C17.8175 18.1819 18.1811 17.8182 18.1811 17.2728V13.6364C18.1811 13.0909 18.5448 12.7273 19.0902 12.7273C19.6357 12.7273 19.9993 13.0909 19.9993 13.6364V17.2728C19.9993 18.8182 18.8175 20.0001 17.272 20.0001Z" fill="#3E4095"/>
</g>
<g id="Group_6">
<path id="Vector_5" d="M8.18218 9.09103H4.54582C4.00037 9.09103 3.63672 8.72739 3.63672 8.18193V4.54557C3.63672 4.00012 4.00037 3.63647 4.54582 3.63647H8.18218C8.72763 3.63647 9.09128 4.00012 9.09128 4.54557V8.18193C9.09128 8.72739 8.72763 9.09103 8.18218 9.09103ZM5.45492 7.27284H7.27312V5.45464H5.45492V7.27284Z" fill="#3E4095"/>
</g>
<g id="Group_7">
<path id="Vector_6" d="M8.18218 16.3637H4.54582C4.00037 16.3637 3.63672 16.0001 3.63672 15.4546V11.8183C3.63672 11.2728 4.00037 10.9092 4.54582 10.9092H8.18218C8.72763 10.9092 9.09128 11.2728 9.09128 11.8183V15.4546C9.09128 16.0001 8.72763 16.3637 8.18218 16.3637ZM5.45492 14.5455H7.27312V12.7273H5.45492V14.5455Z" fill="#3E4095"/>
</g>
<g id="Group_8">
<path id="Vector_7" d="M15.4537 9.09103H11.8173C11.2719 9.09103 10.9082 8.72739 10.9082 8.18193V4.54557C10.9082 4.00012 11.2719 3.63647 11.8173 3.63647H15.4537C15.9991 3.63647 16.3628 4.00012 16.3628 4.54557V8.18193C16.3628 8.72739 15.9991 9.09103 15.4537 9.09103ZM12.7264 7.27284H14.5446V5.45464H12.7264V7.27284Z" fill="#3E4095"/>
</g>
<g id="Group_9">
<path id="Vector_8" d="M11.8173 13.6362C11.2719 13.6362 10.9082 13.2726 10.9082 12.7271V11.818C10.9082 11.2726 11.2719 10.9089 11.8173 10.9089C12.3628 10.9089 12.7264 11.2726 12.7264 11.818V12.7271C12.7264 13.2726 12.3628 13.6362 11.8173 13.6362Z" fill="#3E4095"/>
</g>
<g id="Group_10">
<path id="Vector_9" d="M15.4549 12.7274H14.5458C14.0004 12.7274 13.6367 12.3637 13.6367 11.8183C13.6367 11.2728 14.0004 10.9092 14.5458 10.9092H15.4549C16.0004 10.9092 16.364 11.2728 16.364 11.8183C16.364 12.3637 16.0004 12.7274 15.4549 12.7274Z" fill="#3E4095"/>
</g>
<g id="Group_11">
<path id="Vector_10" d="M15.4547 16.3636H12.7275C12.182 16.3636 11.8184 16 11.8184 15.4545C11.8184 14.9091 12.182 14.5454 12.7275 14.5454H15.4547C16.0002 14.5454 16.3638 14.9091 16.3638 15.4545C16.3638 16 16.0002 16.3636 15.4547 16.3636Z" fill="#3E4095"/>
</g>
</g>
</g>
<defs>
<clipPath id="clip0_161_1817">
<rect width="20" height="20" fill="white"/>
</clipPath>
</defs>
</svg>
