<svg width="40" height="40" viewBox="0 0 40 40" fill="none" xmlns="http://www.w3.org/2000/svg">
<path d="M24.9999 37.9167H14.9999C5.94992 37.9167 2.08325 34.05 2.08325 25V15C2.08325 5.95004 5.94992 2.08337 14.9999 2.08337H24.9999C34.0499 2.08337 37.9166 5.95004 37.9166 15V25C37.9166 34.05 34.0499 37.9167 24.9999 37.9167ZM14.9999 4.58337C7.31659 4.58337 4.58325 7.31671 4.58325 15V25C4.58325 32.6834 7.31659 35.4167 14.9999 35.4167H24.9999C32.6833 35.4167 35.4166 32.6834 35.4166 25V15C35.4166 7.31671 32.6833 4.58337 24.9999 4.58337H14.9999Z" fill="#3730A3"/>
<path d="M23.3334 29.5833H16.6667C13.2167 29.5833 10.4167 26.7833 10.4167 23.3333V16.6666C10.4167 13.2166 13.2167 10.4166 16.6667 10.4166H23.3334C26.7834 10.4166 29.5834 13.2166 29.5834 16.6666V23.3333C29.5834 26.7833 26.7834 29.5833 23.3334 29.5833ZM16.6667 12.9166C14.6001 12.9166 12.9167 14.6 12.9167 16.6666V23.3333C12.9167 25.4 14.6001 27.0833 16.6667 27.0833H23.3334C25.4001 27.0833 27.0834 25.4 27.0834 23.3333V16.6666C27.0834 14.6 25.4001 12.9166 23.3334 12.9166H16.6667Z" fill="#3730A3"/>
<path d="M20 29.5833C19.3167 29.5833 18.75 29.0166 18.75 28.3333V11.6666C18.75 10.9833 19.3167 10.4166 20 10.4166C20.6833 10.4166 21.25 10.9833 21.25 11.6666V28.3333C21.25 29.0166 20.6833 29.5833 20 29.5833Z" fill="#3730A3"/>
<path d="M28.3334 21.25H11.6667C10.9834 21.25 10.4167 20.6833 10.4167 20C10.4167 19.3167 10.9834 18.75 11.6667 18.75H28.3334C29.0167 18.75 29.5834 19.3167 29.5834 20C29.5834 20.6833 29.0167 21.25 28.3334 21.25Z" fill="#3730A3"/>
</svg>
