<svg width="39" height="35" viewBox="0 0 39 35" fill="none" xmlns="http://www.w3.org/2000/svg">
<path d="M33.9214 19.2979V30.9898C33.9214 32.4544 32.7341 33.6416 31.2696 33.6416H25.4706C24.006 33.6416 22.8188 32.4543 22.8188 30.9898V4.22791C22.8188 2.44516 21.3735 1 19.5909 1H13.7919C12.0091 1 10.564 2.44523 10.564 4.22791V14.1515M31.421 4.76413H36.4365V8.90474H31.421V4.76413Z" stroke="#3730A3" stroke-width="2" stroke-miterlimit="10" stroke-linecap="round" stroke-linejoin="round"/>
<path d="M13.5109 30.9134C16.7794 29.6746 19.1032 26.5151 19.1032 22.8125C19.1032 18.0292 15.2255 14.1515 10.4422 14.1515C5.65892 14.1515 1.78125 18.0292 1.78125 22.8125C1.78125 26.4878 4.07066 29.6281 7.30111 30.8858M37.0322 14.7942L36.4365 16.3213H31.421L30.8254 14.7942C30.6213 14.271 30.5166 13.7144 30.5166 13.1528V8.90479H37.341V13.1528C37.341 13.7144 37.2363 14.271 37.0322 14.7942ZM32.1916 16.3213H35.6659V19.298H32.1916V16.3213Z" stroke="#3730A3" stroke-width="2" stroke-miterlimit="10" stroke-linecap="round" stroke-linejoin="round"/>
<path d="M8.74971 17.583L7.02499 23.0122C6.87466 23.4853 7.18472 23.927 7.66738 23.927H9.82352L8.42035 27.6283C8.22933 28.1323 8.55175 28.6248 9.07264 28.6248C9.33565 28.6248 9.59686 28.4948 9.77054 28.2775L13.8885 23.123C14.0483 22.9229 14.149 22.6865 14.1774 22.4444C14.2555 21.7789 13.7794 21.2394 13.1139 21.2394H11.0803L12.4935 17.5831L8.74971 17.583Z" stroke="#3730A3" stroke-width="2" stroke-miterlimit="10" stroke-linecap="round" stroke-linejoin="round"/>
</svg>
