<svg width="40" height="40" viewBox="0 0 40 40" fill="none" xmlns="http://www.w3.org/2000/svg">
<path d="M23.3333 37.9167H16.6667C7.61667 37.9167 3.75 34.05 3.75 25V15C3.75 5.95004 7.61667 2.08337 16.6667 2.08337H23.3333C32.3833 2.08337 36.25 5.95004 36.25 15V25C36.25 34.05 32.3833 37.9167 23.3333 37.9167ZM16.6667 4.58337C8.98333 4.58337 6.25 7.31671 6.25 15V25C6.25 32.6834 8.98333 35.4167 16.6667 35.4167H23.3333C31.0167 35.4167 33.75 32.6834 33.75 25V15C33.75 7.31671 31.0167 4.58337 23.3333 4.58337H16.6667Z" fill="#3730A3"/>
<path d="M25.1167 20.9C24.8167 20.9 24.5167 20.7833 24.2834 20.5833C21.85 18.4166 18.15 18.4166 15.7167 20.5833C15.45 20.8333 15.0834 20.9333 14.7 20.8833C14.3334 20.8333 14.0167 20.6166 13.8167 20.3L10.1834 14.4666C9.86669 13.95 9.96669 13.2833 10.4167 12.8666C15.8834 8.01663 24.1167 8.01663 29.5834 12.8666C30.0334 13.2666 30.1334 13.95 29.8167 14.4666L26.1834 20.3C25.9834 20.6166 25.6667 20.8166 25.3 20.8833C25.2334 20.8833 25.1667 20.9 25.1167 20.9ZM20 16.45C21.6667 16.45 23.3167 16.9166 24.7667 17.8333L27.1 14.0833C22.8834 10.95 17.1 10.95 12.8834 14.0833L15.2167 17.8333C16.6834 16.9 18.3334 16.45 20 16.45Z" fill="#3730A3"/>
</svg>
