<svg width="28" height="28" viewBox="0 0 28 28" fill="none" xmlns="http://www.w3.org/2000/svg">
<g id="fi_3416100">
<g id="Layer 2">
<path id="Vector" d="M20.6711 3.55729C19.4608 2.56628 18.0456 1.85623 16.5276 1.47835C15.0097 1.10047 13.4268 1.06419 11.8931 1.37212C9.92112 1.77642 8.10692 2.73905 6.6666 4.14534C5.22628 5.55164 4.22056 7.34232 3.76925 9.30407C3.31794 11.2658 3.44005 13.316 4.12104 15.2103C4.80204 17.1046 6.01321 18.7632 7.61028 19.9886C9.4337 21.3232 10.9862 22.9929 12.1848 24.9085L13.0014 26.2665C13.1052 26.4389 13.2517 26.5817 13.4269 26.6808C13.6021 26.7798 13.8 26.8319 14.0013 26.8319C14.2026 26.8319 14.4004 26.7798 14.5756 26.6808C14.7508 26.5817 14.8974 26.4389 15.0011 26.2665L15.7839 24.9621C16.8277 23.1274 18.2508 21.5364 19.9583 20.2955C21.2971 19.3743 22.4036 18.1546 23.1904 16.7326C23.9773 15.3106 24.4229 13.7252 24.4921 12.1016C24.5613 10.4779 24.2523 8.86033 23.5894 7.37652C22.9265 5.89272 21.9279 4.58325 20.6723 3.55145L20.6711 3.55729ZM14.0001 16.3335C13.0771 16.3335 12.1749 16.0598 11.4074 15.547C10.64 15.0342 10.0419 14.3054 9.68867 13.4526C9.33546 12.5999 9.24305 11.6616 9.42311 10.7564C9.60318 9.85112 10.0476 9.0196 10.7003 8.36695C11.3529 7.71431 12.1844 7.26985 13.0897 7.08979C13.9949 6.90972 14.9332 7.00214 15.786 7.35535C16.6387 7.70856 17.3675 8.3067 17.8803 9.07413C18.3931 9.84155 18.6668 10.7438 18.6668 11.6668C18.6668 12.9045 18.1751 14.0914 17.2999 14.9666C16.4248 15.8418 15.2378 16.3335 14.0001 16.3335Z" fill="#3E4095"/>
</g>
</g>
</svg>
