<svg width="28" height="28" viewBox="0 0 28 28" fill="none" xmlns="http://www.w3.org/2000/svg">
<g id="fi_3416100">
<g id="Layer 2">
<path id="Vector" d="M20.6711 3.55716C19.4608 2.56615 18.0456 1.8561 16.5276 1.47823C15.0097 1.10035 13.4268 1.06407 11.8931 1.372C9.92112 1.77629 8.10692 2.73892 6.6666 4.14522C5.22628 5.55151 4.22056 7.34219 3.76925 9.30395C3.31794 11.2657 3.44005 13.3159 4.12104 15.2102C4.80204 17.1045 6.01321 18.7631 7.61028 19.9885C9.4337 21.3231 10.9862 22.9928 12.1848 24.9083L13.0014 26.2663C13.1052 26.4388 13.2517 26.5816 13.4269 26.6806C13.6021 26.7797 13.8 26.8318 14.0013 26.8318C14.2026 26.8318 14.4004 26.7797 14.5756 26.6806C14.7508 26.5816 14.8974 26.4388 15.0011 26.2663L15.7839 24.962C16.8277 23.1273 18.2508 21.5363 19.9583 20.2953C21.2971 19.3742 22.4036 18.1545 23.1904 16.7325C23.9773 15.3105 24.4229 13.7251 24.4921 12.1014C24.5613 10.4778 24.2523 8.86021 23.5894 7.3764C22.9265 5.89259 21.9279 4.58313 20.6723 3.55133L20.6711 3.55716ZM14.0001 16.3333C13.0771 16.3333 12.1749 16.0596 11.4074 15.5469C10.64 15.0341 10.0419 14.3052 9.68867 13.4525C9.33546 12.5998 9.24305 11.6615 9.42311 10.7562C9.60318 9.851 10.0476 9.01948 10.7003 8.36683C11.3529 7.71419 12.1844 7.26973 13.0897 7.08967C13.9949 6.9096 14.9332 7.00202 15.786 7.35523C16.6387 7.70844 17.3675 8.30657 17.8803 9.074C18.3931 9.84143 18.6668 10.7437 18.6668 11.6667C18.6668 12.9043 18.1751 14.0913 17.2999 14.9665C16.4248 15.8417 15.2378 16.3333 14.0001 16.3333Z" fill="#F58634"/>
</g>
</g>
</svg>
