<svg width="20" height="20" viewBox="0 0 20 20" fill="none" xmlns="http://www.w3.org/2000/svg">
<g id="Frame" clip-path="url(#clip0_253_6116)">
<path id="Vector" d="M7.5013 2.5C7.6507 2.49996 7.79737 2.54008 7.92595 2.61617C8.05452 2.69226 8.16027 2.80152 8.23214 2.9325L8.27464 3.02417L9.9413 7.19083C10.0084 7.35847 10.0193 7.54337 9.97225 7.71771C9.92521 7.89204 9.82281 8.04639 9.68047 8.1575L9.59714 8.21417L8.20214 9.05083L8.25464 9.13667C8.9186 10.1908 9.81048 11.0827 10.8646 11.7467L10.9496 11.7983L11.7871 10.405C11.8799 10.2501 12.0206 10.1295 12.1879 10.0614C12.3551 9.99332 12.54 9.98142 12.7146 10.0275L12.8105 10.06L16.9771 11.7267C17.1159 11.782 17.2372 11.8736 17.3284 11.992C17.4196 12.1103 17.4773 12.2509 17.4955 12.3992L17.5013 12.5V15.8333C17.5013 17.2142 16.3821 18.3333 14.9513 18.3317C7.80214 17.8975 2.10297 12.1983 1.66797 5C1.66793 4.36232 1.91157 3.74874 2.34904 3.28478C2.7865 2.82083 3.38472 2.54158 4.0213 2.50417L4.16797 2.5H7.5013Z" fill="#475569"/>
</g>
<defs>
<clipPath id="clip0_253_6116">
<rect width="20" height="20" fill="white"/>
</clipPath>
</defs>
</svg>
