<svg width="20" height="20" viewBox="0 0 20 20" fill="none" xmlns="http://www.w3.org/2000/svg">
<g id="fi_8189068">
<path id="box" d="M8.73333 9.29158C8.94046 9.37827 9.1553 9.44523 9.375 9.49158V17.4249C9.24026 17.3902 9.10911 17.3427 8.98333 17.2832L3.98333 15.0582C3.54186 14.8617 3.1668 14.5415 2.90354 14.1362C2.64029 13.731 2.50012 13.2582 2.5 12.7749V7.22491C2.50066 7.00233 2.5315 6.78087 2.59167 6.56658L8.73333 9.29158ZM12.35 7.43324L5.55833 4.24158L3.98333 4.94158C3.69929 5.06643 3.44185 5.24466 3.225 5.46658L9.23333 8.14158C9.47473 8.24871 9.7359 8.30406 10 8.30406C10.2641 8.30406 10.5253 8.24871 10.7667 8.14158L12.35 7.43324ZM16.775 5.46658C16.5581 5.24466 16.3007 5.06643 16.0167 4.94158L11.0167 2.71658C10.6971 2.57238 10.3506 2.4978 10 2.4978C9.64943 2.4978 9.30287 2.57238 8.98333 2.71658L7.075 3.56658L13.8667 6.75824L16.775 5.46658ZM17.4083 6.56658L14.4833 7.86658V9.90825C14.4833 10.074 14.4175 10.233 14.3003 10.3502C14.1831 10.4674 14.0241 10.5332 13.8583 10.5332C13.6926 10.5332 13.5336 10.4674 13.4164 10.3502C13.2992 10.233 13.2333 10.074 13.2333 9.90825V8.41658L11.2667 9.29158C11.0582 9.37452 10.8437 9.44138 10.625 9.49158V17.4249C10.7597 17.3902 10.8909 17.3427 11.0167 17.2832L16.0167 15.0582C16.4581 14.8617 16.8332 14.5415 17.0965 14.1362C17.3597 13.731 17.4999 13.2582 17.5 12.7749V7.22491C17.4993 7.00233 17.4685 6.78087 17.4083 6.56658Z" fill="#475569"/>
</g>
</svg>
