<svg width="20" height="20" viewBox="0 0 20 20" fill="none" xmlns="http://www.w3.org/2000/svg">
<g id="fi_11817040">
<g id="Layer 2">
<path id="Vector" d="M15.2083 10.2084H13.125V13.125H15.2083V10.2084Z" fill="#475569"/>
<path id="Vector_2" d="M17.5 10.2084H16.4583V13.75C16.4583 13.9158 16.3924 14.0747 16.2752 14.1919C16.158 14.3091 15.9991 14.375 15.8333 14.375H12.5C12.3343 14.375 12.1753 14.3091 12.0581 14.1919C11.9409 14.0747 11.875 13.9158 11.875 13.75V10.2084H10.8333C10.4467 10.2088 10.076 10.3626 9.80265 10.636C9.52927 10.9094 9.37547 11.2801 9.375 11.6667V16.6667C9.37547 17.0533 9.52927 17.424 9.80265 17.6974C10.076 17.9708 10.4467 18.1246 10.8333 18.125H17.5C17.8866 18.1246 18.2573 17.9708 18.5307 17.6974C18.8041 17.424 18.9579 17.0533 18.9583 16.6667V11.6667C18.9579 11.2801 18.8041 10.9094 18.5307 10.636C18.2573 10.3626 17.8866 10.2088 17.5 10.2084Z" fill="#475569"/>
<path id="Vector_3" d="M7.70483 5.625C7.84679 5.6249 7.98455 5.67312 8.09546 5.76172L8.74609 6.28338L9.39877 5.76172C9.50949 5.67322 9.64702 5.62501 9.78877 5.62501C9.93051 5.62501 10.068 5.67322 10.1788 5.76172L10.2077 5.78451V1.875H7.29102V5.78043L7.3138 5.7625C7.4246 5.67333 7.56261 5.62481 7.70483 5.625Z" fill="#475569"/>
<path id="Vector_4" d="M16.4577 3.33333V9.375H10.8327C10.5317 9.37483 10.2336 9.43398 9.95549 9.54909C9.67738 9.6642 9.42468 9.83299 9.21184 10.0458C8.99901 10.2587 8.83021 10.5114 8.71511 10.7895C8.6 11.0676 8.54084 11.3657 8.54101 11.6667V16.6667C8.54159 17.1989 8.72714 17.7145 9.06592 18.125H2.49935C2.11314 18.1231 1.74329 17.9689 1.47019 17.6958C1.1971 17.4227 1.04286 17.0529 1.04102 16.6667V3.33333C1.04286 2.94713 1.19709 2.57726 1.47019 2.30417C1.74328 2.03108 2.11314 1.87684 2.49935 1.875H6.04102V7.08333C6.04212 7.20176 6.07623 7.31754 6.13952 7.41764C6.20281 7.51775 6.29277 7.59822 6.39929 7.65C6.48246 7.68991 6.57378 7.70988 6.66602 7.70833C6.80889 7.70704 6.94704 7.65707 7.05768 7.56667L7.70768 7.05L8.35768 7.575C8.46808 7.66205 8.60457 7.70939 8.74515 7.70939C8.88574 7.70939 9.02223 7.66205 9.13262 7.575L9.79096 7.05L10.441 7.575C10.533 7.64935 10.6444 7.696 10.7619 7.70951C10.8795 7.72302 10.9985 7.70284 11.1051 7.65131C11.2116 7.59978 11.3013 7.51903 11.3638 7.41847C11.4262 7.31791 11.4587 7.20168 11.4576 7.08333V1.875H14.9993C15.3856 1.87684 15.7554 2.03108 16.0285 2.30417C16.3016 2.57726 16.4558 2.94713 16.4577 3.33333Z" fill="#475569"/>
</g>
</g>
</svg>
