<svg width="20" height="20" viewBox="0 0 20 20" fill="none" xmlns="http://www.w3.org/2000/svg">
<g id="fi_65512" clip-path="url(#clip0_252_5415)">
<g id="Group">
<path id="Vector" d="M19.5626 17.6142L17.8167 7.18395C17.6525 6.2005 16.8007 5.48176 15.8039 5.48176H13.1806C13.4882 4.94585 13.6641 4.32502 13.6641 3.66389C13.6641 1.6437 12.0208 0 10.0002 0C7.98001 0 6.33631 1.6437 6.33631 3.66389C6.33631 4.32502 6.5122 4.94585 6.8198 5.48176H4.19655C3.19923 5.48176 2.34792 6.20137 2.18372 7.18482L0.438207 17.6163C0.338996 18.2077 0.505793 18.8164 0.893541 19.2739C1.28172 19.7318 1.851 20 2.45146 20H17.5507C18.1511 20 18.7204 19.7318 19.1086 19.2739C19.4959 18.8155 19.6623 18.206 19.5626 17.6142ZM10.0006 2.13456C10.8437 2.13456 11.53 2.82081 11.53 3.66433C11.53 4.50784 10.8437 5.19366 10.0006 5.19366C9.15712 5.19366 8.47087 4.50741 8.47087 3.66389C8.47087 2.82038 9.15712 2.13456 10.0006 2.13456Z" fill="#475569"/>
</g>
</g>
<defs>
<clipPath id="clip0_252_5415">
<rect width="20" height="20" fill="white"/>
</clipPath>
</defs>
</svg>
