<svg width="40" height="40" viewBox="0 0 40 40" fill="none" xmlns="http://www.w3.org/2000/svg">
<path d="M24.0001 34.5833H16.0001C8.68342 34.5833 5.41675 31.3166 5.41675 24V16C5.41675 8.68329 8.68342 5.41663 16.0001 5.41663H24.0001C31.3167 5.41663 34.5834 8.68329 34.5834 16V24C34.5834 31.3166 31.3167 34.5833 24.0001 34.5833ZM16.0001 7.91663C10.0334 7.91663 7.91675 10.0333 7.91675 16V24C7.91675 29.9666 10.0334 32.0833 16.0001 32.0833H24.0001C29.9667 32.0833 32.0834 29.9666 32.0834 24V16C32.0834 10.0333 29.9667 7.91663 24.0001 7.91663H16.0001Z" fill="#3730A3"/>
<path d="M22.5001 29.5833H17.5001C12.6667 29.5833 10.4167 27.3333 10.4167 22.5V17.5C10.4167 12.6666 12.6667 10.4166 17.5001 10.4166H22.5001C27.3334 10.4166 29.5834 12.6666 29.5834 17.5V22.5C29.5834 27.3333 27.3334 29.5833 22.5001 29.5833ZM17.5001 12.9166C14.0334 12.9166 12.9167 14.0333 12.9167 17.5V22.5C12.9167 25.9666 14.0334 27.0833 17.5001 27.0833H22.5001C25.9667 27.0833 27.0834 25.9666 27.0834 22.5V17.5C27.0834 14.0333 25.9667 12.9166 22.5001 12.9166H17.5001Z" fill="#3730A3"/>
<path d="M13.3501 7.91671C12.6501 7.91671 12.1001 7.35004 12.1001 6.66671V3.33337C12.1001 2.65004 12.6668 2.08337 13.3501 2.08337C14.0334 2.08337 14.6001 2.65004 14.6001 3.33337V6.66671C14.6001 7.35004 14.0334 7.91671 13.3501 7.91671Z" fill="#3730A3"/>
<path d="M20 7.91671C19.3167 7.91671 18.75 7.35004 18.75 6.66671V3.33337C18.75 2.65004 19.3167 2.08337 20 2.08337C20.6833 2.08337 21.25 2.65004 21.25 3.33337V6.66671C21.25 7.35004 20.6833 7.91671 20 7.91671Z" fill="#3730A3"/>
<path d="M26.6667 7.91671C25.9834 7.91671 25.4167 7.35004 25.4167 6.66671V3.33337C25.4167 2.65004 25.9834 2.08337 26.6667 2.08337C27.3501 2.08337 27.9167 2.65004 27.9167 3.33337V6.66671C27.9167 7.35004 27.3501 7.91671 26.6667 7.91671Z" fill="#3730A3"/>
<path d="M36.6666 14.5834H33.3333C32.6499 14.5834 32.0833 14.0167 32.0833 13.3334C32.0833 12.65 32.6499 12.0834 33.3333 12.0834H36.6666C37.3499 12.0834 37.9166 12.65 37.9166 13.3334C37.9166 14.0167 37.3666 14.5834 36.6666 14.5834Z" fill="#3730A3"/>
<path d="M36.6666 21.25H33.3333C32.6499 21.25 32.0833 20.6833 32.0833 20C32.0833 19.3167 32.6499 18.75 33.3333 18.75H36.6666C37.3499 18.75 37.9166 19.3167 37.9166 20C37.9166 20.6833 37.3666 21.25 36.6666 21.25Z" fill="#3730A3"/>
<path d="M36.6666 27.9166H33.3333C32.6499 27.9166 32.0833 27.35 32.0833 26.6666C32.0833 25.9833 32.6499 25.4166 33.3333 25.4166H36.6666C37.3499 25.4166 37.9166 25.9833 37.9166 26.6666C37.9166 27.35 37.3666 27.9166 36.6666 27.9166Z" fill="#3730A3"/>
<path d="M26.6667 37.9167C25.9834 37.9167 25.4167 37.35 25.4167 36.6667V33.3334C25.4167 32.65 25.9834 32.0834 26.6667 32.0834C27.3501 32.0834 27.9167 32.65 27.9167 33.3334V36.6667C27.9167 37.35 27.3501 37.9167 26.6667 37.9167Z" fill="#3730A3"/>
<path d="M20.0166 37.9167C19.3333 37.9167 18.7666 37.35 18.7666 36.6667V33.3334C18.7666 32.65 19.3333 32.0834 20.0166 32.0834C20.6999 32.0834 21.2666 32.65 21.2666 33.3334V36.6667C21.2666 37.35 20.6999 37.9167 20.0166 37.9167Z" fill="#3730A3"/>
<path d="M13.3501 37.9167C12.6668 37.9167 12.1001 37.35 12.1001 36.6667V33.3334C12.1001 32.65 12.6668 32.0834 13.3501 32.0834C14.0334 32.0834 14.6001 32.65 14.6001 33.3334V36.6667C14.6001 37.35 14.0334 37.9167 13.3501 37.9167Z" fill="#3730A3"/>
<path d="M6.66659 14.5834H3.33325C2.64992 14.5834 2.08325 14.0334 2.08325 13.3334C2.08325 12.6334 2.64992 12.0834 3.33325 12.0834H6.66659C7.34992 12.0834 7.91659 12.65 7.91659 13.3334C7.91659 14.0167 7.36659 14.5834 6.66659 14.5834Z" fill="#3730A3"/>
<path d="M6.66659 21.25H3.33325C2.64992 21.25 2.08325 20.6833 2.08325 20C2.08325 19.3167 2.64992 18.75 3.33325 18.75H6.66659C7.34992 18.75 7.91659 19.3167 7.91659 20C7.91659 20.6833 7.36659 21.25 6.66659 21.25Z" fill="#3730A3"/>
<path d="M6.66659 27.9166H3.33325C2.64992 27.9166 2.08325 27.35 2.08325 26.6666C2.08325 25.9833 2.64992 25.4166 3.33325 25.4166H6.66659C7.34992 25.4166 7.91659 25.9833 7.91659 26.6666C7.91659 27.35 7.36659 27.9166 6.66659 27.9166Z" fill="#3730A3"/>
<path d="M20 25.0834C19.7833 25.0834 19.5666 25.0334 19.3833 24.9167C18.7833 24.5667 18.5833 23.8 18.9166 23.2167L20.05 21.25H19.0666C18.2666 21.25 17.6166 20.9 17.2666 20.3C16.9166 19.7 16.95 18.95 17.3333 18.2667L18.9 15.5334C19.25 14.9334 20.0166 14.7334 20.6 15.0667C21.2 15.4167 21.4 16.1834 21.0666 16.7667L19.9333 18.7334H20.9166C21.7166 18.7334 22.3666 19.0834 22.7166 19.6834C23.0666 20.2834 23.0333 21.0334 22.65 21.7167L21.0833 24.45C20.85 24.8667 20.4333 25.0834 20 25.0834Z" fill="#3730A3"/>
</svg>
