<svg width="40" height="40" viewBox="0 0 40 40" fill="none" xmlns="http://www.w3.org/2000/svg">
<path d="M22.4999 27.9167H17.4999C12.9166 27.9167 9.58325 24.5834 9.58325 20V11.5334C9.58325 9.08337 11.5833 7.08337 14.0333 7.08337H25.9832C28.4332 7.08337 30.4333 9.08337 30.4333 11.5334V20C30.4166 24.5834 27.0833 27.9167 22.4999 27.9167ZM14.0333 9.58337C12.9666 9.58337 12.0833 10.45 12.0833 11.5334V20C12.0833 22.7 13.7499 25.4167 17.4999 25.4167H22.4999C26.2499 25.4167 27.9166 22.7 27.9166 20V11.5334C27.9166 10.4667 27.0499 9.58337 25.9666 9.58337H14.0333Z" fill="#3730A3"/>
<path d="M15.8333 9.58337C15.1499 9.58337 14.5833 9.01671 14.5833 8.33337V3.33337C14.5833 2.65004 15.1499 2.08337 15.8333 2.08337C16.5166 2.08337 17.0833 2.65004 17.0833 3.33337V8.33337C17.0833 9.01671 16.5166 9.58337 15.8333 9.58337Z" fill="#3730A3"/>
<path d="M24.1667 9.58337C23.4834 9.58337 22.9167 9.01671 22.9167 8.33337V3.33337C22.9167 2.65004 23.4834 2.08337 24.1667 2.08337C24.8501 2.08337 25.4167 2.65004 25.4167 3.33337V8.33337C25.4167 9.01671 24.8501 9.58337 24.1667 9.58337Z" fill="#3730A3"/>
<path d="M20 37.9166C19.3167 37.9166 18.75 37.35 18.75 36.6666V26.6666C18.75 25.9833 19.3167 25.4166 20 25.4166C20.6833 25.4166 21.25 25.9833 21.25 26.6666V36.6666C21.25 37.35 20.6833 37.9166 20 37.9166Z" fill="#3730A3"/>
</svg>
