<svg width="40" height="40" viewBox="0 0 40 40" fill="none" xmlns="http://www.w3.org/2000/svg">
<path d="M34.1667 25.4167C33.4834 25.4167 32.9167 24.85 32.9167 24.1667C32.9167 23.4834 33.4834 22.9167 34.1667 22.9167C35.1501 22.9167 35.3667 22.7667 35.3834 22.7667C35.4167 22.6667 35.4167 22.0834 35.4167 21.6667V18.3334C35.4167 17.9167 35.4167 17.35 35.3501 17.2C35.3334 17.2167 35.0834 17.0834 34.1667 17.0834C33.4834 17.0834 32.9167 16.5167 32.9167 15.8334C32.9167 15.15 33.4834 14.5834 34.1667 14.5834C37.6334 14.5834 37.9167 16.2834 37.9167 18.3334V21.6667C37.9167 23.7167 37.6334 25.4167 34.1667 25.4167Z" fill="#3730A3"/>
<path d="M16.6666 27.9167C16.3833 27.9167 16.0833 27.8167 15.8499 27.6167C15.3333 27.1667 15.2666 26.3833 15.7166 25.85L19.1833 21.8C19.2333 21.65 19.1833 21.5167 19.1499 21.45C19.0999 21.3667 18.9999 21.25 18.7833 21.25H14.9499C13.8999 21.25 12.9499 20.7 12.4166 19.8C11.8833 18.9 11.8833 17.8 12.4166 16.8833L15.6666 12.5833C16.0833 12.0333 16.8666 11.9167 17.4166 12.3333C17.9666 12.75 18.0833 13.5333 17.6666 14.0833L14.5166 18.25C14.4999 18.3 14.5666 18.45 14.5999 18.5333C14.6499 18.6167 14.7499 18.7333 14.9666 18.7333H18.7999C19.8499 18.7333 20.7999 19.2833 21.3333 20.1833C21.8666 21.0833 21.8666 22.1833 21.3333 23.1C21.2999 23.1667 21.2499 23.2333 21.1999 23.2833L17.6333 27.45C17.3666 27.7667 17.0166 27.9167 16.6666 27.9167Z" fill="#3730A3"/>
<path d="M11.6666 32.9167C4.31659 32.9167 2.08325 30.6834 2.08325 23.3334V16.6667C2.08325 9.31671 4.31659 7.08337 11.6666 7.08337C12.3499 7.08337 12.9166 7.65004 12.9166 8.33337C12.9166 9.01671 12.3499 9.58337 11.6666 9.58337C5.71659 9.58337 4.58325 10.7167 4.58325 16.6667V23.3334C4.58325 29.2834 5.71659 30.4167 11.6666 30.4167C12.3499 30.4167 12.9166 30.9834 12.9166 31.6667C12.9166 32.35 12.3499 32.9167 11.6666 32.9167Z" fill="#3730A3"/>
<path d="M21.6667 32.9167C20.9834 32.9167 20.4167 32.35 20.4167 31.6667C20.4167 30.9834 20.9834 30.4167 21.6667 30.4167C27.6167 30.4167 28.7501 29.2834 28.7501 23.3334V16.6667C28.7501 10.7167 27.6167 9.58337 21.6667 9.58337C20.9834 9.58337 20.4167 9.01671 20.4167 8.33337C20.4167 7.65004 20.9834 7.08337 21.6667 7.08337C29.0167 7.08337 31.2501 9.31671 31.2501 16.6667V23.3334C31.2501 30.6834 29.0167 32.9167 21.6667 32.9167Z" fill="#3730A3"/>
</svg>
