<svg width="40" height="40" viewBox="0 0 40 40" fill="none" xmlns="http://www.w3.org/2000/svg">
<path d="M19.9998 22.1666C19.7832 22.1666 19.5665 22.1167 19.3665 22L4.64983 13.4834C4.04983 13.1334 3.8498 12.3667 4.1998 11.7667C4.5498 11.1667 5.2998 10.9666 5.91647 11.3166L19.9998 19.4666L33.9998 11.3667C34.5998 11.0167 35.3665 11.2334 35.7165 11.8167C36.0665 12.4167 35.8498 13.1833 35.2665 13.5333L20.6498 22C20.4332 22.1 20.2165 22.1666 19.9998 22.1666Z" fill="#3730A3"/>
<path d="M20 37.2667C19.3167 37.2667 18.75 36.7 18.75 36.0167V20.9C18.75 20.2167 19.3167 19.65 20 19.65C20.6833 19.65 21.25 20.2167 21.25 20.9V36.0167C21.25 36.7 20.6833 37.2667 20 37.2667Z" fill="#3730A3"/>
<path d="M20.0003 37.9167C18.5336 37.9167 17.0836 37.6 15.9336 36.9667L7.03362 32.0167C4.61695 30.6834 2.73364 27.4667 2.73364 24.7V15.2833C2.73364 12.5167 4.61695 9.31674 7.03362 7.96674L15.9336 3.03337C18.2169 1.76671 21.7836 1.76671 24.067 3.03337L32.9669 7.98333C35.3836 9.31666 37.2669 12.5333 37.2669 15.3V24.7167C37.2669 27.4834 35.3836 30.6833 32.9669 32.0333L24.067 36.9667C22.917 37.6 21.467 37.9167 20.0003 37.9167ZM20.0003 4.58336C18.9503 4.58336 17.917 4.80004 17.1503 5.2167L8.25031 10.1667C6.65031 11.0667 5.23364 13.45 5.23364 15.3V24.7167C5.23364 26.5501 6.65031 28.95 8.25031 29.85L17.1503 34.8C18.667 35.65 21.3336 35.65 22.8503 34.8L31.7503 29.85C33.3503 28.95 34.7669 26.5667 34.7669 24.7167V15.3C34.7669 13.4667 33.3503 11.0667 31.7503 10.1667L22.8503 5.2167C22.0836 4.80004 21.0503 4.58336 20.0003 4.58336Z" fill="#3730A3"/>
<path d="M28.3337 23.3168C27.6504 23.3168 27.0837 22.7501 27.0837 22.0668V16.7002L11.8837 7.93348C11.2837 7.58348 11.0837 6.81679 11.4337 6.23345C11.7837 5.63345 12.5337 5.43342 13.1337 5.78342L28.9504 14.9168C29.3337 15.1335 29.5837 15.5501 29.5837 16.0001V22.1002C29.5837 22.7502 29.017 23.3168 28.3337 23.3168Z" fill="#3730A3"/>
</svg>
