<svg width="40" height="40" viewBox="0 0 40 40" fill="none" xmlns="http://www.w3.org/2000/svg">
<path d="M22.6165 37.2999C22.2332 37.2999 21.8499 37.2333 21.4832 37.0999C20.2332 36.6333 19.4332 35.4666 19.4332 34.1333V23.3833H15.5332C14.2665 23.3833 13.1665 22.6666 12.6498 21.5166C12.1332 20.3666 12.3332 19.0666 13.1665 18.1166L25.7832 3.78328C26.6665 2.78328 28.0332 2.43328 29.2832 2.91661C30.5332 3.38328 31.3332 4.54994 31.3332 5.88328V16.6333H35.2332C36.4999 16.6333 37.5998 17.3499 38.1165 18.4999C38.6332 19.6499 38.4332 20.9499 37.5998 21.8999L24.9832 36.2333C24.3665 36.9333 23.4999 37.2999 22.6165 37.2999ZM28.1332 5.19994C27.9832 5.19994 27.7998 5.24994 27.6498 5.43328L15.0332 19.7833C14.7665 20.0833 14.8665 20.3833 14.9165 20.4999C14.9665 20.6166 15.1332 20.8999 15.5332 20.8999H20.6832C21.3665 20.8999 21.9332 21.4666 21.9332 22.1499V34.1499C21.9332 34.5666 22.2332 34.7333 22.3665 34.7833C22.4999 34.8333 22.8332 34.9166 23.0998 34.5999L35.7165 20.2499C35.9832 19.9499 35.8832 19.6499 35.8332 19.5333C35.7832 19.4166 35.6165 19.1333 35.2165 19.1333H30.0665C29.3832 19.1333 28.8165 18.5666 28.8165 17.8833V5.88328C28.8165 5.46661 28.5165 5.29994 28.3832 5.24994C28.3332 5.21661 28.2332 5.19994 28.1332 5.19994Z" fill="#3730A3"/>
<path d="M14.1667 7.91663H2.5C1.81667 7.91663 1.25 7.34996 1.25 6.66663C1.25 5.98329 1.81667 5.41663 2.5 5.41663H14.1667C14.85 5.41663 15.4167 5.98329 15.4167 6.66663C15.4167 7.34996 14.85 7.91663 14.1667 7.91663Z" fill="#3730A3"/>
<path d="M12.5 34.5834H2.5C1.81667 34.5834 1.25 34.0167 1.25 33.3334C1.25 32.65 1.81667 32.0834 2.5 32.0834H12.5C13.1833 32.0834 13.75 32.65 13.75 33.3334C13.75 34.0167 13.1833 34.5834 12.5 34.5834Z" fill="#3730A3"/>
<path d="M7.5 21.25H2.5C1.81667 21.25 1.25 20.6833 1.25 20C1.25 19.3167 1.81667 18.75 2.5 18.75H7.5C8.18333 18.75 8.75 19.3167 8.75 20C8.75 20.6833 8.18333 21.25 7.5 21.25Z" fill="#3730A3"/>
</svg>
