<svg width="20" height="21" viewBox="0 0 20 21" fill="none" xmlns="http://www.w3.org/2000/svg">
<g id="Frame" clip-path="url(#clip0_206_3372)">
<path id="Vector" d="M5 2.16663C5.20411 2.16665 5.40111 2.24159 5.55364 2.37722C5.70617 2.51285 5.80362 2.69975 5.8275 2.90246L5.83333 2.99996V3.88996L16.7258 4.66913C16.9399 4.68429 17.1399 4.78148 17.2841 4.94045C17.4284 5.09941 17.5057 5.3079 17.5 5.52246L17.4917 5.61746L16.6583 11.4508C16.6324 11.6335 16.5466 11.8024 16.4143 11.931C16.282 12.0597 16.1108 12.1408 15.9275 12.1616L15.8333 12.1666H5.83333V13.8333H14.1667C14.6549 13.8333 15.1324 13.9763 15.5403 14.2445C15.9482 14.5128 16.2686 14.8946 16.462 15.3429C16.6554 15.7911 16.7133 16.2862 16.6286 16.767C16.5439 17.2478 16.3203 17.6933 15.9854 18.0485C15.6504 18.4037 15.2188 18.653 14.7438 18.7657C14.2688 18.8785 13.7712 18.8496 13.3124 18.6828C12.8535 18.516 12.4536 18.2186 12.1619 17.8271C11.8702 17.4356 11.6995 16.9673 11.6708 16.48L11.6667 16.3333L11.6708 16.1866C11.685 15.9466 11.7325 15.7166 11.8092 15.5H7.3575C7.47644 15.8373 7.52159 16.1963 7.48991 16.5526C7.45823 16.9089 7.35046 17.2543 7.17386 17.5654C6.99727 17.8765 6.75597 18.146 6.46627 18.3559C6.17656 18.5657 5.8452 18.7109 5.49456 18.7817C5.14392 18.8525 4.78216 18.8473 4.43373 18.7663C4.08531 18.6853 3.75831 18.5305 3.47485 18.3123C3.19138 18.0941 2.95803 17.8176 2.79058 17.5015C2.62312 17.1854 2.52545 16.837 2.50417 16.48L2.5 16.3333L2.50417 16.1866C2.533 15.6953 2.70611 15.2234 3.00183 14.83C3.29755 14.4366 3.70273 14.1392 4.16667 13.975V3.83329H3.33333C3.12922 3.83327 2.93222 3.75833 2.77969 3.6227C2.62716 3.48706 2.52971 3.30017 2.50583 3.09746L2.5 2.99996C2.50003 2.79585 2.57496 2.59885 2.7106 2.44632C2.84623 2.29379 3.03312 2.19634 3.23583 2.17246L3.33333 2.16663H5ZM5 15.5C4.77899 15.5 4.56702 15.5878 4.41074 15.744C4.25446 15.9003 4.16667 16.1123 4.16667 16.3333C4.16667 16.5543 4.25446 16.7663 4.41074 16.9225C4.56702 17.0788 4.77899 17.1666 5 17.1666C5.22101 17.1666 5.43298 17.0788 5.58926 16.9225C5.74554 16.7663 5.83333 16.5543 5.83333 16.3333C5.83333 16.1123 5.74554 15.9003 5.58926 15.744C5.43298 15.5878 5.22101 15.5 5 15.5ZM14.1667 15.5C13.9457 15.5 13.7337 15.5878 13.5774 15.744C13.4211 15.9003 13.3333 16.1123 13.3333 16.3333C13.3333 16.5543 13.4211 16.7663 13.5774 16.9225C13.7337 17.0788 13.9457 17.1666 14.1667 17.1666C14.3877 17.1666 14.5996 17.0788 14.7559 16.9225C14.9122 16.7663 15 16.5543 15 16.3333C15 16.1123 14.9122 15.9003 14.7559 15.744C14.5996 15.5878 14.3877 15.5 14.1667 15.5Z" fill="white"/>
</g>
<defs>
<clipPath id="clip0_206_3372">
<rect width="20" height="20" fill="white" transform="translate(0 0.5)"/>
</clipPath>
</defs>
</svg>
