<svg width="20" height="20" viewBox="0 0 20 20" fill="none" xmlns="http://www.w3.org/2000/svg">
<g id="fi_14673907">
<g id="Layer 2">
<path id="Vector" d="M9.99935 9.79167C12.1855 9.79167 13.9577 8.01946 13.9577 5.83333C13.9577 3.64721 12.1855 1.875 9.99935 1.875C7.81322 1.875 6.04102 3.64721 6.04102 5.83333C6.04102 8.01946 7.81322 9.79167 9.99935 9.79167Z" fill="#475569"/>
<path id="Vector_2" d="M17.0579 14.4333L16.9496 14.1667C16.5855 13.252 15.9595 12.4652 15.1501 11.9048C14.3407 11.3444 13.3839 11.0355 12.3996 11.0167H7.6079C6.62362 11.0355 5.66679 11.3444 4.85737 11.9048C4.04796 12.4652 3.42197 13.252 3.0579 14.1667L2.94124 14.425C2.7595 14.8421 2.68344 15.2976 2.71978 15.7511C2.75612 16.2046 2.90374 16.6422 3.14957 17.025C3.34974 17.3519 3.63012 17.6222 3.9641 17.8104C4.29808 17.9985 4.67458 18.0982 5.0579 18.1H14.9329C15.3173 18.098 15.6949 17.9984 16.0302 17.8103C16.3655 17.6223 16.6475 17.352 16.8496 17.025C17.0933 16.6429 17.2397 16.2069 17.276 15.7551C17.3124 15.3033 17.2375 14.8495 17.0579 14.4333Z" fill="#475569"/>
</g>
</g>
</svg>
