<svg width="719" height="406" viewBox="0 0 719 406" fill="none" xmlns="http://www.w3.org/2000/svg">
<mask id="mask0_253_11209" style="mask-type:alpha" maskUnits="userSpaceOnUse" x="0" y="0" width="719" height="406">
<rect width="719" height="406" fill="#3E4095"/>
</mask>
<g mask="url(#mask0_253_11209)">
<g clip-path="url(#clip0_253_11209)">
<path d="M260.583 398.906C308.156 401.556 415.521 506.272 525.631 446.697C584.956 414.587 648.21 437.251 647.742 367.7C646.963 252.198 582.244 211.577 493.77 248.332C447.351 267.629 406.325 180.059 355.198 194.649C304.383 209.145 321.218 276.545 283.621 265.26C215.598 244.841 210.048 396.069 260.583 398.906Z" fill="#F2F5F8"/>
<path d="M262.094 207.896H396.427C404.438 207.896 410.923 215.284 410.923 224.418V417.39C410.923 426.524 404.438 433.913 396.427 433.913H262.094C254.082 433.913 247.598 426.524 247.598 417.39V224.418C247.629 215.284 254.114 207.896 262.094 207.896Z" fill="#3E4095"/>
<path d="M392.654 414.46H267.893L263.778 403.237V235.547H395.242V403.112L392.654 414.46Z" fill="#E5E8F5"/>
<path d="M263.778 224.2H395.242V403.081H263.778V224.2Z" fill="white"/>
<path d="M395.336 296.12H263.747L262.032 291.756V226.694H396.52V291.849L395.336 296.12Z" fill="#D17734"/>
<path d="M262.032 222.205H396.52V291.631H262.032V222.205Z" fill="#F58634"/>
<path d="M296.106 252.787C301.719 252.787 306.269 247.609 306.269 241.221C306.269 234.834 301.719 229.656 296.106 229.656C290.493 229.656 285.943 234.834 285.943 241.221C285.943 247.609 290.493 252.787 296.106 252.787Z" fill="#D17734"/>
<path d="M296.106 215.253C299.411 215.253 302.123 218.308 302.123 222.111V243.185C302.123 246.989 299.442 250.044 296.106 250.044C292.802 250.044 290.089 246.989 290.089 243.185V222.111C290.089 218.339 292.77 215.253 296.106 215.253Z" fill="#334155"/>
<path d="M358.799 252.787C364.412 252.787 368.962 247.609 368.962 241.221C368.962 234.834 364.412 229.656 358.799 229.656C353.186 229.656 348.636 234.834 348.636 241.221C348.636 247.609 353.186 252.787 358.799 252.787Z" fill="#D17734"/>
<path d="M358.798 215.253C362.103 215.253 364.815 218.308 364.815 222.111V243.185C364.815 246.989 362.134 250.044 358.798 250.044C355.494 250.044 352.782 246.989 352.782 243.185V222.111C352.813 218.339 355.494 215.253 358.798 215.253Z" fill="#334155"/>
<path d="M325.8 387.531H278.57V376.838L300.86 349.716C303.915 345.912 306.191 342.577 307.656 339.708C309.121 336.872 309.87 334.159 309.87 331.603C309.87 328.111 309.09 325.368 307.563 323.373C306.004 321.378 303.822 320.38 300.922 320.38C297.836 320.38 295.405 321.596 293.596 324.028C291.819 326.459 290.915 329.639 290.915 333.629H277.198C277.167 329.015 278.196 324.495 280.191 320.505C282.186 316.546 285.148 313.303 288.702 311.184C292.349 308.939 296.496 307.817 301.141 307.817C308.249 307.817 313.766 309.749 317.694 313.646C321.622 317.543 323.587 323.03 323.587 330.107C323.587 334.003 322.714 337.963 320.937 341.984C319.16 346.006 316.136 350.713 311.834 356.075L296.153 374.936H325.769V387.531H325.8Z" fill="#475569"/>
<path d="M380.574 355.015C380.574 365.895 378.61 374.219 374.651 379.986C370.692 385.754 364.924 388.622 357.318 388.622C349.805 388.622 344.068 385.785 340.078 380.142C336.088 374.5 334.061 366.394 333.968 355.826V341.361C333.968 330.387 335.963 322.032 339.953 316.359C343.944 310.654 349.68 307.817 357.193 307.817C364.706 307.817 370.442 310.622 374.433 316.265C378.423 321.908 380.449 329.982 380.543 340.55L380.574 355.015ZM366.888 339.116C366.888 332.601 366.109 327.831 364.55 324.869C362.991 321.908 360.56 320.411 357.224 320.411C354.013 320.411 351.644 321.814 350.085 324.651C348.558 327.488 347.747 331.915 347.654 337.931V357.073C347.654 363.495 348.433 368.265 349.96 371.382C351.488 374.499 353.951 376.058 357.318 376.058C360.653 376.058 363.085 374.562 364.55 371.569C366.047 368.576 366.795 363.994 366.857 357.821V339.116H366.888Z" fill="#475569"/>
<path d="M314.104 261.668H317.721V275.572C317.752 276.757 317.471 277.91 316.972 278.97C316.474 279.936 315.757 280.716 314.884 281.246C313.948 281.776 312.889 282.056 311.829 282.056C309.958 282.056 308.524 281.526 307.495 280.435C306.466 279.344 305.937 277.817 305.937 275.852H309.584C309.584 276.85 309.771 277.567 310.114 278.035C310.488 278.502 311.049 278.752 311.829 278.752C312.452 278.783 313.076 278.471 313.481 277.941C313.886 277.411 314.104 276.632 314.104 275.634V261.668Z" fill="white"/>
<path d="M330.502 277.598H324.143L322.927 281.745H319.061L325.608 261.668H328.975L335.552 281.745H331.687L330.502 277.598ZM325.109 274.231H329.505L327.291 266.718L325.109 274.231Z" fill="white"/>
<path d="M351.514 281.745H347.898L340.821 268.526V281.745H337.205V261.668H340.821L347.898 274.917V261.668H351.514V281.745Z" fill="white"/>
<path d="M641.489 446.965H397.453L369.115 264H613.151L641.489 446.965Z" fill="#E5E8F5"/>
<path d="M340.715 433.841H584.751L613.089 263.564H369.053L340.715 433.841Z" fill="#3E4095"/>
<path d="M641.489 444.222H397.453L369.115 263.564H613.151L641.489 444.222Z" fill="white"/>
<path d="M478.383 425.642L458.462 290.499H455.532L475.452 425.642H478.383Z" fill="#E5E8F5"/>
<path d="M549.368 425.642L529.447 290.499H526.517L546.437 425.642H549.368Z" fill="#E5E8F5"/>
<path d="M615.739 280.118L613.151 263.533H369.115L371.703 280.118H615.739Z" fill="#8F97B9"/>
<path d="M608.787 372.395L608.288 369.184H402.067L402.566 372.395H608.787Z" fill="#E5E8F5"/>
<path d="M497.267 405.458L511.046 404.086L509.145 385.288L494.68 386.192L497.267 405.458Z" fill="#8765DB"/>
<path d="M496.768 388.53L504.78 387.875C505.061 387.844 505.279 388.094 505.31 388.405C505.341 388.717 505.123 388.998 504.843 388.998L496.831 389.652C496.55 389.683 496.332 389.434 496.301 389.122C496.27 388.811 496.488 388.561 496.768 388.53Z" fill="white"/>
<path d="M497.174 391.928L507.96 391.055C508.241 391.024 508.459 391.273 508.49 391.585C508.521 391.897 508.303 392.177 508.023 392.177L497.236 393.05C496.956 393.081 496.737 392.832 496.706 392.52C496.675 392.209 496.893 391.928 497.174 391.928Z" fill="white"/>
<path d="M507.524 414.717L521.303 413.345L519.401 394.547L504.936 395.451L507.524 414.717Z" fill="#8765DB"/>
<path d="M507.835 404.086L515.847 403.432C516.128 403.4 516.346 403.65 516.377 403.962C516.408 404.273 516.19 404.554 515.91 404.554L507.898 405.209C507.617 405.24 507.399 404.99 507.368 404.679C507.337 404.367 507.555 404.117 507.835 404.086Z" fill="white"/>
<path d="M507.43 401.156L518.217 400.283C518.497 400.252 518.715 400.501 518.747 400.813C518.778 401.125 518.559 401.405 518.279 401.405L507.492 402.278C507.212 402.309 506.994 402.06 506.962 401.748C506.931 401.468 507.149 401.187 507.43 401.156Z" fill="white"/>
<path d="M405.803 331.43L422.419 329.747L420.143 307.052L402.686 308.174L405.803 331.43Z" fill="#898BE0"/>
<path d="M428.436 334.828L445.052 333.145L442.776 310.45L425.318 311.572L428.436 334.828Z" fill="#F58634"/>
<path d="M404.712 309.889L414.407 309.109C414.75 309.078 415.031 309.359 415.062 309.733C415.093 310.107 414.844 310.45 414.501 310.45L404.805 311.229C404.462 311.26 404.182 310.98 404.151 310.606C404.119 310.231 404.369 309.889 404.712 309.889Z" fill="white"/>
<path d="M405.211 313.972L418.211 312.913C418.554 312.881 418.834 313.162 418.865 313.536C418.896 313.91 418.647 314.253 418.304 314.253L405.304 315.313C404.961 315.344 404.681 315.064 404.65 314.69C404.618 314.315 404.868 314.004 405.211 313.972Z" fill="white"/>
<path d="M405.678 317.495L418.678 316.435C419.021 316.404 419.302 316.685 419.333 317.059C419.364 317.433 419.115 317.776 418.772 317.776L405.772 318.836C405.429 318.867 405.148 318.586 405.117 318.212C405.117 317.869 405.367 317.526 405.678 317.495Z" fill="white"/>
<path d="M406.177 321.392L419.177 320.332C419.52 320.301 419.8 320.581 419.832 320.956C419.863 321.33 419.613 321.673 419.27 321.673L406.271 322.733C405.928 322.764 405.647 322.483 405.616 322.109C405.585 321.766 405.834 321.423 406.177 321.392Z" fill="white"/>
<path d="M427.844 314.409L437.539 313.63C437.882 313.598 438.162 313.879 438.194 314.253C438.225 314.627 437.975 314.97 437.632 314.97L427.937 315.749C427.594 315.781 427.314 315.5 427.282 315.126C427.251 314.752 427.501 314.44 427.844 314.409Z" fill="white"/>
<path d="M428.311 318.493L441.311 317.433C441.654 317.402 441.934 317.682 441.966 318.056C441.997 318.43 441.747 318.773 441.404 318.773L428.405 319.833C428.062 319.864 427.781 319.584 427.75 319.21C427.719 318.836 427.999 318.524 428.311 318.493Z" fill="white"/>
<path d="M415.997 357.555L432.614 355.871L430.338 333.176L412.88 334.298L415.997 357.555Z" fill="#8765DB"/>
<path d="M415.405 337.135L425.1 336.356C425.443 336.325 425.724 336.605 425.755 336.979C425.786 337.353 425.537 337.696 425.194 337.696L415.499 338.476C415.156 338.507 414.875 338.226 414.844 337.852C414.813 337.478 415.062 337.166 415.405 337.135Z" fill="white"/>
<path d="M415.873 341.219L428.873 340.159C429.215 340.128 429.496 340.409 429.527 340.783C429.558 341.157 429.309 341.5 428.966 341.5L415.966 342.56C415.623 342.591 415.343 342.31 415.312 341.936C415.312 341.562 415.561 341.25 415.873 341.219Z" fill="white"/>
<path d="M416.527 344.929L429.527 343.869C429.87 343.838 430.15 344.118 430.181 344.493C430.213 344.867 429.963 345.21 429.62 345.21L416.62 346.27C416.278 346.301 415.997 346.02 415.966 345.646C415.935 345.272 416.215 344.96 416.527 344.929Z" fill="white"/>
<path d="M417.182 349.605L430.182 348.545C430.525 348.514 430.805 348.795 430.836 349.169C430.867 349.543 430.618 349.886 430.275 349.886L417.275 350.946C416.932 350.977 416.652 350.696 416.621 350.322C416.621 349.948 416.87 349.605 417.182 349.605Z" fill="white"/>
<path d="M417.338 353.128L430.338 352.068C430.681 352.037 430.961 352.317 430.992 352.692C431.024 353.066 430.774 353.409 430.431 353.409L417.431 354.469C417.089 354.5 416.808 354.219 416.777 353.845C416.746 353.471 417.026 353.159 417.338 353.128Z" fill="white"/>
<path d="M600.518 408.952L612.925 407.705L611.211 390.777L598.18 391.587L600.518 408.952Z" fill="#8F97B9"/>
<path d="M599.708 392.866L606.94 392.273C607.189 392.242 607.408 392.46 607.408 392.741C607.439 393.021 607.252 393.271 607.002 393.271L599.77 393.863C599.52 393.894 599.302 393.676 599.302 393.396C599.271 393.115 599.458 392.866 599.708 392.866Z" fill="white"/>
<path d="M600.082 395.921L609.777 395.141C610.026 395.11 610.245 395.328 610.245 395.609C610.276 395.889 610.089 396.139 609.839 396.139L600.144 396.918C599.894 396.949 599.676 396.731 599.676 396.451C599.645 396.17 599.832 395.921 600.082 395.921Z" fill="white"/>
<path d="M600.424 398.539L610.12 397.76C610.369 397.729 610.587 397.947 610.587 398.228C610.618 398.508 610.431 398.758 610.182 398.758L600.487 399.537C600.237 399.568 600.019 399.35 600.019 399.069C599.988 398.82 600.175 398.57 600.424 398.539Z" fill="white"/>
<path d="M600.799 401.47L610.494 400.69C610.744 400.659 610.962 400.877 610.962 401.158C610.993 401.439 610.806 401.688 610.557 401.688L600.861 402.467C600.612 402.499 600.394 402.28 600.394 402C600.362 401.719 600.549 401.501 600.799 401.47Z" fill="white"/>
<path d="M570.247 411.29L582.655 410.043L580.94 393.115L567.909 393.926L570.247 411.29Z" fill="#3E4095"/>
<path d="M572.835 395.796L577.792 395.391C578.041 395.359 578.259 395.578 578.259 395.858C578.291 396.139 578.103 396.388 577.854 396.388L572.897 396.794C572.648 396.825 572.43 396.606 572.43 396.326C572.43 396.045 572.586 395.796 572.835 395.796Z" fill="white"/>
<path d="M573.146 398.851L579.88 398.321C580.13 398.29 580.348 398.508 580.348 398.789C580.379 399.069 580.192 399.319 579.943 399.319L573.209 399.849C572.959 399.88 572.741 399.662 572.741 399.381C572.741 399.1 572.928 398.851 573.146 398.851Z" fill="white"/>
<path d="M569.936 397.448C570.349 397.448 570.684 397.057 570.684 396.575C570.684 396.093 570.349 395.702 569.936 395.702C569.522 395.702 569.188 396.093 569.188 396.575C569.188 397.057 569.522 397.448 569.936 397.448Z" fill="white"/>
<path d="M570.434 400.534C570.847 400.534 571.182 400.144 571.182 399.662C571.182 399.18 570.847 398.789 570.434 398.789C570.021 398.789 569.686 399.18 569.686 399.662C569.686 400.144 570.021 400.534 570.434 400.534Z" fill="white"/>
<path d="M573.864 402.093L578.821 401.688C579.07 401.657 579.288 401.875 579.288 402.156C579.319 402.436 579.132 402.686 578.883 402.686L573.926 403.091C573.677 403.122 573.458 402.904 573.458 402.623C573.427 402.374 573.614 402.124 573.864 402.093Z" fill="white"/>
<path d="M574.175 405.148L580.909 404.618C581.158 404.587 581.377 404.805 581.377 405.086C581.408 405.367 581.221 405.616 580.971 405.616L574.238 406.146C573.988 406.177 573.77 405.959 573.77 405.678C573.739 405.429 573.926 405.18 574.175 405.148Z" fill="white"/>
<path d="M570.933 403.777C571.346 403.777 571.681 403.386 571.681 402.904C571.681 402.422 571.346 402.031 570.933 402.031C570.52 402.031 570.185 402.422 570.185 402.904C570.185 403.386 570.52 403.777 570.933 403.777Z" fill="white"/>
<path d="M571.432 406.832C571.845 406.832 572.18 406.441 572.18 405.959C572.18 405.477 571.845 405.086 571.432 405.086C571.019 405.086 570.684 405.477 570.684 405.959C570.684 406.441 571.019 406.832 571.432 406.832Z" fill="white"/>
<path d="M586.521 404.587L598.928 403.34L597.214 386.412L584.183 387.223L586.521 404.587Z" fill="#8FBA73"/>
<path d="M589.108 389.093L594.065 388.688C594.314 388.657 594.532 388.875 594.532 389.156C594.563 389.436 594.376 389.686 594.127 389.686L589.17 390.091C588.921 390.122 588.703 389.904 588.703 389.623C588.703 389.343 588.859 389.093 589.108 389.093Z" fill="white"/>
<path d="M589.42 392.149L596.154 391.619C596.403 391.587 596.621 391.806 596.621 392.086C596.652 392.367 596.465 392.616 596.216 392.616L589.482 393.146C589.233 393.177 589.015 392.959 589.015 392.679C588.983 392.398 589.171 392.149 589.42 392.149Z" fill="white"/>
<path d="M586.177 390.746C586.591 390.746 586.926 390.355 586.926 389.873C586.926 389.391 586.591 389 586.177 389C585.764 389 585.429 389.391 585.429 389.873C585.429 390.355 585.764 390.746 586.177 390.746Z" fill="white"/>
<path d="M586.708 393.832C587.121 393.832 587.456 393.441 587.456 392.959C587.456 392.477 587.121 392.086 586.708 392.086C586.294 392.086 585.959 392.477 585.959 392.959C585.959 393.441 586.294 393.832 586.708 393.832Z" fill="white"/>
<path d="M590.105 395.391L595.062 394.985C595.312 394.954 595.53 395.172 595.53 395.453C595.561 395.734 595.374 395.983 595.125 395.983L590.168 396.388C589.918 396.419 589.7 396.201 589.7 395.921C589.7 395.671 589.887 395.422 590.105 395.391Z" fill="white"/>
<path d="M590.449 398.446L597.182 397.916C597.432 397.885 597.65 398.103 597.65 398.383C597.681 398.664 597.494 398.913 597.245 398.913L590.511 399.443C590.262 399.475 590.043 399.256 590.043 398.976C590.012 398.726 590.199 398.477 590.449 398.446Z" fill="white"/>
<path d="M587.206 397.074C587.619 397.074 587.954 396.683 587.954 396.201C587.954 395.719 587.619 395.328 587.206 395.328C586.793 395.328 586.458 395.719 586.458 396.201C586.458 396.683 586.793 397.074 587.206 397.074Z" fill="white"/>
<path d="M587.705 400.129C588.118 400.129 588.453 399.738 588.453 399.256C588.453 398.774 588.118 398.383 587.705 398.383C587.292 398.383 586.957 398.774 586.957 399.256C586.957 399.738 587.292 400.129 587.705 400.129Z" fill="white"/>
<path d="M580.317 416.652L592.724 415.405L591.01 398.477L577.979 399.287L580.317 416.652Z" fill="#F58634"/>
<path d="M582.904 401.158L587.861 400.753C588.11 400.722 588.329 400.94 588.329 401.22C588.36 401.501 588.173 401.75 587.923 401.75L582.967 402.156C582.717 402.187 582.499 401.969 582.499 401.688C582.468 401.407 582.655 401.158 582.904 401.158Z" fill="white"/>
<path d="M583.216 404.213L589.95 403.683C590.199 403.652 590.417 403.87 590.417 404.151C590.417 404.431 590.261 404.681 590.012 404.681L583.278 405.211C583.029 405.242 582.811 405.024 582.811 404.743C582.779 404.463 582.966 404.213 583.216 404.213Z" fill="white"/>
<path d="M579.974 402.81C580.387 402.81 580.722 402.419 580.722 401.937C580.722 401.455 580.387 401.064 579.974 401.064C579.561 401.064 579.226 401.455 579.226 401.937C579.226 402.419 579.561 402.81 579.974 402.81Z" fill="white"/>
<path d="M580.504 405.897C580.917 405.897 581.252 405.506 581.252 405.024C581.252 404.542 580.917 404.151 580.504 404.151C580.09 404.151 579.755 404.542 579.755 405.024C579.755 405.506 580.09 405.897 580.504 405.897Z" fill="white"/>
<path d="M415.573 415.19L415.075 414.379L422.401 408.363L430.6 410.015L436.554 404.965L445.938 400.538L446.062 400.569L454.916 402.689L463.053 392.651L463.676 393.305L455.197 403.78L446 401.567L436.959 405.838L430.787 411.075L422.588 409.423L415.573 415.19Z" fill="#A25D91"/>
<path opacity="0.1" d="M416.852 416.718L417.07 414.442L422.557 409.921L430.756 411.574L436.803 406.43L446.031 402.097L455.134 404.279L462.585 395.082L462.429 414.941" fill="#A25D91"/>
<path d="M458.034 393.991L463.645 393.212L463.209 392.713L462.99 398.356C462.959 398.979 463.832 398.979 463.863 398.356L464.082 392.713C464.082 392.432 463.895 392.214 463.645 392.214L458.034 392.994C457.473 393.087 457.473 394.054 458.034 393.991Z" fill="#A25D91"/>
<path d="M500.038 348.105C491.122 350.349 482.3 343.959 480.336 333.764L496.484 329.681L500.038 348.105Z" fill="#6FAFD8"/>
<path d="M502.813 324.163L514.192 310.477C516.561 313.095 518.213 316.431 518.962 320.079L502.813 324.163Z" fill="#F58634"/>
<path d="M501.784 347.762L498.199 329.338L514.348 325.254C516.312 335.417 510.7 345.517 501.784 347.762Z" fill="#898BE0"/>
<path d="M496.111 327.436L479.962 331.52C477.998 321.357 483.609 311.287 492.525 309.012C498.106 307.609 504.091 309.729 507.489 313.75L496.111 327.436Z" fill="#FF6369"/>
<path d="M547.683 338.886L568.258 336.984L565.359 310.049L543.755 311.296L547.683 338.886Z" fill="#F58634"/>
<path d="M569.037 331.684L589.613 329.783L586.714 302.848L565.109 304.095L569.037 331.684Z" fill="#3E4095"/>
<path d="M565.869 327.404C565.682 325.751 562.315 326.749 560.32 325.408C556.08 322.572 551.622 318.145 551.622 318.145H550.812V328.869H553.524V323.507C553.524 323.507 557.764 328.682 559.79 329.243C561.629 329.742 566.087 329.461 565.869 327.404Z" fill="white"/>
<path d="M551.872 313.25H557.732L559.696 323.32C559.696 323.32 561.847 325.627 563.5 325.783C565.339 325.939 566.181 327.31 565.869 327.715C564.903 328.931 561.38 328.869 560.008 328.308C557.109 327.123 552.869 322.01 551.123 319.267C550.126 317.646 551.872 313.25 551.872 313.25Z" fill="white"/>
<path d="M581.57 326.135L573.309 326.166L573.714 314.382L571.064 315.847L568.757 311.296L573.558 306.557H575.304C575.304 306.557 575.491 308.49 577.611 308.428C578.951 308.397 579.762 306.557 579.762 306.557H581.445L586.028 310.236L584.563 314.788L581.445 314.226L581.57 326.135Z" fill="white"/>
<path d="M549.21 331.996L554.167 331.591C554.417 331.56 554.635 331.778 554.635 332.058C554.666 332.339 554.479 332.588 554.23 332.588L549.273 332.994C549.023 333.025 548.805 332.807 548.805 332.526C548.774 332.245 548.961 332.027 549.21 331.996Z" fill="white"/>
<path d="M549.429 334.802L564.455 333.586C564.704 333.555 564.923 333.773 564.923 334.054C564.954 334.334 564.767 334.584 564.517 334.584L549.491 335.799C549.242 335.831 549.023 335.612 549.023 335.332C548.992 335.082 549.179 334.833 549.429 334.802Z" fill="white"/>
<path d="M571.906 328.162L586.932 326.946C587.181 326.915 587.4 327.133 587.4 327.413C587.431 327.694 587.244 327.943 586.994 327.943L571.968 329.159C571.719 329.19 571.5 328.972 571.5 328.691C571.469 328.411 571.656 328.162 571.906 328.162Z" fill="white"/>
<path d="M566.357 357.591L586.932 355.689L584.033 328.754L562.429 330.001L566.357 357.591Z" fill="#FF6369"/>
<path d="M581.726 347.739L580.136 348.113L574.836 336.485L574.587 349.423L572.436 349.922L570.44 333.15L577.829 331.404L581.726 347.739Z" fill="white"/>
<path d="M568.726 352.01L583.845 350.794C584.064 350.763 584.282 350.982 584.282 351.231V351.324C584.313 351.574 584.126 351.823 583.908 351.823L568.788 353.039C568.57 353.07 568.352 352.852 568.352 352.603V352.509C568.32 352.229 568.476 352.01 568.726 352.01Z" fill="white"/>
<path d="M568.944 354.567L584.064 353.351C584.282 353.32 584.5 353.538 584.5 353.787V353.881C584.531 354.13 584.344 354.38 584.126 354.38L569.006 355.595C568.788 355.627 568.57 355.408 568.57 355.159V355.065C568.539 354.816 568.726 354.598 568.944 354.567Z" fill="white"/>
<path d="M312.431 325.542H369.138C374.095 325.542 378.117 330.125 378.117 335.799V434.436C378.117 440.079 374.095 444.692 369.138 444.692H312.431C307.475 444.692 303.453 440.11 303.453 434.436V335.799C303.484 330.125 307.475 325.542 312.431 325.542Z" fill="#898BE0"/>
<path d="M315.836 332.925H365.778C369.394 332.925 372.356 336.292 372.356 340.438V346.143C372.356 350.289 369.425 353.656 365.778 353.656H315.836C312.219 353.656 309.258 350.289 309.258 346.143V340.438C309.258 336.292 312.188 332.925 315.836 332.925Z" fill="white"/>
<path d="M367.305 355.277H314.308C310.723 355.277 307.824 351.973 307.824 347.858V338.692C307.824 334.608 310.723 331.273 314.308 331.273H367.305C370.89 331.273 373.79 334.577 373.79 338.692V347.858C373.79 351.973 370.89 355.277 367.305 355.277ZM314.308 334.577C312.313 334.577 310.692 336.417 310.692 338.692V347.858C310.692 350.133 312.313 351.973 314.308 351.973H367.305C369.3 351.973 370.922 350.133 370.922 347.858V338.692C370.922 336.417 369.3 334.577 367.305 334.577H314.308Z" fill="#B0C9F1"/>
<path d="M316.012 343.64L315.794 347.194L315.607 347.505L314.89 346.539L315.015 343.733L315.638 343.172L316.012 343.64ZM316.231 338.776C316.168 339.992 316.106 341.177 316.044 342.393L315.67 342.86L315.077 342.33L315.202 339.681L316.168 338.558C316.199 338.652 316.231 338.714 316.231 338.776Z" fill="#475569"/>
<path d="M318.475 343.764L318.351 346.632L317.353 347.256L317.54 343.515C317.571 343.39 317.665 343.266 317.696 343.141L318.475 343.764ZM321.156 346.819C321.375 347.131 321.624 347.505 321.842 347.817C321.873 347.848 321.905 347.879 321.905 347.911C321.905 347.942 321.873 347.973 321.811 347.973H317.665C317.602 347.848 317.509 347.755 317.447 347.661C317.415 347.63 317.384 347.599 317.384 347.536L318.382 346.851L321.156 346.819ZM322.372 338.433L321.406 339.556H318.662L317.789 338.932L318.506 338.371L322.372 338.433ZM321.188 342.424L321.873 343.047L321.188 343.577H318.506C318.288 343.359 318.008 343.172 317.789 342.954L318.662 342.424H321.188ZM322.559 338.776C322.497 339.992 322.435 341.177 322.372 342.393L321.998 342.86L321.406 342.33L321.53 339.68L322.497 338.558C322.528 338.652 322.528 338.714 322.559 338.776Z" fill="#475569"/>
<path d="M327.454 346.819C327.672 347.131 327.921 347.505 328.14 347.817C328.171 347.848 328.202 347.879 328.202 347.911C328.202 347.942 328.171 347.973 328.108 347.973H323.962C323.9 347.848 323.806 347.755 323.744 347.661C323.713 347.63 323.682 347.599 323.682 347.536L324.679 346.851L327.454 346.819ZM328.701 338.433L327.734 339.556H324.991L324.118 338.932L324.835 338.371L328.701 338.433ZM327.516 342.424L328.202 343.047L327.516 343.577H324.835C324.617 343.359 324.336 343.172 324.118 342.954L324.991 342.424H327.516ZM328.638 343.64L328.42 347.194L328.233 347.505L327.516 346.539L327.641 343.733L328.264 343.172L328.638 343.64ZM328.857 338.776C328.794 339.992 328.732 341.177 328.67 342.393L328.296 342.86L327.703 342.33L327.828 339.68L328.794 338.558C328.825 338.652 328.857 338.714 328.857 338.776Z" fill="#475569"/>
<path d="M329.698 347.599C329.729 347.942 329.48 348.222 329.199 348.222H329.168C328.888 348.222 328.669 347.942 328.669 347.63C328.669 347.287 328.888 347.007 329.168 347.007H329.199C329.48 347.007 329.698 347.256 329.698 347.599Z" fill="#475569"/>
<path d="M331.257 339.836L331.132 342.268L330.291 342.86L330.166 342.58L330.353 339.182L331.257 339.836ZM333.813 342.424L334.499 343.047L333.813 343.577H331.132C330.914 343.359 330.634 343.172 330.415 342.954L331.288 342.424H333.813ZM334.936 343.64L334.718 347.194L334.53 347.505L333.813 346.539L333.938 343.733L334.562 343.172L334.936 343.64ZM335.154 338.776C335.092 339.992 335.029 341.177 334.967 342.393L334.593 342.86L334.001 342.33L334.125 339.681L335.092 338.558C335.123 338.652 335.154 338.714 335.154 338.776Z" fill="#475569"/>
<path d="M340.079 346.819C340.297 347.162 340.578 347.505 340.796 347.817C340.827 347.848 340.859 347.879 340.859 347.911C340.859 347.942 340.827 347.973 340.734 347.973H336.588C336.525 347.879 336.432 347.755 336.369 347.661C336.338 347.599 336.276 347.568 336.276 347.505V347.474L337.273 346.788L340.079 346.819ZM337.554 339.805L337.429 342.268L336.556 342.86L336.463 342.549L336.619 339.15L337.554 339.805ZM341.295 338.402L340.329 339.525H337.585L336.712 338.901L337.429 338.371L341.295 338.402ZM340.11 342.424L340.827 343.047L340.142 343.577H337.461C337.211 343.359 336.993 343.172 336.744 342.954L337.585 342.424H340.11ZM341.233 343.64L341.014 347.194L340.827 347.505L340.11 346.539L340.266 343.733L340.89 343.141L341.233 343.64Z" fill="#475569"/>
<path d="M346.377 346.819C346.595 347.162 346.875 347.505 347.094 347.817C347.125 347.848 347.156 347.879 347.156 347.911C347.156 347.942 347.125 347.973 347.031 347.973H342.885C342.823 347.879 342.729 347.755 342.667 347.661C342.636 347.599 342.573 347.568 342.573 347.505V347.474L343.571 346.788L346.377 346.819ZM343.696 343.764L343.571 346.632L342.573 347.256L342.76 343.515C342.791 343.39 342.854 343.266 342.885 343.141L343.696 343.764ZM343.883 339.805L343.758 342.268L342.885 342.86L342.791 342.549L342.947 339.15L343.883 339.805ZM347.592 338.402L346.626 339.525H343.883L343.01 338.901L343.727 338.371L347.592 338.402ZM346.408 342.424L347.125 343.047L346.439 343.577H343.758C343.508 343.359 343.29 343.172 343.041 342.954L343.883 342.424H346.408ZM347.53 343.64L347.312 347.194L347.125 347.505L346.408 346.539L346.564 343.733L347.187 343.141L347.53 343.64Z" fill="#475569"/>
<path d="M348.621 347.599C348.652 347.942 348.403 348.222 348.122 348.222H348.091C347.811 348.222 347.592 347.942 347.592 347.63C347.592 347.287 347.811 347.007 348.091 347.007H348.122C348.403 347.007 348.621 347.256 348.621 347.599Z" fill="#475569"/>
<path d="M353.89 338.433L352.923 339.556H350.18L349.307 338.932L350.024 338.371L353.89 338.433ZM353.859 343.64L353.64 347.194L353.453 347.505L352.736 346.539L352.861 343.733L353.485 343.172L353.859 343.64ZM354.077 338.776C354.015 339.992 353.952 341.177 353.89 342.393L353.516 342.86L352.923 342.33L353.048 339.68L354.015 338.558C354.046 338.652 354.077 338.714 354.077 338.776Z" fill="#475569"/>
<path d="M356.29 343.764L356.166 346.632L355.168 347.256L355.355 343.515C355.386 343.39 355.48 343.266 355.511 343.141L356.29 343.764ZM358.971 346.819C359.19 347.131 359.439 347.505 359.657 347.817C359.688 347.848 359.719 347.879 359.719 347.911C359.719 347.942 359.688 347.973 359.626 347.973H355.48C355.417 347.848 355.324 347.755 355.262 347.661C355.23 347.63 355.199 347.599 355.199 347.536L356.197 346.851L358.971 346.819ZM356.477 339.836L356.353 342.268L355.511 342.86L355.386 342.58L355.573 339.182L356.477 339.836ZM360.218 338.433L359.252 339.556H356.508L355.636 338.932L356.353 338.371L360.218 338.433ZM359.034 342.424L359.719 343.047L359.034 343.577H356.353C356.134 343.359 355.854 343.172 355.636 342.954L356.508 342.424H359.034ZM360.156 343.64L359.938 347.194L359.751 347.505L359.034 346.539L359.158 343.733L359.782 343.172L360.156 343.64ZM360.374 338.776C360.312 339.992 360.249 341.177 360.187 342.393L359.813 342.86L359.221 342.33L359.345 339.68L360.312 338.558C360.374 338.652 360.374 338.714 360.374 338.776Z" fill="#475569"/>
<path d="M365.3 346.819C365.518 347.131 365.768 347.505 365.986 347.817C366.017 347.848 366.048 347.879 366.048 347.911C366.048 347.942 366.017 347.973 365.955 347.973H361.808C361.746 347.848 361.653 347.755 361.59 347.661C361.559 347.63 361.528 347.599 361.528 347.536L362.525 346.851L365.3 346.819ZM362.806 339.836L362.681 342.268L361.84 342.86L361.715 342.58L361.902 339.182L362.806 339.836ZM366.516 338.433L365.549 339.556H362.806L361.933 338.932L362.65 338.371L366.516 338.433ZM365.362 342.424L366.048 343.047L365.362 343.577H362.681C362.463 343.359 362.183 343.172 361.964 342.954L362.837 342.424H365.362ZM366.485 343.64L366.266 347.194L366.079 347.505L365.362 346.539L365.487 343.733L366.111 343.172L366.485 343.64ZM366.703 338.776C366.64 339.992 366.578 341.177 366.516 342.393L366.142 342.86L365.549 342.33L365.674 339.68L366.641 338.558C366.672 338.652 366.703 338.714 366.703 338.776Z" fill="#475569"/>
<path d="M312.525 396.683H318.947C321.067 396.683 322.781 398.647 322.781 401.048C322.781 403.479 321.067 405.412 318.947 405.412H312.525C310.405 405.412 308.69 403.448 308.69 401.048C308.69 398.616 310.405 396.683 312.525 396.683Z" fill="#F2F5F8"/>
<path d="M329.391 396.683H335.813C337.932 396.683 339.647 398.647 339.647 401.048C339.647 403.479 337.932 405.412 335.813 405.412H329.391C327.271 405.412 325.556 403.448 325.556 401.048C325.525 398.616 327.271 396.683 329.391 396.683Z" fill="#F2F5F8"/>
<path d="M346.1 396.683H352.522C354.642 396.683 356.357 398.647 356.357 401.048C356.357 403.479 354.642 405.412 352.522 405.412H346.1C343.98 405.412 342.266 403.448 342.266 401.048C342.266 398.616 343.98 396.683 346.1 396.683Z" fill="#F2F5F8"/>
<path d="M363.839 396.683H370.261C372.381 396.683 374.095 398.647 374.095 401.048C374.095 403.479 372.381 405.412 370.261 405.412H363.839C361.719 405.412 360.004 403.448 360.004 401.048C360.004 398.616 361.719 396.683 363.839 396.683Z" fill="#B0C9F1"/>
<path d="M312.525 380.815H318.947C321.067 380.815 322.781 382.779 322.781 385.18C322.781 387.58 321.067 389.544 318.947 389.544H312.525C310.405 389.544 308.69 387.58 308.69 385.18C308.69 382.779 310.405 380.815 312.525 380.815Z" fill="#F2F5F8"/>
<path d="M329.391 380.815H335.813C337.933 380.815 339.647 382.779 339.647 385.18C339.647 387.58 337.933 389.544 335.813 389.544H329.391C327.271 389.544 325.556 387.58 325.556 385.18C325.556 382.779 327.271 380.815 329.391 380.815Z" fill="#F2F5F8"/>
<path d="M346.1 380.815H352.522C354.642 380.815 356.357 382.779 356.357 385.18C356.357 387.58 354.642 389.544 352.522 389.544H346.1C343.98 389.544 342.266 387.58 342.266 385.18C342.266 382.779 343.98 380.815 346.1 380.815Z" fill="#F2F5F8"/>
<path d="M363.839 380.815H370.261C372.381 380.815 374.095 382.779 374.095 385.18C374.095 387.58 372.381 389.544 370.261 389.544H363.839C361.719 389.544 360.004 387.58 360.004 385.18C360.004 382.779 361.719 380.815 363.839 380.815Z" fill="#B0C9F1"/>
<path d="M312.525 365.664H318.947C321.067 365.664 322.781 367.628 322.781 370.029C322.781 372.46 321.067 374.393 318.947 374.393H312.525C310.405 374.393 308.69 372.429 308.69 370.029C308.69 367.628 310.405 365.664 312.525 365.664Z" fill="#B0C9F1"/>
<path d="M329.391 365.664H335.813C337.932 365.664 339.647 367.628 339.647 370.029C339.647 372.46 337.932 374.393 335.813 374.393H329.391C327.271 374.393 325.556 372.429 325.556 370.029C325.525 367.628 327.271 365.664 329.391 365.664Z" fill="#B0C9F1"/>
<path d="M346.1 365.664H352.522C354.642 365.664 356.357 367.628 356.357 370.029C356.357 372.46 354.642 374.393 352.522 374.393H346.1C343.98 374.393 342.266 372.429 342.266 370.029C342.266 367.628 343.98 365.664 346.1 365.664Z" fill="#B0C9F1"/>
<path d="M363.839 365.664H370.261C372.381 365.664 374.095 367.628 374.095 370.029C374.095 372.46 372.381 374.393 370.261 374.393H363.839C361.719 374.393 360.004 372.429 360.004 370.029C360.004 367.628 361.719 365.664 363.839 365.664Z" fill="#B0C9F1"/>
</g>
</g>
<defs>
<clipPath id="clip0_253_11209">
<rect width="420.735" height="272" fill="white" transform="translate(227 193)"/>
</clipPath>
</defs>
</svg>
