<svg width="68" height="68" viewBox="0 0 68 68" fill="none" xmlns="http://www.w3.org/2000/svg">
<rect width="67.1628" height="67.1628" rx="33.5814" transform="matrix(-1 0 0 1 67.1626 0)" fill="white"/>
<rect x="-0.44186" y="0.44186" width="57.4419" height="57.4419" rx="28.7209" transform="matrix(-1 0 0 1 61.8604 4.41861)" stroke="#CBD5E1" stroke-width="0.883721"/>
<path d="M32.3176 14.5895C33.0534 13.9895 34.1096 13.9895 34.8453 14.5895L36.4317 15.8832C36.9311 16.2902 37.5958 16.4319 38.2175 16.2639L40.1884 15.7313C41.1037 15.4839 42.0668 15.9132 42.4947 16.7591L43.426 18.6004C43.716 19.1734 44.2633 19.5724 44.8976 19.6729L46.9232 19.9937C47.8565 20.1416 48.559 20.9224 48.6074 21.866L48.7139 23.9434C48.7467 24.5821 49.0833 25.1667 49.6192 25.5159L51.3522 26.6453C52.1413 27.1597 52.4645 28.1551 52.1277 29.0349L51.3822 30.9829C51.154 31.5788 51.2242 32.2478 51.5708 32.7836L52.7026 34.5323C53.214 35.3227 53.1048 36.3626 52.4403 37.0296L50.9745 38.5009C50.5237 38.9534 50.3161 39.5938 50.4161 40.2246L50.7423 42.2838C50.8897 43.2153 50.3659 44.1232 49.4856 44.4623L47.5639 45.2021C46.9658 45.4324 46.5142 45.9353 46.3497 46.5547L45.8175 48.5577C45.5746 49.4726 44.7233 50.0916 43.778 50.041L41.7364 49.9318C41.0939 49.8975 40.4742 50.1742 40.0711 50.6754L38.7836 52.2765C38.1889 53.0161 37.1562 53.2358 36.3117 52.8024L34.4948 51.8697C33.9214 51.5755 33.2415 51.5755 32.6682 51.8697L30.8511 52.8024C30.0068 53.2358 28.9741 53.0161 28.3794 52.2765L27.0919 50.6754C26.6888 50.1742 26.0691 49.8975 25.4266 49.9318L23.385 50.041C22.4397 50.0916 21.5885 49.4726 21.3454 48.5577L20.8133 46.5547C20.6487 45.9353 20.1973 45.4324 19.5991 45.2021L17.6774 44.4623C16.797 44.1232 16.2733 43.2153 16.4208 42.2838L16.7469 40.2246C16.8468 39.5938 16.6393 38.9534 16.1885 38.5009L14.7227 37.0296C14.0582 36.3626 13.949 35.3227 14.4605 34.5323L15.5921 32.7836C15.9388 32.2478 16.0089 31.5788 15.7808 30.9829L15.0352 29.0349C14.6985 28.1551 15.0216 27.1597 15.8109 26.6453L17.5438 25.5159C18.0797 25.1667 18.4162 24.5821 18.4489 23.9434L18.5556 21.866C18.604 20.9224 19.3064 20.1416 20.2398 19.9937L22.2653 19.6729C22.8996 19.5724 23.4471 19.1734 23.7369 18.6004L24.6683 16.7591C25.0962 15.9132 26.0593 15.4839 26.9746 15.7313L28.9455 16.2639C29.5673 16.4319 30.232 16.2902 30.7312 15.8832L32.3176 14.5895Z" fill="#3E4095"/>
</svg>
