<svg width="161" height="68" viewBox="0 0 161 68" fill="none" xmlns="http://www.w3.org/2000/svg">
<rect y="0.837212" width="160.837" height="67.1628" rx="33.5814" fill="#F1F5F9"/>
<rect x="0.44186" y="1.27907" width="159.953" height="66.2791" rx="33.1395" stroke="#E2E8F0" stroke-opacity="0.6" stroke-width="0.883721"/>
<path d="M82.5312 31.6279V21.6653H88.8829V23.1635H84.3124V26.1116H88.4894V27.5614H84.3124V31.6279H82.5312ZM94.8033 31.8765C93.9656 31.8765 93.2407 31.7223 92.6285 31.4139C92.0163 31.1055 91.5423 30.6751 91.2063 30.1228C90.8749 29.5705 90.7092 28.9284 90.7092 28.1966V21.6653H92.4835V28.0516C92.4835 28.7374 92.686 29.2897 93.0911 29.7086C93.4961 30.1274 94.0692 30.3368 94.8102 30.3368C95.5512 30.3368 96.122 30.1274 96.5224 29.7086C96.9228 29.2897 97.1231 28.7374 97.1231 28.0516V21.6653H98.8974V28.1966C98.8974 28.9284 98.7317 29.5705 98.4003 30.1228C98.0689 30.6751 97.5971 31.1055 96.985 31.4139C96.3774 31.7223 95.6502 31.8765 94.8033 31.8765ZM101.207 31.6279V21.6653H102.988V30.1297H107.552V31.6279H101.207ZM109.337 31.6279V21.6653H111.118V30.1297H115.681V31.6279H109.337ZM82.5312 48.6279V38.6653H84.0777L89.4214 46.1562L88.1925 45.528H89.0831V38.6653H90.7953V48.6279H89.2557L83.912 41.1301L85.1409 41.7584H84.2503V48.6279H82.5312ZM92.38 48.6279L95.9148 38.6653H97.3923V40.5156H96.8607L94.2441 48.6279H92.38ZM94.1612 46.0527L94.6238 44.6788H99.1943L99.6569 46.0527H94.1612ZM99.5947 48.6279L96.9781 40.5156V38.6653H97.917L101.459 48.6279H99.5947ZM103.03 48.6279V38.6653H105.073L108.07 46.3358H108.187L111.176 38.6653H113.22V48.6279H111.618V41.5443H110.748L112.516 38.9415L108.732 48.6279H107.517L103.741 38.9415L105.508 41.5443H104.631V48.6279H103.03ZM115.536 48.6279V38.6653H121.985V40.1635H117.318V42.863H121.729V44.2783H117.318V47.1297H121.985V48.6279H115.536Z" fill="#64748B"/>
<rect x="6.18604" y="7.02325" width="54.7907" height="54.7907" rx="27.3953" fill="white"/>
<rect x="10.1626" y="11" width="46.8372" height="46.8372" rx="23.4186" stroke="#E2E8F0" stroke-width="0.883721"/>
<path d="M28.3341 28.8953C28.3341 26.0023 30.6881 23.6483 33.5812 23.6483C36.4743 23.6483 38.8283 26.0023 38.8283 28.8953C38.8283 31.7884 36.4743 34.1424 33.5812 34.1424C30.6881 34.1424 28.3341 31.7884 28.3341 28.8953ZM36.8952 35.7994H30.2673C26.7655 35.7994 23.9155 38.6494 23.9155 42.1512C23.9155 43.8269 25.2776 45.189 26.9533 45.189H40.2091C41.8849 45.189 43.2469 43.8269 43.2469 42.1512C43.2469 38.6494 40.3969 35.7994 36.8952 35.7994Z" fill="#1E293B"/>
</svg>
