<svg width="210" height="68" viewBox="0 0 210 68" fill="none" xmlns="http://www.w3.org/2000/svg">
<rect x="0.558105" y="0.837212" width="208.558" height="67.1628" rx="33.5814" fill="#F1F5F9"/>
<rect x="0.999966" y="1.27907" width="207.674" height="66.2791" rx="33.1395" stroke="#E2E8F0" stroke-opacity="0.6" stroke-width="0.883721"/>
<path d="M96.352 28.3347V26.8986H99.0031C99.6429 26.8986 100.14 26.7352 100.494 26.4084C100.849 26.077 101.026 25.6122 101.026 25.0138V25C101.026 24.397 100.849 23.9322 100.494 23.6054C100.14 23.2786 99.6429 23.1152 99.0031 23.1152H96.352V21.6653H99.4381C100.115 21.6653 100.706 21.8034 101.212 22.0796C101.719 22.3557 102.115 22.7447 102.4 23.2464C102.685 23.7435 102.828 24.3257 102.828 24.9931V25.0069C102.828 25.6697 102.685 26.2519 102.4 26.7536C102.115 27.2507 101.719 27.6397 101.212 27.9204C100.706 28.1966 100.115 28.3347 99.4381 28.3347H96.352ZM95.4613 31.6279V21.6653H97.2426V31.6279H95.4613ZM104.654 31.6279V21.6653H106.436V25.8078H111.282V21.6653H113.057V31.6279H111.282V27.306H106.436V31.6279H104.654ZM119.674 31.8765C118.698 31.8765 117.858 31.6647 117.154 31.2413C116.455 30.8132 115.914 30.208 115.532 29.4255C115.15 28.643 114.959 27.7179 114.959 26.6501V26.6363C114.959 25.5638 115.15 24.6387 115.532 23.8608C115.918 23.0784 116.464 22.4754 117.168 22.052C117.877 21.6285 118.712 21.4168 119.674 21.4168C120.641 21.4168 121.476 21.6285 122.18 22.052C122.885 22.4754 123.428 23.0784 123.81 23.8608C124.192 24.6433 124.383 25.5684 124.383 26.6363V26.6501C124.383 27.7179 124.192 28.643 123.81 29.4255C123.432 30.208 122.891 30.8132 122.187 31.2413C121.483 31.6647 120.645 31.8765 119.674 31.8765ZM119.674 30.3368C120.268 30.3368 120.781 30.185 121.214 29.8812C121.646 29.5774 121.98 29.1493 122.215 28.597C122.454 28.0447 122.574 27.3957 122.574 26.6501V26.6363C122.574 25.886 122.454 25.237 122.215 24.6893C121.98 24.137 121.646 23.7112 121.214 23.4121C120.781 23.1083 120.268 22.9564 119.674 22.9564C119.085 22.9564 118.572 23.1083 118.135 23.4121C117.702 23.7112 117.366 24.137 117.127 24.6893C116.892 25.237 116.774 25.886 116.774 26.6363V26.6501C116.774 27.3957 116.89 28.0447 117.12 28.597C117.354 29.1493 117.688 29.5774 118.121 29.8812C118.558 30.185 119.076 30.3368 119.674 30.3368ZM126.285 31.6279V21.6653H127.831L133.175 29.1562L131.946 28.528H132.837V21.6653H134.549V31.6279H133.01L127.666 24.1301L128.895 24.7584H128.004V31.6279H126.285ZM136.873 31.6279V21.6653H143.321V23.1635H138.654V25.863H143.065V27.2783H138.654V30.1297H143.321V31.6279H136.873ZM95.4613 48.6279V38.6653H97.0079L102.352 46.1562L101.123 45.528H102.013V38.6653H103.726V48.6279H102.186L96.8422 41.1301L98.0711 41.7584H97.1805V48.6279H95.4613ZM110.136 48.8765C109.298 48.8765 108.573 48.7223 107.961 48.4139C107.349 48.1055 106.875 47.6751 106.539 47.1228C106.208 46.5705 106.042 45.9284 106.042 45.1966V38.6653H107.816V45.0516C107.816 45.7374 108.019 46.2897 108.424 46.7086C108.829 47.1274 109.402 47.3368 110.143 47.3368C110.884 47.3368 111.455 47.1274 111.855 46.7086C112.256 46.2897 112.456 45.7374 112.456 45.0516V38.6653H114.23V45.1966C114.23 45.9284 114.065 46.5705 113.733 47.1228C113.402 47.6751 112.93 48.1055 112.318 48.4139C111.71 48.7223 110.983 48.8765 110.136 48.8765ZM116.54 48.6279V38.6653H118.583L121.58 46.3358H121.697L124.687 38.6653H126.73V48.6279H125.128V41.5443H124.258L126.026 38.9415L122.243 48.6279H121.027L117.251 38.9415L119.018 41.5443H118.141V48.6279H116.54ZM129.937 48.6279V47.2471H132.899C133.557 47.2471 134.057 47.1136 134.397 46.8467C134.738 46.5751 134.908 46.1862 134.908 45.6799V45.6661C134.908 45.3301 134.83 45.047 134.673 44.8169C134.517 44.5867 134.282 44.4141 133.969 44.2991C133.661 44.184 133.279 44.1265 132.823 44.1265H129.937V42.863H132.547C133.178 42.863 133.656 42.7433 133.983 42.504C134.314 42.2647 134.48 41.9195 134.48 41.4684V41.4546C134.48 41.0127 134.331 40.6675 134.031 40.419C133.732 40.1704 133.313 40.0461 132.775 40.0461H129.937V38.6653H133.203C133.838 38.6653 134.381 38.7666 134.832 38.9691C135.283 39.167 135.631 39.4524 135.875 39.8252C136.119 40.1934 136.241 40.633 136.241 41.1439V41.1577C136.241 41.5075 136.16 41.8343 135.999 42.1381C135.843 42.4419 135.631 42.695 135.364 42.8975C135.101 43.1 134.802 43.2289 134.466 43.2842V43.4084C134.913 43.4499 135.304 43.5787 135.64 43.7951C135.981 44.0068 136.245 44.2852 136.434 44.6305C136.627 44.9757 136.724 45.3623 136.724 45.7903V45.8041C136.724 46.3841 136.586 46.8858 136.31 47.3092C136.038 47.7327 135.647 48.0595 135.136 48.2896C134.625 48.5151 134.015 48.6279 133.306 48.6279H129.937ZM129.047 48.6279V38.6653H130.828V48.6279H129.047ZM138.529 48.6279V38.6653H144.978V40.1635H140.311V42.863H144.722V44.2783H140.311V47.1297H144.978V48.6279H138.529ZM147.046 48.6279V38.6653H151.071C151.784 38.6653 152.396 38.7919 152.907 39.0451C153.418 39.2982 153.809 39.6549 154.081 40.1152C154.353 40.5755 154.488 41.1232 154.488 41.7584V41.7722C154.488 42.4304 154.323 43.0149 153.991 43.5258C153.664 44.0321 153.207 44.3911 152.617 44.6028L154.792 48.6279H152.762L150.802 44.879C150.792 44.879 150.779 44.879 150.76 44.879C150.742 44.879 150.726 44.879 150.712 44.879H148.827V48.6279H147.046ZM148.827 43.512H150.884C151.451 43.512 151.89 43.3624 152.203 43.0632C152.516 42.7641 152.673 42.3475 152.673 41.8136V41.7998C152.673 41.2797 152.509 40.8677 152.182 40.564C151.86 40.2556 151.416 40.1014 150.85 40.1014H148.827V43.512Z" fill="#64748B"/>
<rect x="6.74414" y="7.02325" width="54.7907" height="54.7907" rx="27.3953" fill="white"/>
<rect x="10.7212" y="11" width="46.8372" height="46.8372" rx="23.4186" stroke="#E2E8F0" stroke-width="0.883721"/>
<g clip-path="url(#clip0_241_2138)">
<path d="M30.8258 24.4767C31.0239 24.4767 31.2183 24.5299 31.3887 24.6307C31.5592 24.7316 31.6993 24.8764 31.7946 25.0501L31.8509 25.1716L34.0602 30.6948C34.1492 30.917 34.1636 31.1621 34.1013 31.3932C34.0389 31.6243 33.9032 31.8289 33.7145 31.9762L33.604 32.0513L31.7548 33.1604L31.8244 33.2742C32.7046 34.6716 33.8868 35.8538 35.2842 36.734L35.3969 36.8024L36.507 34.9555C36.6301 34.7501 36.8165 34.5902 37.0382 34.5C37.26 34.4097 37.505 34.394 37.7365 34.4551L37.8636 34.4981L43.3868 36.7074C43.5707 36.7808 43.7315 36.9023 43.8524 37.0591C43.9733 37.2159 44.0498 37.4024 44.0739 37.5989L44.0816 37.7326V42.1512C44.0816 43.9816 42.5981 45.4651 40.7014 45.4629C31.2246 44.8874 23.6699 37.3327 23.0933 27.7907C23.0932 26.9454 23.4162 26.132 23.9961 25.517C24.576 24.902 25.369 24.5319 26.2128 24.4823L26.4072 24.4767H30.8258Z" fill="#1E293B"/>
</g>
<defs>
<clipPath id="clip0_241_2138">
<rect width="26.5116" height="26.5116" fill="white" transform="translate(20.8838 21.1628)"/>
</clipPath>
</defs>
</svg>
