<svg width="219" height="68" viewBox="0 0 219 68" fill="none" xmlns="http://www.w3.org/2000/svg">
<rect x="0.720703" y="0.837212" width="218.279" height="67.1628" rx="33.5814" fill="#F1F5F9"/>
<rect x="1.16256" y="1.27907" width="217.395" height="66.2791" rx="33.1395" stroke="#E2E8F0" stroke-opacity="0.6" stroke-width="0.883721"/>
<path d="M92.9731 31.6279V21.6653H96.7082C97.6978 21.6653 98.54 21.8586 99.2351 22.2453C99.9347 22.6319 100.469 23.1934 100.837 23.9299C101.21 24.6663 101.396 25.5546 101.396 26.5948V26.6086C101.396 27.6719 101.212 28.5786 100.844 29.3289C100.475 30.0745 99.9416 30.6452 99.242 31.0411C98.547 31.4323 97.7024 31.6279 96.7082 31.6279H92.9731ZM94.7543 30.1297H96.4734C97.1316 30.1297 97.6931 29.9939 98.158 29.7224C98.6229 29.4508 98.975 29.055 99.2143 28.5349C99.4583 28.0148 99.5803 27.3819 99.5803 26.6363V26.6225C99.5803 25.8952 99.456 25.2739 99.2074 24.7584C98.9635 24.2383 98.6091 23.8424 98.1442 23.5709C97.6793 23.2993 97.1224 23.1635 96.4734 23.1635H94.7543V30.1297ZM103.298 31.6279V21.6653H109.747V23.1635H105.079V25.863H109.491V27.2783H105.079V30.1297H109.747V31.6279H103.298ZM111.815 31.6279V21.6653H113.596V30.1297H118.159V31.6279H111.815ZM119.944 31.6279V21.6653H121.725V31.6279H119.944ZM126.748 31.6279L123.303 21.6653H125.264L127.729 29.5705H127.846L130.318 21.6653H132.278L128.826 31.6279H126.748ZM133.856 31.6279V21.6653H140.305V23.1635H135.637V25.863H140.049V27.2783H135.637V30.1297H140.305V31.6279H133.856ZM142.373 31.6279V21.6653H146.398C147.111 21.6653 147.723 21.7919 148.234 22.0451C148.745 22.2982 149.136 22.6549 149.408 23.1152C149.679 23.5755 149.815 24.1232 149.815 24.7584V24.7722C149.815 25.4304 149.649 26.0149 149.318 26.5258C148.991 27.0321 148.533 27.3911 147.944 27.6028L150.119 31.6279H148.089L146.128 27.879C146.119 27.879 146.105 27.879 146.087 27.879C146.068 27.879 146.052 27.879 146.039 27.879H144.154V31.6279H142.373ZM144.154 26.512H146.211C146.777 26.512 147.217 26.3624 147.53 26.0632C147.843 25.7641 147.999 25.3475 147.999 24.8136V24.7998C147.999 24.2797 147.836 23.8677 147.509 23.564C147.187 23.2556 146.743 23.1014 146.177 23.1014H144.154V26.512ZM154.293 31.6279V27.6995L150.799 21.6653H152.746L155.121 25.939H155.238L157.613 21.6653H159.56L156.067 27.6995V31.6279H154.293ZM92.2343 48.6279L95.7692 38.6653H97.2467V40.5156H96.7151L94.0984 48.6279H92.2343ZM94.0156 46.0527L94.4782 44.6788H99.0486L99.5112 46.0527H94.0156ZM99.4491 48.6279L96.8324 40.5156V38.6653H97.7714L101.313 48.6279H99.4491ZM102.884 48.6279V38.6653H106.619C107.609 38.6653 108.451 38.8586 109.146 39.2453C109.846 39.6319 110.38 40.1934 110.748 40.9299C111.121 41.6663 111.307 42.5546 111.307 43.5948V43.6086C111.307 44.6719 111.123 45.5786 110.755 46.3289C110.386 47.0745 109.853 47.6452 109.153 48.0411C108.458 48.4323 107.613 48.6279 106.619 48.6279H102.884ZM104.665 47.1297H106.384C107.043 47.1297 107.604 46.9939 108.069 46.7224C108.534 46.4508 108.886 46.055 109.125 45.5349C109.369 45.0148 109.491 44.3819 109.491 43.6363V43.6225C109.491 42.8952 109.367 42.2739 109.118 41.7584C108.874 41.2383 108.52 40.8424 108.055 40.5709C107.59 40.2993 107.033 40.1635 106.384 40.1635H104.665V47.1297ZM113.209 48.6279V38.6653H116.944C117.934 38.6653 118.776 38.8586 119.471 39.2453C120.171 39.6319 120.705 40.1934 121.073 40.9299C121.446 41.6663 121.632 42.5546 121.632 43.5948V43.6086C121.632 44.6719 121.448 45.5786 121.08 46.3289C120.712 47.0745 120.178 47.6452 119.478 48.0411C118.783 48.4323 117.938 48.6279 116.944 48.6279H113.209ZM114.99 47.1297H116.71C117.368 47.1297 117.929 46.9939 118.394 46.7224C118.859 46.4508 119.211 46.055 119.45 45.5349C119.694 45.0148 119.816 44.3819 119.816 43.6363V43.6225C119.816 42.8952 119.692 42.2739 119.444 41.7584C119.2 41.2383 118.845 40.8424 118.38 40.5709C117.915 40.2993 117.359 40.1635 116.71 40.1635H114.99V47.1297ZM123.534 48.6279V38.6653H127.559C128.273 38.6653 128.885 38.7919 129.396 39.0451C129.907 39.2982 130.298 39.6549 130.57 40.1152C130.841 40.5755 130.977 41.1232 130.977 41.7584V41.7722C130.977 42.4304 130.811 43.0149 130.48 43.5258C130.153 44.0321 129.695 44.3911 129.106 44.6028L131.281 48.6279H129.251L127.29 44.879C127.281 44.879 127.267 44.879 127.249 44.879C127.23 44.879 127.214 44.879 127.2 44.879H125.316V48.6279H123.534ZM125.316 43.512H127.373C127.939 43.512 128.379 43.3624 128.692 43.0632C129.005 42.7641 129.161 42.3475 129.161 41.8136V41.7998C129.161 41.2797 128.998 40.8677 128.671 40.564C128.349 40.2556 127.905 40.1014 127.338 40.1014H125.316V43.512ZM133.003 48.6279V38.6653H139.452V40.1635H134.785V42.863H139.196V44.2783H134.785V47.1297H139.452V48.6279H133.003ZM144.979 48.8765C144.205 48.8765 143.533 48.7568 142.963 48.5174C142.397 48.2781 141.95 47.9444 141.623 47.5164C141.296 47.0883 141.112 46.5889 141.071 46.0182L141.064 45.9215H142.79L142.797 45.9906C142.825 46.2713 142.935 46.5153 143.128 46.7224C143.326 46.9295 143.589 47.0929 143.915 47.2126C144.242 47.3276 144.615 47.3852 145.034 47.3852C145.434 47.3852 145.789 47.323 146.097 47.1988C146.406 47.0745 146.647 46.9042 146.822 46.6879C146.997 46.4669 147.084 46.2138 147.084 45.9284V45.9215C147.084 45.5625 146.944 45.2702 146.663 45.0447C146.382 44.8146 145.92 44.6305 145.276 44.4924L144.205 44.2714C143.184 44.0551 142.44 43.7099 141.975 43.2358C141.515 42.7571 141.285 42.1473 141.285 41.4062V41.3993C141.285 40.8056 141.441 40.2855 141.754 39.839C142.072 39.3926 142.507 39.0451 143.059 38.7965C143.616 38.5434 144.254 38.4168 144.972 38.4168C145.708 38.4168 146.346 38.5411 146.884 38.7896C147.423 39.0336 147.846 39.3672 148.155 39.7907C148.463 40.2141 148.636 40.6928 148.672 41.2267L148.679 41.3165H146.981L146.967 41.2336C146.926 40.9713 146.817 40.7435 146.643 40.5501C146.472 40.3522 146.244 40.1957 145.959 40.0807C145.674 39.9656 145.34 39.9081 144.958 39.9081C144.594 39.9081 144.27 39.9656 143.984 40.0807C143.699 40.1911 143.474 40.3476 143.308 40.5501C143.147 40.7527 143.066 40.9966 143.066 41.282V41.2889C143.066 41.6387 143.202 41.9287 143.474 42.1588C143.75 42.3889 144.199 42.5684 144.82 42.6973L145.89 42.9251C146.939 43.1461 147.697 43.4798 148.161 43.9262C148.631 44.3681 148.866 44.9664 148.866 45.7213V45.7282C148.866 46.3726 148.707 46.9295 148.389 47.399C148.076 47.8685 147.628 48.2321 147.043 48.4898C146.463 48.7476 145.775 48.8765 144.979 48.8765ZM154.185 48.8765C153.412 48.8765 152.74 48.7568 152.169 48.5174C151.603 48.2781 151.157 47.9444 150.83 47.5164C150.503 47.0883 150.319 46.5889 150.278 46.0182L150.271 45.9215H151.997L152.004 45.9906C152.031 46.2713 152.142 46.5153 152.335 46.7224C152.533 46.9295 152.795 47.0929 153.122 47.2126C153.449 47.3276 153.822 47.3852 154.241 47.3852C154.641 47.3852 154.995 47.323 155.304 47.1988C155.612 47.0745 155.854 46.9042 156.029 46.6879C156.204 46.4669 156.291 46.2138 156.291 45.9284V45.9215C156.291 45.5625 156.151 45.2702 155.87 45.0447C155.589 44.8146 155.127 44.6305 154.482 44.4924L153.412 44.2714C152.39 44.0551 151.647 43.7099 151.182 43.2358C150.722 42.7571 150.492 42.1473 150.492 41.4062V41.3993C150.492 40.8056 150.648 40.2855 150.961 39.839C151.279 39.3926 151.714 39.0451 152.266 38.7965C152.823 38.5434 153.46 38.4168 154.178 38.4168C154.915 38.4168 155.552 38.5411 156.091 38.7896C156.629 39.0336 157.053 39.3672 157.361 39.7907C157.67 40.2141 157.842 40.6928 157.879 41.2267L157.886 41.3165H156.188L156.174 41.2336C156.132 40.9713 156.024 40.7435 155.849 40.5501C155.679 40.3522 155.451 40.1957 155.166 40.0807C154.88 39.9656 154.547 39.9081 154.165 39.9081C153.801 39.9081 153.477 39.9656 153.191 40.0807C152.906 40.1911 152.68 40.3476 152.515 40.5501C152.353 40.7527 152.273 40.9966 152.273 41.282V41.2889C152.273 41.6387 152.409 41.9287 152.68 42.1588C152.956 42.3889 153.405 42.5684 154.027 42.6973L155.097 42.9251C156.146 43.1461 156.903 43.4798 157.368 43.9262C157.838 44.3681 158.072 44.9664 158.072 45.7213V45.7282C158.072 46.3726 157.914 46.9295 157.596 47.399C157.283 47.8685 156.834 48.2321 156.25 48.4898C155.67 48.7476 154.982 48.8765 154.185 48.8765Z" fill="#64748B"/>
<rect x="6.90674" y="7.02325" width="54.7907" height="54.7907" rx="27.3953" fill="white"/>
<g clip-path="url(#clip0_241_2139)">
<path d="M41.3323 25.4002C43.1575 27.2253 44.2014 29.6886 44.2433 32.2694C44.2851 34.8502 43.3216 37.3461 41.5565 39.2294L41.3323 39.4613L36.6452 44.1473C36.0505 44.7416 35.2521 45.0877 34.4118 45.1154C33.5715 45.1431 32.752 44.8503 32.1195 44.2964L31.9604 44.1473L27.2723 39.4602C25.4078 37.5958 24.3604 35.067 24.3604 32.4302C24.3604 29.7935 25.4078 27.2647 27.2723 25.4002C29.1367 23.5358 31.6655 22.4883 34.3023 22.4883C36.939 22.4883 39.4678 23.5358 41.3323 25.4002ZM34.3023 29.1163C33.8671 29.1163 33.4361 29.202 33.0341 29.3685C32.632 29.5351 32.2667 29.7792 31.959 30.0869C31.6512 30.3946 31.4071 30.76 31.2406 31.162C31.074 31.5641 30.9883 31.995 30.9883 32.4302C30.9883 32.8654 31.074 33.2964 31.2406 33.6984C31.4071 34.1005 31.6512 34.4658 31.959 34.7736C32.2667 35.0813 32.632 35.3254 33.0341 35.4919C33.4361 35.6585 33.8671 35.7442 34.3023 35.7442C35.1812 35.7442 36.0241 35.395 36.6456 34.7736C37.2671 34.1521 37.6162 33.3091 37.6162 32.4302C37.6162 31.5513 37.2671 30.7084 36.6456 30.0869C36.0241 29.4654 35.1812 29.1163 34.3023 29.1163Z" fill="#1E293B"/>
</g>
<rect x="10.8833" y="11" width="46.8372" height="46.8372" rx="23.4186" stroke="#E2E8F0" stroke-width="0.883721"/>
<defs>
<clipPath id="clip0_241_2139">
<rect width="26.5116" height="26.5116" fill="white" transform="translate(21.0464 20.2791)"/>
</clipPath>
</defs>
</svg>
