<svg width="536" height="68" viewBox="0 0 536 68" fill="none" xmlns="http://www.w3.org/2000/svg">
<rect x="0.465332" width="535.535" height="67.1628" rx="33.5814" fill="#F58634"/>
<rect x="5.32565" y="4.86047" width="57.4419" height="57.4419" rx="28.7209" stroke="white" stroke-opacity="0.6" stroke-width="0.883721"/>
<rect x="26.0933" y="31.814" width="2.65116" height="2.65116" rx="1.32558" fill="white"/>
<rect x="61.4419" y="31.814" width="2.65116" height="2.65116" rx="1.32558" fill="white"/>
<rect x="83.5347" y="31.814" width="2.65116" height="2.65116" rx="1.32558" fill="white"/>
<rect x="472.372" y="31.814" width="2.65116" height="2.65116" rx="1.32558" fill="white"/>
<rect x="212.558" y="31.814" width="2.65116" height="2.65116" rx="1.32558" fill="white"/>
<rect x="321.256" y="31.814" width="2.65116" height="2.65116" rx="1.32558" fill="white"/>
<rect x="27.4184" y="4.86047" width="57.4419" height="57.4419" rx="28.7209" stroke="white" stroke-opacity="0.6" stroke-width="0.883721"/>
<rect x="473.698" y="4.86047" width="57.4419" height="57.4419" rx="28.7209" stroke="white" stroke-opacity="0.6" stroke-width="0.883721"/>
<rect x="213.884" y="20.7674" width="108.791" height="24.7209" rx="12.3605" stroke="white" stroke-opacity="0.6" stroke-width="0.883721"/>
<path d="M225.167 37.6279L222.817 28.9107H224.231L225.831 35.6827H225.91L227.728 28.9107H228.991L230.821 35.6827H230.9L232.495 28.9107H233.902L231.552 37.6279H230.272L228.399 31.1156H228.32L226.448 37.6279H225.167ZM235.416 37.6279V28.9107H240.949V30.0826H236.769V32.6259H240.726V33.7495H236.769V36.4559H240.949V37.6279H235.416ZM249.745 37.8393C248.9 37.8393 248.173 37.6541 247.565 37.2836C246.956 36.909 246.489 36.3794 246.163 35.6948C245.837 35.0101 245.674 34.2026 245.674 33.2723V33.2602C245.674 32.3218 245.839 31.5123 246.169 30.8317C246.499 30.1511 246.968 29.6255 247.577 29.255C248.189 28.8845 248.912 28.6992 249.745 28.6992C250.583 28.6992 251.306 28.8845 251.914 29.255C252.522 29.6255 252.989 30.1531 253.316 30.8378C253.646 31.5184 253.811 32.3259 253.811 33.2602V33.2723C253.811 34.2026 253.648 35.0101 253.322 35.6948C252.995 36.3754 252.526 36.903 251.914 37.2775C251.306 37.6521 250.583 37.8393 249.745 37.8393ZM249.745 36.6372C250.293 36.6372 250.768 36.4982 251.171 36.2203C251.574 35.9425 251.884 35.5518 252.101 35.0484C252.319 34.5409 252.428 33.9489 252.428 33.2723V33.2602C252.428 32.5756 252.319 31.9815 252.101 31.4781C251.884 30.9747 251.574 30.586 251.171 30.3122C250.768 30.0383 250.293 29.9014 249.745 29.9014C249.198 29.9014 248.722 30.0383 248.32 30.3122C247.921 30.586 247.611 30.9747 247.389 31.4781C247.168 31.9815 247.057 32.5756 247.057 33.2602V33.2723C247.057 33.9489 247.164 34.5409 247.377 35.0484C247.595 35.5518 247.903 35.9425 248.302 36.2203C248.704 36.4982 249.186 36.6372 249.745 36.6372ZM255.524 37.6279V28.9107H256.75L261.559 35.7189L260.634 35.2417H261.317V28.9107H262.64V37.6279H261.414L256.599 30.8257L257.529 31.3029H256.841V37.6279H255.524ZM264.703 37.6279V28.9107H266.056V36.4559H270.146V37.6279H264.703ZM272.971 37.6279V34.0576L269.902 28.9107H271.412L273.605 32.7105H273.702L275.894 28.9107H277.405L274.33 34.0576V37.6279H272.971ZM282.044 37.6279V28.9107H283.271L288.08 35.7189L287.155 35.2417H287.838V28.9107H289.161V37.6279H287.935L283.12 30.8257L284.05 31.3029H283.361V37.6279H282.044ZM291.224 37.6279V28.9107H296.758V30.0826H292.577V32.6259H296.534V33.7495H292.577V36.4559H296.758V37.6279H291.224ZM298.591 37.6279V28.9107H304.125V30.0826H299.944V32.6259H303.901V33.7495H299.944V36.4559H304.125V37.6279H298.591ZM305.958 37.6279V28.9107H309.106C309.972 28.9107 310.711 29.0818 311.323 29.4241C311.935 29.7665 312.402 30.2598 312.724 30.9042C313.051 31.5486 313.214 32.3279 313.214 33.2421V33.2542C313.214 34.1764 313.051 34.9638 312.724 35.6162C312.402 36.2687 311.935 36.7681 311.323 37.1144C310.715 37.4567 309.976 37.6279 309.106 37.6279H305.958ZM307.312 36.4559H308.955C309.563 36.4559 310.08 36.3311 310.507 36.0814C310.938 35.8317 311.264 35.4692 311.486 34.994C311.711 34.5188 311.824 33.9449 311.824 33.2723V33.2602C311.824 32.5917 311.709 32.0198 311.48 31.5446C311.254 31.0693 310.928 30.7069 310.501 30.4572C310.074 30.2075 309.559 30.0826 308.955 30.0826H307.312V36.4559Z" fill="white"/>
<line x1="84.4185" y1="33.1395" x2="213.442" y2="33.1395" stroke="white" stroke-opacity="0.6" stroke-width="0.883721"/>
<line x1="27.8604" y1="33.1395" x2="63.2092" y2="33.1395" stroke="white" stroke-opacity="0.6" stroke-width="0.883721"/>
<line x1="323.023" y1="33.1395" x2="474.14" y2="33.1395" stroke="white" stroke-opacity="0.6" stroke-width="0.883721"/>
<g opacity="0.8">
<path d="M508.488 28.4099L497.188 39.709" stroke="white" stroke-width="1.25488" stroke-linecap="round"/>
<path d="M496.797 30.9751C496.797 30.9751 498.622 35.1542 496.888 40.0109" stroke="white" stroke-width="1.25488" stroke-linecap="round"/>
<path d="M505.934 40.112C505.934 40.112 501.755 38.2868 496.899 40.0213" stroke="white" stroke-width="1.25488" stroke-linecap="round"/>
</g>
</svg>
