<svg width="42" height="43" viewBox="0 0 42 43" fill="none" xmlns="http://www.w3.org/2000/svg">
<path d="M19.4775 24.4337C19.6633 24.3475 19.869 24.3541 20.0547 24.447L21.4478 25.1435V22.5762H17.8589V25.1833L19.4775 24.4337ZM33.1237 34.5241C32.6925 34.2985 32.2082 34.2587 31.7703 34.4179L22.5624 37.7217C22.1112 37.9738 21.5872 38.1131 21.0365 38.1131H15.4839C15.119 38.1131 14.8205 37.8145 14.8205 37.4497C14.8205 37.0848 15.119 36.7863 15.4839 36.7863H21.0365C21.3483 36.7863 21.6535 36.7067 21.9122 36.574L22.0117 36.5143C22.4031 36.2688 22.6884 35.884 22.7614 35.4396C22.801 35.2062 22.7891 34.967 22.7267 34.7386C22.6642 34.5103 22.5526 34.2984 22.3997 34.1177C22.2468 33.937 22.0563 33.7919 21.8414 33.6925C21.6266 33.5931 21.3927 33.5418 21.1559 33.5422H17.0097C15.7957 33.5422 14.5817 33.1044 13.5932 32.3149C11.9745 31.0213 8.62434 29.2964 4.19946 31.9965V40.0502C5.33388 40.0568 7.70884 40.2625 11.0126 41.5561C14.1106 42.7702 17.4077 43.0488 20.5523 42.3655C23.7764 41.6623 28.5993 40.236 33.2165 37.4032C33.5814 37.1777 33.8534 36.7995 33.9529 36.3617C34.1254 35.6319 33.7804 34.8757 33.1237 34.5241Z" fill="white"/>
<path d="M19.4775 24.4337C19.6633 24.3475 19.869 24.3541 20.0547 24.447L21.4478 25.1435V22.5762H17.8589V25.1833L19.4775 24.4337ZM33.1237 34.5241C32.6925 34.2985 32.2082 34.2587 31.7703 34.4179L22.5624 37.7217C22.1112 37.9738 21.5872 38.1131 21.0365 38.1131H15.4839C15.119 38.1131 14.8205 37.8145 14.8205 37.4497C14.8205 37.0848 15.119 36.7863 15.4839 36.7863H21.0365C21.3483 36.7863 21.6535 36.7067 21.9122 36.574L22.0117 36.5143C22.4031 36.2688 22.6884 35.884 22.7614 35.4396C22.801 35.2062 22.7891 34.967 22.7267 34.7386C22.6642 34.5103 22.5526 34.2984 22.3997 34.1177C22.2468 33.937 22.0563 33.7919 21.8414 33.6925C21.6266 33.5931 21.3927 33.5418 21.1559 33.5422H17.0097C15.7957 33.5422 14.5817 33.1044 13.5932 32.3149C11.9745 31.0213 8.62434 29.2964 4.19946 31.9965V40.0502C5.33388 40.0568 7.70884 40.2625 11.0126 41.5561C14.1106 42.7702 17.4077 43.0488 20.5523 42.3655C23.7764 41.6623 28.5993 40.236 33.2165 37.4032C33.5814 37.1777 33.8534 36.7995 33.9529 36.3617C34.1254 35.6319 33.7804 34.8757 33.1237 34.5241Z" fill="url(#paint0_linear_90_2471)"/>
<path d="M17.0096 32.2018H21.1558C22.0249 32.2018 22.8408 32.5799 23.4047 33.2433C23.6972 33.5891 23.9066 33.9973 24.017 34.4366C24.1274 34.8758 24.1358 35.3345 24.0416 35.7775L28.5792 34.1522V23.6704C28.5792 23.0667 28.0883 22.5824 27.4913 22.5824H22.7679V26.2245C22.7679 26.3117 22.7508 26.398 22.7175 26.4785C22.6842 26.559 22.6354 26.6322 22.5738 26.6938C22.5121 26.7554 22.439 26.8043 22.3584 26.8376C22.2779 26.8709 22.1916 26.888 22.1045 26.8879C22.005 26.8879 21.8988 26.8614 21.8059 26.815L19.7361 25.78L17.4607 26.8282C17.255 26.9211 17.0162 26.9078 16.8238 26.7818C16.7297 26.7225 16.6523 26.6402 16.5989 26.5427C16.5455 26.4452 16.5179 26.3357 16.5186 26.2245V22.5824H11.7952C11.1915 22.5824 10.7073 23.0734 10.7073 23.6704V29.4354C12.2994 29.8069 13.5665 30.5897 14.4157 31.273C15.1852 31.8834 16.0808 32.2018 17.0096 32.2018ZM2.87252 29.8003L0.0331699 29.7605L0 41.7813L2.83271 41.8211L2.87252 41.7813V29.8003ZM22.6219 9.91808C22.1001 9.60722 21.5044 9.44226 20.8971 9.44043C19.0197 9.44043 17.4938 10.9663 17.4938 12.8437C17.4938 14.7211 19.0197 16.2469 20.8971 16.2469C21.8656 16.2469 22.7679 15.829 23.4047 15.1324C22.8475 14.9732 22.3433 14.6548 21.9718 14.2037C21.0497 13.0891 21.1624 11.3842 22.2239 10.3161L22.6219 9.91808Z" fill="white"/>
<path d="M17.0096 32.2018H21.1558C22.0249 32.2018 22.8408 32.5799 23.4047 33.2433C23.6972 33.5891 23.9066 33.9973 24.017 34.4366C24.1274 34.8758 24.1358 35.3345 24.0416 35.7775L28.5792 34.1522V23.6704C28.5792 23.0667 28.0883 22.5824 27.4913 22.5824H22.7679V26.2245C22.7679 26.3117 22.7508 26.398 22.7175 26.4785C22.6842 26.559 22.6354 26.6322 22.5738 26.6938C22.5121 26.7554 22.439 26.8043 22.3584 26.8376C22.2779 26.8709 22.1916 26.888 22.1045 26.8879C22.005 26.8879 21.8988 26.8614 21.8059 26.815L19.7361 25.78L17.4607 26.8282C17.255 26.9211 17.0162 26.9078 16.8238 26.7818C16.7297 26.7225 16.6523 26.6402 16.5989 26.5427C16.5455 26.4452 16.5179 26.3357 16.5186 26.2245V22.5824H11.7952C11.1915 22.5824 10.7073 23.0734 10.7073 23.6704V29.4354C12.2994 29.8069 13.5665 30.5897 14.4157 31.273C15.1852 31.8834 16.0808 32.2018 17.0096 32.2018ZM2.87252 29.8003L0.0331699 29.7605L0 41.7813L2.83271 41.8211L2.87252 41.7813V29.8003ZM22.6219 9.91808C22.1001 9.60722 21.5044 9.44226 20.8971 9.44043C19.0197 9.44043 17.4938 10.9663 17.4938 12.8437C17.4938 14.7211 19.0197 16.2469 20.8971 16.2469C21.8656 16.2469 22.7679 15.829 23.4047 15.1324C22.8475 14.9732 22.3433 14.6548 21.9718 14.2037C21.0497 13.0891 21.1624 11.3842 22.2239 10.3161L22.6219 9.91808Z" fill="url(#paint1_linear_90_2471)"/>
<path d="M28.6389 5.19488C28.7384 5.44034 28.6854 5.7256 28.493 5.91799L23.1592 11.2517C22.5755 11.8355 22.5025 12.7577 22.9934 13.3547C23.272 13.6931 23.6634 13.8921 24.0946 13.912C24.5258 13.9385 24.9372 13.7727 25.2423 13.4675L29.6672 9.04261C29.7286 8.98112 29.8015 8.93232 29.8817 8.89903C29.962 8.86574 30.048 8.84861 30.1349 8.84861C30.2218 8.84861 30.3078 8.86574 30.3881 8.89903C30.4683 8.93232 30.5412 8.98112 30.6026 9.04261C31.5048 9.93157 32.6989 10.3827 33.966 10.396C35.1402 10.3761 36.2415 9.92494 37.0906 9.12222V0.929199H25.5939C24.4794 0.929199 23.4246 1.36704 22.6352 2.15649L20.0015 4.7902H28.0286C28.294 4.78357 28.5394 4.94942 28.6389 5.19488Z" fill="white"/>
<path d="M28.6389 5.19488C28.7384 5.44034 28.6854 5.7256 28.493 5.91799L23.1592 11.2517C22.5755 11.8355 22.5025 12.7577 22.9934 13.3547C23.272 13.6931 23.6634 13.8921 24.0946 13.912C24.5258 13.9385 24.9372 13.7727 25.2423 13.4675L29.6672 9.04261C29.7286 8.98112 29.8015 8.93232 29.8817 8.89903C29.962 8.86574 30.048 8.84861 30.1349 8.84861C30.2218 8.84861 30.3078 8.86574 30.3881 8.89903C30.4683 8.93232 30.5412 8.98112 30.6026 9.04261C31.5048 9.93157 32.6989 10.3827 33.966 10.396C35.1402 10.3761 36.2415 9.92494 37.0906 9.12222V0.929199H25.5939C24.4794 0.929199 23.4246 1.36704 22.6352 2.15649L20.0015 4.7902H28.0286C28.294 4.78357 28.5394 4.94942 28.6389 5.19488Z" fill="url(#paint2_linear_90_2471)"/>
<path d="M11.8949 14.2038C12.646 14.2038 13.2548 13.595 13.2548 12.8439C13.2548 12.0928 12.646 11.4839 11.8949 11.4839C11.1438 11.4839 10.5349 12.0928 10.5349 12.8439C10.5349 13.595 11.1438 14.2038 11.8949 14.2038Z" fill="white"/>
<path d="M11.8949 14.2038C12.646 14.2038 13.2548 13.595 13.2548 12.8439C13.2548 12.0928 12.646 11.4839 11.8949 11.4839C11.1438 11.4839 10.5349 12.0928 10.5349 12.8439C10.5349 13.595 11.1438 14.2038 11.8949 14.2038Z" fill="url(#paint3_linear_90_2471)"/>
<path d="M38.4242 0.929199H41.9999V8.73082H38.4242V0.929199ZM30.1715 10.4225L26.1845 14.4095C25.866 14.728 25.468 14.9535 25.0434 15.0928C24.2208 16.6054 22.6353 17.574 20.8972 17.574C18.29 17.574 16.1671 15.4511 16.1671 12.8439C16.1671 10.2367 18.29 8.11385 20.8972 8.11385C21.8591 8.11385 22.7945 8.41238 23.5773 8.95637L26.4233 6.11038H8.06704C7.82158 6.11038 7.62256 6.3094 7.62256 6.55485V19.1197C7.62256 19.3652 7.82158 19.5642 8.06704 19.5642H33.734C33.9794 19.5642 34.1784 19.3652 34.1784 19.1197V11.7029C34.1121 11.7029 34.0524 11.7161 33.986 11.7161C32.5863 11.7161 31.2528 11.2849 30.1715 10.4225ZM11.8948 15.5307C10.4155 15.5307 9.20808 14.3233 9.20808 12.8439C9.20808 11.3645 10.4155 10.1571 11.8948 10.1571C13.3742 10.1571 14.5816 11.3645 14.5816 12.8439C14.5816 14.3233 13.3742 15.5307 11.8948 15.5307Z" fill="white"/>
<path d="M38.4242 0.929199H41.9999V8.73082H38.4242V0.929199ZM30.1715 10.4225L26.1845 14.4095C25.866 14.728 25.468 14.9535 25.0434 15.0928C24.2208 16.6054 22.6353 17.574 20.8972 17.574C18.29 17.574 16.1671 15.4511 16.1671 12.8439C16.1671 10.2367 18.29 8.11385 20.8972 8.11385C21.8591 8.11385 22.7945 8.41238 23.5773 8.95637L26.4233 6.11038H8.06704C7.82158 6.11038 7.62256 6.3094 7.62256 6.55485V19.1197C7.62256 19.3652 7.82158 19.5642 8.06704 19.5642H33.734C33.9794 19.5642 34.1784 19.3652 34.1784 19.1197V11.7029C34.1121 11.7029 34.0524 11.7161 33.986 11.7161C32.5863 11.7161 31.2528 11.2849 30.1715 10.4225ZM11.8948 15.5307C10.4155 15.5307 9.20808 14.3233 9.20808 12.8439C9.20808 11.3645 10.4155 10.1571 11.8948 10.1571C13.3742 10.1571 14.5816 11.3645 14.5816 12.8439C14.5816 14.3233 13.3742 15.5307 11.8948 15.5307Z" fill="url(#paint4_linear_90_2471)"/>
<defs>
<linearGradient id="paint0_linear_90_2471" x1="4.19946" y1="22.5762" x2="34.8143" y2="27.0098" gradientUnits="userSpaceOnUse">
<stop stop-color="#161629"/>
<stop offset="1" stop-color="#474784"/>
</linearGradient>
<linearGradient id="paint1_linear_90_2471" x1="0" y1="9.44043" x2="29.7565" y2="12.013" gradientUnits="userSpaceOnUse">
<stop stop-color="#161629"/>
<stop offset="1" stop-color="#474784"/>
</linearGradient>
<linearGradient id="paint2_linear_90_2471" x1="20.0015" y1="0.929199" x2="37.6346" y2="3.20225" gradientUnits="userSpaceOnUse">
<stop stop-color="#161629"/>
<stop offset="1" stop-color="#474784"/>
</linearGradient>
<linearGradient id="paint3_linear_90_2471" x1="10.5349" y1="11.4839" x2="13.3609" y2="11.7607" gradientUnits="userSpaceOnUse">
<stop stop-color="#161629"/>
<stop offset="1" stop-color="#474784"/>
</linearGradient>
<linearGradient id="paint4_linear_90_2471" x1="7.62256" y1="0.929199" x2="42.5433" y2="7.23945" gradientUnits="userSpaceOnUse">
<stop stop-color="#161629"/>
<stop offset="1" stop-color="#474784"/>
</linearGradient>
</defs>
</svg>
