<svg width="42" height="42" viewBox="0 0 42 42" fill="none" xmlns="http://www.w3.org/2000/svg">
<path d="M20.995 9.83936C14.8409 9.83936 9.83423 14.8461 9.83423 21.0001C9.83423 27.1542 14.8409 32.1609 20.995 32.1609C27.1491 32.1609 32.1558 27.1542 32.1558 21.0001C32.1558 14.8461 27.1491 9.83936 20.995 9.83936ZM19.2542 26.4403L14.4669 21.653L16.2077 19.9121L19.2542 22.9586L25.7824 16.4304L27.5233 18.1712L19.2542 26.4403Z" fill="white"/>
<path d="M20.995 9.83936C14.8409 9.83936 9.83423 14.8461 9.83423 21.0001C9.83423 27.1542 14.8409 32.1609 20.995 32.1609C27.1491 32.1609 32.1558 27.1542 32.1558 21.0001C32.1558 14.8461 27.1491 9.83936 20.995 9.83936ZM19.2542 26.4403L14.4669 21.653L16.2077 19.9121L19.2542 22.9586L25.7824 16.4304L27.5233 18.1712L19.2542 26.4403Z" fill="url(#paint0_linear_90_2477)"/>
<path d="M39.7122 15.4677C38.6995 14.455 38.1418 13.1087 38.1418 11.6766C38.1418 7.36266 34.6321 3.85301 30.3183 3.85301C28.8861 3.85301 27.5398 3.2953 26.5271 2.2827C25.0495 0.805046 23.0848 -0.00878906 20.9951 -0.00878906C18.9054 -0.00878906 16.9407 0.805046 15.463 2.2827C14.4504 3.2953 13.104 3.85301 11.6718 3.85301C7.35789 3.85301 3.84832 7.36266 3.84832 11.6766C3.84832 13.1087 3.29061 14.455 2.27793 15.4677C-0.772331 18.5181 -0.772331 23.4814 2.27793 26.5318C3.29061 27.5445 3.84832 28.8908 3.84832 30.3229C3.84832 34.6368 7.35797 38.1465 11.6718 38.1465C13.104 38.1465 14.4503 38.7042 15.463 39.7168C16.9407 41.1945 18.9054 42.0083 20.9951 42.0083C23.0848 42.0083 25.0495 41.1945 26.5271 39.7168C27.5397 38.7042 28.8861 38.1465 30.3183 38.1465C34.6322 38.1465 38.1418 34.6368 38.1418 30.3229C38.1418 28.8908 38.6995 27.5445 39.7122 26.5318C42.7625 23.4814 42.7625 18.5181 39.7122 15.4677ZM34.6178 20.9998C34.6178 28.5113 28.5067 34.6225 20.9951 34.6225C13.4834 34.6225 7.37234 28.5113 7.37234 20.9998C7.37234 13.4882 13.4834 7.37703 20.9951 7.37703C28.5067 7.37703 34.6178 13.4882 34.6178 20.9998Z" fill="white"/>
<path d="M39.7122 15.4677C38.6995 14.455 38.1418 13.1087 38.1418 11.6766C38.1418 7.36266 34.6321 3.85301 30.3183 3.85301C28.8861 3.85301 27.5398 3.2953 26.5271 2.2827C25.0495 0.805046 23.0848 -0.00878906 20.9951 -0.00878906C18.9054 -0.00878906 16.9407 0.805046 15.463 2.2827C14.4504 3.2953 13.104 3.85301 11.6718 3.85301C7.35789 3.85301 3.84832 7.36266 3.84832 11.6766C3.84832 13.1087 3.29061 14.455 2.27793 15.4677C-0.772331 18.5181 -0.772331 23.4814 2.27793 26.5318C3.29061 27.5445 3.84832 28.8908 3.84832 30.3229C3.84832 34.6368 7.35797 38.1465 11.6718 38.1465C13.104 38.1465 14.4503 38.7042 15.463 39.7168C16.9407 41.1945 18.9054 42.0083 20.9951 42.0083C23.0848 42.0083 25.0495 41.1945 26.5271 39.7168C27.5397 38.7042 28.8861 38.1465 30.3183 38.1465C34.6322 38.1465 38.1418 34.6368 38.1418 30.3229C38.1418 28.8908 38.6995 27.5445 39.7122 26.5318C42.7625 23.4814 42.7625 18.5181 39.7122 15.4677ZM34.6178 20.9998C34.6178 28.5113 28.5067 34.6225 20.9951 34.6225C13.4834 34.6225 7.37234 28.5113 7.37234 20.9998C7.37234 13.4882 13.4834 7.37703 20.9951 7.37703C28.5067 7.37703 34.6178 13.4882 34.6178 20.9998Z" fill="url(#paint1_linear_90_2477)"/>
<defs>
<linearGradient id="paint0_linear_90_2477" x1="9.83423" y1="9.83936" x2="33.0265" y2="12.1111" gradientUnits="userSpaceOnUse">
<stop stop-color="#161629"/>
<stop offset="1" stop-color="#474784"/>
</linearGradient>
<linearGradient id="paint1_linear_90_2477" x1="-0.00976562" y1="-0.00878906" x2="43.6388" y2="4.26599" gradientUnits="userSpaceOnUse">
<stop stop-color="#161629"/>
<stop offset="1" stop-color="#474784"/>
</linearGradient>
</defs>
</svg>
