<svg width="177" height="60" viewBox="0 0 177 60" fill="none" xmlns="http://www.w3.org/2000/svg">
<rect x="0.893136" y="0.535714" width="174.643" height="58.9286" rx="5.89286" fill="#F8FAFC" stroke="#F1F5F9" stroke-width="1.07143"/>
<g clip-path="url(#clip0_192_437)">
<path d="M23.9046 25.0209C23.8075 24.6131 23.8303 24.1823 23.8843 23.9581C24.0214 23.3133 24.4553 22.5941 25.7207 22.5941C26.8943 22.5941 27.5854 23.3299 27.5854 24.4323C27.5854 24.8061 27.5854 25.6848 27.5854 25.6848H32.5903V24.2633C32.5903 19.8609 28.6548 19.1592 25.8178 19.1592C22.2537 19.1592 19.3413 20.3525 18.8087 23.6572C18.6631 24.5644 18.6379 25.3627 18.8487 26.3852C19.7177 30.523 26.8488 31.7194 27.8864 34.3375C28.0808 34.8242 28.0218 35.4493 27.9256 35.832C27.7611 36.5125 27.3082 37.199 25.9661 37.199C24.7125 37.199 23.9627 36.4624 23.9627 35.3561L23.9556 33.409H18.5713V34.9563C18.5713 39.4812 22.0947 40.8421 25.8655 40.8421C29.4906 40.8421 32.468 39.5959 32.9538 36.2089C33.195 34.463 33.0141 33.3269 32.9327 32.8961C32.0856 28.648 24.4756 27.39 23.9046 25.0209ZM89.1605 25.0704C89.0711 24.6706 89.0972 24.2462 89.1432 24.0242C89.2866 23.3763 89.7184 22.6699 90.9619 22.6699C92.1206 22.6699 92.7999 23.3984 92.7999 24.4923C92.7999 24.8614 92.7999 25.7299 92.7999 25.7299H97.747V24.3192C97.747 19.9585 93.871 19.2734 91.0647 19.2734C87.5302 19.2734 84.6439 20.4485 84.1167 23.7297C83.9772 24.6228 83.9429 25.4152 84.1644 26.4269C85.0238 30.518 92.0855 31.705 93.1102 34.2922C93.2912 34.7821 93.2394 35.4073 93.147 35.7753C92.9935 36.4486 92.5444 37.126 91.2132 37.126C89.9645 37.126 89.2129 36.4021 89.2129 35.3108L89.2115 33.3684H83.8867V34.9126C83.8867 39.3861 87.3608 40.736 91.1028 40.736C94.6865 40.736 97.6464 39.5008 98.1212 36.1525C98.3476 34.4227 98.1768 33.2957 98.0858 32.8715C97.2563 28.6748 89.7299 27.4129 89.1605 25.0704ZM134.723 36.0977L129.997 19.8037H122.551V39.8307H127.477L127.191 23.0152L132.265 39.8307H139.407V19.8037H134.449L134.723 36.0977ZM40.0531 19.8037L36.3361 40.0417H41.7563L44.5571 21.3065L47.2908 40.0417H52.6734L48.9723 19.8037H40.0531ZM70.3606 19.8037L67.8292 35.6235L65.2992 19.8037H57.1133L56.6793 40.0417H61.6944L61.8301 21.3065L65.2806 40.0417H70.3686L73.8221 21.3065L73.9584 40.0417H78.986L78.537 19.8037H70.3606ZM116.988 19.8037H111.913V34.7755C111.921 35.0362 111.913 35.3293 111.868 35.5444C111.762 36.0471 111.34 37.0143 109.94 37.0143C108.558 37.0143 108.125 36.0471 108.027 35.5444C107.976 35.3296 107.97 35.0362 107.976 34.7755V19.8037H102.903V34.311C102.896 34.6848 102.925 35.449 102.947 35.6489C103.297 39.4295 106.251 40.6566 109.94 40.6566C113.636 40.6566 116.588 39.4292 116.944 35.6489C116.973 35.449 117.009 34.6848 116.987 34.311L116.988 19.8037ZM151.831 28.682V31.6336H153.888V34.5623C153.894 34.8239 153.88 35.1059 153.835 35.3321C153.754 35.8782 153.239 36.8083 151.779 36.8083C150.328 36.8083 149.823 35.8782 149.735 35.3321C149.698 35.1062 149.682 34.8239 149.682 34.5623V25.3126C149.682 24.9855 149.704 24.6275 149.773 24.3565C149.873 23.8632 150.306 22.8913 151.768 22.8913C153.303 22.8913 153.686 23.9163 153.774 24.3565C153.832 24.6479 153.835 25.1373 153.835 25.1373V26.2602H158.889V25.5963C158.889 25.5963 158.911 24.9034 158.85 24.257C158.47 20.4607 155.369 19.2595 151.813 19.2595C148.251 19.2595 145.212 20.4717 144.769 24.257C144.729 24.6031 144.668 25.2258 144.668 25.5963V34.105C144.668 34.4755 144.68 34.7625 144.748 35.4396C145.078 39.1317 148.25 40.4404 151.799 40.4404C155.369 40.4404 158.519 39.1317 158.855 35.4396C158.914 34.7625 158.921 34.4755 158.929 34.105V28.6823L151.831 28.682Z" fill="#1528A1"/>
</g>
<defs>
<clipPath id="clip0_192_437">
<rect width="140.357" height="34.2857" fill="white" transform="translate(18.5713 12.8572)"/>
</clipPath>
</defs>
</svg>
